<?xml version="1.0" standalone="no"?>
<!DOCTYPE svg PUBLIC "-//W3C//DTD SVG 1.1//EN" "http://www.w3.org/Graphics/SVG/1.1/DTD/svg11.dtd" >
<svg>
<metadata>
Created by FontForge 20120731 at Fri Jun  1 03:25:26 2018
 By www
 Copyright (c)2012 Talbot Type. All Rights Reserved
</metadata>
<defs>
<font id="Kessel205W00-Thin" horiz-adv-x="693" >
  <font-face 
    font-family="Kessel205W00-Thin"
    font-weight="100"
    font-stretch="normal"
    units-per-em="1000"
    panose-1="0 0 0 0 0 0 0 0 0 0"
    ascent="750"
    descent="-250"
    x-height="579"
    cap-height="750"
    bbox="-36 -188 1346 960"
    underline-thickness="50"
    underline-position="-100"
    unicode-range="U+0020-FB02"
  />
<missing-glyph horiz-adv-x="191" 
 />
    <glyph glyph-name=".notdef" horiz-adv-x="191" 
 />
    <glyph glyph-name=".null" horiz-adv-x="0" 
 />
    <glyph glyph-name="nonmarkingreturn" horiz-adv-x="333" 
 />
    <glyph glyph-name="space" unicode=" " horiz-adv-x="270" 
 />
    <glyph glyph-name="exclam" unicode="!" horiz-adv-x="137" 
d="M62 170l-2 580h17l-2 -580h-13zM54 7q0 6 4.5 10.5t10.5 4.5t10.5 -4.5t4.5 -10.5t-4.5 -10.5t-10.5 -4.5t-10.5 4.5t-4.5 10.5z" />
    <glyph glyph-name="quotedbl" unicode="&#x22;" horiz-adv-x="147" 
d="M50 628v122h15v-122h-15zM97 750v-122h-15v122h15z" />
    <glyph glyph-name="numbersign" unicode="#" horiz-adv-x="620" 
d="M250 452l-33 -154h153l34 154h-154zM388 298h212v-17h-215l-61 -281h-16l58 281h-152l-60 -281h-17l60 281h-177v17h181l32 154h-213v17h217l60 281h17l-60 -281h153l59 281h17l-59 -281h176v-17h-179z" />
    <glyph glyph-name="dollar" unicode="$" horiz-adv-x="481" 
d="M424 566q0 38 -14.5 71.5t-39 58.5t-58 39.5t-71.5 14.5t-71.5 -14.5t-58.5 -39.5t-39.5 -58.5t-14.5 -71.5t14.5 -71t39.5 -58t58.5 -39t71.5 -14q42 0 78.5 -16t63.5 -43.5t42.5 -64t15.5 -77.5q0 -40 -15 -75.5t-41 -62.5t-61 -43.5t-74 -18.5v-51h-17v51
q-40 2 -75 18.5t-61.5 43.5t-41.5 62.5t-15 75.5h17q0 -38 14.5 -71.5t39.5 -58t58.5 -39t71.5 -14.5t71.5 14.5t58 39t39 58t14.5 71.5t-14.5 71.5t-39 58.5t-58 39.5t-71.5 14.5q-41 0 -77.5 15.5t-64 42.5t-43.5 63.5t-16 77.5q0 40 15 76t41.5 63t61.5 43.5t75 18.5v50
h17v-50q39 -2 74 -18.5t61 -43.5t41 -63t15 -76h-17z" />
    <glyph glyph-name="percent" unicode="%" horiz-adv-x="556" 
d="M313 630q0 -28 -10.5 -53t-29 -43.5t-43.5 -29t-53 -10.5q-29 0 -53.5 10.5t-43.5 29t-29.5 43.5t-10.5 53t10.5 53t29.5 44t43.5 29.5t53.5 10.5q36 0 66 -17t48 -46q9 -14 24.5 -22.5t32.5 -8.5q20 0 36.5 11.5t25.5 28.5l22 54l15 -7l-323 -777l-15 7l282 678
q-9 -5 -20.5 -8.5t-22.5 -3.5q-21 0 -40 11q3 -9 4 -18t1 -19zM243 119q0 28 10.5 53t29.5 44t43.5 29.5t53.5 10.5q28 0 53 -10.5t43.5 -29.5t29 -44t10.5 -53t-10.5 -53t-29 -43.5t-43.5 -29t-53 -10.5q-29 0 -53.5 10.5t-43.5 29t-29.5 43.5t-10.5 53zM296 630
q0 25 -9.5 46.5t-25.5 38t-38 26t-46 9.5q-25 0 -46.5 -9.5t-38 -26t-26 -38t-9.5 -46.5q0 -24 9.5 -46t26 -38t38 -25.5t46.5 -9.5q24 0 46 9.5t38 25.5t25.5 38t9.5 46zM260 119q0 -25 9.5 -46.5t26 -37.5t38 -25.5t46.5 -9.5q24 0 46 9.5t38 25.5t25.5 37.5t9.5 46.5
t-9.5 46.5t-25.5 37.5t-38 25.5t-46 9.5q-25 0 -46.5 -9.5t-38 -25.5t-26 -37.5t-9.5 -46.5z" />
    <glyph glyph-name="ampersand" unicode="&#x26;" horiz-adv-x="642" 
d="M525 107q0 -37 26 -63.5t63 -26.5v-17q-21 0 -40.5 8.5t-33.5 23t-22.5 34t-8.5 41.5v29q-14 -33 -36.5 -61.5t-52 -48.5t-64.5 -31.5t-73 -11.5q-50 0 -94.5 19t-77.5 52t-52 77t-19 95q0 43 14 81.5t39 69.5t59 53t74 32q-45 17 -73 56.5t-28 90.5q0 33 12.5 61.5
t34 50t50 34t61.5 12.5q32 0 60.5 -12.5t50 -34t34 -50t12.5 -61.5t-12.5 -61.5t-34 -49.5t-50 -33.5t-60.5 -12.5q-47 0 -88 -17.5t-71.5 -48.5t-48 -72t-17.5 -88t17.5 -88t48 -72t71.5 -48.5t88 -17.5t88 17.5t72 48.5t48.5 72t17.5 88v136q0 22 8.5 41.5t22.5 34
t33.5 23t40.5 8.5v-17q-37 0 -63 -26.5t-26 -63.5v-255zM283 469q29 0 54.5 11t44.5 30t30 44.5t11 54.5t-11 54.5t-30 45t-44.5 30.5t-54.5 11t-54.5 -11t-45 -30.5t-30.5 -45t-11 -54.5t11 -54.5t30.5 -44.5t45 -30t54.5 -11z" />
    <glyph glyph-name="quotesingle" unicode="'" horiz-adv-x="115" 
d="M50 628v122h15v-122h-15z" />
    <glyph glyph-name="parenleft" unicode="(" horiz-adv-x="270" 
d="M98 289q0 -64 9.5 -128t28 -125t45 -118t59.5 -106h-22q-66 100 -102 224.5t-36 252.5q0 64 9 128t27 125t43.5 118t58.5 107h22q-68 -100 -105 -224.5t-37 -253.5z" />
    <glyph glyph-name="parenright" unicode=")" horiz-adv-x="270" 
d="M172 289q0 129 -37 253.5t-105 224.5h22q33 -50 58.5 -107t43.5 -118t27 -125t9 -128q0 -128 -36 -252.5t-102 -224.5h-22q33 49 59.5 106t45 118t28 125t9.5 128z" />
    <glyph glyph-name="asterisk" unicode="*" horiz-adv-x="361" 
d="M80 686l9 16l85 -52l-1 100h17l-3 -100l85 52l9 -16l-87 -47l87 -48l-9 -16l-85 52l3 -100h-17l1 100l-85 -52l-9 16l88 48z" />
    <glyph glyph-name="plus" unicode="+" horiz-adv-x="680" 
d="M332 299v281h17v-281h281v-17h-281v-282h-17v282h-282v17h282z" />
    <glyph glyph-name="comma" unicode="," horiz-adv-x="160" 
d="M45 -71q5 0 9.5 4t4.5 10v49h-3q-9 0 -15 6t-6 15q0 8 6 14t15 6q8 0 13.5 -6t5.5 -14v-70q0 -13 -8.5 -22t-21.5 -9h-4v17h4z" />
    <glyph glyph-name="hyphen" unicode="-" horiz-adv-x="464" 
d="M394 299v-17h-324v17h324z" />
    <glyph glyph-name="period" unicode="." horiz-adv-x="160" 
d="M35 12q0 8 6 14t14 6t14 -6t6 -14t-6 -14t-14 -6t-14 6t-6 14z" />
    <glyph glyph-name="slash" unicode="/" horiz-adv-x="461" 
d="M60 -10l325 777l16 -7l-325 -777z" />
    <glyph glyph-name="zero" unicode="0" horiz-adv-x="599" 
d="M547 230q0 -51 -19.5 -96t-53 -78.5t-78.5 -53t-96 -19.5t-96.5 19.5t-79 53t-53 78.5t-19.5 96v289q0 51 19.5 96.5t53 79t79 53t96.5 19.5t96 -19.5t78.5 -53t53 -79t19.5 -96.5v-289zM530 519q0 48 -18 90t-49.5 73.5t-73.5 49.5t-89 18q-48 0 -90 -18t-73.5 -49.5
t-49.5 -73.5t-18 -90v-289q0 -48 18 -89.5t49.5 -73t73.5 -49.5t90 -18q47 0 89 18t73.5 49.5t49.5 73t18 89.5v289z" />
    <glyph glyph-name="one" unicode="1" horiz-adv-x="256" 
d="M40 675v21l156 90v-786h-17v756z" />
    <glyph glyph-name="two" unicode="2" horiz-adv-x="591" 
d="M104 16h424v-16h-471l392 330q38 32 61.5 79.5t23.5 103.5q0 49 -19 92.5t-51 75.5t-76 51t-93 19t-92.5 -19t-75.5 -51t-51 -75.5t-19 -92.5q0 -51 18.5 -94.5t51.5 -75.5l-12 -12q-35 35 -55 81.5t-20 100.5q0 52 20 98.5t54.5 81t81 54.5t99.5 20t100 -20t81.5 -54.5
t54.5 -81t20 -98.5q0 -60 -24.5 -110.5t-66.5 -85.5z" />
    <glyph glyph-name="three" unicode="3" horiz-adv-x="589" 
d="M461 733h-371v17h416l-302 -272q43 17 90 17q53 0 99.5 -20.5t81 -55t54.5 -81.5t20 -99q0 -53 -20 -99.5t-54.5 -81.5t-81 -55t-99.5 -20t-100 20t-81.5 55t-54.5 81.5t-20 99.5h17q0 -50 19 -93.5t51 -76t75.5 -51.5t93.5 -19q49 0 92.5 19t75.5 51.5t51 76t19 93.5
q0 49 -19 92.5t-51 76t-75.5 51t-92.5 18.5q-50 0 -93 -19t-75 -51l-13 12l1 1l18 17z" />
    <glyph glyph-name="four" unicode="4" horiz-adv-x="592" 
d="M40 213h362v519zM8 196l411 590v-573h145v-17h-145v-196h-17v196h-394z" />
    <glyph glyph-name="five" unicode="5" horiz-adv-x="589" 
d="M531 239q0 49 -18.5 92.5t-51 75.5t-76 51t-92.5 19q-59 0 -109 -26t-82 -71l-17 4l65 366h324v-16h-310l-56 -320q35 37 83 58t102 21q53 0 100 -20t81.5 -54.5t54.5 -81t20 -98.5q0 -53 -20 -100t-54.5 -81.5t-81.5 -54.5t-100 -20t-99.5 20t-81 54.5t-54.5 81.5
t-20 100h17q0 -50 19 -93.5t51 -76t75.5 -51.5t92.5 -19t92.5 19t76 51.5t51 76t18.5 93.5z" />
    <glyph glyph-name="six" unicode="6" horiz-adv-x="591" 
d="M295 477q-49 0 -92 -19t-75.5 -51t-51 -75.5t-18.5 -92.5q0 -50 18.5 -93.5t51 -76t75.5 -51.5t92 -19t92.5 19t76 51.5t51 76t18.5 93.5q0 49 -18.5 92.5t-51 75.5t-76 51t-92.5 19zM295 493q53 0 100 -20t81.5 -54.5t54.5 -81t20 -98.5q0 -53 -20 -100t-54.5 -81.5
t-81.5 -54.5t-100 -20t-99.5 20t-81 54.5t-54.5 81.5t-20 100q0 39 11.5 75.5t31.5 67.5l246 368h20l-201 -303q31 23 68.5 34.5t78.5 11.5z" />
    <glyph glyph-name="seven" unicode="7" horiz-adv-x="538" 
d="M26 733v17h490l-312 -750h-18l305 733h-465z" />
    <glyph glyph-name="eight" unicode="8" horiz-adv-x="566" 
d="M509 226q0 47 -17.5 88t-48.5 72t-72 48.5t-88 17.5t-88 -17.5t-72 -48.5t-48.5 -72t-17.5 -88t17.5 -88.5t48.5 -72t72 -48.5t88 -18t88 18t72 48.5t48.5 72t17.5 88.5zM283 469q29 0 55 11t45 30t30 44.5t11 54.5t-11 54.5t-30 45t-45 31t-55 11.5t-54.5 -11.5t-45 -31
t-30.5 -45t-11 -54.5t11 -54.5t30.5 -44.5t45 -30t54.5 -11zM339 462q40 -10 74.5 -32t59.5 -53t39 -69.5t14 -81.5q0 -51 -19 -95t-52 -77t-77 -52t-95 -19q-50 0 -94 19t-77 52t-52.5 77t-19.5 95q0 43 14 81.5t39 69.5t59.5 53t74.5 32q-45 17 -73 56.5t-28 90.5
q0 33 12.5 61.5t33.5 50t49.5 34t61.5 12.5t61.5 -12.5t49.5 -34t33.5 -50t12.5 -61.5q0 -51 -28 -90.5t-73 -56.5z" />
    <glyph glyph-name="nine" unicode="9" horiz-adv-x="591" 
d="M296 273q49 0 92 19t75.5 51t51 75.5t18.5 92.5q0 50 -18.5 93.5t-51 76t-75.5 51.5t-92 19q-50 0 -93 -19t-75.5 -51.5t-51 -76t-18.5 -93.5q0 -49 18.5 -92.5t51 -75.5t75.5 -51t93 -19zM296 257q-53 0 -100 20t-81.5 54.5t-54.5 80.5t-20 99t20 100t54.5 81.5
t81.5 54.5t100 20t99.5 -20t81 -54.5t54.5 -81.5t20 -100q0 -39 -11.5 -75.5t-31.5 -67.5l-246 -368h-20l201 303q-31 -23 -68.5 -34.5t-78.5 -11.5z" />
    <glyph glyph-name="colon" unicode=":" horiz-adv-x="160" 
d="M35 12q0 8 6 14t14 6t14 -6t6 -14t-6 -14t-14 -6t-14 6t-6 14zM35 566q0 8 6 14t14 6t14 -6t6 -14t-6 -14t-14 -6t-14 6t-6 14z" />
    <glyph glyph-name="semicolon" unicode=";" horiz-adv-x="160" 
d="M45 -71q5 0 9.5 4t4.5 10v49h-3q-9 0 -15 6t-6 15q0 8 6 14t15 6q8 0 13.5 -6t5.5 -14v-70q0 -13 -8.5 -22t-21.5 -9h-4v17h4zM35 566q0 8 6 14t14 6t14 -6t6 -14t-6 -14t-14 -6t-14 6t-6 14z" />
    <glyph glyph-name="less" unicode="&#x3c;" horiz-adv-x="422" 
d="M40 281v16l342 282v-22l-325 -268l325 -268v-22z" />
    <glyph glyph-name="equal" unicode="=" horiz-adv-x="680" 
d="M50 213h580v-17h-580v17zM630 367h-580v17h580v-17z" />
    <glyph glyph-name="greater" unicode="&#x3e;" horiz-adv-x="422" 
d="M40 -1v22l325 268l-325 268v22l342 -282v-16z" />
    <glyph glyph-name="question" unicode="?" horiz-adv-x="503" 
d="M40 590q7 37 25.5 69.5t46.5 56.5t63 37.5t75 13.5q44 0 83 -17t68 -46t45.5 -68t16.5 -83t-16.5 -82.5t-45.5 -67.5t-68 -46t-83 -17q-32 0 -54.5 -21.5t-22.5 -53.5q0 -33 22.5 -55t54.5 -22q15 0 27 4l5 -16q-13 -5 -32 -5t-36 7t-29.5 20t-20 30t-7.5 37q0 19 7.5 36
t20 29.5t29.5 19.5t36 7q40 0 76 15.5t62.5 42t42 62t15.5 76.5q0 40 -15.5 76t-42 62.5t-62.5 42t-76 15.5q-36 0 -68.5 -12.5t-58 -34t-43 -51t-23.5 -63.5zM266 7q0 -15 -16 -15q-6 0 -10.5 4t-4.5 11q0 6 4.5 10.5t10.5 4.5q7 0 11.5 -4.5t4.5 -10.5z" />
    <glyph glyph-name="at" unicode="@" horiz-adv-x="874" 
d="M636 375q0 42 -16 79.5t-43.5 65t-65 43.5t-79.5 16t-79.5 -16t-65 -43.5t-43.5 -65t-16 -79.5t16 -79.5t43.5 -65t65 -43.5t79.5 -16t79.5 16t65 43.5t43.5 65t16 79.5zM824 248q0 -40 -27.5 -67t-66.5 -27t-66.5 27t-27.5 67v42q-25 -61 -79.5 -98.5t-124.5 -37.5
q-46 0 -86.5 17t-70.5 47t-47 70.5t-17 86.5t17 86.5t47 70.5t70.5 47t86.5 17t86.5 -17t70.5 -47t47 -70.5t17 -86.5v-127q0 -33 22.5 -55t54.5 -22t54.5 22t22.5 55v127q0 78 -29.5 146t-80.5 119t-119 80.5t-146 29.5t-146 -29.5t-119 -80.5t-80.5 -119t-29.5 -146
t29.5 -146t80.5 -119t119 -80.5t146 -29.5q91 0 168 40l7 -16q-39 -20 -83 -30.5t-92 -10.5q-81 0 -152.5 31t-124.5 84t-84 124.5t-31 152.5t31 152.5t84 124.5t124.5 84t152.5 31t152.5 -31t124.5 -84t84 -124.5t31 -152.5v-127z" />
    <glyph glyph-name="A" unicode="A" horiz-adv-x="677" 
d="M662 0h-20l-44 106h-520l-43 -106h-20l323 786zM85 123h506l-253 617z" />
    <glyph glyph-name="B" unicode="B" horiz-adv-x="662" 
d="M622 239q0 -50 -19 -93.5t-51.5 -75.5t-76 -51t-92.5 -19h-323v750h271q30 0 57 -11.5t46.5 -31t31 -46t11.5 -56.5q0 -43 -23.5 -77t-59.5 -51q47 -2 88.5 -21.5t72.5 -51.5t49 -74.5t18 -90.5zM605 239q0 46 -17.5 86t-47.5 70t-70.5 47.5t-86.5 17.5h-306v-443h306
q46 0 86.5 17.5t70.5 47.5t47.5 70.5t17.5 86.5zM77 477h254q27 0 50.5 10t41 27.5t27.5 41t10 49.5t-10 49.5t-27.5 41t-41 27.5t-50.5 10h-254v-256z" />
    <glyph glyph-name="C" unicode="C" horiz-adv-x="739" 
d="M692 639q-51 52 -119 81.5t-146 29.5t-146 -29.5t-118.5 -80.5t-80 -119t-29.5 -146t29.5 -146t80 -119t118.5 -80.5t146 -29.5t146 29t119 80l12 -12q-54 -54 -125 -84t-152 -30t-152.5 31t-125 84t-84 124.5t-30.5 152.5t30.5 152.5t84 124.5t125 84t152.5 31t152 -31
t125 -85z" />
    <glyph glyph-name="D" unicode="D" horiz-adv-x="726" 
d="M691 375q0 -77 -29.5 -145.5t-80.5 -119.5t-119.5 -80.5t-145.5 -29.5h-256v750h256q77 0 145.5 -29.5t119.5 -80.5t80.5 -119t29.5 -146zM673 375q0 74 -28 139t-76.5 114t-113.5 77t-139 28h-239v-716h239q74 0 139 28t113.5 76.5t76.5 114t28 139.5z" />
    <glyph glyph-name="E" unicode="E" horiz-adv-x="641" 
d="M606 17v-17h-546v750h546v-17h-529v-520h460v-17h-460v-179h529z" />
    <glyph glyph-name="F" unicode="F" horiz-adv-x="603" 
d="M76 732v-519h444v-17h-444v-196h-16v750h528v-18h-512z" />
    <glyph glyph-name="G" unicode="G" horiz-adv-x="775" 
d="M725 120q-54 -63 -131 -100t-167 -37q-81 0 -152.5 31t-124.5 84t-84 124.5t-31 152.5t31 152.5t84 124.5t124.5 84t152.5 31t152.5 -31t125.5 -85l-12 -12q-52 52 -120 81.5t-146 29.5t-146 -29.5t-118.5 -80.5t-80 -119t-29.5 -146t29.5 -146t80 -119t118.5 -80.5
t146 -29.5q85 0 157.5 34t123.5 92v335h-281v17h298v-358z" />
    <glyph glyph-name="H" unicode="H" horiz-adv-x="700" 
d="M623 0v196h-546v-196h-17v750h17v-537h546v537h17v-750h-17z" />
    <glyph glyph-name="I" unicode="I" horiz-adv-x="137" 
d="M60 750h17v-750h-17v750z" />
    <glyph glyph-name="J" unicode="J" horiz-adv-x="429" 
d="M369 188q0 -42 -16 -79.5t-44 -65t-65 -43.5t-79 -16t-79.5 15.5t-65.5 44.5l12 12q26 -26 60 -41t73 -15t73 15t59.5 40.5t40 59.5t14.5 73v562h17v-562z" />
    <glyph glyph-name="K" unicode="K" horiz-adv-x="668" 
d="M230 198l-170 -220v772h17v-722l555 722h22l-414 -538l416 -212h-37z" />
    <glyph glyph-name="L" unicode="L" horiz-adv-x="586" 
d="M571 0h-511v750h17v-733h494v-17z" />
    <glyph glyph-name="M" unicode="M" horiz-adv-x="870" 
d="M60 0v786l375 -395l375 395v-786h-17v743l-358 -376l-358 376v-743h-17z" />
    <glyph glyph-name="N" unicode="N" horiz-adv-x="683" 
d="M623 -36l-546 768v-732h-17v786l546 -769v733h17v-786z" />
    <glyph glyph-name="O" unicode="O" horiz-adv-x="854" 
d="M819 375q0 -81 -31 -152.5t-84 -124.5t-124.5 -84t-152.5 -31t-152.5 31t-124.5 84t-84 124.5t-31 152.5q0 77 28 145t77 121q54 58 127.5 92t159.5 34q81 0 152.5 -31t124.5 -84t84 -124.5t31 -152.5zM801 375q0 78 -29.5 146t-80 119t-118.5 80.5t-146 29.5t-146 -29.5
t-118.5 -80.5t-80 -119t-29.5 -146t29.5 -146t80 -119t118.5 -80.5t146 -29.5t146 29.5t118.5 80.5t80 119t29.5 146z" />
    <glyph glyph-name="P" unicode="P" horiz-adv-x="657" 
d="M622 472q0 -57 -22 -107.5t-59.5 -88t-87.5 -59t-107 -21.5h-269v-196h-17v750h286q57 0 107 -22t87.5 -59.5t59.5 -88t22 -108.5zM605 472q0 54 -20.5 102t-55.5 83t-82 55.5t-101 20.5h-269v-520h269q54 0 101 20.5t82 55.5t55.5 82t20.5 101z" />
    <glyph glyph-name="Q" unicode="Q" horiz-adv-x="854" 
d="M819 375q0 -80 -28.5 -149t-79.5 -123l103 -103v-23l-115 114q-54 -51 -123 -79.5t-149 -28.5q-81 0 -152.5 31t-124.5 84t-84 124.5t-31 152.5t31 152.5t84 124.5t124.5 84t152.5 31t152.5 -31t124.5 -84t84 -124.5t31 -152.5zM801 375q0 78 -29.5 146t-80 119
t-118.5 80.5t-146 29.5t-146 -29.5t-118.5 -80.5t-80 -119t-29.5 -146q0 -65 21 -124t58.5 -107t89 -82t111.5 -50q-33 23 -53 59t-20 79q0 35 13 65.5t35.5 53t53 35.5t65.5 13t65.5 -13t53.5 -36l153 -153q48 51 75 117.5t27 142.5zM427 0q76 0 142.5 27.5t117.5 75.5
l-154 153q-42 44 -106 44q-31 0 -58.5 -12t-47.5 -32t-32 -47.5t-12 -58.5t12 -58.5t32 -47.5t47.5 -32t58.5 -12z" />
    <glyph glyph-name="R" unicode="R" horiz-adv-x="662" 
d="M605 472q0 54 -20.5 102t-55.5 83t-82 55.5t-101 20.5h-269v-520h269q54 0 101 20.5t82 55.5t55.5 82t20.5 101zM622 472q0 -50 -17 -95t-47 -81t-70.5 -61t-88.5 -34l101 -201h-20l-99 198q-8 -1 -17 -1.5t-18 -0.5h-269v-196h-17v750h286q57 0 107 -22t87.5 -59.5
t59.5 -88t22 -108.5z" />
    <glyph glyph-name="S" unicode="S" horiz-adv-x="566" 
d="M526 226q0 -51 -19 -95t-52 -77t-77 -52t-95 -19q-50 0 -94 19t-77 52t-52.5 77t-19.5 95h17q0 -47 18 -88t48.5 -72t71.5 -48.5t88 -17.5t88 17.5t72 48.5t48.5 72t17.5 88t-17.5 88t-48.5 72t-72 48.5t-88 17.5q-32 0 -60.5 12.5t-50 33.5t-34 49.5t-12.5 61.5
t12.5 61.5t34 50t50 34t60.5 12.5q33 0 62 -12.5t50 -34t33.5 -50t12.5 -61.5h-17q0 29 -11 54.5t-30 45t-45 30.5t-55 11t-54.5 -11t-44.5 -30.5t-30 -45t-11 -54.5t11 -54.5t30 -44.5t44.5 -30t54.5 -11q51 0 95 -19.5t77 -52.5t52 -77t19 -94z" />
    <glyph glyph-name="T" unicode="T" horiz-adv-x="609" 
d="M313 733v-733h-17v733h-281v17h579v-17h-281z" />
    <glyph glyph-name="U" unicode="U" horiz-adv-x="699" 
d="M639 273q0 -60 -22.5 -113t-62 -92t-92 -62t-112.5 -23t-113 23t-92 62t-62 92t-23 113v477h17v-477q0 -57 21.5 -106.5t58.5 -86.5t86.5 -58.5t106.5 -21.5q56 0 105.5 21.5t86.5 58.5t58.5 86.5t21.5 106.5v477h17v-477z" />
    <glyph glyph-name="V" unicode="V" horiz-adv-x="678" 
d="M15 750h19l306 -742l305 742h18l-323 -786z" />
    <glyph glyph-name="W" unicode="W" horiz-adv-x="929" 
d="M617 -36l-152 407l-154 -407l-296 786h18l278 -738l144 383l-133 355h19l124 -331l124 331h18l-134 -355l144 -383l278 738h19z" />
    <glyph glyph-name="X" unicode="X" horiz-adv-x="617" 
d="M602 750l-282 -375l282 -375h-21l-272 361l-273 -361h-21l283 375l-283 375h21l273 -361l272 361h21z" />
    <glyph glyph-name="Y" unicode="Y" horiz-adv-x="635" 
d="M15 750h19l284 -534l283 534h19l-293 -554v-196h-17v196z" />
    <glyph glyph-name="Z" unicode="Z" horiz-adv-x="614" 
d="M602 750l-555 -733h541v-17h-576l554 733h-541v17h577z" />
    <glyph glyph-name="bracketleft" unicode="[" horiz-adv-x="247" 
d="M217 -154v-17h-137v921h137v-17h-120v-887h120z" />
    <glyph glyph-name="backslash" unicode="\" horiz-adv-x="461" 
d="M385 -17l-325 777l16 7l325 -777z" />
    <glyph glyph-name="bracketright" unicode="]" horiz-adv-x="247" 
d="M150 -154v887h-120v17h137v-921h-137v17h120z" />
    <glyph glyph-name="asciicircum" unicode="^" horiz-adv-x="597" 
d="M308 750l229 -374h-20l-218 356l-219 -356h-20l231 374h17z" />
    <glyph glyph-name="underscore" unicode="_" horiz-adv-x="519" 
d="M579 -91v-25h-579v25h579z" />
    <glyph glyph-name="grave" unicode="`" horiz-adv-x="351" 
d="M90 740v27l171 -52v-8z" />
    <glyph glyph-name="a" unicode="a" horiz-adv-x="713" 
d="M636 290q0 60 -23 112.5t-62 92t-92 62t-113 22.5t-112.5 -22.5t-91.5 -62t-61.5 -92t-22.5 -112.5t22.5 -113t61.5 -92t91.5 -62t112.5 -23t113 23t92 62t62 92t23 113zM653 0h-17v189q-16 -45 -44 -83t-66 -65t-83.5 -42.5t-96.5 -15.5q-63 0 -119 24t-97.5 65.5
t-65.5 97.5t-24 120q0 63 24 119t65.5 97.5t97.5 65.5t119 24q51 0 96.5 -15t83.5 -42.5t66 -65t44 -82.5v188h17v-579z" />
    <glyph glyph-name="b" unicode="b" horiz-adv-x="714" 
d="M60 0v750h17v-359q16 45 44.5 82.5t66 65t83.5 42.5t96 15q63 0 119 -24t98 -65.5t66 -97.5t24 -119q0 -64 -24 -120t-66 -97.5t-98 -65.5t-119 -24q-50 0 -96 15.5t-83.5 42.5t-66 65t-44.5 83v-189h-17zM77 290q0 -60 23 -113t62 -92t92 -62t113 -23t112.5 23t91.5 62
t62 92t23 113t-23 112.5t-62 92t-91.5 62t-112.5 22.5t-113 -22.5t-92 -62t-62 -92t-23 -112.5z" />
    <glyph glyph-name="c" unicode="c" horiz-adv-x="601" 
d="M553 494q-40 40 -92.5 62.5t-113.5 22.5q-60 0 -112.5 -22.5t-92 -62t-62 -92t-22.5 -112.5t22.5 -113t62 -92t92 -62t112.5 -23q61 0 113.5 22.5t92.5 62.5l12 -12q-43 -42 -98.5 -66t-119.5 -24t-120 24t-97.5 65.5t-65.5 97.5t-24 120q0 63 24 119t65.5 97.5
t97.5 65.5t120 24t119.5 -23.5t98.5 -66.5z" />
    <glyph glyph-name="d" unicode="d" horiz-adv-x="714" 
d="M637 0v189q-16 -45 -44.5 -83t-66 -65t-83 -42.5t-95.5 -15.5q-64 0 -120 24t-98 65.5t-66 97.5t-24 120q0 63 24 119t66 97.5t98 65.5t120 24q50 0 95.5 -15t83 -42.5t66 -65t44.5 -82.5v359h17v-750h-17zM637 290q0 60 -23 112.5t-62 92t-91.5 62t-112.5 22.5
t-113 -22.5t-92 -62t-62 -92t-23 -112.5t23 -113t62 -92t92 -62t113 -23t112.5 23t91.5 62t62 92t23 113z" />
    <glyph glyph-name="e" unicode="e" 
d="M347 579q-60 0 -113 -22.5t-92 -62t-62 -92t-23 -112.5q0 -58 21 -109t59 -90l410 409q-40 37 -91 58t-109 21zM347 0q56 0 105.5 19.5t88 54t63.5 81.5t32 101h17q-6 -58 -32.5 -108t-67.5 -86.5t-93.5 -57.5t-112.5 -21q-64 0 -120 24t-97.5 65.5t-65.5 97.5t-24 120
q0 63 24 119t65.5 97.5t97.5 65.5t120 24q66 0 123.5 -25.5t100.5 -70.5l-12 -12l-410 -409q38 -37 89 -58t109 -21z" />
    <glyph glyph-name="f" unicode="f" horiz-adv-x="308" 
d="M276 213v-17h-171v-196h-17v196h-68v17h68v400q0 28 10.5 53t29 44t43.5 29.5t53 10.5h52v-18h-52q-24 0 -46 -9.5t-38 -25.5t-25.5 -37.5t-9.5 -46.5v-400h171z" />
    <glyph glyph-name="g" unicode="g" horiz-adv-x="713" 
d="M653 119q0 -63 -24 -119t-65.5 -98t-97.5 -66t-119 -24q-66 0 -125.5 16.5t-112.5 47.5l8 16q51 -30 109 -46.5t121 -16.5q60 0 112.5 23t91.5 62t61.5 92t23.5 113l1 70q-16 -45 -44 -83t-66 -65t-83.5 -42.5t-96.5 -15.5q-64 0 -120 24t-97.5 65.5t-65.5 97.5t-24 120
q0 63 24 119t65.5 97.5t97.5 65.5t120 24q51 0 96.5 -15t83.5 -42.5t66 -65t44 -82.5l-1 188h17v-460zM637 290q0 60 -23 112.5t-62 92t-92 62t-113 22.5t-112.5 -22.5t-92 -62t-62 -92t-22.5 -112.5t22.5 -113t62 -92t92 -62t112.5 -23t113 23t92 62t62 92t23 113z" />
    <glyph glyph-name="h" unicode="h" horiz-adv-x="614" 
d="M60 0v750h17v-310q13 34 38 62.5t57.5 49.5t70.5 32.5t77 11.5q51 0 94 -17.5t74 -48.5t48.5 -74t17.5 -94v-362h-17v362q0 47 -16 87t-45 69t-69 45t-87 16q-48 0 -92 -18t-77.5 -49t-53.5 -73t-20 -89v-350h-17z" />
    <glyph glyph-name="i" unicode="i" horiz-adv-x="137" 
d="M77 579v-579h-17v579h17zM56 754q0 13 13 13t13 -13t-13 -13t-13 13z" />
    <glyph glyph-name="j" unicode="j" horiz-adv-x="245" 
d="M-24 -134q14 -17 35.5 -27t46.5 -10q23 0 43 8.5t35 23.5t23.5 35t8.5 43v640h17v-640q0 -26 -10 -49t-27 -40.5t-40 -27.5t-50 -10q-58 0 -94 42zM163 754q0 13 13 13t13 -13t-13 -13t-13 13z" />
    <glyph glyph-name="k" unicode="k" horiz-adv-x="529" 
d="M517 0h-28l-261 198l-152 -198l-16 -22v22v750h17v-720l419 549h21l-280 -366z" />
    <glyph glyph-name="l" unicode="l" horiz-adv-x="137" 
d="M60 750h17v-750h-17v750z" />
    <glyph glyph-name="m" unicode="m" horiz-adv-x="870" 
d="M810 0h-17v415q0 36 -12 66t-34 52t-52.5 34t-66.5 12t-69.5 -13.5t-59 -37.5t-40.5 -55.5t-15 -67.5v-405h-17v405q0 36 -12 67.5t-34 55.5t-52.5 37.5t-66.5 13.5t-69.5 -13.5t-59 -37.5t-41 -55.5t-15.5 -67.5v-405h-17v579h17v-96q12 25 31 46t43.5 36t53 23t57.5 8
q32 0 61 -10t52.5 -28t39 -42.5t20.5 -53.5q9 29 28 53.5t45 42.5t57 28t63 10q40 0 73.5 -13.5t57.5 -37.5t37.5 -57t13.5 -73v-415z" />
    <glyph glyph-name="n" unicode="n" horiz-adv-x="614" 
d="M60 0v579h17v-139q13 34 38 62.5t57.5 49.5t70.5 32.5t77 11.5q51 0 94 -17.5t74 -48.5t48.5 -74t17.5 -94v-362h-17v362q0 47 -16 87t-45 69t-69 45t-87 16q-48 0 -92 -18t-77.5 -49t-53.5 -73t-20 -89v-350h-17z" />
    <glyph glyph-name="o" unicode="o" 
d="M635 290q0 60 -22.5 112.5t-62 92t-92 62t-112.5 22.5t-112.5 -22.5t-91.5 -62t-61.5 -92t-22.5 -112.5t22.5 -113t61.5 -92t91.5 -62t112.5 -23t112.5 23t92 62t62 92t22.5 113zM653 290q0 -64 -24 -120t-65.5 -97.5t-97.5 -65.5t-120 -24q-63 0 -119 24t-97.5 65.5
t-65.5 97.5t-24 120q0 63 24 119t65.5 97.5t97.5 65.5t119 24q64 0 120 -24t97.5 -65.5t65.5 -97.5t24 -119z" />
    <glyph glyph-name="p" unicode="p" horiz-adv-x="714" 
d="M77 579v-189q16 45 44.5 83t66 65t83 42.5t95.5 15.5q64 0 120 -24t98 -65.5t66 -97.5t24 -120q0 -63 -24 -119t-66 -97.5t-98 -65.5t-120 -24q-50 0 -95.5 15t-83 42.5t-66 65t-44.5 82.5v-359h-17v750h17zM77 289q0 -60 23 -112.5t62 -92t91.5 -62t112.5 -22.5
t113 22.5t92 62t62 92t23 112.5t-23 113t-62 92t-92 62t-113 23t-112.5 -23t-91.5 -62t-62 -92t-23 -113z" />
    <glyph glyph-name="q" unicode="q" horiz-adv-x="714" 
d="M654 579v-750h-17v359q-16 -45 -44.5 -82.5t-66 -65t-83 -42.5t-95.5 -15q-64 0 -120 24t-98 65.5t-66 97.5t-24 119q0 64 24 120t66 97.5t98 65.5t120 24q50 0 95.5 -15.5t83 -42.5t66 -65t44.5 -83v189h17zM637 289q0 60 -23 113t-62 92t-91.5 62t-112.5 23t-113 -23
t-92 -62t-62 -92t-23 -113t23 -112.5t62 -92t92 -62t113 -22.5t112.5 22.5t91.5 62t62 92t23 112.5z" />
    <glyph glyph-name="r" unicode="r" horiz-adv-x="294" 
d="M60 0v579h17v-113q26 58 78 94t118 36h6v-17h-6q-41 0 -76.5 -15.5t-62 -42t-42 -62t-15.5 -76.5v-383h-17z" />
    <glyph glyph-name="s" unicode="s" horiz-adv-x="447" 
d="M339 464v4q0 23 -9 43t-25 35t-36.5 24t-44.5 9t-44.5 -9t-36.5 -24t-25 -35t-9 -43q0 -24 9 -45t25 -37.5t36.5 -26t44.5 -9.5q38 0 71.5 -14t58 -38.5t39 -57t14.5 -69.5t-14.5 -71t-39 -60t-58 -41.5t-71.5 -15.5q-37 0 -70 15t-58 40.5t-40 58.5t-16 69h18
q1 -33 14 -63t35.5 -53t52.5 -36.5t64 -13.5t64.5 14t53 37.5t35.5 54.5t13 65q0 33 -13 62.5t-35.5 51.5t-53 34.5t-64.5 12.5q-27 0 -51 11.5t-42 30t-28.5 43t-10.5 51.5q0 26 10.5 49.5t28.5 41t42 27.5t51 10t51 -10t41.5 -27.5t28 -41t10.5 -49.5v-4h-16z" />
    <glyph glyph-name="t" unicode="t" horiz-adv-x="296" 
d="M88 579v131h17v-131h171v-17h-171v-426q0 -24 9.5 -46t25.5 -38t38 -25.5t46 -9.5h52v-17h-52q-28 0 -53 10.5t-43.5 29t-29 43.5t-10.5 53v426h-68v17h68z" />
    <glyph glyph-name="u" unicode="u" horiz-adv-x="614" 
d="M554 579v-579h-17v139q-14 -34 -38.5 -62.5t-57 -49.5t-70.5 -32.5t-77 -11.5q-51 0 -94 17.5t-74 48.5t-48.5 74t-17.5 94v362h17v-362q0 -47 16 -87t45 -69t69 -45t87 -16q48 0 92 18t77.5 49t53.5 73t20 89v350h17z" />
    <glyph glyph-name="v" unicode="v" horiz-adv-x="582" 
d="M291 -36l-276 615h20l256 -573l257 573h19z" />
    <glyph glyph-name="w" unicode="w" horiz-adv-x="817" 
d="M602 -36l-193 596l-194 -596l-200 615h18l182 -560l194 596l193 -596l182 560h18z" />
    <glyph glyph-name="x" unicode="x" horiz-adv-x="535" 
d="M15 579h22l230 -276l231 276h22l-242 -289l242 -290h-22l-231 276l-230 -276h-22l241 290z" />
    <glyph glyph-name="y" unicode="y" horiz-adv-x="582" 
d="M567 579l-347 -750h-19l80 173l-266 577h19l256 -557l258 557h19z" />
    <glyph glyph-name="z" unicode="z" horiz-adv-x="521" 
d="M48 17h443v-17h-479l461 563h-443v16h479z" />
    <glyph glyph-name="braceleft" unicode="{" horiz-adv-x="315" 
d="M285 732q-39 0 -66.5 -27t-27.5 -66v-247q0 -35 -19 -62t-48 -40q29 -13 48 -40.5t19 -61.5v-248q0 -20 7.5 -37t20 -29.5t29.5 -20t37 -7.5v-17q-23 0 -43.5 9t-35.5 24t-23.5 35t-8.5 43v248q0 19 -7.5 36t-20 29.5t-30 20t-36.5 7.5v17q19 0 36.5 7.5t30 20t20 29.5
t7.5 37v247q0 23 8.5 43t23.5 35t35.5 24t43.5 9v-18z" />
    <glyph glyph-name="bar" unicode="|" horiz-adv-x="257" 
d="M120 -171v921h17v-921h-17z" />
    <glyph glyph-name="braceright" unicode="}" horiz-adv-x="315" 
d="M30 750q23 0 43.5 -9t35.5 -24t23.5 -35t8.5 -43v-247q0 -20 7.5 -37t20 -29.5t29.5 -20t37 -7.5v-17q-20 0 -37 -7.5t-29.5 -20t-20 -29.5t-7.5 -36v-248q0 -23 -8.5 -43t-23.5 -35t-35.5 -24t-43.5 -9v17q19 0 36.5 7.5t30 20t20 29.5t7.5 37v248q0 34 19 61.5t48 40.5
q-29 13 -48 40t-19 62v247q0 39 -27.5 66t-66.5 27v18z" />
    <glyph glyph-name="asciitilde" unicode="~" horiz-adv-x="448" 
d="M60 257q0 38 26.5 64t63.5 26q27 0 49 -15t33 -39q8 -20 25.5 -31.5t40.5 -11.5q30 0 51 21t21 51h18q0 -37 -26.5 -63.5t-63.5 -26.5q-27 0 -49.5 15.5t-32.5 38.5q-8 19 -26 31t-40 12q-31 0 -52 -21t-21 -51h-17z" />
    <glyph glyph-name="uni00A0" unicode="&#xa0;" horiz-adv-x="500" 
 />
    <glyph glyph-name="exclamdown" unicode="&#xa1;" horiz-adv-x="137" 
d="M75 580l2 -580h-17l2 580h13zM54 743q0 6 4.5 10.5t10.5 4.5t10.5 -4.5t4.5 -10.5t-4.5 -10.5t-10.5 -4.5t-10.5 4.5t-4.5 10.5z" />
    <glyph glyph-name="cent" unicode="&#xa2;" horiz-adv-x="601" 
d="M552 494q-39 40 -92 62.5t-113 22.5t-112.5 -22.5t-92 -62t-62 -92t-22.5 -112.5t22.5 -113t62 -92t92 -62t112.5 -23t113 22.5t92 62.5l13 -12q-43 -42 -98.5 -66t-119.5 -24h-8v-68h-17v69q-59 5 -110.5 31t-89.5 67t-60 94.5t-22 113.5t22 113.5t60 94.5t89.5 66.5
t110.5 30.5v70h17v-69h8q64 0 119.5 -23.5t98.5 -66.5z" />
    <glyph glyph-name="sterling" unicode="&#xa3;" horiz-adv-x="600" 
d="M312 31q-22 22 -49.5 33t-56 11t-56 -10.5t-48.5 -32.5l-50 -49l-12 12l50 48q21 23 32 50t11 56v47h-93v16h93v307q0 48 18 94t54 82t82 54t93.5 18t93 -18t81.5 -54l-12 -12q-32 31 -73.5 49t-89.5 18t-89.5 -18t-73 -49.5t-49.5 -73.5t-18 -90v-307h299v-16h-299v-47
q0 -37 -17 -74q23 12 48.5 15.5t50.5 0t48.5 -15.5t43.5 -32q22 -21 49.5 -32t56 -11t56 11t49.5 32l17 17l12 -12l-17 -17q-24 -24 -54.5 -36.5t-62.5 -12.5t-63 12.5t-55 36.5z" />
    <glyph glyph-name="currency" unicode="&#xa4;" horiz-adv-x="709" 
d="M643 290q0 60 -22.5 112.5t-61.5 92t-91.5 62t-112.5 22.5t-112.5 -22.5t-92 -62t-62 -92t-22.5 -112.5t22.5 -113t62 -92t92 -62t112.5 -23t112.5 23t91.5 62t61.5 92t22.5 113zM578 500q39 -41 61 -95t22 -115q0 -62 -22 -116t-61 -95l66 -67l-12 -12l-66 67
q-42 -40 -95.5 -62t-115.5 -22t-115.5 22t-95.5 62l-67 -67l-12 12l67 67q-38 41 -61 95t-23 116q0 61 23 115t61 95l-67 67l12 12l67 -67q42 40 95.5 62t115.5 22t115.5 -22t95.5 -62l66 67l12 -12z" />
    <glyph glyph-name="yen" unicode="&#xa5;" horiz-adv-x="548" 
d="M533 750l-176 -264h134v-17h-145l-62 -94h207v-17h-208v-358h-17v358h-208v17h205l-62 94h-143v17h132l-175 264h20l239 -359l238 359h21z" />
    <glyph glyph-name="brokenbar" unicode="&#xa6;" horiz-adv-x="137" 
d="M60 341v290h17v-290h-17zM60 -50v289h17v-289h-17z" />
    <glyph glyph-name="section" unicode="&#xa7;" horiz-adv-x="492" 
d="M68 602q0 -31 14 -58t38 -47t56.5 -31.5t69.5 -11.5q40 0 76 -13t62.5 -35t42 -52t15.5 -64q0 -27 -10 -52t-28 -45.5t-42.5 -36t-53.5 -23.5q29 -8 53.5 -23t42.5 -35.5t28 -45.5t10 -52q0 -34 -15.5 -64t-42 -52.5t-62.5 -35.5t-76 -13t-75 12.5t-61.5 34t-42.5 50.5
t-17 62l17 4q0 -30 14.5 -57t38.5 -46.5t56.5 -31t69.5 -11.5t69.5 11.5t56.5 31.5t38 47t14 58t-14 58t-38 47t-56.5 31.5t-69.5 11.5q-41 0 -76.5 13t-62 35t-42 52t-15.5 65q0 27 10 51.5t27.5 45t42 36t53.5 23.5q-58 17 -95.5 59t-37.5 97q0 34 15.5 64t42 52.5
t62 35.5t76.5 13q39 0 74 -12.5t61.5 -33.5t42.5 -49.5t18 -61.5l-17 -6q0 30 -14.5 57t-39 46.5t-57 31t-68.5 11.5q-37 0 -69.5 -11.5t-56.5 -31.5t-38 -47t-14 -58zM246 438q-37 0 -69.5 -11.5t-56.5 -32t-38 -47.5t-14 -57q0 -31 14 -58t38 -47t56.5 -31.5t69.5 -11.5
t69.5 11.5t56.5 31.5t38 47t14 58q0 30 -14 57t-38 47.5t-56.5 32t-69.5 11.5z" />
    <glyph glyph-name="dieresis" unicode="&#xa8;" horiz-adv-x="196" 
d="M41 754q0 -13 -13 -13t-13 13t13 13t13 -13zM181 754q0 -13 -13 -13t-13 13t13 13t13 -13z" />
    <glyph glyph-name="copyright" unicode="&#xa9;" 
d="M158 290q0 -39 15 -73.5t40.5 -60t59.5 -40.5t73 -15q40 0 74 15t60 40l12 -12q-28 -28 -65.5 -44t-80.5 -16q-42 0 -79.5 16t-65.5 44t-44 65.5t-16 80.5q0 42 16 79.5t44 65.5t65.5 44t79.5 16q43 0 80.5 -16t65.5 -44l-12 -12q-26 26 -60 40.5t-74 14.5q-39 0 -73 -15
t-59.5 -40.5t-40.5 -59.5t-15 -73zM640 290q0 61 -23 114t-63 93t-93.5 63t-114.5 23q-60 0 -113.5 -23t-93.5 -63t-63 -93t-23 -114t23 -114.5t63 -93.5t93.5 -63t113.5 -23q61 0 114.5 23t93.5 63t63 93.5t23 114.5zM653 290q0 -64 -24 -120t-65.5 -97.5t-97.5 -65.5
t-120 -24q-63 0 -119 24t-97.5 65.5t-65.5 97.5t-24 120q0 63 24 119t65.5 97.5t97.5 65.5t119 24q64 0 120 -24t97.5 -65.5t65.5 -97.5t24 -119z" />
    <glyph glyph-name="ordfeminine" unicode="&#xaa;" horiz-adv-x="397" 
d="M338 614q0 30 -11.5 56t-31 45.5t-46 31t-56.5 11.5t-56 -11.5t-45.5 -31t-30.5 -45.5t-11 -56t11 -56.5t30.5 -46t45.5 -31t56 -11.5t56.5 11.5t46 31t31 46t11.5 56.5zM347 469h-9v94q-16 -45 -55 -74t-90 -29q-32 0 -59.5 12t-48.5 33t-33 49t-12 60q0 31 12 59t33 49
t48.5 33t59.5 12q51 0 90 -29t55 -74v94h9v-289z" />
    <glyph glyph-name="guillemotleft" unicode="&#xab;" horiz-adv-x="359" 
d="M319 452v-24l-138 -138l138 -139v-24l-162 163zM202 127l-162 163l162 162v-24l-138 -138l138 -139v-24z" />
    <glyph glyph-name="logicalnot" unicode="&#xac;" horiz-adv-x="445" 
d="M367 204v77h-307v17h325v-94h-18z" />
    <glyph glyph-name="uni00AD" unicode="&#xad;" horiz-adv-x="464" 
d="M394 299v-17h-324v17h324z" />
    <glyph glyph-name="registered" unicode="&#xae;" horiz-adv-x="319" 
d="M279 648q0 -25 -9.5 -46.5t-25.5 -38t-38 -26t-46 -9.5q-25 0 -46.5 9.5t-38 26t-26 38t-9.5 46.5q0 24 9.5 46t26 38t38 25.5t46.5 9.5q24 0 46 -9.5t38 -25.5t25.5 -38t9.5 -46zM272 648q0 23 -9 43.5t-24 35.5t-35.5 24t-43.5 9t-43.5 -9t-36 -24t-24.5 -35.5
t-9 -43.5q0 -24 9 -44.5t24.5 -35.5t36 -24t43.5 -9t43.5 9t35.5 24t24 35.5t9 44.5zM224 678q0 -18 -11 -31t-28 -17l29 -58h-8l-28 57h-66v-57h-7v154h69q21 0 35.5 -14t14.5 -34zM217 678q0 17 -12 29.5t-31 12.5h-62v-84h62q19 0 31 12t12 30z" />
    <glyph glyph-name="macron" unicode="&#xaf;" horiz-adv-x="307" 
d="M247 733h-187v17h187v-17z" />
    <glyph glyph-name="degree" unicode="&#xb0;" horiz-adv-x="304" 
d="M237 665q0 35 -25 60t-60 25t-60 -25t-25 -60t25 -60t60 -25t60 25t25 60zM254 665q0 -21 -8 -39.5t-21.5 -32.5t-32.5 -22t-40 -8t-39.5 8t-32.5 22t-22 32.5t-8 39.5t8 40t22 32.5t32.5 21.5t39.5 8q43 0 72.5 -29.5t29.5 -72.5z" />
    <glyph glyph-name="plusminus" unicode="&#xb1;" horiz-adv-x="679" 
d="M50 367v17h281v195h17v-195h281v-17h-281v-196h-17v196h-281zM629 17v-17h-579v17h579z" />
    <glyph glyph-name="uni00B2" unicode="&#xb2;" horiz-adv-x="335" 
d="M72 383h212v-8h-236l196 165q20 16 31.5 39.5t11.5 51.5q0 25 -9.5 46.5t-26 37.5t-38 25.5t-46.5 9.5q-24 0 -46 -9.5t-38 -25.5t-25.5 -37.5t-9.5 -46.5q0 -50 35 -85l-6 -6q-17 18 -27 41.5t-10 49.5t10 49t27 40.5t40.5 27.5t49.5 10q27 0 50 -10t40.5 -27.5
t27.5 -40.5t10 -49q0 -30 -12.5 -55.5t-32.5 -42.5z" />
    <glyph glyph-name="uni00B3" unicode="&#xb3;" horiz-adv-x="335" 
d="M251 741h-185v9h208l-151 -136q22 8 45 8q26 0 49 -10t40.5 -27.5t27.5 -41t10 -49.5t-10 -49.5t-27.5 -41t-40.5 -27.5t-49 -10q-27 0 -50 10t-40.5 27.5t-27.5 41t-10 49.5h8q0 -25 9.5 -46.5t26 -38t38 -26t46.5 -9.5q24 0 46 9.5t38 26t25.5 38t9.5 46.5t-9.5 46.5
t-25.5 37.5t-38 25.5t-46 9.5q-51 0 -84 -35l-7 6l1 1l9 8z" />
    <glyph glyph-name="acute" unicode="&#xb4;" horiz-adv-x="351" 
d="M90 707v8l171 52v-27z" />
    <glyph glyph-name="mu" unicode="&#xb5;" horiz-adv-x="614" 
d="M60 579h17v-362q0 -47 16 -87t45 -69t69 -45t87 -16q48 0 92 18t77.5 49t53.5 73t20 89v350h17v-579h-17v139q-14 -34 -38.5 -62.5t-57 -49.5t-70.5 -32.5t-77 -11.5q-78 0 -135 38t-82 103v-295h-17v750z" />
    <glyph glyph-name="paragraph" unicode="&#xb6;" horiz-adv-x="529" 
d="M213 375q-39 0 -73.5 14.5t-60 40t-40 60t-14.5 73.5t14.5 73t40 59.5t60 40t73.5 14.5h256v-750h-17v732h-137v-732h-17v375h-85zM43 563q0 -36 13.5 -67t36.5 -54t54 -36.5t66 -13.5h85v340h-85q-35 0 -66 -13.5t-54 -36.5t-36.5 -53.5t-13.5 -65.5z" />
    <glyph glyph-name="periodcentered" unicode="&#xb7;" horiz-adv-x="160" 
d="M35 290q0 8 6 14t14 6t14 -6t6 -14t-6 -14t-14 -6t-14 6t-6 14z" />
    <glyph glyph-name="cedilla" unicode="&#xb8;" horiz-adv-x="326" 
d="M159 -5l-14 -50q15 3 31 -1q29 -8 41.5 -31.5t5.5 -50.5q-8 -26 -31.5 -40.5t-50.5 -6.5q-14 4 -24 12t-17 19l13 9q7 -12 18.5 -19.5t26.5 -7.5q22 0 37 15.5t15 36.5t-15 36t-37 15q-16 0 -26 -7l-5 10l18 65z" />
    <glyph glyph-name="uni00B9" unicode="&#xb9;" horiz-adv-x="188" 
d="M50 712v11l78 45v-393h-9v378z" />
    <glyph glyph-name="ordmasculine" unicode="&#xba;" horiz-adv-x="387" 
d="M337 614q0 30 -11.5 56t-31 45.5t-45.5 31t-56 11.5t-56 -11.5t-45.5 -31t-30.5 -45.5t-11 -56t11 -56.5t30.5 -46t45.5 -31t56 -11.5t56 11.5t45.5 31t31 46t11.5 56.5zM347 614q0 -32 -12 -60t-33 -49t-49 -33t-60 -12t-59.5 12t-48.5 33t-33 49t-12 60q0 31 12 59
t33 49t48.5 33t59.5 12t60 -12t49 -33t33 -49t12 -59z" />
    <glyph glyph-name="guillemotright" unicode="&#xbb;" horiz-adv-x="359" 
d="M202 290l-162 -163v24l138 139l-138 138v24zM157 151l138 139l-138 138v24l162 -162l-162 -163v24z" />
    <glyph glyph-name="onequarter" unicode="&#xbc;" horiz-adv-x="599" 
d="M114 -13l327 781l7 -3l-326 -781zM50 712v11l78 45v-393h-9v378zM317 106h181v260zM301 98l205 295v-287h73v-8h-73v-98h-8v98h-197z" />
    <glyph glyph-name="onehalf" unicode="&#xbd;" horiz-adv-x="678" 
d="M114 -13l327 781l7 -3l-326 -781zM50 712v11l78 45v-393h-9v378zM415 8h212v-8h-236l196 165q20 16 31.5 39.5t11.5 51.5q0 25 -9.5 46.5t-26 37.5t-38 25.5t-46.5 9.5q-24 0 -46 -9.5t-38 -25.5t-25.5 -37.5t-9.5 -46.5t9 -46.5t26 -38.5l-6 -6q-17 18 -27 41.5
t-10 49.5t10 49t27 40.5t40.5 27.5t49.5 10q27 0 50 -10t40.5 -27.5t27.5 -40.5t10 -49q0 -30 -12.5 -55.5t-32.5 -42.5z" />
    <glyph glyph-name="threequarters" unicode="&#xbe;" 
d="M206 -13l327 781l7 -3l-326 -781zM251 741h-185v9h208l-151 -136q22 8 45 8q26 0 49 -10t40.5 -27.5t27.5 -41t10 -49.5t-10 -49.5t-27.5 -41t-40.5 -27.5t-49 -10q-27 0 -50 10t-40.5 27.5t-27.5 41t-10 49.5h8q0 -25 9.5 -46.5t26 -38t38 -26t46.5 -9.5q24 0 46 9.5
t38 26t25.5 38t9.5 46.5t-9.5 46.5t-25.5 37.5t-38 25.5t-46 9.5q-51 0 -84 -35l-7 6l1 1l9 8zM411 106h181v260zM395 98l205 295v-287h73v-8h-73v-98h-8v98h-197z" />
    <glyph glyph-name="questiondown" unicode="&#xbf;" horiz-adv-x="503" 
d="M463 160q-7 -38 -25.5 -70t-46.5 -56t-63 -37.5t-75 -13.5q-44 0 -83 17t-68 46t-45.5 68t-16.5 83t16.5 82.5t45.5 67.5t68 46t83 17q32 0 54.5 21.5t22.5 53.5q0 33 -22.5 55t-54.5 22q-15 0 -27 -4l-5 16q8 3 16 4t16 1q19 0 36 -7t29.5 -20t20 -30t7.5 -37
q0 -19 -7.5 -36t-20 -29.5t-29.5 -19.5t-36 -7q-41 0 -76.5 -15.5t-62 -42t-42 -62.5t-15.5 -76q0 -41 15.5 -76.5t42 -62t62 -42t76.5 -15.5q36 0 68.5 12.5t58 34t43 51t23.5 63.5zM237 743q0 15 16 15q6 0 10.5 -4t4.5 -11q0 -6 -4.5 -10.5t-10.5 -4.5q-7 0 -11.5 4.5
t-4.5 10.5z" />
    <glyph glyph-name="Agrave" unicode="&#xc0;" horiz-adv-x="678" 
d="M255 834v26l170 -51v-9zM662 0h-20l-44 106h-520l-43 -106h-20l323 786zM85 123h506l-253 617z" />
    <glyph glyph-name="Aacute" unicode="&#xc1;" horiz-adv-x="678" 
d="M255 800v9l170 51v-26zM662 0h-20l-44 106h-520l-43 -106h-20l323 786zM85 123h506l-253 617z" />
    <glyph glyph-name="Acircumflex" unicode="&#xc2;" horiz-adv-x="678" 
d="M428 788l-90 90l-90 -90l-11 11l101 101l101 -101zM662 0h-20l-44 106h-520l-43 -106h-20l323 786zM85 123h506l-253 617z" />
    <glyph glyph-name="Atilde" unicode="&#xc3;" horiz-adv-x="678" 
d="M222 804q0 27 19.5 46.5t46.5 19.5q20 0 35.5 -10.5t23.5 -26.5q7 -13 18.5 -21t26.5 -8q20 0 34.5 14t14.5 35h17q0 -27 -19.5 -46.5t-46.5 -19.5q-20 0 -35.5 10.5t-23.5 26.5q-5 13 -17.5 20.5t-27.5 7.5q-20 0 -34.5 -14t-14.5 -34h-17zM662 0h-20l-44 106h-520
l-43 -106h-20l323 786zM85 123h506l-253 617z" />
    <glyph glyph-name="Adieresis" unicode="&#xc4;" horiz-adv-x="678" 
d="M283 847q0 -13 -13 -13t-13 13t13 13t13 -13zM423 847q0 -13 -13 -13t-13 13t13 13t13 -13zM662 0h-20l-44 106h-520l-43 -106h-20l323 786zM85 123h506l-253 617z" />
    <glyph glyph-name="Aring" unicode="&#xc5;" horiz-adv-x="678" 
d="M396 887q0 23 -17.5 40.5t-40.5 17.5q-24 0 -41.5 -17.5t-17.5 -40.5q0 -24 17.5 -41.5t41.5 -17.5q23 0 40.5 17.5t17.5 41.5zM411 887q0 -31 -21.5 -53t-51.5 -22q-31 0 -53 22t-22 53q0 30 22 51.5t53 21.5q30 0 51.5 -21.5t21.5 -51.5zM662 0h-20l-44 106h-520
l-43 -106h-20l323 786zM85 123h506l-253 617z" />
    <glyph glyph-name="AE" unicode="&#xc6;" horiz-adv-x="1140" 
d="M578 17h527v-17h-544v196h-383l-142 -196h-21l546 750h544v-17h-527v-520h460v-17h-460v-179zM192 213h369v508z" />
    <glyph glyph-name="Ccedilla" unicode="&#xc7;" horiz-adv-x="740" 
d="M692 639q-51 52 -119 81.5t-146 29.5t-146 -29.5t-118.5 -80.5t-80 -119t-29.5 -146t29.5 -146t80 -119t118.5 -80.5t146 -29.5t146 29t119 80l12 -12q-54 -54 -125 -84t-152 -30h-4l-10 -38q15 3 31 -1q29 -8 41.5 -31.5t5.5 -50.5q-8 -26 -31.5 -40.5t-50.5 -6.5
q-14 4 -24 12t-17 19l13 9q7 -12 18.5 -19.5t26.5 -7.5q22 0 37 15.5t15 36.5t-15 36t-37 15q-16 0 -26 -7l-5 10l13 50q-78 4 -146 36t-118.5 84.5t-79.5 122t-29 148.5q0 81 30.5 152.5t84 124.5t125 84t152.5 31t152 -31t125 -85z" />
    <glyph glyph-name="Egrave" unicode="&#xc8;" horiz-adv-x="641" 
d="M250 834v26l171 -51v-9zM606 17v-17h-546v750h546v-17h-529v-520h460v-17h-460v-179h529z" />
    <glyph glyph-name="Eacute" unicode="&#xc9;" horiz-adv-x="641" 
d="M250 800v9l171 51v-26zM606 17v-17h-546v750h546v-17h-529v-520h460v-17h-460v-179h529z" />
    <glyph glyph-name="Ecircumflex" unicode="&#xca;" horiz-adv-x="641" 
d="M424 788l-90 90l-90 -90l-11 11l101 101l101 -101zM606 17v-17h-546v750h546v-17h-529v-520h460v-17h-460v-179h529z" />
    <glyph glyph-name="Edieresis" unicode="&#xcb;" horiz-adv-x="641" 
d="M275 847q0 -13 -13 -13t-13 13t13 13t13 -13zM415 847q0 -13 -13 -13t-13 13t13 13t13 -13zM606 17v-17h-546v750h546v-17h-529v-520h460v-17h-460v-179h529z" />
    <glyph glyph-name="Igrave" unicode="&#xcc;" horiz-adv-x="146" 
d="M60 750h17v-750h-17v750zM-16 834v26l170 -51v-9z" />
    <glyph glyph-name="Iacute" unicode="&#xcd;" horiz-adv-x="137" 
d="M60 750h17v-750h-17v750zM-16 800v9l170 51v-26z" />
    <glyph glyph-name="Icircumflex" unicode="&#xce;" horiz-adv-x="137" 
d="M60 750h17v-750h-17v750zM158 788l-90 90l-90 -90l-11 11l101 101l101 -101z" />
    <glyph glyph-name="Idieresis" unicode="&#xcf;" horiz-adv-x="142" 
d="M60 750h17v-750h-17v750zM14 847q0 -13 -13 -13t-13 13t13 13t13 -13zM154 847q0 -13 -13 -13t-13 13t13 13t13 -13z" />
    <glyph glyph-name="Eth" unicode="&#xd0;" horiz-adv-x="745" 
d="M710 375q0 -77 -29.5 -145.5t-80.5 -119.5t-119.5 -80.5t-145.5 -29.5h-256v367h-59v17h59v366h256q77 0 145.5 -29.5t119.5 -80.5t80.5 -119t29.5 -146zM692 375q0 74 -28 139t-76.5 114t-113.5 77t-139 28h-239v-349h163v-17h-163v-350h239q74 0 139 28t113.5 76.5
t76.5 114t28 139.5z" />
    <glyph glyph-name="Ntilde" unicode="&#xd1;" horiz-adv-x="683" 
d="M224 794q0 27 19.5 46.5t46.5 19.5q20 0 35.5 -10.5t23.5 -26.5q7 -13 18.5 -21t26.5 -8q20 0 34.5 14t14.5 35h17q0 -27 -19.5 -46.5t-46.5 -19.5q-20 0 -35.5 10.5t-23.5 26.5q-5 13 -17.5 20.5t-27.5 7.5q-20 0 -34.5 -14t-14.5 -34h-17zM623 -36l-546 768v-732h-17
v786l546 -769v733h17v-786z" />
    <glyph glyph-name="Ograve" unicode="&#xd2;" horiz-adv-x="854" 
d="M819 375q0 -81 -31 -152.5t-84 -124.5t-124.5 -84t-152.5 -31t-152.5 31t-125 84t-84 124.5t-30.5 152.5q0 77 28 145t76 121q55 58 128.5 92t159.5 34q81 0 152.5 -31t124.5 -84t84 -124.5t31 -152.5zM802 375q0 78 -29.5 146t-80.5 119t-119.5 80.5t-145.5 29.5
q-78 0 -146 -29.5t-119 -80.5t-80.5 -119t-29.5 -146t29.5 -146t80.5 -119t119 -80.5t146 -29.5q77 0 145.5 29.5t119.5 80.5t80.5 119t29.5 146zM341 834v26l171 -51v-9z" />
    <glyph glyph-name="Oacute" unicode="&#xd3;" horiz-adv-x="854" 
d="M819 375q0 -81 -31 -152.5t-84 -124.5t-124.5 -84t-152.5 -31t-152.5 31t-125 84t-84 124.5t-30.5 152.5q0 77 28 145t76 121q55 58 128.5 92t159.5 34q81 0 152.5 -31t124.5 -84t84 -124.5t31 -152.5zM802 375q0 78 -29.5 146t-80.5 119t-119.5 80.5t-145.5 29.5
q-78 0 -146 -29.5t-119 -80.5t-80.5 -119t-29.5 -146t29.5 -146t80.5 -119t119 -80.5t146 -29.5q77 0 145.5 29.5t119.5 80.5t80.5 119t29.5 146zM341 800v9l171 51v-26z" />
    <glyph glyph-name="Ocircumflex" unicode="&#xd4;" horiz-adv-x="854" 
d="M819 375q0 -81 -31 -152.5t-84 -124.5t-124.5 -84t-152.5 -31t-152.5 31t-125 84t-84 124.5t-30.5 152.5q0 77 28 145t76 121q55 58 128.5 92t159.5 34q81 0 152.5 -31t124.5 -84t84 -124.5t31 -152.5zM802 375q0 78 -29.5 146t-80.5 119t-119.5 80.5t-145.5 29.5
q-78 0 -146 -29.5t-119 -80.5t-80.5 -119t-29.5 -146t29.5 -146t80.5 -119t119 -80.5t146 -29.5q77 0 145.5 29.5t119.5 80.5t80.5 119t29.5 146zM517 788l-90 90l-90 -90l-11 11l101 101l101 -101z" />
    <glyph glyph-name="Otilde" unicode="&#xd5;" horiz-adv-x="854" 
d="M819 375q0 -81 -31 -152.5t-84 -124.5t-124.5 -84t-152.5 -31t-152.5 31t-125 84t-84 124.5t-30.5 152.5q0 77 28 145t76 121q55 58 128.5 92t159.5 34q81 0 152.5 -31t124.5 -84t84 -124.5t31 -152.5zM802 375q0 78 -29.5 146t-80.5 119t-119.5 80.5t-145.5 29.5
q-78 0 -146 -29.5t-119 -80.5t-80.5 -119t-29.5 -146t29.5 -146t80.5 -119t119 -80.5t146 -29.5q77 0 145.5 29.5t119.5 80.5t80.5 119t29.5 146zM309 814q0 27 19.5 46.5t46.5 19.5q20 0 35.5 -10.5t23.5 -26.5q7 -13 18.5 -21t26.5 -8q20 0 34.5 14t14.5 35h17
q0 -27 -19.5 -46.5t-46.5 -19.5q-20 0 -35.5 10.5t-23.5 26.5q-5 13 -17.5 20.5t-27.5 7.5q-20 0 -34.5 -14t-14.5 -34h-17z" />
    <glyph glyph-name="Odieresis" unicode="&#xd6;" horiz-adv-x="854" 
d="M819 375q0 -81 -31 -152.5t-84 -124.5t-124.5 -84t-152.5 -31t-152.5 31t-125 84t-84 124.5t-30.5 152.5q0 77 28 145t76 121q55 58 128.5 92t159.5 34q81 0 152.5 -31t124.5 -84t84 -124.5t31 -152.5zM802 375q0 78 -29.5 146t-80.5 119t-119.5 80.5t-145.5 29.5
q-78 0 -146 -29.5t-119 -80.5t-80.5 -119t-29.5 -146t29.5 -146t80.5 -119t119 -80.5t146 -29.5q77 0 145.5 29.5t119.5 80.5t80.5 119t29.5 146zM370 847q0 -13 -13 -13t-13 13t13 13t13 -13zM510 847q0 -13 -13 -13t-13 13t13 13t13 -13z" />
    <glyph glyph-name="multiply" unicode="&#xd7;" horiz-adv-x="660" 
d="M620 567l-278 -277l278 -278l-12 -12l-278 278l-278 -278l-12 12l278 278l-278 277l12 12l278 -277l278 277z" />
    <glyph glyph-name="Oslash" unicode="&#xd8;" horiz-adv-x="864" 
d="M692 645q-51 49 -117.5 77t-142.5 28q-77 0 -145 -29.5t-119 -80.5t-80.5 -119t-29.5 -146q0 -76 27.5 -142.5t76.5 -117.5zM174 103q51 -48 117 -75.5t141 -27.5q78 0 146 29.5t118.5 80.5t80 119t29.5 146q0 75 -27 141t-75 117zM716 645q51 -52 79.5 -121.5
t28.5 -148.5q0 -81 -30.5 -152.5t-84 -124.5t-125 -84t-152.5 -31q-78 0 -147.5 28.5t-122.5 79.5l-93 -91l-12 12l93 91q-51 54 -80.5 123t-29.5 149q0 81 31 152.5t84 124.5t124.5 84t152.5 31q80 0 149 -29.5t123 -80.5l91 93l12 -12z" />
    <glyph glyph-name="Ugrave" unicode="&#xd9;" horiz-adv-x="699" 
d="M639 273q0 -60 -22.5 -113t-62 -92t-92 -62t-112.5 -23t-113 23t-92 62t-62 92t-23 113v477h17v-477q0 -57 21.5 -106.5t58.5 -86.5t86.5 -58.5t106.5 -21.5q56 0 105.5 21.5t86.5 58.5t58.5 86.5t21.5 106.5v477h17v-477zM264 834v26l171 -51v-9z" />
    <glyph glyph-name="Uacute" unicode="&#xda;" horiz-adv-x="699" 
d="M639 273q0 -60 -22.5 -113t-62 -92t-92 -62t-112.5 -23t-113 23t-92 62t-62 92t-23 113v477h17v-477q0 -57 21.5 -106.5t58.5 -86.5t86.5 -58.5t106.5 -21.5q56 0 105.5 21.5t86.5 58.5t58.5 86.5t21.5 106.5v477h17v-477zM264 800v9l171 51v-26z" />
    <glyph glyph-name="Ucircumflex" unicode="&#xdb;" horiz-adv-x="699" 
d="M639 273q0 -60 -22.5 -113t-62 -92t-92 -62t-112.5 -23t-113 23t-92 62t-62 92t-23 113v477h17v-477q0 -57 21.5 -106.5t58.5 -86.5t86.5 -58.5t106.5 -21.5q56 0 105.5 21.5t86.5 58.5t58.5 86.5t21.5 106.5v477h17v-477zM440 788l-90 90l-90 -90l-11 11l101 101
l101 -101z" />
    <glyph glyph-name="Udieresis" unicode="&#xdc;" horiz-adv-x="699" 
d="M639 273q0 -60 -23 -113t-62 -92t-91.5 -62t-112.5 -23t-113 23t-92 62t-62 92t-23 113v477h17v-477q0 -56 21.5 -106t58.5 -87t86.5 -58.5t106.5 -21.5q56 0 105.5 21.5t86.5 58.5t58.5 87t21.5 106v477h17v-477zM293 847q0 -13 -13 -13t-13 13t13 13t13 -13zM433 847
q0 -13 -13 -13t-13 13t13 13t13 -13z" />
    <glyph glyph-name="Yacute" unicode="&#xdd;" horiz-adv-x="635" 
d="M232 800v9l171 51v-26zM15 750h19l284 -534l283 534h19l-293 -554v-196h-17v196z" />
    <glyph glyph-name="Thorn" unicode="&#xde;" horiz-adv-x="650" 
d="M614 457q0 -42 -16 -78.5t-43 -63.5t-63.5 -43t-78.5 -16h-336v-256h-17v750h17v-93h336q42 0 78.5 -16t63.5 -43t43 -63.5t16 -77.5zM596 457q0 38 -14 71.5t-39 58t-58 39t-72 14.5h-336v-367h336q39 0 72 14.5t58 39.5t39 58.5t14 71.5z" />
    <glyph glyph-name="germandbls" unicode="&#xdf;" horiz-adv-x="536" 
d="M129 0v17h157q40 0 75 15t61 41.5t41 61.5t15 75q0 39 -15 74t-41 61t-61 41t-75 15h-157v16h119q34 1 63 14.5t51 36t34.5 52t12.5 63.5q0 35 -13 65.5t-35 53t-52.5 35.5t-64.5 13q-35 0 -65 -13t-53 -35.5t-36 -53t-13 -65.5v-583h-17v583q0 39 14.5 72.5t39.5 58
t58.5 39t71.5 14.5t71.5 -14.5t58 -39t39 -58t14.5 -72.5q0 -56 -31 -101t-79 -66q37 -5 70 -23.5t57 -46t38 -62.5t14 -74q0 -44 -16.5 -82t-45 -66.5t-67 -45t-81.5 -16.5h-157z" />
    <glyph glyph-name="agrave" unicode="&#xe0;" horiz-adv-x="713" 
d="M262 740v27l171 -52v-8zM636 290q0 60 -23 112.5t-62 92t-92 62t-113 22.5t-112.5 -22.5t-91.5 -62t-61.5 -92t-22.5 -112.5t22.5 -113t61.5 -92t91.5 -62t112.5 -23t113 23t92 62t62 92t23 113zM653 0h-17v189q-16 -45 -44 -83t-66 -65t-83.5 -42.5t-96.5 -15.5
q-63 0 -119 24t-97.5 65.5t-65.5 97.5t-24 120q0 63 24 119t65.5 97.5t97.5 65.5t119 24q51 0 96.5 -15t83.5 -42.5t66 -65t44 -82.5v188h17v-579z" />
    <glyph glyph-name="aacute" unicode="&#xe1;" horiz-adv-x="713" 
d="M262 707v8l171 52v-27zM636 290q0 60 -23 112.5t-62 92t-92 62t-113 22.5t-112.5 -22.5t-91.5 -62t-61.5 -92t-22.5 -112.5t22.5 -113t61.5 -92t91.5 -62t112.5 -23t113 23t92 62t62 92t23 113zM653 0h-17v189q-16 -45 -44 -83t-66 -65t-83.5 -42.5t-96.5 -15.5
q-63 0 -119 24t-97.5 65.5t-65.5 97.5t-24 120q0 63 24 119t65.5 97.5t97.5 65.5t119 24q51 0 96.5 -15t83.5 -42.5t66 -65t44 -82.5v188h17v-579z" />
    <glyph glyph-name="acircumflex" unicode="&#xe2;" horiz-adv-x="713" 
d="M636 290q0 60 -23 112.5t-62 92t-92 62t-113 22.5t-112.5 -22.5t-91.5 -62t-61.5 -92t-22.5 -112.5t22.5 -113t61.5 -92t91.5 -62t112.5 -23t113 23t92 62t62 92t23 113zM653 0h-17v189q-16 -45 -44 -83t-66 -65t-83.5 -42.5t-96.5 -15.5q-63 0 -119 24t-97.5 65.5
t-65.5 97.5t-24 120q0 63 24 119t65.5 97.5t97.5 65.5t119 24q51 0 96.5 -15t83.5 -42.5t66 -65t44 -82.5v188h17v-579zM436 668l-90 90l-90 -90l-11 11l101 101l101 -101z" />
    <glyph glyph-name="atilde" unicode="&#xe3;" horiz-adv-x="713" 
d="M228 701q0 27 19.5 46.5t46.5 19.5q20 0 35.5 -10.5t23.5 -26.5q7 -13 18.5 -21t26.5 -8q20 0 34.5 14t14.5 35h17q0 -27 -19.5 -46.5t-46.5 -19.5q-20 0 -35.5 10.5t-23.5 26.5q-5 13 -17.5 20.5t-27.5 7.5q-20 0 -34.5 -14t-14.5 -34h-17zM636 290q0 60 -23 112.5
t-62 92t-92 62t-113 22.5t-112.5 -22.5t-91.5 -62t-61.5 -92t-22.5 -112.5t22.5 -113t61.5 -92t91.5 -62t112.5 -23t113 23t92 62t62 92t23 113zM653 0h-17v189q-16 -45 -44 -83t-66 -65t-83.5 -42.5t-96.5 -15.5q-63 0 -119 24t-97.5 65.5t-65.5 97.5t-24 120q0 63 24 119
t65.5 97.5t97.5 65.5t119 24q51 0 96.5 -15t83.5 -42.5t66 -65t44 -82.5v188h17v-579z" />
    <glyph glyph-name="adieresis" unicode="&#xe4;" horiz-adv-x="713" 
d="M289 754q0 -13 -13 -13t-13 13t13 13t13 -13zM429 754q0 -13 -13 -13t-13 13t13 13t13 -13zM636 290q0 60 -23 112.5t-62 92t-92 62t-113 22.5t-112.5 -22.5t-91.5 -62t-61.5 -92t-22.5 -112.5t22.5 -113t61.5 -92t91.5 -62t112.5 -23t113 23t92 62t62 92t23 113zM653 0
h-17v189q-16 -45 -44 -83t-66 -65t-83.5 -42.5t-96.5 -15.5q-63 0 -119 24t-97.5 65.5t-65.5 97.5t-24 120q0 63 24 119t65.5 97.5t97.5 65.5t119 24q51 0 96.5 -15t83.5 -42.5t66 -65t44 -82.5v188h17v-579z" />
    <glyph glyph-name="aring" unicode="&#xe5;" horiz-adv-x="713" 
d="M405 727q0 23 -17 40.5t-40 17.5q-25 0 -42 -17.5t-17 -40.5q0 -24 17 -41.5t42 -17.5q23 0 40 17.5t17 41.5zM421 727q0 -15 -6 -29t-16 -24t-23 -16t-28 -6q-31 0 -53 22t-22 53q0 30 22 51.5t53 21.5q29 0 51 -21.5t22 -51.5zM636 290q0 60 -23 112.5t-62 92t-92 62
t-113 22.5t-112.5 -22.5t-91.5 -62t-61.5 -92t-22.5 -112.5t22.5 -113t61.5 -92t91.5 -62t112.5 -23t113 23t92 62t62 92t23 113zM653 0h-17v189q-16 -45 -44 -83t-66 -65t-83.5 -42.5t-96.5 -15.5q-63 0 -119 24t-97.5 65.5t-65.5 97.5t-24 120q0 63 24 119t65.5 97.5
t97.5 65.5t119 24q51 0 96.5 -15t83.5 -42.5t66 -65t44 -82.5v188h17v-579z" />
    <glyph glyph-name="ae" unicode="&#xe6;" horiz-adv-x="1289" 
d="M943 0q56 0 105.5 19.5t88 54t63.5 81.5t32 101h17q-6 -58 -32.5 -108t-67.5 -86.5t-93.5 -57.5t-112.5 -21q-51 0 -96.5 15t-83.5 42.5t-66 65t-44 82.5v-188h-17v189q-16 -45 -44 -83t-66 -65t-83.5 -42.5t-96.5 -15.5q-63 0 -119 24t-97.5 65.5t-65.5 97.5t-24 120
q0 63 24 119t65.5 97.5t97.5 65.5t119 24q51 0 96.5 -15t83.5 -42.5t66 -65t44 -82.5v188h17v-188q16 45 44 82.5t66 64.5t83.5 42.5t96.5 15.5q66 0 123.5 -25.5t100.5 -70.5l-12 -12l-410 -409q38 -37 89 -58t109 -21zM636 290q0 60 -23 112.5t-62 92t-92 62t-113 22.5
t-112.5 -22.5t-91.5 -62t-61.5 -92t-22.5 -112.5t22.5 -113t61.5 -92t91.5 -62t112.5 -23t113 23t92 62t62 92t23 113zM943 579q-59 0 -110.5 -21.5t-90.5 -59t-63 -88t-26 -108.5v-12q0 -58 21 -109t59 -90l410 409q-40 37 -91 58t-109 21z" />
    <glyph glyph-name="ccedilla" unicode="&#xe7;" horiz-adv-x="601" 
d="M553 494q-40 40 -92.5 62.5t-113.5 22.5q-60 0 -112.5 -22.5t-92 -62t-62 -92t-22.5 -112.5t22.5 -113t62 -92t92 -62t112.5 -23q61 0 113.5 22.5t92.5 62.5l12 -12q-43 -42 -98.5 -66t-119.5 -24h-5l-10 -38q15 3 31 -1q29 -8 41.5 -31.5t5.5 -50.5q-8 -26 -31.5 -40.5
t-50.5 -6.5q-14 4 -24 12t-17 19l13 9q7 -12 18.5 -19.5t26.5 -7.5q22 0 37 15.5t15 36.5t-15 36t-37 15q-16 0 -26 -7l-5 10l14 50q-60 4 -112.5 29t-91.5 66t-61.5 95t-22.5 116q0 63 24 119t65.5 97.5t97.5 65.5t120 24t119.5 -23.5t98.5 -66.5z" />
    <glyph glyph-name="egrave" unicode="&#xe8;" 
d="M258 740v27l171 -52v-8zM347 579q-60 0 -113 -22.5t-92 -62t-62 -92t-23 -112.5q0 -58 21 -109t59 -90l410 409q-40 37 -91 58t-109 21zM347 0q56 0 105.5 19.5t88 54t63.5 81.5t32 101h17q-6 -58 -32.5 -108t-67.5 -86.5t-93.5 -57.5t-112.5 -21q-64 0 -120 24
t-97.5 65.5t-65.5 97.5t-24 120q0 63 24 119t65.5 97.5t97.5 65.5t120 24q66 0 123.5 -25.5t100.5 -70.5l-12 -12l-410 -409q38 -37 89 -58t109 -21z" />
    <glyph glyph-name="eacute" unicode="&#xe9;" 
d="M258 707v8l171 52v-27zM347 579q-60 0 -113 -22.5t-92 -62t-62 -92t-23 -112.5q0 -58 21 -109t59 -90l410 409q-40 37 -91 58t-109 21zM347 0q56 0 105.5 19.5t88 54t63.5 81.5t32 101h17q-6 -58 -32.5 -108t-67.5 -86.5t-93.5 -57.5t-112.5 -21q-64 0 -120 24
t-97.5 65.5t-65.5 97.5t-24 120q0 63 24 119t65.5 97.5t97.5 65.5t120 24q66 0 123.5 -25.5t100.5 -70.5l-12 -12l-410 -409q38 -37 89 -58t109 -21z" />
    <glyph glyph-name="ecircumflex" unicode="&#xea;" 
d="M437 668l-90 90l-90 -90l-11 11l101 101l101 -101zM347 579q-60 0 -113 -22.5t-92 -62t-62 -92t-23 -112.5q0 -58 21 -109t59 -90l410 409q-40 37 -91 58t-109 21zM347 0q56 0 105.5 19.5t88 54t63.5 81.5t32 101h17q-6 -58 -32.5 -108t-67.5 -86.5t-93.5 -57.5
t-112.5 -21q-64 0 -120 24t-97.5 65.5t-65.5 97.5t-24 120q0 63 24 119t65.5 97.5t97.5 65.5t120 24q66 0 123.5 -25.5t100.5 -70.5l-12 -12l-410 -409q38 -37 89 -58t109 -21z" />
    <glyph glyph-name="edieresis" unicode="&#xeb;" 
d="M290 754q0 -13 -13 -13t-13 13t13 13t13 -13zM430 754q0 -13 -13 -13t-13 13t13 13t13 -13zM347 579q-60 0 -113 -22.5t-92 -62t-62 -92t-23 -112.5q0 -58 21 -109t59 -90l410 409q-40 37 -91 58t-109 21zM347 0q56 0 105.5 19.5t88 54t63.5 81.5t32 101h17
q-6 -58 -32.5 -108t-67.5 -86.5t-93.5 -57.5t-112.5 -21q-64 0 -120 24t-97.5 65.5t-65.5 97.5t-24 120q0 63 24 119t65.5 97.5t97.5 65.5t120 24q66 0 123.5 -25.5t100.5 -70.5l-12 -12l-410 -409q38 -37 89 -58t109 -21z" />
    <glyph glyph-name="igrave" unicode="&#xec;" horiz-adv-x="137" 
d="M60 579h17v-579h-17v579zM-17 740v27l171 -52v-8z" />
    <glyph glyph-name="iacute" unicode="&#xed;" horiz-adv-x="137" 
d="M60 579h17v-579h-17v579zM-17 707v8l171 52v-27z" />
    <glyph glyph-name="icircumflex" unicode="&#xee;" horiz-adv-x="136" 
d="M60 579h17v-579h-17v579zM158 668l-90 90l-90 -90l-11 11l101 101l101 -101z" />
    <glyph glyph-name="idieresis" unicode="&#xef;" horiz-adv-x="136" 
d="M60 579h17v-579h-17v579zM11 754q0 -13 -13 -13t-13 13t13 13t13 -13zM151 754q0 -13 -13 -13t-13 13t13 13t13 -13z" />
    <glyph glyph-name="eth" unicode="&#xf0;" horiz-adv-x="676" 
d="M550 491q41 -40 63.5 -94.5t22.5 -115.5q0 -62 -23.5 -116t-64 -94.5t-94.5 -64t-116 -23.5t-116 23.5t-94.5 64t-64 94.5t-23.5 116q0 61 23.5 115.5t64 95t94.5 64t116 23.5q35 0 67.5 -7.5t61.5 -21.5l-119 120l-104 -29l-5 17l94 26l-66 66h24l61 -61l104 30l3 -17
l-93 -26zM538 479q-39 39 -90 61t-110 22q-58 0 -109 -22t-89 -60.5t-60 -89.5t-22 -109t22 -109.5t60 -89.5t89 -60.5t109 -22.5t109 22.5t89 60.5t60 89.5t22 109.5t-21 109t-59 89z" />
    <glyph glyph-name="ntilde" unicode="&#xf1;" horiz-adv-x="614" 
d="M60 0v579h17v-139q13 34 38 62.5t57.5 49.5t70.5 32.5t77 11.5q51 0 94 -17.5t74 -48.5t48.5 -74t17.5 -94v-362h-17v362q0 47 -16 87t-45 69t-69 45t-87 16q-48 0 -92 -18t-77.5 -49t-53.5 -73t-20 -89v-350h-17zM202 701q0 27 19.5 46.5t46.5 19.5q20 0 35.5 -10.5
t23.5 -26.5q7 -13 18.5 -21t26.5 -8q20 0 34.5 14t14.5 35h17q0 -27 -19.5 -46.5t-46.5 -19.5q-20 0 -35.5 10.5t-23.5 26.5q-5 13 -17.5 20.5t-27.5 7.5q-20 0 -34.5 -14t-14.5 -34h-17z" />
    <glyph glyph-name="ograve" unicode="&#xf2;" 
d="M635 290q0 60 -22.5 112.5t-62 92t-92 62t-112.5 22.5t-112.5 -22.5t-91.5 -62t-61.5 -92t-22.5 -112.5t22.5 -113t61.5 -92t91.5 -62t112.5 -23t112.5 23t92 62t62 92t22.5 113zM653 290q0 -64 -24 -120t-65.5 -97.5t-97.5 -65.5t-120 -24q-63 0 -119 24t-97.5 65.5
t-65.5 97.5t-24 120q0 63 24 119t65.5 97.5t97.5 65.5t119 24q64 0 120 -24t97.5 -65.5t65.5 -97.5t24 -119zM261 740v27l171 -52v-8z" />
    <glyph glyph-name="oacute" unicode="&#xf3;" 
d="M635 290q0 60 -22.5 112.5t-62 92t-92 62t-112.5 22.5t-112.5 -22.5t-91.5 -62t-61.5 -92t-22.5 -112.5t22.5 -113t61.5 -92t91.5 -62t112.5 -23t112.5 23t92 62t62 92t22.5 113zM653 290q0 -64 -24 -120t-65.5 -97.5t-97.5 -65.5t-120 -24q-63 0 -119 24t-97.5 65.5
t-65.5 97.5t-24 120q0 63 24 119t65.5 97.5t97.5 65.5t119 24q64 0 120 -24t97.5 -65.5t65.5 -97.5t24 -119zM261 707v8l171 52v-27z" />
    <glyph glyph-name="ocircumflex" unicode="&#xf4;" 
d="M653 290q0 -64 -24 -120t-65.5 -97.5t-97.5 -65.5t-120 -24q-63 0 -119 24t-97.5 65.5t-65.5 97.5t-24 120q0 63 24 119t65.5 97.5t97.5 65.5t119 24q64 0 120 -24t97.5 -65.5t65.5 -97.5t24 -119zM635 290q0 60 -22.5 112.5t-62 92t-92 62t-112.5 22.5t-112.5 -22.5
t-91.5 -62t-61.5 -92t-22.5 -112.5t22.5 -113t61.5 -92t91.5 -62t112.5 -23t112.5 23t92 62t62 92t22.5 113zM436 668l-90 90l-90 -90l-11 11l101 101l101 -101z" />
    <glyph glyph-name="otilde" unicode="&#xf5;" 
d="M635 290q0 60 -22.5 112.5t-62 92t-92 62t-112.5 22.5t-112.5 -22.5t-91.5 -62t-61.5 -92t-22.5 -112.5t22.5 -113t61.5 -92t91.5 -62t112.5 -23t112.5 23t92 62t62 92t22.5 113zM653 290q0 -64 -24 -120t-65.5 -97.5t-97.5 -65.5t-120 -24q-63 0 -119 24t-97.5 65.5
t-65.5 97.5t-24 120q0 63 24 119t65.5 97.5t97.5 65.5t119 24q64 0 120 -24t97.5 -65.5t65.5 -97.5t24 -119zM228 701q0 27 19.5 46.5t46.5 19.5q20 0 35.5 -10.5t23.5 -26.5q7 -13 18.5 -21t26.5 -8q20 0 34.5 14t14.5 35h17q0 -27 -19.5 -46.5t-46.5 -19.5
q-20 0 -35.5 10.5t-23.5 26.5q-5 13 -17.5 20.5t-27.5 7.5q-20 0 -34.5 -14t-14.5 -34h-17z" />
    <glyph glyph-name="odieresis" unicode="&#xf6;" 
d="M635 290q0 60 -22.5 112.5t-62 92t-92 62t-112.5 22.5t-112.5 -22.5t-91.5 -62t-61.5 -92t-22.5 -112.5t22.5 -113t61.5 -92t91.5 -62t112.5 -23t112.5 23t92 62t62 92t22.5 113zM653 290q0 -64 -24 -120t-65.5 -97.5t-97.5 -65.5t-120 -24q-63 0 -119 24t-97.5 65.5
t-65.5 97.5t-24 120q0 63 24 119t65.5 97.5t97.5 65.5t119 24q64 0 120 -24t97.5 -65.5t65.5 -97.5t24 -119zM289 754q0 -13 -13 -13t-13 13t13 13t13 -13zM429 754q0 -13 -13 -13t-13 13t13 13t13 -13z" />
    <glyph glyph-name="divide" unicode="&#xf7;" horiz-adv-x="679" 
d="M355 7q0 -6 -4.5 -10.5t-10.5 -4.5q-7 0 -11.5 4.5t-4.5 10.5q0 16 16 16q6 0 10.5 -4.5t4.5 -11.5zM324 571q0 6 4.5 11t11.5 5q6 0 10.5 -5t4.5 -11t-4.5 -11t-10.5 -5q-7 0 -11.5 5t-4.5 11zM629 298v-17h-579v17h579z" />
    <glyph glyph-name="oslash" unicode="&#xf8;" horiz-adv-x="701" 
d="M551 500q-40 37 -91 58t-109 21q-60 0 -112.5 -22.5t-92 -62t-62 -92t-22.5 -112.5q0 -58 20.5 -109t58.5 -90zM153 79q38 -37 89 -58t109 -21q60 0 112.5 23t91.5 62t61.5 92t22.5 113q0 58 -20 108.5t-56 89.5zM575 500q38 -41 60 -95t22 -115q0 -64 -24 -120
t-65.5 -97.5t-97.5 -65.5t-119 -24q-62 0 -115 22t-95 62l-68 -67l-12 12l68 67q-39 41 -62 95t-23 116q0 63 24 119t66 97.5t98 65.5t119 24q62 0 116 -22t96 -62l72 73l12 -12z" />
    <glyph glyph-name="ugrave" unicode="&#xf9;" horiz-adv-x="614" 
d="M222 740v27l171 -52v-8zM554 579v-579h-17v139q-14 -34 -38.5 -62.5t-57 -49.5t-70.5 -32.5t-77 -11.5q-51 0 -94 17.5t-74 48.5t-48.5 74t-17.5 94v362h17v-362q0 -47 16 -87t45 -69t69 -45t87 -16q48 0 92 18t77.5 49t53.5 73t20 89v350h17z" />
    <glyph glyph-name="uacute" unicode="&#xfa;" horiz-adv-x="614" 
d="M222 707v8l171 52v-27zM554 579v-579h-17v139q-14 -34 -38.5 -62.5t-57 -49.5t-70.5 -32.5t-77 -11.5q-51 0 -94 17.5t-74 48.5t-48.5 74t-17.5 94v362h17v-362q0 -47 16 -87t45 -69t69 -45t87 -16q48 0 92 18t77.5 49t53.5 73t20 89v350h17z" />
    <glyph glyph-name="ucircumflex" unicode="&#xfb;" horiz-adv-x="614" 
d="M554 579v-579h-17v139q-14 -34 -38.5 -62.5t-57 -49.5t-70.5 -32.5t-77 -11.5q-51 0 -94 17.5t-74 48.5t-48.5 74t-17.5 94v362h17v-362q0 -47 16 -87t45 -69t69 -45t87 -16q48 0 92 18t77.5 49t53.5 73t20 89v350h17zM398 668l-90 90l-90 -90l-11 11l101 101l101 -101z
" />
    <glyph glyph-name="udieresis" unicode="&#xfc;" horiz-adv-x="614" 
d="M250 754q0 -13 -13 -13t-13 13t13 13t13 -13zM390 754q0 -13 -13 -13t-13 13t13 13t13 -13zM554 579v-579h-17v139q-14 -34 -38.5 -62.5t-57 -49.5t-70.5 -32.5t-77 -11.5q-51 0 -94 17.5t-74 48.5t-48.5 74t-17.5 94v362h17v-362q0 -47 16 -87t45 -69t69 -45t87 -16
q48 0 92 18t77.5 49t53.5 73t20 89v350h17z" />
    <glyph glyph-name="yacute" unicode="&#xfd;" horiz-adv-x="582" 
d="M567 579l-347 -750h-19l80 173l-266 577h19l256 -557l258 557h19zM205 707v8l171 52v-27z" />
    <glyph glyph-name="thorn" unicode="&#xfe;" horiz-adv-x="714" 
d="M77 290q0 -60 23 -113t62 -92t92 -62t113 -23t112.5 23t91.5 62t62 92t23 113t-23 112.5t-62 92t-91.5 62t-112.5 22.5t-113 -22.5t-92 -62t-62 -92t-23 -112.5zM60 750h17v-359q16 45 44.5 82.5t66 65t83.5 42.5t96 15q63 0 119 -24t98 -65.5t66 -97.5t24 -119
q0 -64 -24 -120t-66 -97.5t-98 -65.5t-119 -24q-50 0 -96 15.5t-83.5 42.5t-66 65t-44.5 83v-360h-17v921z" />
    <glyph glyph-name="ydieresis" unicode="&#xff;" horiz-adv-x="582" 
d="M547 579h20l-347 -750h-18l80 173l-267 577h19l256 -557zM234 744q0 -13 -14 -13q-13 0 -13 13t13 13q14 0 14 -13zM373 744q0 -13 -13 -13t-13 13t13 13t13 -13z" />
    <glyph glyph-name="dotlessi" unicode="&#x131;" horiz-adv-x="137" 
d="M77 579v-579h-17v579h17z" />
    <glyph glyph-name="Lslash" unicode="&#x141;" horiz-adv-x="606" 
d="M591 17v-17h-512v345l-59 -13v18l59 12v388h17v-385l249 52v-17l-249 -51v-332h495z" />
    <glyph glyph-name="lslash" unicode="&#x142;" horiz-adv-x="185" 
d="M165 383l-65 -15v-368h-17v364l-63 -14v17l63 14v369h17v-365l65 15v-17z" />
    <glyph glyph-name="OE" unicode="&#x152;" horiz-adv-x="1381" 
d="M819 17h527v-17h-544v261q-19 -60 -55 -111t-85 -88t-109 -58t-126 -21q-81 0 -152.5 31t-125 84t-84 124.5t-30.5 152.5t30.5 152.5t84 124.5t125 84t152.5 31q66 0 126 -21t109 -58t85 -88t55 -111v261h544v-17h-527v-520h460v-17h-460v-179zM802 375q0 78 -29.5 146
t-80.5 119t-119.5 80.5t-145.5 29.5q-78 0 -146 -29.5t-118.5 -80.5t-80 -119t-29.5 -146t29.5 -146t80 -119t118.5 -80.5t146 -29.5q77 0 145.5 29.5t119.5 80.5t80.5 119t29.5 146z" />
    <glyph glyph-name="oe" unicode="&#x153;" horiz-adv-x="1289" 
d="M943 0q56 0 105.5 19.5t88 54t63.5 81.5t32 101h17q-6 -58 -32.5 -108t-67.5 -86.5t-93.5 -57.5t-112.5 -21q-54 0 -103 17.5t-88.5 49t-67.5 74.5t-40 94q-12 -51 -39.5 -94t-67 -74.5t-88.5 -49t-103 -17.5q-63 0 -119 24t-97.5 65.5t-65.5 97.5t-24 120q0 63 24 119
t65.5 97.5t97.5 65.5t119 24q54 0 103 -17.5t88.5 -49t67 -74.5t39.5 -94q12 51 40 94t67.5 74.5t88.5 49t103 17.5q66 0 123.5 -25.5t100.5 -70.5l-12 -12l-410 -409q38 -37 89 -58t109 -21zM635 290q0 60 -22.5 112.5t-62 92t-92 62t-112.5 22.5t-112.5 -22.5t-91.5 -62
t-61.5 -92t-22.5 -112.5t22.5 -113t61.5 -92t91.5 -62t112.5 -23t112.5 23t92 62t62 92t22.5 113zM943 579q-60 0 -113 -22.5t-92 -62t-62 -92t-23 -112.5q0 -58 21 -109t59 -90l410 409q-40 37 -91 58t-109 21z" />
    <glyph glyph-name="Scaron" unicode="&#x160;" horiz-adv-x="566" 
d="M384 889l-101 -101l-101 101l11 11l90 -90l90 90zM526 226q0 -51 -19 -95t-52 -77t-77 -52t-95 -19q-50 0 -94 19t-77 52t-52.5 77t-19.5 95h17q0 -47 18 -88t48.5 -72t71.5 -48.5t88 -17.5t88 17.5t72 48.5t48.5 72t17.5 88t-17.5 88t-48.5 72t-72 48.5t-88 17.5
q-32 0 -60.5 12.5t-50 33.5t-34 49.5t-12.5 61.5t12.5 61.5t34 50t50 34t60.5 12.5q33 0 62 -12.5t50 -34t33.5 -50t12.5 -61.5h-17q0 29 -11 54.5t-30 45t-45 30.5t-55 11t-54.5 -11t-44.5 -30.5t-30 -45t-11 -54.5t11 -54.5t30 -44.5t44.5 -30t54.5 -11q51 0 95 -19.5
t77 -52.5t52 -77t19 -94z" />
    <glyph glyph-name="scaron" unicode="&#x161;" horiz-adv-x="447" 
d="M325 769l-101 -101l-101 101l11 11l90 -90l90 90zM339 464v4q0 23 -9 43t-25 35t-36.5 24t-44.5 9t-44.5 -9t-36.5 -24t-25 -35t-9 -43q0 -24 9 -45t25 -37.5t36.5 -26t44.5 -9.5q38 0 71.5 -14t58 -38.5t39 -57t14.5 -69.5t-14.5 -71t-39 -60t-58 -41.5t-71.5 -15.5
q-37 0 -70 15t-58 40.5t-40 58.5t-16 69h18q1 -33 14 -63t35.5 -53t52.5 -36.5t64 -13.5t64.5 14t53 37.5t35.5 54.5t13 65q0 33 -13 62.5t-35.5 51.5t-53 34.5t-64.5 12.5q-27 0 -51 11.5t-42 30t-28.5 43t-10.5 51.5q0 26 10.5 49.5t28.5 41t42 27.5t51 10t51 -10
t41.5 -27.5t28 -41t10.5 -49.5v-4h-16z" />
    <glyph glyph-name="Ydieresis" unicode="&#x178;" horiz-adv-x="635" 
d="M262 847q0 -14 -14 -14q-13 0 -13 14q0 13 13 13q14 0 14 -13zM401 847q0 -14 -13 -14t-13 14q0 13 13 13t13 -13zM15 750h19l284 -534l283 534h19l-293 -554v-196h-17v196z" />
    <glyph glyph-name="Zcaron" unicode="&#x17d;" horiz-adv-x="614" 
d="M602 750l-555 -733h541v-17h-576l554 733h-541v17h577zM408 889l-101 -101l-101 101l11 11l90 -90l90 90z" />
    <glyph glyph-name="zcaron" unicode="&#x17e;" horiz-adv-x="521" 
d="M48 17h443v-17h-479l461 563h-443v16h479zM361 769l-101 -101l-101 101l11 11l90 -90l90 90z" />
    <glyph glyph-name="florin" unicode="&#x192;" horiz-adv-x="415" 
d="M119 563l2 16h119l5 34q4 28 18.5 53t35.5 44t47 29.5t54 10.5l-2 -18q-24 0 -47 -9.5t-42 -25.5t-31.5 -37.5t-15.5 -46.5l-5 -34h120l-2 -16h-120l-83 -597q-4 -28 -18.5 -53t-35.5 -43.5t-48 -29.5t-55 -11l3 17q25 0 48 9.5t41.5 26t31 38t15.5 46.5l84 597h-119z
" />
    <glyph glyph-name="circumflex" unicode="&#x2c6;" horiz-adv-x="402" 
d="M291 668l-90 90l-90 -90l-11 11l101 101l101 -101z" />
    <glyph glyph-name="caron" unicode="&#x2c7;" horiz-adv-x="402" 
d="M302 769l-101 -101l-101 101l11 11l90 -90l90 90z" />
    <glyph glyph-name="uni02C9" unicode="&#x2c9;" horiz-adv-x="307" 
d="M247 733h-187v17h187v-17z" />
    <glyph glyph-name="breve" unicode="&#x2d8;" horiz-adv-x="299" 
d="M78 750q9 -22 28.5 -35t42.5 -13q24 0 43.5 13t27.5 35h19q-10 -29 -34 -47t-56 -18q-31 0 -55.5 18t-33.5 47h18z" />
    <glyph glyph-name="dotaccent" unicode="&#x2d9;" horiz-adv-x="193" 
d="M133 722q0 -15 -11 -26t-25 -11q-15 0 -26 11t-11 26q0 14 11 25t26 11q14 0 25 -11t11 -25z" />
    <glyph glyph-name="ring" unicode="&#x2da;" horiz-adv-x="348" 
d="M232 727q0 23 -17 40.5t-40 17.5q-25 0 -42 -17.5t-17 -40.5q0 -24 17 -41.5t42 -17.5q23 0 40 17.5t17 41.5zM248 727q0 -15 -6 -29t-16 -24t-23 -16t-28 -6q-31 0 -53 22t-22 53q0 30 22 51.5t53 21.5q29 0 51 -21.5t22 -51.5z" />
    <glyph glyph-name="ogonek" unicode="&#x2db;" horiz-adv-x="274" 
d="M155 0q-34 -3 -56.5 -27.5t-22.5 -57.5q0 -18 7 -33.5t18.5 -27t27 -18.5t33.5 -7q15 0 28 5t24 13v-20q-23 -15 -52 -15q-21 0 -40 8t-32.5 22t-21.5 33t-8 40q0 27 12.5 49t32.5 36h50z" />
    <glyph glyph-name="tilde" unicode="&#x2dc;" horiz-adv-x="436" 
d="M100 701q0 27 19.5 46.5t46.5 19.5q20 0 35.5 -10.5t23.5 -26.5q7 -13 18.5 -21t26.5 -8q20 0 34.5 14t14.5 35h17q0 -27 -19.5 -46.5t-46.5 -19.5q-20 0 -35.5 10.5t-23.5 26.5q-5 13 -17.5 20.5t-27.5 7.5q-20 0 -34.5 -14t-14.5 -34h-17z" />
    <glyph glyph-name="hungarumlaut" unicode="&#x2dd;" horiz-adv-x="246" 
d="M130 750l-44 -94h-26l43 94h27zM186 750l-44 -94h-26l43 94h27z" />
    <glyph glyph-name="uni0394" unicode="&#x394;" horiz-adv-x="592" 
d="M287 750h18l267 -750h-552zM547 17l-251 705l-252 -705h503z" />
    <glyph glyph-name="uni03A9" unicode="&#x3a9;" horiz-adv-x="864" 
d="M824 375q0 -60 -17 -115t-47.5 -101.5t-73.5 -82.5t-94 -59h215v-17h-262v17q57 18 104.5 52.5t82.5 81.5t54.5 104t19.5 120q0 78 -29.5 146t-80 119t-118.5 80.5t-146 29.5t-146 -29.5t-118.5 -80.5t-80 -119t-29.5 -146q0 -63 19.5 -120t54 -104t83 -81.5t105.5 -52.5
v-17h-263v17h215q-51 23 -93.5 59t-73.5 82.5t-48 101.5t-17 115q0 81 31 152.5t84 124.5t124.5 84t152.5 31t152.5 -31t124.5 -84t84 -124.5t31 -152.5z" />
    <glyph glyph-name="uni03BC" unicode="&#x3bc;" horiz-adv-x="614" 
d="M60 579h17v-362q0 -47 16 -87t45 -69t69 -45t87 -16q48 0 92 18t77.5 49t53.5 73t20 89v350h17v-579h-17v139q-14 -34 -38.5 -62.5t-57 -49.5t-70.5 -32.5t-77 -11.5q-78 0 -135 38t-82 103v-295h-17v750z" />
    <glyph glyph-name="pi" unicode="&#x3c0;" horiz-adv-x="619" 
d="M599 528h-44q-20 0 -48.5 -1t-60.5 -2v-525h-17v524q-56 -1 -119 -3.5t-120 -7.5q-1 -20 -3 -65.5t-4.5 -102.5t-6 -118t-6.5 -111.5t-5.5 -83t-4.5 -32.5h-17q3 0 6 32t6 82t6 110.5t5 117.5t3.5 103t2.5 67q-31 -3 -58 -6t-47.5 -6.5t-33 -8t-13.5 -8.5v17q0 7 25 13.5
t65.5 11t92.5 8t106 5.5q128 5 290 7v-17z" />
    <glyph glyph-name="endash" unicode="&#x2013;" horiz-adv-x="584" 
d="M539 299v-17h-494v17h494z" />
    <glyph glyph-name="emdash" unicode="&#x2014;" horiz-adv-x="840" 
d="M795 298v-17h-750v17h750z" />
    <glyph glyph-name="quoteleft" unicode="&#x2018;" horiz-adv-x="140" 
d="M80 740q-5 0 -9.5 -4t-4.5 -10v-49h3q9 0 15 -6t6 -15q0 -8 -6 -14t-15 -6q-8 0 -13.5 6t-5.5 14v70q0 13 8.5 22t21.5 9h4v-17h-4z" />
    <glyph glyph-name="quoteright" unicode="&#x2019;" horiz-adv-x="140" 
d="M60 653q5 0 9.5 4t4.5 10v49h-3q-9 0 -15 6t-6 15q0 8 6 14t15 6q8 0 13.5 -6t5.5 -14v-70q0 -13 -8.5 -22t-21.5 -9h-4v17h4z" />
    <glyph glyph-name="quotesinglbase" unicode="&#x201a;" horiz-adv-x="120" 
d="M60 -71q5 0 9.5 4t4.5 10v49h-3q-9 0 -15 6t-6 15q0 8 6 14t15 6q8 0 13.5 -6t5.5 -14v-70q0 -13 -8.5 -22t-21.5 -9h-4v17h4z" />
    <glyph glyph-name="quotedblleft" unicode="&#x201c;" horiz-adv-x="178" 
d="M80 740q-5 0 -9.5 -4t-4.5 -10v-49h3q9 0 15 -6t6 -15q0 -8 -6 -14t-15 -6q-8 0 -13.5 6t-5.5 14v70q0 13 8.5 22t21.5 9h4v-17h-4zM138 740q-5 0 -9.5 -4t-4.5 -10v-49h3q9 0 15 -6t6 -15q0 -8 -6 -14t-15 -6q-8 0 -13.5 6t-5.5 14v70q0 13 8.5 22t21.5 9h4v-17h-4z" />
    <glyph glyph-name="quotedblright" unicode="&#x201d;" horiz-adv-x="178" 
d="M98 653q5 0 9.5 4t4.5 10v49h-3q-9 0 -15 6t-6 15q0 8 6 14t15 6q8 0 13.5 -6t5.5 -14v-70q0 -13 -8.5 -22t-21.5 -9h-4v17h4zM40 653q5 0 9.5 4t4.5 10v49h-3q-9 0 -15 6t-6 15q0 8 6 14t15 6q8 0 13.5 -6t5.5 -14v-70q0 -13 -8.5 -22t-21.5 -9h-4v17h4z" />
    <glyph glyph-name="quotedblbase" unicode="&#x201e;" horiz-adv-x="178" 
d="M98 -71q5 0 9.5 4t4.5 10v49h-3q-9 0 -15 6t-6 15q0 8 6 14t15 6q8 0 13.5 -6t5.5 -14v-70q0 -13 -8.5 -22t-21.5 -9h-4v17h4zM40 -71q5 0 9.5 4t4.5 10v49h-3q-9 0 -15 6t-6 15q0 8 6 14t15 6q8 0 13.5 -6t5.5 -14v-70q0 -13 -8.5 -22t-21.5 -9h-4v17h4z" />
    <glyph glyph-name="dagger" unicode="&#x2020;" horiz-adv-x="540" 
d="M263 579v171h17v-171h200v-17h-200v-648h-17v648h-203v17h203z" />
    <glyph glyph-name="daggerdbl" unicode="&#x2021;" horiz-adv-x="540" 
d="M60 85v17h203v460h-203v17h203v171h17v-171h200v-17h-200v-460h200v-17h-200v-171h-17v171h-203z" />
    <glyph glyph-name="bullet" unicode="&#x2022;" horiz-adv-x="269" 
d="M135 256q-14 0 -24.5 9.5t-10.5 24.5q0 14 10.5 23.5t24.5 9.5t24 -9.5t10 -23.5q0 -15 -10 -24.5t-24 -9.5z" />
    <glyph glyph-name="ellipsis" unicode="&#x2026;" horiz-adv-x="534" 
d="M35 13q0 8 6 14t14 6t14 -6t6 -14t-6 -14t-14 -6t-14 6t-6 14zM247 13q0 8 6 14t14 6t14 -6t6 -14t-6 -14t-14 -6t-14 6t-6 14zM459 13q0 8 6 14t14 6t14 -6t6 -14t-6 -14t-14 -6t-14 6t-6 14z" />
    <glyph glyph-name="perthousand" unicode="&#x2030;" horiz-adv-x="862" 
d="M567 119q0 -25 9.5 -46.5t25.5 -37.5t37.5 -25.5t46.5 -9.5t46.5 9.5t37.5 25.5t25.5 37.5t9.5 46.5t-9.5 46.5t-25.5 37.5t-37.5 25.5t-46.5 9.5t-46.5 -9.5t-37.5 -25.5t-25.5 -37.5t-9.5 -46.5zM549 119q0 28 11 53t29.5 44t43.5 29.5t53 10.5t53 -10.5t43.5 -29.5
t29 -44t10.5 -53t-10.5 -53t-29 -43.5t-43.5 -29t-53 -10.5t-53 10.5t-43.5 29t-29.5 43.5t-11 53zM313 630q0 -28 -10.5 -53t-29 -43.5t-43.5 -29t-53 -10.5q-29 0 -53.5 10.5t-43.5 29t-29.5 43.5t-10.5 53t10.5 53t29.5 44t43.5 29.5t53.5 10.5q36 0 66 -17t48 -46
q9 -14 24.5 -22.5t32.5 -8.5q20 0 36.5 11.5t25.5 28.5l22 54l15 -7l-323 -777l-15 7l282 678q-9 -5 -20.5 -8.5t-22.5 -3.5q-21 0 -40 11q3 -9 4 -18t1 -19zM243 119q0 28 10.5 53t29.5 44t43.5 29.5t53.5 10.5q28 0 53 -10.5t43.5 -29.5t29 -44t10.5 -53t-10.5 -53
t-29 -43.5t-43.5 -29t-53 -10.5q-29 0 -53.5 10.5t-43.5 29t-29.5 43.5t-10.5 53zM296 630q0 25 -9.5 46.5t-25.5 38t-38 26t-46 9.5q-25 0 -46.5 -9.5t-38 -26t-26 -38t-9.5 -46.5q0 -24 9.5 -46t26 -38t38 -25.5t46.5 -9.5q24 0 46 9.5t38 25.5t25.5 38t9.5 46zM260 119
q0 -25 9.5 -46.5t26 -37.5t38 -25.5t46.5 -9.5q24 0 46 9.5t38 25.5t25.5 37.5t9.5 46.5t-9.5 46.5t-25.5 37.5t-38 25.5t-46 9.5q-25 0 -46.5 -9.5t-38 -25.5t-26 -37.5t-9.5 -46.5z" />
    <glyph glyph-name="guilsinglleft" unicode="&#x2039;" horiz-adv-x="242" 
d="M202 127l-162 163l162 162v-24l-138 -138l138 -139v-24z" />
    <glyph glyph-name="guilsinglright" unicode="&#x203a;" horiz-adv-x="242" 
d="M40 151l138 139l-138 138v24l162 -162l-162 -163v24z" />
    <glyph glyph-name="fraction" unicode="&#x2044;" horiz-adv-x="454" 
d="M60 -13l327 781l7 -3l-326 -781z" />
    <glyph glyph-name="Euro" unicode="&#x20ac;" horiz-adv-x="723" 
d="M683 132q-22 -34 -47 -61.5t-55.5 -47t-66.5 -30t-79 -10.5q-63 0 -115 24t-91.5 66.5t-65.5 100t-37 124.5h-91v17h89q-2 14 -3 29.5t-1 30.5t1 30t3 29h-89v18h91q11 67 37 124.5t65.5 100t91.5 66.5t115 24q43 0 79 -10.5t66.5 -30t55.5 -47t47 -61.5l-15 -9
q-42 65 -97 103t-136 38q-59 0 -108 -23t-86 -63t-61.5 -94.5t-35.5 -117.5h470v-18h-473q-3 -29 -3 -59q0 -32 3 -60h388v-17h-385q11 -64 35.5 -118.5t61.5 -94.5t86 -62.5t108 -22.5q81 0 136 38t97 103z" />
    <glyph glyph-name="trademark" unicode="&#x2122;" horiz-adv-x="362" 
d="M171 600v150h7l68 -142l68 142h8v-150h-8v134l-65 -134h-6l-65 134v-134h-7zM40 750h117v-7h-55v-143h-6v143h-56v7z" />
    <glyph glyph-name="Omega" unicode="&#x2126;" horiz-adv-x="864" 
d="M824 375q0 -60 -17 -115t-47.5 -101.5t-73.5 -82.5t-94 -59h215v-17h-262v17q57 18 104.5 52.5t82.5 81.5t54.5 104t19.5 120q0 78 -29.5 146t-80 119t-118.5 80.5t-146 29.5t-146 -29.5t-118.5 -80.5t-80 -119t-29.5 -146q0 -63 19.5 -120t54 -104t83 -81.5t105.5 -52.5
v-17h-263v17h215q-51 23 -93.5 59t-73.5 82.5t-48 101.5t-17 115q0 81 31 152.5t84 124.5t124.5 84t152.5 31t152.5 -31t124.5 -84t84 -124.5t31 -152.5z" />
    <glyph glyph-name="partialdiff" unicode="&#x2202;" horiz-adv-x="676" 
d="M636 281q0 -62 -23.5 -116t-64 -94.5t-94.5 -64t-116 -23.5t-116 23.5t-94.5 64t-64 94.5t-23.5 116t23.5 116t64 94.5t94.5 64t116 23.5q45 0 86.5 -12.5t76.5 -35.5t62.5 -54.5t44.5 -69.5q-13 74 -40 137t-65 108.5t-84.5 71t-97.5 25.5q-54 0 -102.5 -28t-86.5 -78
l-14 10q42 54 93.5 84t109.5 30q65 0 122.5 -38.5t100 -104.5t67.5 -154.5t25 -188.5zM618 281q0 58 -22 109.5t-60 89.5t-89 60.5t-109 22.5t-109 -22.5t-89 -60.5t-60 -89.5t-22 -109.5t22 -109t60 -89.5t89 -60.5t109 -22t109 22t89 60.5t60 89.5t22 109z" />
    <glyph glyph-name="Delta" unicode="&#x2206;" horiz-adv-x="592" 
d="M287 750h18l267 -750h-552zM547 17l-251 705l-252 -705h503z" />
    <glyph glyph-name="product" unicode="&#x220f;" horiz-adv-x="620" 
d="M447 733v-733h-17v733h-239v-733h-17v733h-154v17h580v-17h-153z" />
    <glyph glyph-name="summation" unicode="&#x2211;" horiz-adv-x="551" 
d="M531 0h-511v17l358 358l-358 357v18h511v-17h-487l359 -358l-359 -358h487v-17z" />
    <glyph glyph-name="minus" unicode="&#x2212;" horiz-adv-x="679" 
d="M629 298v-17h-579v17h579z" />
    <glyph glyph-name="uni2215" unicode="&#x2215;" horiz-adv-x="454" 
d="M60 -13l327 781l7 -3l-326 -781z" />
    <glyph glyph-name="uni2219" unicode="&#x2219;" horiz-adv-x="160" 
d="M35 290q0 8 6 14t14 6t14 -6t6 -14t-6 -14t-14 -6t-14 6t-6 14z" />
    <glyph glyph-name="radical" unicode="&#x221a;" horiz-adv-x="531" 
d="M180 24l302 726h19l-312 -750h-17l-101 243l-25 -59l-16 7l32 76h17z" />
    <glyph glyph-name="infinity" unicode="&#x221e;" horiz-adv-x="487" 
d="M50 290q0 35 25 60t60 25q18 0 33.5 -7t26.5 -18l48 -48l48 48q12 11 28 18t34 7q17 0 32.5 -6.5t27 -18t18 -27t6.5 -33.5t-6.5 -33.5t-18 -27t-27 -18.5t-32.5 -7q-36 0 -62 26l-48 48l-48 -48q-24 -26 -60 -26q-18 0 -33.5 7t-27 18.5t-18 27t-6.5 33.5zM303 242
q11 -9 23 -15t27 -6q28 0 47.5 20t19.5 49q0 28 -19.5 48t-47.5 20q-15 0 -27 -5.5t-23 -14.5l-48 -48zM67 290q0 -29 20 -49t48 -20q14 0 26.5 6t21.5 15l48 48l-48 48q-20 20 -48 20t-48 -20t-20 -48z" />
    <glyph glyph-name="integral" unicode="&#x222b;" horiz-adv-x="286" 
d="M15 -154q25 0 47 9.5t38 26t25.5 38t9.5 46.5v647q0 28 10.5 53t29 44t43.5 29.5t53 10.5v-18q-25 0 -46.5 -9.5t-37.5 -25.5t-25.5 -37.5t-9.5 -46.5v-647q0 -28 -10.5 -53t-29.5 -43.5t-44 -29.5t-53 -11v17z" />
    <glyph glyph-name="approxequal" unicode="&#x2248;" horiz-adv-x="680" 
d="M50 385q67 38 146 38q80 0 144 -38q65 -42 145 -42t145 42v-21q-32 -18 -68.5 -28t-76.5 -10t-76.5 10t-68.5 29q-64 41 -144 41q-82 0 -146 -41v20zM196 254q40 0 76 -10.5t68 -29.5q32 -20 68.5 -30.5t76.5 -10.5t76.5 10.5t68.5 30.5v-19q-63 -39 -145 -39
q-81 0 -145 39q-32 20 -68 31t-76 11q-41 0 -77.5 -11t-68.5 -31v20q33 18 69.5 28.5t76.5 10.5z" />
    <glyph glyph-name="notequal" unicode="&#x2260;" horiz-adv-x="679" 
d="M276 213h353v-17h-371l-106 -107l-12 12l94 95h-184v17h202l152 153h-354v17h371l107 107l12 -12l-95 -95h184v-17h-201z" />
    <glyph glyph-name="lessequal" unicode="&#x2264;" horiz-adv-x="421" 
d="M40 367v16l341 196v-19l-322 -185l322 -185v-19zM381 17v-17h-341v17h341z" />
    <glyph glyph-name="greaterequal" unicode="&#x2265;" horiz-adv-x="421" 
d="M40 171v19l322 185l-322 185v19l341 -196v-16zM381 17v-17h-341v17h341z" />
    <glyph glyph-name="lozenge" unicode="&#x25ca;" horiz-adv-x="557" 
d="M270 0l-230 375l231 375h16l230 -375l-229 -375h-18zM279 19l218 356l-218 356l-218 -356z" />
    <glyph glyph-name="uniF8FF" unicode="&#xf8ff;" horiz-adv-x="500" 
 />
    <glyph glyph-name="uniFB01" unicode="&#xfb01;" horiz-adv-x="470" 
 />
    <glyph glyph-name="uniFB02" unicode="&#xfb02;" horiz-adv-x="470" 
d="M276 213v-17h-171v-196h-17v196h-68v17h68v400q0 28 10.5 53t29 44t43.5 29.5t53 10.5h186v-750h-17v732h-169q-24 0 -46 -9.5t-38 -25.5t-25.5 -37.5t-9.5 -46.5v-400h171z" />
    <glyph glyph-name="glyph220" 
d="M653 290q0 -64 -24 -120t-65.5 -97.5t-97.5 -65.5t-120 -24q-63 0 -119 24t-97.5 65.5t-65.5 97.5t-24 120q0 63 24 119t65.5 97.5t97.5 65.5t119 24q64 0 120 -24t97.5 -65.5t65.5 -97.5t24 -119zM640 290q0 61 -23 114t-63 93t-93.5 63t-114.5 23q-60 0 -113.5 -23
t-93.5 -63t-63 -93t-23 -114t23 -114.5t63 -93.5t93.5 -63t113.5 -23q61 0 114.5 23t93.5 63t63 93.5t23 114.5zM500 343q0 -30 -11 -55.5t-30 -44.5t-44.5 -30t-54.5 -11h-124v-107h-18v389h142q29 0 54.5 -11t44.5 -30t30 -45t11 -55zM483 343q0 25 -9.5 47.5t-26.5 39.5
t-39.5 26.5t-47.5 9.5h-124v-247h124q25 0 47.5 9.5t39.5 26.5t26.5 39.5t9.5 48.5z" />
    <glyph glyph-name="glyph221" horiz-adv-x="599" 
d="M410 136q0 -24 9.5 -46t25.5 -38t37.5 -25.5t46.5 -9.5h50v-17h-50q-29 0 -53.5 10.5t-43 29t-29 43.5t-10.5 53v427h-288v-427q0 -24 9.5 -46t25.5 -38t38 -25.5t46 -9.5h52v-17h-52q-28 0 -53 10.5t-43.5 29t-29 43.5t-10.5 53v427h-68v16h68v131h17v-131h288v131h17
v-131h169v-16h-169v-427z" />
    <glyph glyph-name="glyph222" horiz-adv-x="601" 
 />
    <glyph glyph-name="glyph223" horiz-adv-x="614" 
d="M582 213v-17h-171v-196h-17v196h-289v-196h-17v196h-68v17h68v400q0 28 10.5 53t29 44t43.5 29.5t53 10.5h52v-18h-52q-24 0 -46 -9.5t-38 -25.5t-25.5 -37.5t-9.5 -46.5v-400h289v400q0 28 10.5 53t29 44t43.5 29.5t53 10.5h52v-18h-52q-24 0 -46 -9.5t-38 -25.5
t-25.5 -37.5t-9.5 -46.5v-400h171z" />
    <glyph glyph-name="glyph224" horiz-adv-x="775" 
d="M581 213v-17h-171v-196h-17v196h-288v-196h-17v196h-68v17h68v400q0 28 10.5 53t29 44t43.5 29.5t53 10.5h52v-18h-52q-24 0 -46 -9.5t-38 -25.5t-25.5 -37.5t-9.5 -46.5v-400h288v400q0 28 10.5 53t29 44t43.5 29.5t53 10.5h186v-750h-17v732h-169q-24 0 -46 -9.5
t-38 -25.5t-25.5 -37.5t-9.5 -46.5v-400h171z" />
    <glyph glyph-name="glyph251" horiz-adv-x="501" 
 />
    </font>
</defs>
</svg>
