<?xml version="1.0" standalone="no"?>
<!DOCTYPE svg PUBLIC "-//W3C//DTD SVG 1.1//EN" "http://www.w3.org/Graphics/SVG/1.1/DTD/svg11.dtd" >
<svg>
<metadata>
Created by FontForge 20120731 at Sun May 27 16:06:07 2018
 By www
Copyright (c) 2010 by Hannes von Doehren. All rights reserved.
</metadata>
<defs>
<font id="ReklameScriptW00-Bold" horiz-adv-x="550" >
  <font-face 
    font-family="ReklameScriptW00-Bold"
    font-weight="700"
    font-stretch="normal"
    units-per-em="1000"
    panose-1="3 6 8 2 4 6 7 8 13 5"
    ascent="760"
    descent="-240"
    x-height="495"
    cap-height="715"
    bbox="-182.133 -331 1598 1044"
    underline-thickness="50"
    underline-position="-100"
    unicode-range="U+0002-FB02"
  />
<missing-glyph horiz-adv-x="678" 
d="M239 379q7 4 16 12.5t17 17.5t13 17t5 11l-6 8q8 14 20 27t25.5 22.5t28 15t27.5 5.5q8 0 13 -6t5 -15q0 -18 -16 -37t-37.5 -39.5t-43 -43.5t-33.5 -48q3 -7 11 -17.5t17 -19.5t17 -14.5t11 -1.5q16 27 39 50.5t44.5 47t37 47.5t15.5 51q0 19 -8 39.5t-21.5 37.5
t-31.5 27.5t-37 10.5q-28 0 -55 -11t-49.5 -30.5t-38.5 -47t-23 -59.5zM271 145q0 -19 15 -32t32 -13q14 0 23 9.5t14.5 23t8 27.5t2.5 22q0 25 -12 33.5t-21 8.5q-17 0 -28.5 -9t-19 -22t-11 -26t-3.5 -22zM100 700h478v-700h-478v700z" />
    <glyph glyph-name=".notdef" horiz-adv-x="678" 
d="M239 379q7 4 16 12.5t17 17.5t13 17t5 11l-6 8q8 14 20 27t25.5 22.5t28 15t27.5 5.5q8 0 13 -6t5 -15q0 -18 -16 -37t-37.5 -39.5t-43 -43.5t-33.5 -48q3 -7 11 -17.5t17 -19.5t17 -14.5t11 -1.5q16 27 39 50.5t44.5 47t37 47.5t15.5 51q0 19 -8 39.5t-21.5 37.5
t-31.5 27.5t-37 10.5q-28 0 -55 -11t-49.5 -30.5t-38.5 -47t-23 -59.5zM271 145q0 -19 15 -32t32 -13q14 0 23 9.5t14.5 23t8 27.5t2.5 22q0 25 -12 33.5t-21 8.5q-17 0 -28.5 -9t-19 -22t-11 -26t-3.5 -22zM100 700h478v-700h-478v700z" />
    <glyph glyph-name="glyph1" horiz-adv-x="0" 
 />
    <glyph glyph-name="uni000D" unicode="&#xd;" horiz-adv-x="0" 
 />
    <glyph glyph-name="uni0002" horiz-adv-x="0" 
 />
    <glyph glyph-name="uni0009" unicode="&#x9;" horiz-adv-x="0" 
 />
    <glyph glyph-name="uni000A" unicode="&#xa;" horiz-adv-x="0" 
 />
    <glyph glyph-name="space" unicode=" " horiz-adv-x="253" 
 />
    <glyph glyph-name="exclam" unicode="!" horiz-adv-x="417" 
d="M191 312q-1 47 2.5 105t11 116.5t19.5 112.5t27 93q2 6 9.5 10t13.5 4t20.5 -0.5t31.5 -2.5t33.5 -5t27.5 -9q5 -3 4.5 -9t-3 -12.5t-3.5 -12.5t3 -9q6 -5 16 -10t18 -12t10.5 -17t-5.5 -25q-13 -33 -31.5 -78.5t-37.5 -96t-35.5 -103.5t-25.5 -101q-6 -6 -23 -5t-35 9.5
t-32.5 23t-15.5 34.5zM107 49q0 13 7.5 31.5t25.5 35t46.5 28t70.5 11.5q11 0 23.5 -4t23.5 -13t18.5 -23t7.5 -33q0 -12 -5 -34.5t-17 -44t-33.5 -37.5t-54.5 -16q-21 0 -41.5 10t-36.5 24.5t-25.5 32t-9.5 32.5z" />
    <glyph glyph-name="quotedbl" unicode="&#x22;" horiz-adv-x="595" 
d="M268 552q3 -3 0.5 -17t-8.5 -31.5t-14.5 -35.5t-16.5 -29q-7 -9 -29.5 -7.5t-46.5 8.5t-42.5 17t-17.5 17q3 30 7.5 64t8.5 67t8.5 62.5t7.5 50.5q0 3 12 2.5t29.5 -3.5t38 -8.5t37.5 -12t28 -14.5t10 -15q-2 -10 -4.5 -23.5t-5.5 -28l-6 -29t-7 -25.5zM316 477
q3 30 8 62t9.5 63.5t9.5 59.5t8 49q0 3 12 2.5t29.5 -3.5t38 -8.5t37.5 -12t28 -14.5t10 -15q-4 -23 -10.5 -50t-13 -55.5t-12.5 -57.5t-10 -55q-2 -10 -25 -8.5t-49.5 9t-48.5 17.5t-21 17z" />
    <glyph glyph-name="numbersign" unicode="#" horiz-adv-x="782" 
d="M403 557q-4 -12 -7 -24t-7 -23l100 11q16 60 29.5 104t21.5 62q2 4 2.5 9t3.5 9.5t10.5 7t22.5 2.5q10 0 27.5 -4t34.5 -9.5t32 -11.5t21 -10q-9 -23 -20 -61t-24 -86q34 2 55.5 -1t41.5 -23q6 -6 14.5 -16.5t15.5 -21t11 -18.5t1 -11q-8 -7 -51 -11t-115 -10l-24 -108
h22q7 0 23 -17t28 -36.5t15 -36t-14 -16.5q-23 -1 -47.5 -2t-50.5 -3q-12 -58 -21.5 -105t-14.5 -76q-2 -12 -24 -12q-12 0 -33.5 5.5t-42.5 12.5t-37 13.5t-19 9.5q5 29 11.5 62.5t14.5 69.5q-24 -3 -50 -6.5t-53 -8.5q-11 -57 -17 -110.5t-8 -101.5q-1 -11 -25 -9.5
t-53.5 8.5t-55 15.5t-29.5 12.5q4 35 10.5 75t14.5 84q-6 -2 -12 -2.5t-13 -1.5q-15 -2 -32.5 11.5t-31 31t-19 33.5t4.5 18q32 8 64 14.5t64 12.5l28 110l-24 -4q-15 -3 -32.5 10.5t-30.5 31t-18.5 33.5t4.5 19q60 15 134 29q20 66 38.5 122t34.5 98q15 1 38 -2.5t44.5 -9
t37 -13t15.5 -15.5q1 -11 0.5 -30.5t-3 -37.5t-7.5 -31.5t-12 -12.5zM435 301q6 27 12 53t13 52q-25 -2 -50 -5t-52 -7q-14 -52 -27 -107z" />
    <glyph glyph-name="dollar" unicode="$" horiz-adv-x="732" 
d="M206 145q0 -20 16 -39t41 -28q18 72 38.5 149t41.5 155q-24 19 -50.5 34t-52.5 26.5t-50.5 19t-44.5 11.5q-6 1 -13.5 17t-14 35t-10.5 35t-4 19q-1 15 28 31t76 30.5t106 26.5t119 21q8 24 14.5 44t12.5 36q23 4 37.5 -2t16.5 -26l-13 -43q39 4 74 6t61 0q10 -1 21 -14
t20.5 -29t15.5 -31t6 -19q0 -17 -16.5 -35.5t-39 -34t-46 -26t-37.5 -10.5q-8 0 -18 5.5t-10 10.5q0 6 8 19.5t8 21.5q0 5 -25 5t-60 -4q-8 -26 -15.5 -53.5t-15.5 -55.5q36 -22 72.5 -50t65.5 -62.5t47 -75.5t18 -89t-23.5 -83.5t-62.5 -59t-91 -35t-109 -11.5
q-8 0 -15.5 0.5t-14.5 0.5l-6 -31q5 -2 8 -5t2 -12q0 -12 -11 -35.5t-25 -38.5q-9 -9 -19 -9t-20 5t-18 12t-12 11l26 113q-51 11 -90 31.5t-65.5 46.5t-40.5 55t-14 58q0 23 7 44.5t19.5 38.5t30.5 27t41 10t44 -6t37.5 -15t27 -19t12.5 -17q-7 -8 -15 -20t-15 -26
t-11.5 -30t-4.5 -31zM398 328q-17 -65 -32 -128t-29 -123q48 10 76.5 43t28.5 88q0 34 -12 64t-32 56zM391 552q-31 -5 -59 -13t-47 -17q12 -5 35 -14t52 -23z" />
    <glyph glyph-name="percent" unicode="%" horiz-adv-x="1112" 
d="M243 -45q4 18 9.5 41.5t12.5 45t15 36.5t16 15q6 0 11 -1.5t8 -1.5q2 0 4 2q92 129 183.5 252.5t180.5 237.5q-9 -6 -21 -10q-11 -4 -28 -7t-41 -3q-30 0 -57 9t-41 21q5 -9 7 -28.5t2 -33.5q0 -10 -3.5 -31t-13 -46t-26.5 -51t-43 -47.5t-63 -35.5t-87 -14
q-57 0 -95.5 17.5t-62 45t-33.5 60.5t-10 64q0 44 17.5 85t49.5 72.5t76.5 50.5t99.5 19q8 0 19.5 -1t23 -2.5t21.5 -4.5t15 -7q3 2 13.5 7.5t15.5 5.5q13 0 27 -14t33.5 -30.5t47 -30t68.5 -13.5q29 0 50.5 4.5t36.5 10.5q18 7 30 16q7 7 17 17.5t21.5 21t24.5 18t27 7.5
q7 0 21.5 -7t29 -17t25 -19.5t10.5 -15.5q0 -7 -7 -20.5t-18.5 -27t-25.5 -25t-28 -14.5q-24 -22 -54.5 -60t-65 -85.5t-71.5 -102.5t-73.5 -110.5t-71 -109t-64 -98t-52.5 -78t-36 -49.5q-10 0 -23 8.5t-25 19.5t-20.5 23t-8.5 19zM601 115q0 40 16.5 82t43.5 77t60.5 59
t67.5 29q14 -4 24.5 -9t12.5 -10q6 2 14 4q7 2 16.5 3.5t20.5 1.5q53 0 86.5 -14t52.5 -36.5t26 -49.5t7 -52q0 -52 -16.5 -99.5t-48 -83.5t-77.5 -57.5t-106 -21.5q-54 0 -92 16.5t-62 42t-35 57t-11 61.5zM261 401q18 0 34 22.5t28 54.5t19.5 66t7.5 57q-10 11 -14.5 16
t-6.5 18q-17 0 -33.5 -13t-30 -35t-22 -52.5t-10.5 -64.5q-2 -29 4.5 -49t23.5 -20zM766 104q-2 -31 3.5 -53.5t24.5 -22.5q21 0 37.5 26.5t27.5 61t16.5 67t6.5 44.5q1 14 -1 27t-16 13q-12 0 -22.5 -8.5t-18 -20.5t-12.5 -26.5t-7 -26.5h-2q-4 0 -9 1.5t-7 3.5
q-5 -11 -9 -24q-4 -11 -7.5 -27t-4.5 -35z" />
    <glyph glyph-name="ampersand" unicode="&#x26;" horiz-adv-x="828" 
d="M15 191q1 21 15 43t42 47t71.5 54.5t104.5 65.5q-38 60 -62 109t-23 79q1 28 21 54t56 45.5t86.5 31.5t113.5 12q45 0 88.5 -16t77.5 -43t54.5 -62.5t19.5 -74.5q0 -19 -11 -38.5t-38 -43t-73 -52t-116 -66.5q32 -41 71 -86q30 20 57 40t49.5 38t39 33.5t25.5 27.5
q30 5 54 -2.5t41.5 -22.5t26.5 -34.5t9 -38.5q0 -11 -15.5 -29t-41.5 -40.5t-60.5 -48t-74.5 -51.5l36 -41l6 3q3 1 7 2t9 1q14 0 26 -11t21.5 -26t16 -31t9.5 -26q0 -7 -11 -19.5t-26 -25t-31.5 -22.5t-28.5 -11q-17 9 -55 47t-88 94q-37 -20 -73 -37.5t-69 -30.5
t-61.5 -20t-50.5 -7q-52 0 -97.5 25.5t-79 61.5t-52 75.5t-16.5 67.5zM212 101q29 0 81.5 24t113.5 59q-18 23 -36.5 46.5t-35.5 46.5q-78 -44 -119 -74.5t-42 -64.5q0 -17 9 -27t29 -10zM323 530q0 -12 7.5 -29.5t21.5 -40.5q37 20 71 38.5t60 36t42 33t17 29.5
q1 16 -11.5 22.5t-25.5 6.5q-20 0 -51 -8.5t-60 -22t-50 -30.5t-21 -35z" />
    <glyph glyph-name="quotesingle" unicode="'" horiz-adv-x="359" 
d="M93 475q3 30 8 62t9.5 63.5t9.5 59.5t8 49q0 3 12 2.5t29.5 -4.5t38 -10.5t37.5 -13.5t27.5 -15t9.5 -16q-4 -23 -10 -50t-13 -55.5t-13.5 -57t-10.5 -54.5q-2 -10 -24.5 -8t-49 10.5t-48 19.5t-20.5 18z" />
    <glyph glyph-name="parenleft" unicode="(" horiz-adv-x="342" 
d="M389 637q-109 -77 -173 -171t-64 -215q0 -37 13.5 -74.5t34.5 -71.5t45.5 -61.5t45.5 -44.5q1 -7 -3.5 -19t-13.5 -23.5t-23 -20t-32 -8.5q-28 23 -63.5 65t-66.5 96t-52.5 117.5t-21.5 130.5q0 68 19 128t50.5 109.5t73.5 87t87 60.5q9 4 29 -3t42.5 -19t43.5 -24.5
t32 -18.5z" />
    <glyph glyph-name="parenright" unicode=")" horiz-adv-x="433" 
d="M29 -11q109 77 173 180t64 225q0 37 -13 74.5t-33.5 71t-45 61t-47.5 45.5q-1 7 2.5 19t12 23.5t22.5 20t35 9.5q28 -23 63.5 -65t66.5 -96.5t52.5 -118t21.5 -130.5q0 -68 -19 -131t-50.5 -116t-73.5 -94t-87 -64q-9 -5 -28.5 -0.5t-42 14t-43.5 23t-33 28.5z" />
    <glyph glyph-name="asterisk" unicode="*" horiz-adv-x="586" 
d="M214 500q-24 -4 -45.5 -10t-41.5 -9q-14 -3 -28.5 10t-25 30.5t-13.5 33t6 18.5q26 8 59.5 9t74.5 7q-11 9 -22.5 15.5t-23 12.5t-23.5 13t-24 18q-11 10 -6.5 22t16.5 21.5t28.5 14.5t30.5 1l68 -73q5 26 4.5 54t7.5 56q4 13 20.5 17t37.5 2t41 -9.5t30 -17.5
q-6 -31 -17.5 -64t-16.5 -64q10 1 22.5 6t28.5 9.5t34 7t39 -0.5q7 0 20 -18t22 -39.5t10 -39t-15 -17.5q-29 -1 -61 2t-63 1l87 -62q12 -11 7.5 -21t-18 -17.5t-31 -10.5t-31.5 1l-81 81q-2 -29 0.5 -57.5t-1.5 -54.5q-2 -14 -18 -16t-36.5 2.5t-41 14.5t-32.5 20z" />
    <glyph glyph-name="plus" unicode="+" horiz-adv-x="610" 
d="M133 205q-15 -2 -32 13t-29.5 34.5t-17 37t5.5 20.5q29 7 70 13.5t87 11.5q7 41 15.5 79t20.5 71q4 12 25.5 12.5t48 -5t51.5 -15.5t36 -19q-5 -24 -11 -51.5t-11 -56.5l41 3q6 0 7.5 9t7.5 9t15 -2t18 -5t16.5 -6t10.5 -4q14 -5 29.5 -24t25 -39.5t9.5 -37t-17 -16.5
q-43 -1 -89 -3t-94 -5l-25 -156q-2 -13 -23 -12t-48 9.5t-53 20.5t-39 21q5 22 8.5 47.5t7.5 54.5z" />
    <glyph glyph-name="comma" unicode="," horiz-adv-x="374" 
d="M112 51q0 13 5.5 31t20.5 34.5t40.5 28t64.5 11.5q17 0 33 -7.5t28.5 -21.5t20 -34t7.5 -44q0 -38 -9.5 -74t-26.5 -67t-41.5 -56.5t-54.5 -41.5q-25 -13 -48 -15t-41 5.5t-28.5 22.5t-9.5 36q20 10 41 23.5t37.5 29t27.5 32.5t12 34q-11 -2 -24.5 2t-25.5 13t-20.5 23.5
t-8.5 34.5z" />
    <glyph glyph-name="hyphen" unicode="-" horiz-adv-x="552" 
d="M138 197q-10 -2 -20.5 6.5t-21 21.5t-18.5 29t-12.5 30t-4.5 24t7 12q42 10 96 18t107 13t98.5 7t69.5 1q5 0 13.5 -10t17 -25t16 -32.5t11 -32.5t0.5 -25t-14 -10q-51 -1 -95.5 -3t-86.5 -5.5t-82 -8t-81 -10.5z" />
    <glyph glyph-name="period" unicode="." horiz-adv-x="374" 
d="M110 60q0 15 7.5 35.5t25 39t46 31.5t69.5 13q10 0 23 -4.5t23.5 -14.5t18 -25.5t7.5 -36.5q0 -14 -4.5 -39t-17 -49t-33.5 -42t-54 -18q-32 0 -49.5 11.5t-16.5 37.5q-22 8 -33.5 21.5t-11.5 39.5z" />
    <glyph glyph-name="slash" unicode="/" horiz-adv-x="621" 
d="M40 39q5 9 11.5 11t12 1t10.5 -2.5t7 1.5q43 61 91 134.5t96 148t94 144.5t86.5 124.5t73.5 87t54 32.5q10 0 20.5 -5.5t19.5 -13.5t14 -17t3 -16q-23 -22 -56.5 -65.5t-72.5 -101t-82 -124t-86 -135t-83.5 -133.5t-74.5 -119.5t-60 -93.5t-40 -55q-9 0 -23.5 6t-28 15
t-23.5 18.5t-9 16.5q3 15 7.5 35t10.5 40t13 37.5t15 28.5z" />
    <glyph glyph-name="zero" unicode="0" 
d="M-15 224q0 91 26.5 175t67.5 150t92 108.5t99 49.5q17 -4 22.5 -10t13.5 -14q11 4 23 8q11 3 24 6t27 3q44 0 78.5 -16t58 -44.5t36 -67t12.5 -83.5q0 -56 -7.5 -117.5t-24 -121.5t-44 -114.5t-68 -96.5t-95 -66.5t-124.5 -24.5q-62 0 -104 24t-67 63t-35.5 88.5
t-10.5 100.5zM160 182q-4 -59 8 -84.5t44 -25.5q25 0 48.5 21t43.5 56t36.5 81t28.5 95.5t20 100t11 94.5q2 35 -5 57.5t-27 22.5q-24 0 -46 -25t-44 -81q0 -1 -2 -1q-3 0 -16.5 4.5t-16.5 9.5q-2 -5 -14 -34.5t-26.5 -75t-27 -101.5t-15.5 -114z" />
    <glyph glyph-name="one" unicode="1" horiz-adv-x="478" 
d="M-16 41q1 5 22.5 14t50 18.5t57.5 17.5t46 11q-8 11 -15.5 16t-5.5 14q10 43 22.5 93t25.5 100t24 96.5t19 82.5q-15 -13 -37.5 -29t-45 -29.5t-40.5 -22.5t-25 -9q-16 0 -32.5 10t-29.5 23.5t-21 28t-8 24.5q0 5 8.5 11t21.5 12t28.5 12.5t28.5 13.5q43 22 76 43
t62 40.5t57 39.5t63 41q27 -9 51 -19q20 -9 38.5 -20t26.5 -23q-2 -16 -12 -37.5t-23 -44.5q-3 -6 -13.5 -46.5t-24 -100.5t-29.5 -133.5t-30 -146.5q57 13 86.5 19.5t43.5 6.5q4 0 13.5 -17t19.5 -38t17.5 -38.5t7.5 -18.5q0 -3 -2.5 -9t-2.5 -9q-47 -8 -105 -19t-119 -24
t-119.5 -26.5t-106.5 -25.5q-6 -2 -18 10.5t-23.5 29t-20 33.5t-7.5 25z" />
    <glyph glyph-name="two" unicode="2" horiz-adv-x="566" 
d="M18 88q-1 1 -2 5.5t-1 10v9.5v5l182 162q40 36 81.5 75t75 76.5t54.5 71t21 58.5q0 16 -10.5 23t-22.5 7q-27 0 -62 -13t-68.5 -33t-61.5 -43.5t-41 -44.5l6 -21q0 -5 -13.5 -17t-32 -24.5t-39 -22t-35.5 -9.5l-76 79q16 51 53.5 99t88 84.5t110.5 58.5t120 22
q55 0 99.5 -17t75 -43.5t47 -59t16.5 -63.5q0 -41 -19.5 -81.5t-53.5 -81t-79 -80.5t-97 -79l-91 -75l213 44q5 8 15 14.5t27 6.5q7 0 18.5 -17.5t22.5 -40t19 -44.5t8 -31q0 -10 -12.5 -14.5t-23.5 -6.5q-31 -5 -72 -11.5t-85.5 -13l-89 -13t-83 -12.5t-67.5 -11.5
t-42 -8.5q-12 1 -28 11.5t-30.5 26t-25 33t-11.5 32.5z" />
    <glyph glyph-name="three" unicode="3" horiz-adv-x="546" 
d="M403 394q24 -3 52 -15t51.5 -31.5t38.5 -45t12 -55.5q-5 -65 -39 -115t-85.5 -84t-114 -51.5t-125.5 -17.5q-52 0 -92.5 15.5t-68.5 39t-43 50t-16 48.5q9 15 19 26q8 9 18.5 15.5t19.5 2.5q8 -5 21 -13.5t27 -19t26.5 -20.5t19.5 -17q43 0 89.5 14.5t85.5 40t65 59
t28 72.5q0 30 -34 30q-15 0 -24 -1.5t-19 -4.5q-21 -17 -46.5 -26.5t-48.5 -11.5q-13 4 -26 15t-24 25.5t-19 30t-11 27.5q4 5 14 12t23.5 14t31 13t36.5 9q16 10 37 29.5t39.5 42t31.5 45t14 38.5q2 25 -29 25q-29 0 -64 -20t-69.5 -49.5t-65.5 -61.5t-50 -56
q-12 -1 -27.5 11.5t-29.5 29t-23.5 32.5t-9.5 21q1 12 13 32.5t33 43.5t49.5 46t63.5 41.5t75.5 30.5t84.5 12q55 0 92.5 -21.5t60.5 -50t32.5 -57t8.5 -42.5q-3 -34 -20 -61t-37 -47q-23 -23 -51 -41z" />
    <glyph glyph-name="four" unicode="4" horiz-adv-x="567" 
d="M-14 287q-1 9 5.5 38.5t18 70t26.5 87.5t31.5 91t32 80t27.5 55q7 9 32.5 6t53.5 -12t50.5 -20.5t23.5 -18.5q-44 -106 -75.5 -189.5t-48.5 -144.5q6 0 26.5 5.5t44 13t44.5 14.5t28 10q7 28 18 72.5t22.5 92.5t21.5 93t15 75q10 2 34 -2t49.5 -12t46 -19.5t23.5 -24.5
q0 -4 -1.5 -16.5t-5 -31t-8 -40.5t-9.5 -45q-11 -54 -27 -119q3 0 15 3.5t17 3.5q14 -2 27 -16.5t22.5 -33.5t14 -38t3.5 -29l-128 -29q-6 -25 -12 -58t-13.5 -69.5t-15 -73.5t-16.5 -71q-5 -10 -10 -14t-22 -2q-5 1 -26.5 7.5t-45.5 14.5t-43 16t-20 12v3l49 210l-3 2
q-18 -5 -42.5 -11.5t-50.5 -13t-51.5 -12t-46.5 -7.5z" />
    <glyph glyph-name="five" unicode="5" horiz-adv-x="509" 
d="M182 479q20 9 48 15t51 6q44 0 86.5 -17.5t76.5 -47.5t54.5 -69.5t20.5 -82.5q0 -57 -28.5 -111.5t-75 -97.5t-104.5 -69t-116 -26q-46 0 -86.5 15t-72.5 37.5t-52.5 48.5t-26.5 48q13 22 25 38q11 14 22.5 23t20.5 3q14 -11 30 -24t31.5 -25.5t30.5 -23.5t27 -18
q33 7 70 29t69 53.5t53 69.5t21 77q0 51 -46 51q-21 0 -44.5 -8t-46 -19t-41.5 -22t-31 -17q-14 5 -32.5 14.5t-35.5 21t-30.5 23.5t-17.5 22q2 17 5 40.5t6.5 47.5t6.5 45.5t4 34.5q2 17 3.5 34t2 31.5t1.5 25t1 13.5q3 16 22 24t43 12t47.5 4.5t36.5 0.5v-25q12 4 39.5 11
t59.5 14.5t64 15.5t53 13q11 -5 26 -20t29 -33t25 -35t15 -26l-8 -21q-27 -7 -69.5 -15.5t-88.5 -17t-90.5 -16t-74.5 -12.5z" />
    <glyph glyph-name="six" unicode="6" horiz-adv-x="554" 
d="M-15 240q0 57 14 114t39 108.5t58.5 96.5t71.5 77.5t79.5 51.5t82.5 19q31 0 69.5 -12t73.5 -30.5t61.5 -41.5t34.5 -44q-13 -23 -25 -40q-11 -14 -23 -24.5t-23 -5.5q-15 8 -28.5 19.5t-25.5 22.5t-23.5 20.5t-23.5 14.5q-32 -5 -61 -25t-54 -48t-44 -61t-29 -63
q30 27 59.5 45t63.5 18q45 0 85 -18t70 -44.5t47.5 -57.5t17.5 -56q0 -54 -20 -107.5t-57 -96t-89 -69t-115 -26.5q-71 0 -124.5 24t-89.5 61.5t-54 84.5t-18 93zM178 173q-4 -51 8 -77.5t31 -26.5q27 0 53 26t46.5 64.5t34 82.5t15.5 80q2 35 -22 35q-26 0 -46 -15
t-35 -32.5t-25 -32.5t-16 -15q-8 0 -16.5 1t-12.5 4q-3 -10 -6 -23q-2 -12 -4.5 -29.5t-4.5 -41.5z" />
    <glyph glyph-name="seven" unicode="7" horiz-adv-x="576" 
d="M128 227q-15 -2 -32 10t-30 28.5t-18 32t3 20.5q7 4 26.5 9t47.5 11t61.5 11.5t68.5 11.5q29 45 55.5 83t46.5 66q23 33 43 60q-20 -5 -54 -10.5t-70 -10t-69 -7.5t-51 -3q2 -8 5.5 -20t6.5 -25.5t5.5 -26t2.5 -21.5q1 -10 -1 -18.5t-17 -8.5q-30 5 -56 10
q-22 5 -42.5 10.5t-26.5 13.5q-16 44 -28 78t-23 63q-9 21 -12.5 36.5t2 25.5t21 15t44.5 5q25 0 64 1t84.5 4t95 7.5t95 11t84 14.5t62.5 17q20 -5 34 -20t23.5 -33.5t14.5 -37t6 -30.5l-50 -16l31 -41q-20 -25 -51.5 -67t-71.5 -101q22 2 39 2t24 -9q4 -5 8 -6.5t9.5 -2
t11.5 -1.5t13 -5q3 -2 9.5 -12t13 -21.5t11.5 -21.5t5 -12q0 -5 -4 -10t-19 -5q-41 -1 -93 -5.5t-106 -11.5q-43 -71 -89.5 -156.5t-94.5 -187.5q-8 -5 -33.5 0t-54 15.5t-51.5 24.5t-25 28q27 57 64 120t76 126q-14 -2 -25 -4t-19 -3z" />
    <glyph glyph-name="eight" unicode="8" horiz-adv-x="584" 
d="M-26 189q2 41 54 92.5t163 123.5q-33 26 -61 50t-48 46.5t-31 43.5t-10 42q1 34 26.5 60.5t71 45.5t110.5 29t146 10q9 -2 11.5 -6.5t2.5 -10.5t-0.5 -11.5t2.5 -7.5q4 1 9 2q4 1 9.5 2t10.5 1q24 0 53.5 -15.5t55 -38.5t43 -49.5t16.5 -48.5q-1 -24 -16.5 -48.5
t-40 -48.5t-56 -47.5t-64.5 -46.5q34 -26 63.5 -50.5t50.5 -49.5t33 -51t11 -55q-2 -38 -26 -68t-66 -50.5t-98.5 -31.5t-122.5 -11q-71 0 -127 20.5t-95.5 50.5t-60 64.5t-19.5 62.5zM156 129q0 -37 37 -37q21 0 55.5 9.5t66.5 24t56 33t24 36.5q0 19 -18.5 42.5
t-47.5 51.5q-87 -60 -129.5 -97.5t-43.5 -62.5zM223 543q0 -6 2.5 -12.5t10 -15.5t20.5 -21t33 -28q67 42 107.5 74t40.5 52q1 14 -11 23.5t-28 9.5q-25 0 -55.5 -8t-57 -20t-44.5 -26.5t-18 -27.5z" />
    <glyph glyph-name="nine" unicode="9" horiz-adv-x="560" 
d="M-15 106q14 21 27 37q11 14 22 24t19 6q30 -18 61 -40t61 -37q30 6 60 23.5t55.5 43t46.5 56.5t33 64q-79 -65 -151 -65q-40 0 -78 17t-68 43t-48 57.5t-18 61.5q0 46 17 100t52 101t88.5 78.5t126.5 31.5q55 0 106.5 -23.5t91 -62t63 -87t23.5 -98.5q0 -91 -28.5 -175.5
t-75.5 -150t-107 -105t-124 -39.5q-40 0 -82 13.5t-77.5 34t-61.5 45t-34 46.5zM209 316q26 0 47 16.5t36.5 36t26.5 36t17 16.5q8 0 16.5 -5t13.5 -8l3 21q3 21 6 57q1 19 1 40.5t-3 40t-8.5 30.5t-15.5 12q-35 0 -63.5 -26.5t-49.5 -65.5t-34 -84t-15 -82q-3 -35 22 -35z
" />
    <glyph glyph-name="colon" unicode=":" horiz-adv-x="374" 
d="M228 328q-22 7 -37.5 18.5t-15.5 35.5q0 13 7.5 31.5t25 35t45.5 28t69 11.5q10 0 22.5 -4t23.5 -13t18.5 -23t7.5 -33q0 -12 -5 -34.5t-17 -44t-33 -37.5t-53 -16t-49.5 9t-8.5 36zM115 74q0 13 7.5 31.5t25 35t45.5 28t69 11.5q10 0 23 -4t23.5 -13t18 -23t7.5 -33
q0 -12 -5 -34.5t-17 -44t-33 -37.5t-53 -16q-21 0 -40.5 10t-35.5 24.5t-25.5 32t-9.5 32.5z" />
    <glyph glyph-name="semicolon" unicode=";" horiz-adv-x="374" 
d="M226 326q-21 7 -37 18.5t-16 35.5q0 13 7.5 31.5t25 35t45.5 28t69 11.5q10 0 23 -4t23.5 -13t18 -23t7.5 -33q0 -12 -5 -34.5t-17 -44t-32.5 -37.5t-52.5 -16q-33 0 -50.5 9t-8.5 36zM115 45q0 12 5.5 29.5t19.5 33t38.5 26.5t62.5 11q33 0 60 -27.5t27 -75.5
q0 -37 -9.5 -72t-26 -65t-40.5 -54t-52 -39q-24 -13 -46.5 -15t-39.5 5t-27 21.5t-9 34.5q20 10 40 23.5t36 28.5t26.5 31t10.5 33q-10 -2 -23 1.5t-25 12.5t-20 23.5t-8 33.5z" />
    <glyph glyph-name="less" unicode="&#x3c;" horiz-adv-x="472" 
d="M71 307q38 34 84 68t88.5 60t75.5 42.5t45 16.5q17 0 31 -17t23.5 -39t13.5 -43t1 -28q-17 -8 -42.5 -22.5t-53.5 -33t-55 -38.5t-46 -38q29 -38 69 -72.5t76 -67.5q12 -10 8 -22.5t-12 -20.5l-28 -34q-5 -6 -18.5 -4.5t-28.5 14.5q-20 17 -51 42t-65 53.5t-67 58
t-58 55.5z" />
    <glyph glyph-name="equal" unicode="=" horiz-adv-x="684" 
d="M216 308q-15 -3 -31.5 12.5t-28 35t-15.5 37t6 20.5q22 6 66 14t90.5 15t86 11.5t52.5 4.5q21 0 35.5 -5t25 -12.5t18 -17.5t16.5 -20q6 -6 10.5 -15.5t4 -18t-8 -15t-26.5 -6.5q-39 -1 -80 -5.5t-80.5 -10.5t-76 -12.5t-64.5 -11.5zM130 234q36 10 78 18.5t84.5 15
t82.5 10t73 3.5q5 0 13.5 -8.5t17.5 -21.5t16.5 -28.5t11 -28.5t0.5 -21.5t-14 -8.5q-38 0 -79.5 -3.5t-81.5 -9t-74.5 -12t-57.5 -10.5q-15 -3 -32 12t-29 35t-16 37.5t7 20.5z" />
    <glyph glyph-name="greater" unicode="&#x3e;" horiz-adv-x="429" 
d="M386 205q-16 -14 -40 -33.5t-52 -41t-58 -42.5t-56.5 -37.5t-47.5 -26.5t-32 -9q-21 0 -34.5 18.5t-20.5 41.5t-9 42.5t1 22.5q47 26 95.5 61.5t89.5 77.5q-9 12 -24.5 28t-34 34t-38.5 36t-39 33q-8 6 -10 12.5t-0.5 12.5t5 11.5t6.5 9.5l21 29q8 11 23.5 9.5
t32.5 -14.5q15 -12 44.5 -36.5t63.5 -53.5t68 -59t58 -53z" />
    <glyph glyph-name="question" unicode="?" horiz-adv-x="612" 
d="M76 488q16 53 53.5 97.5t89.5 77t114.5 51t128.5 18.5q47 0 89.5 -17.5t75 -45t51.5 -61.5t19 -66q0 -30 -16.5 -57.5t-44 -54t-61.5 -52t-69.5 -51.5t-69 -53.5t-58.5 -56.5q-8 -6 -27.5 3t-42 24t-41.5 32t-25 29q18 28 48 54t63.5 50t68 47t62.5 44.5t45.5 42
t17.5 39.5q0 16 -10.5 25.5t-30.5 9.5q-29 0 -62 -9.5t-64 -25t-58 -36.5t-45 -44l13 -14q0 -5 -12.5 -18t-30.5 -28t-39.5 -28.5t-39.5 -19.5zM182 25q0 14 8 36.5t25.5 43.5t46 36.5t70.5 15.5q10 0 23.5 -3.5t25.5 -12t20.5 -22t8.5 -33.5q0 -13 -5.5 -36t-19 -45
t-36 -38.5t-55.5 -16.5q-21 0 -41 6t-35.5 16t-25.5 23.5t-10 29.5z" />
    <glyph glyph-name="at" unicode="@" horiz-adv-x="969" 
d="M573 120q-8 -13 -21.5 -26.5t-30.5 -24.5t-38.5 -18t-46.5 -7q-38 0 -72.5 13t-60.5 37.5t-41.5 59t-15.5 78.5q0 64 18 121.5t49.5 100.5t74 68t91.5 25q28 0 59.5 -7.5t57 -21t42.5 -31.5t17 -39q0 -9 -1 -17t-3 -13q-2 -7 -4 -12q0 -2 10 -5t21 -10t18.5 -17.5
t2.5 -26.5q-5 -20 -11.5 -43t-12.5 -45.5t-10.5 -43t-6.5 -33.5q-2 -16 0.5 -30.5t10 -26t19.5 -18t28 -6.5q25 0 48.5 20.5t42.5 56t30.5 83.5t11.5 102q0 61 -20 112t-58 88t-92 57.5t-121 20.5q-116 0 -199 -40.5t-136 -107t-78 -153t-25 -178.5q0 -54 18 -100.5
t51.5 -80t81.5 -52.5t109 -19q52 0 90 12.5t64 28.5q30 18 50 42q27 -16 32 -42.5t-13.5 -52t-61 -44t-109.5 -18.5q-93 0 -167.5 30t-126.5 80.5t-80 116.5t-28 137q0 94 31 184.5t93 161.5t156 114.5t219 43.5q99 0 175.5 -29t128.5 -78.5t79 -116.5t27 -143
q0 -29 -4.5 -63t-14.5 -68.5t-26 -66t-39 -56t-53.5 -39.5t-68.5 -15q-41 0 -69 10.5t-45.5 25t-26.5 30t-12 25.5h-7zM411 206q-2 -39 4 -55.5t20 -16.5q16 0 31 23t26.5 53t18.5 58.5t8 40.5q-8 1 -14 4q-5 2 -11 5t-9 8q15 22 25 54.5t12 55.5q0 6 -1.5 17t-12.5 11
q-20 0 -37 -28.5t-29.5 -69t-20.5 -84.5t-10 -76z" />
    <glyph glyph-name="A" unicode="A" horiz-adv-x="595" 
d="M396 119q-1 22 -1 44.5v45.5q-48 -3 -99 -8t-99 -11q-25 -59 -46.5 -126t-38.5 -145q-2 -7 -15 -8.5t-31.5 1t-40 8.5t-40 13.5t-31.5 16t-14 15.5q6 45 25 103t47 123q-8 11 -14 25t-9 26.5t-2.5 22.5t6.5 13q8 5 27 10t45 10q38 70 83.5 138t95.5 126t102.5 101.5
t105.5 64.5q19 5 41.5 1t44 -12.5t39 -19t25.5 -17.5q-22 -99 -32 -205.5t-11.5 -204t3 -177t11.5 -123.5q-1 -14 -25.5 -12.5t-55.5 10t-58 21t-33 20.5q-7 10 -11 24t-6 29t-2.5 29t0.5 25zM432 557q-38 -38 -82 -94.5t-87 -134.5q14 2 27 2.5t24 1.5q20 1 47 3t42 -1
q10 101 36 222z" />
    <glyph glyph-name="B" unicode="B" horiz-adv-x="697" 
d="M80 -68q0 4 2 12q-41 8 -58 17q-32 19 -28.5 51.5t27.5 64.5q5 -1 26 -9t53 -18q15 75 32 155.5t34 151t32 124t24 74.5q12 22 33.5 31t45.5 8t47.5 -8.5t39.5 -16.5q-9 -28 -21.5 -81t-26.5 -119h33q63 21 99 57t36 90q0 26 -10.5 49t-31.5 40t-52 27t-72 10
q-40 0 -69.5 -7t-51.5 -18t-38 -24.5t-29 -26.5q-2 -2 0.5 -7.5t0.5 -7.5q-3 -3 -15 -9.5t-26 -13t-27 -11.5t-18 -5q-16 0 -30 7.5t-24 18.5t-15.5 22t-3.5 19q32 39 84 70q44 26 115 48.5t175 22.5q73 0 130 -15.5t96 -42.5t59.5 -62.5t20.5 -75.5q0 -53 -40 -98.5
t-105 -79.5q72 -23 116.5 -67t44.5 -109q0 -60 -36.5 -105t-95 -75.5t-132.5 -46t-148 -15.5h-27q0 -2 -0.5 -3.5t-0.5 -3.5q-6 -26 -17 -31t-30 -3q-18 1 -39 7t-39.5 13.5t-32 14.5t-16.5 10zM323 276q-14 -68 -26.5 -133.5t-23.5 -118.5q38 1 78.5 8.5t73.5 24t54 44.5
t21 71q0 26 -14 46.5t-38 34t-56 19.5t-69 4z" />
    <glyph glyph-name="C" unicode="C" horiz-adv-x="586" 
d="M15 242q0 51 11.5 106t33 108t53 100.5t72.5 83t90.5 56.5t106.5 21q34 0 70.5 -12t66.5 -33.5t49.5 -52.5t19.5 -68q0 -39 -12 -70t-31 -53t-42 -33.5t-45 -11.5t-37.5 6t-26 15t-16.5 19t-9 18q19 22 34 47q13 21 23 47.5t11 53.5q0 16 -8.5 24.5t-22.5 8.5
q-19 0 -42 -17t-46.5 -46.5t-45.5 -69.5t-39 -86.5t-27.5 -97t-10.5 -101.5q0 -77 24.5 -109.5t67.5 -32.5q38 0 65 23t45 56.5t28 72.5t15 72q10 3 22 7q11 2 25 4.5t32 2.5q33 0 56.5 -22t23.5 -70q0 -36 -16.5 -81t-50.5 -85t-87 -67.5t-125 -27.5q-71 0 -127.5 20.5
t-96 59t-60.5 93t-21 122.5z" />
    <glyph glyph-name="D" unicode="D" horiz-adv-x="746" 
d="M139 85q6 -17 19 -33.5t32.5 -30.5t46 -22.5t59.5 -8.5q54 0 105 31t90.5 86t63.5 130t24 163q0 66 -27 111.5t-73 67.5q-16 -62 -32.5 -136t-31.5 -143.5t-26.5 -126.5t-16.5 -85q-6 -27 -18.5 -37t-31.5 -10q-24 0 -46.5 5.5t-40.5 12.5t-29.5 13.5t-14.5 9.5
q10 57 25 125t32.5 136.5t35.5 132t33 112.5q-31 -9 -54 -26t-39 -37.5t-26 -43.5t-15 -45q0 -1 -5 -1q-4 0 -23.5 2t-41 7.5t-40 13.5t-21.5 20q13 58 49 104q15 19 37.5 38t53 34t70 25t90.5 11q3 11 12 25t35 14q18 0 36.5 -3t34 -7.5t27.5 -10t18 -9.5l-10 -27
q59 -16 107 -45.5t81.5 -71t51.5 -93t18 -111.5q0 -108 -35 -193t-94 -143.5t-136 -89.5t-160 -31q-81 0 -151.5 21t-123.5 54t-85 74t-35 81q7 11 23 23.5t35 21.5t37.5 12.5t29.5 -3.5q8 -5 21 -14.5t26 -19.5t22 -20t10 -17t-4.5 -12t-3.5 -10z" />
    <glyph glyph-name="E" unicode="E" horiz-adv-x="561" 
d="M111 526q-7 -1 -16 4.5t-18.5 15t-18.5 20.5t-14 21.5t-5.5 18t5.5 9.5q79 21 164 38q10 25 21 46.5t22 39.5q15 -2 35.5 -5.5t40 -8.5t36 -10.5t25.5 -11.5l-4 -10l-4 -10q38 6 70 10.5t55 7.5q14 1 30.5 5t32.5 6t31.5 0t28.5 -12q2 -2 7.5 -14.5t11 -27.5t9.5 -28.5
t4 -16.5t-12.5 -12t-28 -19.5t-30.5 -19.5t-21 -12q-29 -11 -51 -11t-24 8q-2 9 0 18q0 4 1 10q-45 -3 -81.5 -6.5t-75.5 -8.5q-24 -77 -42 -156l40 3q43 2 73 6t40 -4q8 -6 16.5 -18.5t15.5 -25.5t11.5 -23.5t4.5 -13.5q0 -5 -3.5 -13t-17.5 -8q-48 -1 -100.5 -5.5
t-102.5 -10.5q-8 -42 -13.5 -85t-11.5 -87q115 24 201 37.5t140 11.5q5 0 13.5 -9t17 -22.5t16 -29t10.5 -29t0 -22.5t-14 -9q-79 -2 -175 -13.5t-222 -31.5q-2 -11 -3 -23.5t-2 -24.5q-1 -9 -17.5 -9t-40 5.5t-47.5 13.5t-40 15l-8 -2q-15 -2 -31.5 11t-28 29.5t-15.5 32
t6 17.5l69 15q5 43 12 89.5t16 94.5q-2 -1 -5 -1q-15 -2 -30.5 9.5t-26.5 27.5t-14.5 31t4.5 20q11 6 36 12.5t59 13.5q9 41 19 79.5t21 76.5z" />
    <glyph glyph-name="F" unicode="F" horiz-adv-x="583" 
d="M83 511q-15 -3 -32 12t-29 34.5t-16.5 37t5.5 20.5q54 14 118.5 27t130.5 24q14 29 29 52q25 -2 57.5 -11.5t55.5 -19.5q47 6 84 9.5t60 5.5q9 1 21 4t27 5t32 0t37 -12q2 -2 14 -13t25 -26t23.5 -31.5t10.5 -28.5q0 -27 -32 -27q-60 -1 -142.5 -5t-182.5 -15
q-14 -44 -26.5 -88t-23.5 -89q28 4 52 6.5t41 3.5q12 1 26 1.5t26.5 0.5t22 -2t12.5 -7t8 -6.5t10 -1.5t11.5 -1t12.5 -6q2 -2 8.5 -13t13 -24.5t12 -25.5t5.5 -15q0 -5 -4.5 -13t-18.5 -8q-55 -1 -127 -5.5t-141 -10.5q-17 -80 -31.5 -162t-27.5 -168q-2 -11 -26 -8.5
t-53 10.5t-54 17.5t-29 13.5q10 58 23 129.5t30 148.5q-2 0 -5 -0.5t-5 -0.5q-15 -2 -31 10t-28 28.5t-16.5 32t3.5 20.5q10 5 40 12.5t69 15.5q12 48 24.5 94.5t26.5 89.5q-62 -9 -126 -21z" />
    <glyph glyph-name="G" unicode="G" horiz-adv-x="619" 
d="M264 302q0 12 15 20t37.5 11.5t47.5 3.5t46 -4q21 6 46 10t49 7t45 4.5t35 1.5q26 0 36.5 -2.5t18.5 -8.5t16.5 -16.5t15.5 -21t11.5 -19t4.5 -11.5q0 -5 -3.5 -13t-18.5 -8q-59 -2 -111 -9q14 -16 23.5 -36.5t9.5 -47.5q0 -28 -17.5 -65.5t-53.5 -71t-89.5 -56.5
t-125.5 -23q-71 0 -127 20.5t-95 58t-59.5 89.5t-20.5 116q0 43 10.5 96t31.5 107t51 105t70 90.5t88.5 63.5t105.5 24q45 0 85 -12.5t69 -34.5t46 -52.5t17 -66.5q0 -33 -9 -61t-26 -48.5t-41.5 -32t-55.5 -11.5q-23 0 -39.5 7t-27.5 16t-16.5 18t-5.5 12q0 4 12 13.5
t26 26t26 41.5t12 59q0 18 -11 25.5t-22 7.5q-19 0 -42.5 -18t-48 -48.5t-48 -72t-42 -88.5t-29.5 -97t-11 -99q0 -70 28.5 -113.5t81.5 -43.5q26 0 49 7.5t40.5 22t28 37t10.5 52.5q0 31 -16 52q-17 -4 -32 -6t-27 -4t-25 10.5t-24 29.5t-18 33.5t-7 23.5z" />
    <glyph glyph-name="H" unicode="H" horiz-adv-x="665" 
d="M324 566q-14 -42 -26.5 -83.5t-23.5 -83.5q36 5 68.5 8.5t58 6t42 2.5t20.5 -3t8.5 -7.5l9.5 -9.5q20 91 41 170.5t41 135.5q8 20 19 31.5t33 12.5q12 0 31 -4t38.5 -9t36.5 -11.5t24 -10.5q-18 -59 -36 -127t-35.5 -138.5t-32.5 -141t-26 -133.5t-17.5 -115.5
t-6.5 -87.5q0 -11 -11.5 -14t-29 0t-38.5 9t-39.5 13t-32 13t-16.5 9q-10 11 -15.5 30.5t-7 40.5t0.5 39t8 26q2 3 6 2.5t8 -2t7 -2t3 3.5q5 38 12 77.5t15 79.5q-48 -3 -104 -10t-113 -15q-20 -95 -31.5 -183.5t-15.5 -164.5q-1 -10 -12.5 -13t-29 -1.5t-38.5 7t-39.5 12.5
t-32.5 14.5t-18 14.5q2 60 12 133t26 152l-48 -8q-15 -2 -30.5 13.5t-27 36t-16.5 39t2 23.5q7 4 48.5 12t101.5 18q13 52 27 102t28.5 94.5t28.5 82.5t27 67q8 4 30.5 1.5t48.5 -9t49 -14.5t31 -14q0 -8 -1.5 -23.5t-4.5 -32.5t-7 -32.5t-8 -23.5z" />
    <glyph glyph-name="I" unicode="I" horiz-adv-x="548" 
d="M156 139q10 55 22.5 114t27 115.5t28.5 108t27 91.5q-32 -6 -69 -12t-79 -13q-15 -2 -31 13.5t-27 35.5t-14.5 38t6.5 21q63 17 128.5 28.5t125.5 19t110 11t82 5.5q43 2 75 -1.5t54 -20.5q2 -2 7.5 -10.5t11 -18.5t9.5 -19t4 -12t-8.5 -8.5t-19.5 -11.5t-22.5 -11.5
t-18.5 -7.5q-11 -4 -18.5 -2.5t-14 5t-12.5 7.5t-15 4q-43 -3 -85 -9q-14 -46 -29.5 -107t-30 -124t-27 -123t-20.5 -105q60 11 106.5 16.5t83.5 3.5q8 0 23 -19.5t27 -42.5t14.5 -42t-14.5 -19q-50 -1 -105.5 -4.5t-120.5 -11t-142.5 -18.5t-171.5 -26q-14 -2 -29 10.5
t-25.5 29t-13.5 32t7 19.5q13 5 25 12t22.5 12.5t20 8t17.5 -0.5q11 -4 14.5 -8t6.5 -3q32 6 61 12.5t57 11.5q-17 5 -28 11.5t-12 14.5z" />
    <glyph glyph-name="J" unicode="J" horiz-adv-x="618" 
d="M-15 139q0 35 7 61.5t24 48.5q15 14 36.5 18t43 -1t41 -18t31.5 -34q3 -5 6.5 -12t6.5 -14t4.5 -12.5t-0.5 -8.5t-6.5 -3.5t-10 -0.5t-10.5 -1t-8 -5q-5 -8 -6.5 -25t0.5 -34q5 -34 23.5 -57t44.5 -23q33 0 66.5 22.5t60.5 82.5t43 164.5t13 268.5q-51 -9 -97.5 -17.5
t-81.5 -15.5q-12 -3 -27.5 12.5t-29 36t-22.5 40.5t-9 27q0 8 10 12.5t20 6.5q36 8 89 16t113 15t120 13t110 9t83.5 3t40.5 -5q2 -2 10 -12.5t18 -23.5t19 -25.5t14 -16.5l-16 -25q-22 -3 -53 -4.5t-62 -6.5q-25 -4 -53.5 -8t-59.5 -9q18 -6 32.5 -14t19.5 -15
q6 -190 -11.5 -311.5t-54 -192t-90.5 -97.5t-122 -27q-66 0 -124.5 17.5t-102 47t-68.5 69t-25 84.5z" />
    <glyph glyph-name="K" unicode="K" horiz-adv-x="625" 
d="M5 -4q6 49 15.5 108t21 122t25 127t28 123t29.5 110.5t30 88.5q10 24 21.5 35.5t40.5 12.5q22 0 42.5 -3.5t37.5 -9.5t29.5 -12.5t19.5 -11.5q-13 -41 -29.5 -94t-34.5 -118q42 30 94 63.5t105.5 62t103 47.5t87.5 19q21 0 36 -7t24 -17.5t12.5 -23t1.5 -24.5
q-36 -18 -93.5 -48.5t-119 -65t-117 -68.5t-88.5 -61q25 -29 64 -64.5t80.5 -72t80.5 -72t64 -63.5q15 -14 20.5 -23.5t5.5 -17t-4.5 -13t-10.5 -11.5q-4 -4 -16.5 -14.5t-27 -22t-28 -21.5t-17.5 -12q-7 -3 -20.5 -3t-28.5 13q-39 33 -76 68.5t-71.5 70t-66 66.5t-58.5 58
q-5 -26 -10 -53l-10 -54q7 -1 12 -4t7.5 -8t-0.5 -13q-3 -7 -10 -27t-15 -42q-9 -26 -19 -57q-6 -10 -31 -7t-54 11.5t-53.5 18.5t-28.5 14z" />
    <glyph glyph-name="L" unicode="L" horiz-adv-x="482" 
d="M63 56q8 47 19.5 106t24.5 122t27.5 126.5t29 120.5t29 104t27.5 77q13 6 39 2.5t54 -11t52 -16.5t33 -15q-17 -46 -38 -114.5t-42 -147t-40.5 -161t-32.5 -155.5q93 17 161 24t118 5q5 0 15 -9t20.5 -22.5t20.5 -29t15.5 -29t4 -22.5t-12.5 -9q-38 -1 -77.5 -2.5
t-83.5 -5.5t-93.5 -9.5t-106.5 -13.5q-2 -14 -3 -26.5t-1 -23.5q-1 -9 -19.5 -8.5t-43.5 6t-51.5 13.5t-42.5 15l-9 -2q-15 -2 -32.5 11t-30.5 30t-18 32.5t5 17.5z" />
    <glyph glyph-name="M" unicode="M" horiz-adv-x="854" 
d="M463 298q14 40 31.5 89.5t37 100.5t39.5 99.5t40 86.5t38 61t33 23q16 0 35.5 -3t37.5 -8t32 -11t19 -11q-8 -220 4.5 -415t42.5 -375q3 -14 -17.5 -19t-50 -3t-61.5 10.5t-54 20.5q-7 4 -13 33t-10 73.5t-7 101t-4.5 115t-1.5 116.5t2 105q-22 -50 -46 -111t-45 -125.5
t-36.5 -128t-21.5 -118.5q-10 -15 -59 -15q-45 0 -73.5 20t-33.5 43q-6 43 -10 93t-5.5 103.5t-1 107.5t3.5 106l-5 5q-15 -26 -31.5 -65.5t-33.5 -88.5t-33 -105t-28 -115q-1 -8 3.5 -9t10.5 -1.5t10 -2.5t3 -11q-2 -10 -10 -29t-17.5 -40t-18.5 -40t-15 -29t-30 -7
t-51 11.5t-50 18.5t-26 14q4 53 20 123t40.5 146.5t56.5 154t69 144t77 117t81 73.5q12 -2 32.5 -5t41 -8.5t38 -12t23.5 -13.5q-9 -46 -13.5 -102.5t-6 -111.5t0.5 -102t7 -74h10z" />
    <glyph glyph-name="N" unicode="N" horiz-adv-x="651" 
d="M431 266q16 57 32.5 116t33 113.5t32 103t29.5 84t26 56.5t22 21q30 0 58 -3t49.5 -8t35.5 -11.5t17 -13.5q-48 -102 -85 -204.5t-65 -198.5t-46.5 -184t-30.5 -161q-2 -7 -15 -8t-22 -1q-15 0 -36 3.5t-42 10.5t-37.5 15.5t-22.5 19.5q-15 46 -30 108.5t-28 125t-24 118
t-19 88.5l-10 5q-11 -29 -22 -70t-21 -91t-17.5 -105.5t-10.5 -112.5q-1 -11 4.5 -10.5t16.5 -6.5q8 -4 3 -26t-14.5 -47.5t-19.5 -48t-11 -28.5q-2 -7 -14.5 -7t-30.5 4t-38.5 11.5t-39 15t-32 14t-16.5 8.5q7 64 19 139t28 151.5t35 150.5t39.5 138t43 112.5t45.5 74.5
q15 -2 35.5 -6.5t41.5 -10.5t39 -14t27 -15q4 -44 13 -104.5t19.5 -120.5t22 -112t21.5 -78h12z" />
    <glyph glyph-name="O" unicode="O" horiz-adv-x="647" 
d="M15 271q0 79 24.5 153.5t63.5 134t88.5 99t100.5 49.5q20 -4 27 -10t16 -14q11 4 25 8q11 3 26.5 6t32.5 3q75 0 124 -20t77.5 -54t39.5 -79t11 -94q0 -33 -6.5 -83.5t-22 -106.5t-42 -112.5t-66.5 -101.5t-95.5 -73t-128.5 -28q-80 0 -136 29.5t-91.5 76.5t-51.5 104
t-16 113zM211 239q-2 -37 1 -69.5t11.5 -56.5t23 -37.5t34.5 -13.5q31 0 56.5 27t45.5 69t34.5 93.5t24 99.5t15 87.5t6.5 57.5q1 20 -0.5 39t-6.5 34t-14.5 24.5t-23.5 9.5q-25 0 -43 -17t-31 -42.5t-22 -55t-15 -53.5q-2 -6 -5 -9t-9 0q-5 1 -17 7t-17 11l-6 -14.5
t-14.5 -41t-16.5 -64.5t-11 -85z" />
    <glyph glyph-name="P" unicode="P" horiz-adv-x="629" 
d="M78 -39q10 54 23 117.5t28 129.5q-23 3 -41 6.5t-28 8.5q-23 10 -31.5 28.5t-6.5 37t12 34t23 20.5q8 -1 29 -14t66 -24q10 44 20.5 83.5t19 71t15.5 54t12 31.5q4 11 9 19.5t12 14t17 8.5t26 3q10 0 26 -2.5t32 -7t30 -11t20 -14.5q-8 -20 -16 -48t-17 -61.5
t-17.5 -71.5t-17.5 -78q38 6 70.5 22.5t56 40.5t36.5 55.5t13 69.5q0 70 -56.5 106.5t-164.5 36.5q-42 0 -74.5 -8t-57 -21t-41.5 -28t-28 -28q-2 -1 -5 -2q-6 -2 -12 -1q-10 2 -21.5 11t-21 22t-16 27t-7.5 26q24 26 68 47q38 18 101.5 33t162.5 15q75 0 141 -14
t114.5 -40.5t76.5 -65t28 -88.5q0 -56 -27 -107.5t-77 -93t-121 -70t-158 -37.5l-28 -136q-2 -7 2.5 -8.5t9.5 -2.5t8 -4.5t-2 -14.5q-6 -12 -10.5 -27.5t-9.5 -31t-10.5 -29t-11.5 -20.5q-5 -5 -9.5 -8.5t-15.5 -3.5q-12 0 -35.5 5.5t-47.5 13t-43 14.5t-22 10z" />
    <glyph glyph-name="Q" unicode="Q" horiz-adv-x="665" 
d="M26 282q0 43 10 89.5t28 91.5t42.5 86.5t53.5 74.5t61.5 55t65.5 28q38 -7 59 -23q11 4 25 8q11 3 26.5 5.5t32.5 2.5q75 0 124 -19.5t77.5 -53t39.5 -77t11 -91.5q0 -31 -6 -76.5t-20 -97.5t-37.5 -104.5t-58.5 -96.5q19 -20 36 -39t32 -38q13 -15 17.5 -27t3 -21.5
t-5.5 -15.5t-7 -9q-7 -7 -18 -17t-22 -19.5t-21 -17.5t-14 -10q-3 -2 -9 -3t-13 -0.5t-14 3.5t-13 10l-44 52t-44 53q-23 -8 -48.5 -13t-54.5 -5q-80 0 -136 24.5t-91.5 67t-51.5 100t-16 123.5zM288 165q-13 20 -8 39.5t20 36t35 28.5t37 15q15 -20 32 -39t35 -38
q24 59 35.5 124.5t11.5 115.5q0 69 -15 113.5t-44 44.5q-22 0 -39 -10t-29.5 -24.5t-20 -32t-11.5 -32.5q-2 -7 -9 -5q-5 2 -14.5 5.5t-14.5 7.5l-10 -21.5t-23 -58.5t-25 -86.5t-15 -106.5q-3 -36 2.5 -67t16.5 -54t28 -36.5t37 -13.5q24 0 47 12q-33 44 -59 83z" />
    <glyph glyph-name="R" unicode="R" horiz-adv-x="635" 
d="M24 -31q10 57 27 137t37.5 166t41 169t37.5 145q-34 -9 -57.5 -25.5t-36.5 -35.5q-3 -4 -7 -8q-3 -3 -6.5 -5.5t-8.5 -2.5q-10 0 -21 8t-20.5 19.5t-16 23.5t-6.5 21q13 23 39 42q23 17 63 33t104 24q3 14 6 19q8 24 22 35t45 11q10 0 26.5 -3t33 -7.5t30.5 -10.5t21 -13
l-11 -31q68 -8 125 -27t98 -47t63.5 -64.5t22.5 -78.5q0 -37 -18.5 -70t-50.5 -60t-76 -48.5t-96 -35.5q32 -27 66 -58t64 -61l13 4q15 4 29.5 -7t27.5 -27.5t21.5 -33t11.5 -23.5q5 -11 5 -18t-5 -15q-4 -6 -20 -20t-36 -28.5t-39 -25.5t-28 -12q-29 24 -66 60t-76.5 75
t-78.5 76.5t-72 64.5l-27 -128q-1 -7 0.5 -11l3 -8t2.5 -10.5t-1 -17.5q-3 -13 -7.5 -29t-11.5 -30.5t-15 -24t-17 -9.5q-12 0 -36.5 5t-49.5 11t-45 12t-23 9zM339 582q-14 -57 -30 -123.5t-31 -133.5q199 11 199 126q0 48 -39 81.5t-99 49.5z" />
    <glyph glyph-name="S" unicode="S" horiz-adv-x="588" 
d="M154 107q0 -28 18 -49t52 -21q59 0 96 36.5t37 107.5q0 62 -28.5 108.5t-70.5 78.5t-89.5 50.5t-84.5 25.5q-7 1 -14 20t-13 41.5t-10 42t-4 22.5q-1 16 27.5 33t74.5 32.5t104.5 28.5t117.5 22t113 13.5t91 2.5q10 -1 21 -14.5t20 -30.5t14.5 -33t5.5 -20q0 -18 -16 -39
t-38 -39.5t-45.5 -30.5t-37.5 -12q-8 0 -18.5 6t-10.5 11q0 7 5.5 21.5t5.5 22.5q0 6 -25 4t-60.5 -10t-73.5 -20t-65 -26q16 -6 45.5 -18.5t65 -33t72.5 -49t67 -66t49.5 -83.5t19.5 -101q0 -52 -23 -90t-62.5 -63t-91 -37.5t-108.5 -12.5q-75 0 -133 19.5t-98.5 50.5
t-61.5 69.5t-21 75.5q0 25 7 48t19.5 41t30.5 29t40 11q24 0 45.5 -6.5t39 -16t28.5 -20t13 -18.5q-7 -8 -14.5 -20.5t-13.5 -28t-10 -32.5t-4 -33z" />
    <glyph glyph-name="T" unicode="T" horiz-adv-x="543" 
d="M103 484q-15 -3 -32 16.5t-29.5 44.5t-17.5 47t5 25q61 17 131.5 27t138.5 17q6 18 12.5 34t13.5 30q11 12 33 9t46 -12.5t44.5 -21t28.5 -17.5l-3 -10l51 3q43 2 75 0t41 -10q2 -2 11.5 -13.5t19.5 -25.5t18 -28t8 -21q0 -25 -33 -25q-45 -1 -103.5 -5t-124.5 -12
q-14 -54 -25.5 -107t-22 -108t-20.5 -113.5t-20 -123.5q6 -3 14 -3.5t10 -6.5q3 -8 -4.5 -29.5t-18.5 -44.5q-12 -26 -30 -58q-4 -7 -18 -8t-33 2t-40.5 8.5t-40.5 11.5t-32.5 11t-16.5 8q9 55 21.5 121t27 137t31 142.5t34.5 136.5q-39 -7 -77 -13.5t-73 -14.5z" />
    <glyph glyph-name="U" unicode="U" horiz-adv-x="648" 
d="M201 183q-4 -34 -2.5 -56.5t7.5 -36t17.5 -19.5t26.5 -6q29 0 50.5 37.5t41 110t39 180t45.5 247.5q6 35 16.5 48.5t33.5 13.5q9 0 30.5 -4t44.5 -10t43 -12.5t26 -10.5q-9 -63 -22.5 -132t-26.5 -133.5t-24 -121t-15 -94.5q-4 -35 -4 -57.5t3.5 -35.5t12 -18t20.5 -5
q16 0 28 11.5t21 28t15 34.5t10 31q22 0 40 -5q15 -5 27.5 -17t12.5 -38q0 -24 -8.5 -51t-27 -49.5t-47.5 -37t-69 -14.5q-52 0 -88.5 28t-48.5 64q-12 -19 -30 -40t-42 -38.5t-53.5 -29t-65.5 -11.5q-108 0 -165.5 73.5t-57.5 199.5q0 35 6 79t16 91.5t22.5 95.5t25 91.5
t24 79t20.5 58.5q6 16 22 21.5t36.5 4t43 -8.5t42 -15.5t33.5 -16.5t18 -11q-10 -30 -22.5 -69.5t-25 -84.5t-24.5 -92.5t-22.5 -92.5t-18 -85t-10.5 -69z" />
    <glyph glyph-name="V" unicode="V" horiz-adv-x="477" 
d="M382 595q2 4 -0.5 8t-5.5 8t-4.5 9.5t3.5 12.5q6 11 18 27t27 30.5t31 25t30 10.5q22 0 41.5 -6t34 -14.5t22.5 -17t8 -13.5q-27 -41 -59 -101.5t-65.5 -131t-65.5 -146t-59 -146t-46 -131t-26 -100.5q-5 -4 -11 -7q-12 -7 -32 -7q-19 0 -45.5 6.5t-51.5 20.5t-43.5 35
t-21.5 50q-3 28 -7.5 85t-10 128t-10.5 149t-8 146.5t-3.5 121t3.5 73.5q2 8 11 17.5t24 9.5q17 0 43 -4.5t50 -13t41.5 -19.5t17.5 -24q-5 -70 -5.5 -139t1 -132t5 -119t7.5 -101h11q6 17 20 61.5t34.5 102t45 120t51.5 116.5z" />
    <glyph glyph-name="W" unicode="W" horiz-adv-x="824" 
d="M410 362q-14 -34 -27.5 -87t-25 -112.5t-20.5 -118.5t-14 -105q-3 -4 -23.5 -4t-48 5t-57 14.5t-51.5 24.5q-24 30 -39 84t-22 121.5t-8 142t3 145.5t11.5 133.5t16.5 104.5q6 18 28 22.5t50 -1t55.5 -19t44.5 -31.5q-8 -69 -15.5 -139t-12.5 -133.5t-6 -116.5t6 -87h7
q9 52 23.5 110t32.5 116.5t40 114.5t47 104q7 12 22.5 15t34 0.5t38.5 -10t37.5 -16t29 -16.5t13.5 -13q-5 -115 1 -215.5t22 -195.5q6 44 18.5 101t29 116t35.5 115.5t39 101.5t40 73t37 29q28 1 53 -5.5t43.5 -17t28 -23.5t7.5 -25q-49 -84 -86.5 -170.5t-68 -179
t-55.5 -192t-48 -209.5q-9 -1 -28 -1t-43.5 3.5t-52.5 10.5t-56 19q-11 6 -22 49.5t-20.5 105t-18 131.5t-14.5 131h-11z" />
    <glyph glyph-name="X" unicode="X" horiz-adv-x="604" 
d="M578 -96l-10 -2.5t-13 -1.5t-13.5 3t-10.5 11q-13 22 -33.5 53t-45.5 68.5t-54 79.5t-59 86q-35 -35 -65.5 -67t-56.5 -58q10 -1 18 -4q7 -2 12 -6.5t5 -11.5q0 -4 -7.5 -9.5t-18.5 -12.5t-25 -15t-29 -15q-34 -18 -78 -37q-9 0 -29.5 16.5t-41 38.5t-34 42t-7.5 27
q19 20 46 49t59.5 63t68.5 72.5t74 78.5q-43 57 -79.5 102.5t-61.5 69.5q-4 4 -18 15t-28 25.5t-24 29.5t-6 26q1 6 9.5 18.5t19 25t20.5 22.5t15 11q9 2 23.5 0t31.5 -16q16 -14 37 -37.5t46 -53.5t52.5 -65.5t56.5 -74.5q49 50 95 95.5t84.5 80t66.5 55t40 20.5
q16 0 38 -15.5t40.5 -36t30 -39.5t8.5 -26q-15 -14 -45 -42.5t-69 -67t-84.5 -84l-92.5 -92.5q34 -47 65.5 -91t60.5 -82q2 -3 8 -0.5t9 0.5q11 -5 26.5 -30t28 -53t18 -51.5t-3.5 -26.5z" />
    <glyph glyph-name="Y" unicode="Y" horiz-adv-x="608" 
d="M64 65q5 9 10.5 11.5t10.5 1.5t9 -2t6 2q32 45 65 95.5t66 104.5q-48 76 -85.5 130.5t-70.5 96.5q-3 4 -6 4t-6.5 -1t-7 -1.5t-6.5 2.5q-7 7 -20.5 25t-26.5 37.5t-21.5 35.5t-5.5 21q7 14 24 29.5t36.5 26t38.5 13.5t30 -6q15 -12 39.5 -42.5t53 -70.5t58.5 -85t57 -86
q40 63 78.5 120t74 100t66.5 68.5t57 25.5q19 0 41.5 -14t40.5 -32.5t29.5 -36.5t9.5 -25q-29 -20 -65 -60.5t-76 -94t-82.5 -115.5t-83.5 -125.5t-79 -125t-70.5 -112.5t-57 -88t-37.5 -53q-9 0 -34.5 8.5t-53 20t-48.5 23.5t-20 19q3 15 9.5 34.5t15 40.5t18.5 41.5
t19 38.5z" />
    <glyph glyph-name="Z" unicode="Z" horiz-adv-x="536" 
d="M73 285q-17 -3 -30.5 8t-21.5 26t-9 29.5t7 18.5q8 3 29.5 8t51.5 10.5t66.5 11t74.5 10.5q45 45 83.5 80.5t62.5 54.5q-32 0 -78 -4t-92.5 -10t-88.5 -14.5t-67 -18.5q-8 -3 -14.5 4.5t-12 21.5t-9.5 31.5t-7 33.5t-4.5 29t-1.5 17q0 10 21.5 19t57.5 17t82.5 15.5
t96.5 14t99 11t90.5 8t70.5 5t39 1.5t18 -16t14 -36t9.5 -38t3.5 -23q-9 -7 -28.5 -24t-46 -41.5t-57.5 -55t-64 -63.5q12 1 23 1.5t19 0.5q14 0 22 -0.5t12 -2t6.5 -4.5t6.5 -8q4 -6 6 -7.5t5 -2.5t6.5 -2t10.5 -6q3 -3 12.5 -13.5t14.5 -22.5t1 -21t-28 -8
q-49 1 -107 -2.5t-116 -9.5q-29 -30 -55.5 -58t-47 -51.5t-34 -40.5t-17.5 -25q86 17 183 31t191 10q20 -3 32.5 -26t20 -50t10 -50t2.5 -26q0 -7 -33 -11.5t-86 -9t-120 -10.5t-135 -15q-49 -6 -104 -17t-97 -23q-20 -1 -32.5 10.5t-20 28t-11 34t-4.5 26.5q0 15 14.5 41
t38.5 59.5t56.5 71.5t68.5 77q-18 -2 -33 -4.5t-26 -4.5z" />
    <glyph glyph-name="bracketleft" unicode="[" horiz-adv-x="508" 
d="M61 -145q1 48 8.5 107.5t18.5 125t25.5 134t31 134.5t33.5 127t34 111q-11 6 -11 21.5t6 32t15.5 30t17.5 15.5q42 8 83 13.5t78 9.5t68 5.5t54 1.5q9 0 23 -16.5t25 -36t14 -36t-10 -16.5q-44 0 -71.5 -1.5t-48.5 -4.5t-39.5 -6.5t-44.5 -6.5q-21 -77 -41.5 -155
t-39 -159t-33 -166t-21.5 -175q19 3 34.5 5.5t30.5 4.5t31 3t37 1q7 0 21.5 -16.5t25 -36t12 -36t-15.5 -16.5q-48 0 -108 -6t-121 -14q-17 -2 -35.5 -5.5t-35.5 -3t-30.5 7t-20.5 23.5z" />
    <glyph glyph-name="backslash" unicode="\" horiz-adv-x="621" 
d="M466 -158q-10 16 -26.5 55t-37.5 93t-46 119.5t-51.5 133.5t-54 135t-53 124.5t-48.5 101t-42 65.5q0 7 7 16t17.5 17t22 13.5t21.5 5.5q20 0 44.5 -34t51.5 -90.5t56.5 -129t59.5 -149.5t60 -152t59 -136q1 -3 4.5 -1.5t7 2.5t7.5 -1t7 -11q11 -21 14 -56t2 -65
q-1 -7 -10.5 -16.5t-22.5 -18.5t-26.5 -15t-22.5 -6z" />
    <glyph glyph-name="bracketright" unicode="]" horiz-adv-x="506" 
d="M-67 -87q42 5 69 7.5t47.5 4.5t39.5 3.5t46 3.5q42 154 78.5 317.5t56.5 337.5q-20 0 -35 -1.5t-29 -3t-29.5 -3.5t-35.5 -4q-7 -1 -21.5 14t-25.5 34t-14 35.5t14 19.5q25 4 59.5 7.5t72 7l75 7t68.5 6.5q17 1 29.5 -2t21 -9t14 -13t8.5 -14q-3 -20 -11 -66
t-18.5 -107.5t-23 -134t-26.5 -145.5t-28 -140.5t-26.5 -120t-23.5 -84t-19 -32.5q-85 -8 -156 -14.5t-119 -15.5q-8 -2 -23 14t-27.5 35.5t-17 36.5t9.5 19z" />
    <glyph glyph-name="asciicircum" unicode="^" horiz-adv-x="429" 
d="M24 505q-12 11 -15.5 25.5t10.5 28.5t34 36t43.5 46t49 46t50.5 37l86 -14q31 -15 61.5 -39t56 -49t44.5 -46.5t27 -31.5q10 -11 5.5 -28t-15.5 -32t-24.5 -23t-20.5 -2q-47 41 -79.5 79t-66.5 65q-12 -11 -29 -28t-35.5 -36t-36 -38t-30.5 -34q-11 -13 -25 -10.5
t-28 10.5z" />
    <glyph glyph-name="underscore" unicode="_" horiz-adv-x="570" 
d="M47 -40q27 6 68 11t88 8.5t96 6t92 3.5t76.5 1.5t49.5 -0.5q7 0 21.5 -16.5t26 -36t13.5 -35.5t-15 -16q-51 -1 -111 -2t-120.5 -3.5t-116 -5.5t-96.5 -7q-15 -2 -32 11.5t-29.5 30.5t-17 32.5t6.5 17.5z" />
    <glyph glyph-name="grave" unicode="`" 
d="M181 726q-8 11 -6.5 22.5t15.5 14.5q8 1 23 3.5t31.5 3t31 -3t20.5 -13.5q9 -14 20.5 -33.5t22 -38.5t18.5 -34.5t11 -20.5q6 -11 3.5 -22.5t-12.5 -13.5q-11 -2 -23 -4t-24 -2t-22 3t-16 11z" />
    <glyph glyph-name="a" unicode="a" horiz-adv-x="543" 
d="M355 46q-9 -13 -22.5 -26t-31 -23.5t-38 -17t-43.5 -6.5q-47 0 -85 13.5t-66 40t-43 64.5t-15 87q0 65 16.5 128.5t49 113.5t79.5 81t109 31q43 0 78 -8t60 -21t38.5 -30t13.5 -35q0 -3 -0.5 -6t-0.5 -5q-1 -3 -1 -5q5 -1 17 -2t24 -4t20.5 -7.5t5.5 -13.5
q-22 -68 -36 -137t-16 -125q-2 -29 3.5 -50.5t22.5 -21.5q15 0 25.5 10t17 26.5t10.5 38.5t6 46q26 2 46 -3q17 -5 32 -19t15 -43q0 -23 -10 -49.5t-31 -49t-53 -37t-75 -14.5q-34 0 -56 9t-34.5 21.5t-18 26t-6.5 22.5h-7zM188 144q-4 -41 1 -57.5t19 -16.5q11 0 23 15.5
t23 39.5t21 52.5t17.5 55t12 47t5.5 28.5q-8 1 -14 4q-5 2 -11 6t-9 9q14 21 21.5 42.5t10.5 44.5q1 6 0 17t-12 11q-14 0 -26.5 -16t-24 -41.5t-21.5 -57.5t-17.5 -65t-12 -64t-6.5 -54z" />
    <glyph glyph-name="b" unicode="b" horiz-adv-x="498" 
d="M19 175q0 45 9.5 104t24 121.5t32.5 122.5t35 107.5t31 77.5t20 31q18 3 42 -1t45 -12t35.5 -19.5t14.5 -21.5q-6 -17 -18 -50t-25 -71t-25 -74.5t-18 -59.5q13 18 25.5 33.5t26 27.5t29.5 18.5t36 6.5q33 0 64 -16t55 -42t38.5 -59.5t14.5 -68.5q0 -21 -5.5 -56
t-18 -75.5t-32 -81.5t-47.5 -74.5t-65.5 -54.5t-85.5 -21q-117 0 -177.5 54t-60.5 154zM195 232q-3 -11 -6 -26q-2 -13 -4.5 -31t-4.5 -41q-2 -26 9.5 -44.5t30.5 -18.5q23 0 41 22t32 54.5t24 71t16.5 72.5t9.5 57t3 26q1 20 -0.5 36.5t-17.5 16.5q-19 0 -37 -24
t-32.5 -56.5t-24.5 -66.5t-11 -54q0 -1 -4.5 -2t-5.5 -1z" />
    <glyph glyph-name="c" unicode="c" horiz-adv-x="442" 
d="M10 175q0 51 15 109t45.5 106.5t76.5 81t109 32.5q29 0 61 -9t59 -25.5t44.5 -40.5t17.5 -54q0 -69 -29 -107.5t-70 -38.5q-29 0 -46 12t-23 32v6q9 18 18 37q7 17 13.5 37.5t8.5 42.5q0 20 -14 20q-16 0 -33.5 -20t-32 -54.5t-24 -81t-9.5 -100.5q0 -34 6.5 -56.5
t17 -36t25 -19t31.5 -5.5q29 0 53 14t41.5 36.5t28.5 50t14 54.5q6 3 14 6q7 2 15.5 4t18.5 2q29 0 48 -20t19 -55q0 -24 -14 -56t-45 -61.5t-80 -50t-119 -20.5q-52 0 -99.5 15.5t-83.5 45t-57 72t-21 95.5z" />
    <glyph glyph-name="d" unicode="d" horiz-adv-x="566" 
d="M353 61q-8 -15 -20.5 -34.5t-30.5 -36.5t-42 -28.5t-54 -11.5q-49 0 -85 19t-59.5 49t-35 66.5t-11.5 72.5q0 33 6.5 72.5t19 79.5t32.5 78t47 67t62 46.5t77 17.5q26 0 47 -7t36 -15q17 -10 30 -22q5 24 10 52.5t9.5 56t8.5 51t7 37.5q6 35 15.5 57t26.5 22
q14 0 38 -3.5t47.5 -11t39.5 -19.5t13 -28q-5 -33 -14.5 -83t-21.5 -107t-24 -117t-22 -113t-16.5 -95.5t-6.5 -64.5q0 -42 26 -42q15 0 27.5 14t21.5 34t15 43.5t8 43.5q23 4 41 0q16 -4 29 -16.5t13 -41.5q0 -26 -16 -56t-43.5 -55.5t-65.5 -42t-82 -16.5q-24 0 -42.5 8
t-31 21t-19 28.5t-6.5 30.5h-4zM175 109v-16.5t1.5 -18.5t4.5 -15.5t9 -6.5q11 0 24 15.5t26.5 39.5t26 53.5t22.5 56.5t16.5 49t6.5 32q-6 1 -12 4t-11 13q7 17 16 41t10 45q2 11 -0.5 20.5t-11.5 9.5q-22 0 -43.5 -33t-39.5 -82t-30 -105t-15 -102z" />
    <glyph glyph-name="e" unicode="e" horiz-adv-x="405" 
d="M-7 117q0 68 16.5 143t48 137.5t76 103t101.5 40.5q22 0 50.5 -8.5t54 -27t43 -47.5t17.5 -70q0 -48 -13 -89.5t-33.5 -72.5t-46 -48.5t-49.5 -17.5q-22 0 -38 7t-26.5 15t-15.5 15.5t-6 9.5q0 -1 -3.5 -10t-7.5 -25t-7.5 -38t-3.5 -48q0 -37 15.5 -53.5t43.5 -16.5
q35 0 63.5 17.5t48.5 43t32.5 54t16.5 49.5q3 2 7 4q10 4 20 4q35 0 59.5 -14t24.5 -45q0 -30 -14.5 -66.5t-45 -68t-77 -52.5t-110.5 -21q-44 0 -87 13t-77.5 38t-55.5 61.5t-21 83.5zM185 273q1 -7 4 -11q2 -4 6.5 -7t11.5 -3q12 0 23 15.5t19 39t13 51.5t5 54
q1 28 -2.5 34.5t-7.5 6.5q-3 0 -6 -3t-8 -13q-17 -35 -33.5 -80.5t-24.5 -83.5z" />
    <glyph glyph-name="f" unicode="f" horiz-adv-x="391" 
d="M35 377q-8 5 -14.5 14.5t-10.5 20.5t-6 21.5t-2 17.5v13t9 8.5t31 8t66 10.5q8 33 18 71.5t19.5 75t17.5 68t13 49.5q3 1 8 2t11.5 1.5t15.5 0.5q65 0 97 -19t32 -45q0 -18 -5.5 -42t-13 -49.5t-16 -51t-14.5 -47.5q39 4 69.5 10t55 10.5t43.5 8t35 3.5t29.5 -14.5
t23.5 -33.5t15 -37.5t5 -26.5q0 -4 -4 -7q-3 -3 -8.5 -5t-16.5 -3q-26 -2 -60.5 -5t-71 -7t-73.5 -8t-67 -7l-1 -5q52 -49 78 -101t26 -125q0 -52 -14 -98t-37 -84.5t-52 -68.5t-58 -51.5t-55.5 -32.5t-45.5 -11q-57 0 -85.5 31t-28.5 80q0 20 1.5 43t5.5 47q7 47 17.5 96.5
t22 95t21 85t14.5 66.5zM175 12q-3 -17 -6 -35.5t-5 -35.5q-1 -16 1.5 -26t10.5 -10q4 0 17 14t28 41.5t28 68.5t17 96q2 38 -5 79t-32 79q-3 -19 -9.5 -48t-14 -65t-16 -76t-14.5 -82z" />
    <glyph glyph-name="g" unicode="g" horiz-adv-x="516" 
d="M89 -73q7 -11 18 -22t22.5 -20.5t22.5 -17t19 -10.5q25 7 44.5 26.5t34.5 45t26 55.5t20 59q-19 -18 -44 -34.5t-51 -16.5q-92 0 -133.5 53t-45.5 145q-3 68 12.5 129t47.5 107t79 73t106 27q40 0 76 -9t62.5 -24t42.5 -35t17 -42q0 -2 -0.5 -4.5t-0.5 -4.5v-5
q3 0 14.5 -1t23 -4t20.5 -8t8 -14q-11 -60 -25 -148.5t-46 -203.5q-37 -129 -98 -194t-155 -65q-29 0 -56.5 4.5t-50.5 11t-40.5 15t-27.5 17.5q-23 16 -26.5 37.5t6 39.5t30.5 29.5t48 8.5zM196 161q-1 -41 10.5 -60t27.5 -19t32.5 22t30.5 55t23.5 71t12.5 71q-3 -1 -7 1
q-8 2 -15 12q8 17 11.5 44.5t3.5 43.5q0 14 -6 25t-18 11q-22 0 -41 -30.5t-33.5 -74t-22.5 -91t-9 -81.5z" />
    <glyph glyph-name="h" unicode="h" horiz-adv-x="548" 
d="M314 303q-6 -9 -22 -42.5t-33 -80t-31 -99.5t-17 -99q-6 -4 -15 -7q-8 -3 -18 -5t-22 -2q-26 0 -50.5 6.5t-43 19.5t-29.5 32t-11 44q0 15 3 50.5t8.5 83.5t13 105t17 114.5t19.5 112t21 99t22.5 74.5t22.5 38q9 6 32.5 4t49 -9t45 -16.5t19.5 -18.5q0 -38 -11.5 -70.5
t-19.5 -55.5q-4 -13 -10.5 -40t-13.5 -61t-14 -72t-13 -71.5t-9.5 -58.5t-3.5 -35l7 -2q5 14 15.5 41.5t25 60.5t30.5 67.5t32 63t30 46.5t25 18q35 0 65 -8t51.5 -19t33.5 -23t12 -20q0 -13 -5.5 -38t-14 -57t-18.5 -68.5t-18.5 -72.5t-14 -69t-5.5 -57q0 -26 10 -44
t30 -18q15 0 27.5 11t22.5 28.5t16.5 39t9.5 42.5q24 1 43 -3q16 -4 29.5 -14.5t13.5 -33.5q0 -29 -16.5 -55.5t-45.5 -47t-67.5 -33t-83.5 -12.5q-40 0 -67.5 11t-45 30.5t-25.5 46.5t-8 59q0 21 3.5 50t8.5 56.5t10 50.5t8 32z" />
    <glyph glyph-name="i" unicode="i" horiz-adv-x="292" 
d="M205 543q-11 0 -24.5 4.5t-25 13.5t-19.5 23t-8 34q0 13 5 35.5t18 44.5t35 38t56 16t52.5 -8.5t8.5 -36.5q20 -8 37 -19.5t17 -35.5q0 -14 -7.5 -33t-25.5 -36t-47 -28.5t-72 -11.5zM7 103q0 21 5 53t13 68t18.5 74t21.5 73t21 64t18 47q3 8 11 10.5t16 2.5q11 0 37 -5
t51 -14.5t41.5 -24t10.5 -32.5q-9 -29 -21 -71.5t-24 -87.5t-21 -86.5t-10 -66.5q-2 -24 5 -36t16 -12q19 0 33.5 15.5t25 36.5t16.5 42.5t8 34.5q25 0 44 -7q17 -6 30.5 -19.5t13.5 -39.5q0 -27 -18 -55.5t-49 -52.5t-71 -39.5t-85 -15.5q-72 0 -114.5 35t-42.5 109z" />
    <glyph glyph-name="j" unicode="j" horiz-adv-x="264" 
d="M186 561q-11 0 -24.5 4t-25.5 13t-20 22.5t-8 32.5q0 12 4.5 33.5t17.5 42.5t35 36.5t56 15.5q36 0 62.5 -13t28.5 -42q10 -3 16 -5.5t8 -6.5t2.5 -10.5t0.5 -18.5q0 -14 -7 -31.5t-25 -34t-47.5 -27.5t-73.5 -11zM84 403q2 19 5.5 35.5t9.5 29t16 19.5t26 7
q49 0 86.5 -14.5t56.5 -37.5q-16 -86 -27 -170t-22.5 -159.5t-27 -139.5t-41.5 -110.5t-65.5 -73t-98.5 -26.5q-15 0 -33.5 1t-36 3.5t-33.5 5.5t-26 7q-29 10 -39.5 28.5t-8.5 37t15.5 33.5t32.5 18q25 -11 56 -22t57 -17q10 11 20 41t19 72.5t17.5 94.5t16 109t14 115.5
t11.5 112.5z" />
    <glyph glyph-name="k" unicode="k" horiz-adv-x="506" 
d="M19 8q-2 20 -0.5 52t6.5 97q5 58 16 131.5t25 150.5t30.5 151t31.5 133q5 17 13.5 22t13.5 5q11 0 28 -3t35 -7.5t34 -9.5t26 -9q18 -7 18.5 -14t-3.5 -19q-11 -41 -22.5 -89t-22 -93t-19 -82.5t-14.5 -59.5q25 22 55 49.5t63 51.5t68 40.5t70 16.5q30 0 48 -9.5
t27 -22.5t10 -26t-2 -20q-70 -32 -132.5 -69.5t-128.5 -95.5q21 -24 51.5 -57.5t63 -70.5t64 -74.5t54.5 -67.5q20 -22 22 -33.5t-10 -21.5q-4 -3 -17 -10.5t-29.5 -15.5t-32 -15t-24.5 -11q-8 -4 -21.5 -4.5t-27.5 14.5q-26 31 -54 67.5t-54.5 72t-50 64.5t-40.5 45
q-3 -19 -4 -42.5t-1.5 -48.5t0 -48t0.5 -40q1 -19 -6.5 -26t-15.5 -6q-9 1 -25 5t-33 8t-31 7.5t-17 4.5q-22 5 -27.5 10.5t-7.5 22.5z" />
    <glyph glyph-name="l" unicode="l" horiz-adv-x="245" 
d="M24 0q-3 5 -3.5 15.5t0.5 23t2.5 26t2.5 25.5q3 39 10.5 90t17.5 109t22 119.5t25.5 120.5t27 113t27.5 97q2 6 9.5 7.5t13.5 1.5q14 0 38 -6.5t47 -15.5t39 -18.5t14 -16.5q-42 -159 -74.5 -325.5t-47.5 -331.5q-2 -20 -4 -40.5t-4 -40.5q-6 -6 -31 -2t-53.5 13
t-52 19.5t-26.5 16.5z" />
    <glyph glyph-name="m" unicode="m" horiz-adv-x="754" 
d="M279 275q-12 -29 -26 -66.5t-26 -77t-20.5 -78t-10.5 -69.5q-8 -4 -17 -8q-8 -3 -17 -5.5t-20 -2.5q-64 0 -97.5 34t-33.5 96q0 43 5.5 91.5t14 96t19.5 90.5t22.5 76t22.5 52.5t20 19.5q18 0 38 -5t36.5 -12.5t26.5 -15t8 -13.5q-9 -32 -18.5 -68t-17.5 -70t-14 -64.5
t-7 -51.5h4q15 36 29 74t27 73.5t25.5 67t23.5 55.5q3 6 19 8.5t27 2.5q29 0 54 -6t43 -15t27.5 -20.5t7.5 -21.5q-3 -23 -7.5 -52t-9 -59.5t-8.5 -61t-7 -55.5h4q15 36 28.5 74.5t28.5 77.5t31.5 77t37.5 73q3 6 18 11t31 5q27 0 54 -6.5t48 -17t33.5 -22.5t10.5 -24
q-7 -38 -20.5 -83.5t-26.5 -93t-22.5 -92.5t-9.5 -81q0 -66 35 -66q12 0 23 11.5t19.5 27.5t14.5 32l9 24q20 2 37 -2q14 -4 26 -13.5t12 -32.5q0 -20 -9.5 -44.5t-30 -45.5t-52.5 -35.5t-76 -14.5q-47 0 -78.5 11.5t-50 32t-25 47.5t-4.5 57q1 14 4.5 36t8 46t10 47t9.5 40
h-10q-15 -29 -31 -71t-28.5 -87t-21.5 -87.5t-11 -73.5q-7 -3 -16 -6q-8 -2 -18.5 -4t-23.5 -2q-64 0 -95 30t-29 80q3 54 7.5 114.5t12.5 111.5h-7z" />
    <glyph glyph-name="n" unicode="n" horiz-adv-x="497" 
d="M282 268q-16 -29 -32.5 -67.5t-30.5 -79t-23.5 -79.5t-10.5 -69q-9 -5 -21 -9q-11 -4 -26 -6.5t-34 -2.5q-27 0 -44 10t-27 27t-14 41t-4 53q0 80 9 157.5t25 139t37.5 99t47.5 37.5q13 0 30 -3.5t31 -9.5t22.5 -13.5t6.5 -15.5q-17 -63 -31.5 -124t-19.5 -125h4
q31 72 63 147t74 145q3 6 12 13t29 7q16 0 40.5 -5.5t47 -15t38 -21t14.5 -23.5q-6 -39 -19 -85.5t-26.5 -95t-24 -95t-10.5 -85.5q0 -66 37 -66q11 0 22 12.5t20 29t15.5 33t9.5 25.5q20 1 37 -4q14 -5 25.5 -16.5t11.5 -34.5q0 -16 -12 -40t-35 -46t-55.5 -37.5
t-73.5 -15.5q-47 0 -77.5 13t-48.5 34t-25 47.5t-5 52.5q1 14 4.5 36t8 45.5t10 46t9.5 39.5h-11z" />
    <glyph glyph-name="o" unicode="o" horiz-adv-x="490" 
d="M6 210q3 49 21.5 102.5t47.5 99.5t65 78t74 39q15 -5 25.5 -11.5t14.5 -14.5q6 3 15 6q8 2 17.5 4.5t22.5 2.5q63 0 100.5 -17t58 -45.5t26 -65.5t4.5 -76q-2 -28 -8.5 -65t-19.5 -76.5t-33.5 -77.5t-50 -68t-68.5 -48.5t-90 -18.5q-62 0 -105.5 23.5t-70 60.5
t-37.5 81.5t-9 86.5zM169 180q-5 -51 5.5 -86.5t38.5 -35.5q20 0 37 17.5t31 45t24.5 61t18 65.5t12 58t5.5 39q1 10 2 25t-0.5 29t-7 24t-18.5 10q-19 0 -37.5 -24.5t-34 -58t-26.5 -67.5t-15 -53q-1 -2 -11.5 1t-13.5 7q-2 -8 -4 -17q-2 -8 -3.5 -18t-2.5 -22z" />
    <glyph glyph-name="p" unicode="p" horiz-adv-x="503" 
d="M254 -33q-42 0 -68 11.5t-42 30.5q-6 -29 -10.5 -61.5t-8.5 -62t-7 -52.5t-4 -33q-5 -21 -15.5 -25t-20.5 -4q-6 0 -21.5 4t-33.5 9.5t-34.5 10.5t-23.5 8q-13 4 -11 39t13.5 89t28 121.5t32.5 136.5q1 31 4.5 68.5t8.5 75t11.5 73.5t14 63.5t17 44t20.5 16.5
q13 0 34.5 -6t42 -14t35.5 -16t14 -12l-8 -51q25 34 54 56t64 22q42 0 75 -16.5t55.5 -43.5t34 -62t11.5 -72q0 -60 -19 -121.5t-53.5 -112t-82.5 -82.5t-107 -32zM202 185q-2 -25 -1 -46.5t6 -37.5t13.5 -25.5t20.5 -9.5q19 0 35 17.5t29.5 44.5t23 60t17 64.5t11.5 57
t5 38.5q1 9 2 24t0 28.5t-6 23.5t-17 10q-18 0 -35 -24.5t-31.5 -57.5t-25 -66.5t-14.5 -51.5q-1 -3 -10.5 0.5t-12.5 6.5l-4 -18q-2 -8 -3.5 -17.5t-2.5 -20.5z" />
    <glyph glyph-name="q" unicode="q" horiz-adv-x="502" 
d="M11 154q0 74 17.5 141.5t51.5 118.5t84 81.5t116 30.5q30 0 61 -7t56 -19.5t41 -30.5t16 -40q0 -2 -0.5 -4.5t-0.5 -4.5v-5q3 0 15 -1t25 -4t22.5 -8t7.5 -14q-7 -30 -15.5 -63.5t-18.5 -66t-19.5 -62t-17.5 -51.5q-8 -33 -14.5 -60.5t-12.5 -54t-12 -54t-12 -61.5
q0 -3 2.5 -4.5t6.5 -2t7 -1.5t3 -4q1 -14 -5.5 -39.5t-14.5 -49.5q-10 -29 -22 -60q-32 3 -60 7q-24 4 -49.5 9t-40.5 12q-9 4 -8.5 28t6 58.5t15 74t19.5 73.5q-20 -18 -45 -30.5t-51 -12.5q-43 0 -72 13.5t-47 37.5t-26 57.5t-8 72.5zM186 144q-2 -41 3.5 -58t21.5 -17
q12 0 24.5 15t24 38.5t22 51.5t18.5 54t12.5 46.5t5.5 28.5q-5 1 -9 3t-8.5 5t-8.5 8q11 18 18 43t8 41q1 14 -2 24t-15 10q-15 0 -28.5 -15.5t-26 -40.5t-23 -56.5t-18 -64t-13 -63t-6.5 -53.5z" />
    <glyph glyph-name="r" unicode="r" horiz-adv-x="414" 
d="M202 321q9 21 17.5 45.5t16 48t13.5 45t11 36.5q16 46 96 29q37 -8 46 -22.5t8 -27.5q-1 -12 -9.5 -30.5t-18.5 -40t-19 -45t-10 -47.5q-1 -9 5 -17.5t17 -8.5q19 0 33.5 13.5t24.5 29.5t15.5 29.5t7.5 13.5t12 -0.5t20.5 -5t19 -13.5t8.5 -27q0 -23 -9.5 -47t-26.5 -44
t-41 -32.5t-54 -12.5q-34 0 -55 11.5t-32.5 29t-15.5 37.5t-4 38q-10 -20 -23.5 -56.5t-26.5 -81.5t-22.5 -94t-12.5 -94q-14 -5 -43.5 -1t-60 12t-53.5 19t-23 19q0 22 9 95t26 211q3 28 7 60t11.5 59.5t19.5 45.5t32 18q15 0 33 -5.5t34 -11.5q18 -7 38 -16
q-5 -35 -13.5 -79t-13.5 -82z" />
    <glyph glyph-name="s" unicode="s" horiz-adv-x="430" 
d="M201 344q63 -24 112 -60q21 -15 41.5 -34.5t36 -43t25.5 -51.5t10 -61q0 -43 -16 -73t-43.5 -49t-63.5 -27.5t-75 -8.5q-48 0 -94 18t-82.5 45.5t-58.5 60t-22 62.5q0 21 6 43t18 40t28.5 29t37.5 11t39 -6.5t31 -14.5t20.5 -16t7.5 -11q-1 -10 -8.5 -27.5t-16 -35
t-15.5 -31.5t-7 -17t2.5 -10t9.5 -14.5t18.5 -13t28.5 -5.5q38 0 58.5 27t20.5 72q0 33 -19.5 62t-48 51t-61 36t-59.5 18q-5 5 -12 20t-13 33t-9.5 35.5t-2.5 27.5t28.5 22.5t68.5 24.5t88.5 23t90 19.5t72.5 13.5t36 5t16.5 -11.5t21 -27t18.5 -30.5t8 -22
q0 -14 -13.5 -30.5t-32.5 -30.5t-40 -23t-35 -9q-6 0 -10 4t-7.5 9.5t-7.5 9.5t-10 4q-15 0 -34 -3.5t-36.5 -8t-30.5 -9t-17 -7.5z" />
    <glyph glyph-name="t" unicode="t" horiz-adv-x="449" 
d="M68 370q-15 -2 -28.5 12t-21.5 32.5t-10.5 36t5.5 22.5q12 7 52.5 14.5t91.5 15.5q21 51 40 86.5t32 41.5q10 4 32 -1.5t44.5 -14.5t39 -18.5t15.5 -13.5l-20 -59l32 2q25 2 45 2.5t26 -9.5q8 -11 22 -18.5t30 -13.5q3 -1 8 -10t10.5 -19.5t9 -20t3.5 -11.5q0 -5 -4 -10
t-19 -5q-43 -1 -95.5 -4.5t-106.5 -8.5q-12 -41 -23 -82t-20 -78.5t-14 -70.5t-5 -57q0 -22 8.5 -32t21.5 -10q29 0 53.5 15.5t42.5 37.5t28.5 46t13.5 41q24 2 43 -5q17 -6 30.5 -21.5t13.5 -48.5q0 -39 -22.5 -70.5t-59.5 -53t-83 -33.5t-92 -12q-39 0 -71.5 12.5
t-56.5 35t-37 54.5t-13 72q0 19 4 45.5t11 57.5t16.5 65.5t20.5 69.5l-24.5 -3.5t-18.5 -2.5z" />
    <glyph glyph-name="u" unicode="u" horiz-adv-x="526" 
d="M313 122q-8 -17 -21.5 -41.5t-32.5 -47t-42 -38.5t-50 -16q-25 0 -53 13t-52 33t-39.5 45.5t-15.5 51.5q0 29 5 68.5t13.5 82t19.5 84t24.5 74t27.5 52.5t28 20q54 0 85 -14t36 -23q-14 -41 -29 -91t-26.5 -99.5t-17 -93.5t-0.5 -72l11 -5q22 23 46.5 73.5t46.5 109
t39.5 115t25.5 91.5q3 14 41 14q16 0 36 -6.5t37 -16t28 -19.5t10 -16q-2 -12 -5.5 -34t-8.5 -50t-10 -59t-9.5 -60.5t-8 -55t-4.5 -41.5q-3 -28 5.5 -48.5t28.5 -20.5q15 0 27.5 15.5t21.5 35.5q11 22 19 51h15t25.5 -4.5t24.5 -15.5t11 -32t-13 -46t-37 -46.5t-57 -36
t-72 -14.5q-43 0 -68.5 12.5t-38.5 31.5t-16.5 42.5t-1.5 44.5z" />
    <glyph glyph-name="v" unicode="v" horiz-adv-x="385" 
d="M201 198q6 32 17 74t25 85.5t29.5 85.5t31 75.5t30.5 53.5t27 20q4 0 20.5 -3t34 -10t31.5 -18t14 -27q0 -17 -6.5 -32t-15.5 -29t-19 -28.5t-17 -29.5q-17 -38 -39 -91.5t-43 -116t-37.5 -129t-23.5 -129.5q-6 -4 -14 -7q-16 -7 -36 -7q-63 0 -101 24t-46 59
q-7 27 -19 95.5t-12 188.5q0 25 1 63.5t3 74.5q2 42 5 88q4 28 37 28q9 0 31 -5t44.5 -13.5t40 -19.5t16.5 -23q-6 -25 -9.5 -51t-6 -50t-4 -44.5t-2.5 -35.5q-2 -41 1.5 -72t4.5 -44h7z" />
    <glyph glyph-name="w" unicode="w" horiz-adv-x="607" 
d="M286 245q-14 -27 -25.5 -58.5t-21.5 -64.5t-17.5 -66t-11.5 -63q-4 -4 -17 -6.5t-26 -3.5q-44 -2 -70.5 19.5t-40.5 59t-19 87t-5 104.5q0 18 1.5 45t5.5 57.5t10 61t14.5 55t20.5 40t27 15.5q20 0 41.5 -6.5t39.5 -15.5t29 -18.5t9 -14.5q-15 -47 -24.5 -102.5
t-11.5 -98.5q-2 -13 -1 -23.5t2 -17.5h7q30 72 56.5 145t43.5 126q10 20 20.5 26t33.5 6t42.5 -6.5t33.5 -15t21 -18t6 -15.5q-18 -69 -29.5 -142.5t-9.5 -139.5h8q3 13 12 42.5t21.5 67.5t29 80t35 79.5t38.5 66t41 39.5q6 1 22 -1.5t33 -9.5t30 -17.5t13 -25.5t-6.5 -28
t-15.5 -26.5t-19 -27.5t-17 -30q-26 -45 -51 -99t-46 -112.5t-36.5 -120t-21.5 -122.5q-5 -4 -13 -7q-16 -7 -37 -7q-33 0 -59.5 10.5t-45.5 27t-29 35.5t-11 37q0 6 -0.5 22.5t-1 37t-1 43t-0.5 42.5v34.5v18.5h-6z" />
    <glyph glyph-name="x" unicode="x" horiz-adv-x="455" 
d="M416 -57q-10 -9 -25.5 -9.5t-26.5 14.5q-25 36 -55 84t-64 100q-22 -23 -40.5 -42.5t-32.5 -30.5l6 -19q-32 -26 -55.5 -40t-40.5 -21q-19 -8 -33 -10q-9 0 -27.5 14t-35.5 32.5t-27.5 36t-4.5 23.5q35 35 85 89.5t105 111.5q-30 38 -61 71.5t-62 59.5q-14 11 -9 19.5
t12 14.5l49 57q5 5 21.5 1.5t32.5 -17.5q25 -22 51.5 -51.5t53.5 -64.5q30 30 57.5 55.5t51 44.5t42.5 30t31 11q9 0 27.5 -15t36 -34.5t29.5 -38t8 -25.5q-16 -7 -37 -23.5t-45 -39.5t-50 -50t-52 -55q32 -50 61 -97.5t53 -85.5q4 -6 8.5 -15t6.5 -19t1 -19t-8 -15z" />
    <glyph glyph-name="y" unicode="y" horiz-adv-x="468" 
d="M7 140q0 45 6 91t16 89t24 82t30 72q23 38 70 38q19 0 38 -5t34 -12.5t24 -16.5t9 -18q-25 -77 -49.5 -156t-29.5 -158q-2 -17 1 -31t14 -14q10 0 22 14t23 34t19.5 41t12.5 36q2 9 7.5 33t12 55.5t14 65.5t16 62t16 46.5t14.5 18.5q24 0 49 -4.5t46 -11.5t34.5 -16
t13.5 -17q0 -36 -9 -75t-20.5 -76t-22.5 -68t-15 -50q-8 -38 -18.5 -90.5t-20.5 -107t-18.5 -105.5t-12.5 -85q-6 -26 -14.5 -31.5t-20.5 -5.5q-6 0 -21.5 4t-34 9.5t-35.5 11.5t-26 9q-10 4 -12.5 8.5t-2.5 16.5q0 14 6.5 42.5t15 62t17 68.5t13.5 63q-16 -23 -44.5 -43
t-66.5 -20t-62 14t-38 35.5t-19 47t-5 47.5z" />
    <glyph glyph-name="z" unicode="z" horiz-adv-x="426" 
d="M-17 64q0 15 13 36t34 45.5t48.5 51t56.5 52.5t57.5 49.5t51.5 42.5q-20 -2 -46 -8t-53.5 -13.5t-54 -14.5t-47.5 -11q-4 -1 -10.5 13.5t-13 33.5t-11 37t-4.5 25q0 12 27.5 24t70 22t93 18.5t97 14.5t82.5 9.5t49 3.5q9 0 18 -13.5t15.5 -30.5t11 -33t4.5 -21
q-14 -11 -35 -30.5t-45.5 -43t-50.5 -50t-49.5 -51t-43.5 -45t-32 -33.5q16 3 44 8.5t58 10t56.5 7.5t38.5 2q15 -2 26 -21.5t17.5 -42.5t10 -43t3.5 -23q0 -7 -29 -12t-68 -8.5t-78 -6.5t-59 -6q-23 -4 -51 -9.5t-56 -11.5t-54.5 -13t-47.5 -14q-20 -2 -29 10t-12.5 29.5
t-3 36t0.5 27.5z" />
    <glyph glyph-name="braceleft" unicode="{" horiz-adv-x="508" 
d="M318 242q50 -6 77.5 -24.5t27.5 -56.5q0 -20 -8 -42.5t-17.5 -44t-17.5 -42t-8 -36.5q0 -40 30.5 -49t83.5 3q7 1 19.5 -12.5t22 -31.5t13 -34t-8.5 -19q-21 -6 -55 -10t-73 -4t-79 6t-72 21t-52.5 41.5t-20.5 67.5q0 28 10 54t21.5 50t21.5 45.5t10 39.5
q0 21 -11.5 31.5t-27 15.5t-31 5.5t-23.5 0.5q-12 0 -25.5 15.5t-23 35.5t-12 40t8.5 28q57 -1 103 7q19 3 37.5 9t33 14.5t23.5 20.5t9 28q0 24 -5 47t-11.5 46t-11.5 46.5t-5 47.5q0 54 30 81t77 37.5t104 8.5t111 -6q9 -1 21.5 -19t21.5 -39.5t10 -39t-12 -16.5
q-43 5 -78.5 10t-60.5 3.5t-38.5 -14.5t-13.5 -44q0 -22 5 -45t11 -47.5t11 -50t5 -52.5q0 -30 -15.5 -51.5t-38.5 -36t-51 -22.5t-52 -11v-6z" />
    <glyph glyph-name="bar" unicode="|" horiz-adv-x="423" 
d="M173 2q-1 9 1 11.5t5 2.5t6 -1t3 2q4 61 5 133.5t0.5 146.5t0 144.5t3.5 128.5t9.5 98t20.5 53q6 6 15 5.5t18 -4t16.5 -10t10.5 -13.5q-4 -24 -7 -69t-4.5 -102.5t-2.5 -124.5t-1 -134.5t-0.5 -133t-0.5 -120t-1 -95t-2 -58.5q-5 -3 -14 -2.5t-18.5 3t-18 7t-12.5 11.5
q-13 30 -23.5 65t-8.5 56z" />
    <glyph glyph-name="braceright" unicode="}" horiz-adv-x="508" 
d="M339 303q-23 2 -48 7.5t-46 15.5t-35 26t-14 40q0 28 11 53.5t24.5 51t24.5 51t11 52.5t-22.5 35t-85.5 1q-11 0 -21 9.5t-17.5 23t-12 26.5t-4.5 21q0 4 13 8t32 6.5t39.5 4t34.5 1.5q46 0 90.5 -9t79 -26.5t55.5 -44t21 -61.5q0 -29 -14 -55.5t-31.5 -50.5t-31.5 -46
t-14 -43q0 -23 12.5 -35.5t30.5 -19t37.5 -8t33.5 -1.5h11q13 -2 24 -18t18.5 -35t11.5 -36.5t4 -23.5q0 -4 -14 -5t-35.5 -2.5t-46 -4.5t-46 -10.5t-35.5 -20.5t-14 -35q0 -31 10 -65.5t10 -78.5q0 -45 -21 -80.5t-63 -58t-105.5 -28.5t-147.5 9q-10 2 -18.5 16t-15 31
t-10 32.5t-3.5 19.5l6 8q41 -8 78 -13.5t65 -1t44.5 23.5t16.5 61q0 35 -11 75.5t-11 83.5q0 31 9.5 52.5t28 35t45.5 21t62 11.5v4z" />
    <glyph glyph-name="asciitilde" unicode="~" horiz-adv-x="602" 
d="M112 213q-10 0 -19 9t-15 21.5t-7 25.5t4 21q6 9 21 27t35 35.5t42.5 30.5t44.5 13q31 0 55 -11.5t44 -25t37 -24.5t33 -11t29.5 7t25.5 15.5t22.5 15.5t20.5 7q8 0 16 -8t13 -20t5.5 -26.5t-6.5 -27.5q-5 -9 -20 -26t-36 -33.5t-47 -28.5t-54 -12q-27 0 -52.5 12
t-47.5 26.5t-40 26.5t-30 12q-9 0 -19 -8t-19.5 -17.5t-19 -17.5t-16.5 -8z" />
    <glyph glyph-name="uni00A0" unicode="&#xa0;" horiz-adv-x="0" 
 />
    <glyph glyph-name="exclamdown" unicode="&#xa1;" horiz-adv-x="417" 
d="M307 183q1 -47 -2 -105t-10.5 -116.5t-19.5 -112.5t-27 -93q-3 -6 -10.5 -10t-12.5 -4q-6 0 -21 0.5t-32 2.5t-34 5t-27 9q-5 3 -4 9t3 12.5t3 12.5t-3 9q-6 5 -16 10t-17.5 12t-10 17t5.5 25q13 33 31.5 78.5t37 96t35.5 103.5t26 101q6 6 23 4.5t35 -9.5t32 -22.5
t15 -34.5zM392 446q0 -13 -7.5 -31.5t-25.5 -35t-46.5 -28t-70.5 -11.5q-11 0 -23.5 4t-23.5 13t-18.5 22.5t-7.5 33.5q0 12 4.5 34.5t17 44t34 37.5t54.5 16q21 0 41.5 -10t36 -24.5t25.5 -32t10 -32.5z" />
    <glyph glyph-name="cent" unicode="&#xa2;" horiz-adv-x="442" 
d="M162 -153q5 26 11 54t14 57q-38 10 -70.5 29.5t-56 47t-37 63t-13.5 77.5q0 34 7.5 71.5t23 74t40 70t58.5 58.5t78 40t100 15q4 0 7.5 -0.5t7.5 -0.5q8 28 16 52t16 44q23 4 37.5 -2t16.5 -26l-22 -76q28 -7 53 -18t44 -26.5t30 -34.5t11 -42q0 -21 -8 -38.5t-23 -27.5
t-37 -10t-51 12q-1 5 0.5 20t0 32.5t-10 33.5t-30.5 24q-26 -93 -49 -186t-44 -191q28 1 51 15.5t40 37t27.5 49.5t13.5 53q6 3 14 6q7 2 15.5 4t18.5 2q29 0 48 -20t19 -55q0 -24 -14 -56t-45 -61.5t-80 -50t-119 -20.5h-8q-2 -7 -3 -13.5t-2 -14.5q2 -5 2 -13.5t-2 -17.5
q-2 -11 -9.5 -30t-17.5 -30q-8 -10 -18.5 -9.5t-20 5.5t-18 12t-12.5 11zM160 160q0 -39 15.5 -62.5t36.5 -36.5q23 91 48 184.5t48 176.5q-33 -8 -60.5 -32t-47 -59t-30 -79t-10.5 -92z" />
    <glyph glyph-name="sterling" unicode="&#xa3;" horiz-adv-x="703" 
d="M116 236q-15 -2 -29.5 6.5t-24.5 20.5t-13.5 23.5t4.5 16.5q13 7 38 14t57 14q4 69 14 138t37.5 124t78 89.5t135.5 34.5q46 0 92 -12.5t82.5 -36t58.5 -57.5t22 -76q-1 -35 -14 -63t-33 -47.5t-44 -30.5t-46 -11q-23 0 -38.5 6t-25.5 15t-16 19t-9 18q21 19 38 41
q14 19 25.5 42.5t12.5 48.5q1 17 -10 31.5t-34 14.5q-35 0 -60.5 -23.5t-44.5 -61.5t-32.5 -86.5t-24.5 -99.5q20 0 38 -2.5t36 -12.5q3 -2 9 -9.5t11.5 -16.5t10 -17t4.5 -10q0 -5 -4 -9t-19 -4q-29 -1 -54.5 -2t-48.5 -3q-8 -39 -15.5 -73.5t-15.5 -59.5q14 0 38 4t53 9.5
t61 12t60.5 13t51 12t34.5 9.5q8 2 18.5 -6.5t22 -23.5t22.5 -33t18 -34.5t9.5 -29t-1.5 -15.5q-12 -8 -40.5 -14.5t-67 -12.5t-83 -10.5t-88 -8t-81.5 -5t-64 -1.5q-28 -29 -48 -44.5t-35.5 -21.5t-27.5 -4t-23 10q-21 14 -36 37t-15.5 48t17 47.5t62.5 34.5q9 27 14 62.5
t7 75.5z" />
    <glyph glyph-name="currency" unicode="&#xa4;" horiz-adv-x="705" 
d="M157 248q2 28 15.5 57t35.5 54q-31 30 -63 54q-14 9 -10 21.5t9 17.5l35 33q10 9 24 4t28 -16q11 -10 25.5 -25t28.5 -31q15 7 33 10q11 0 22 0.5t18 -1.5q2 -1 6 -1q4 -1 24 -1q17 0 30.5 -1.5t25.5 -3.5q35 26 62 41t42 15q8 0 21 -11.5t24.5 -26.5t19 -29.5t4.5 -20.5
q-15 -6 -37 -18.5t-48 -30.5q1 -8 1 -15.5v-15.5q-2 -24 -12 -58t-33 -66q18 -19 34.5 -36t28.5 -34q8 -11 6.5 -18.5t-9.5 -14.5l-31 -30q-7 -5 -20.5 -4.5t-21.5 12.5l-52 67q-41 -22 -97 -22q-30 0 -54 5.5t-43 15.5q-26 -20 -43 -32t-28 -19q-12 -8 -19 -12
q-8 0 -22 12.5t-26 28t-19 30.5t-1 21q15 14 38 29t49 35q-3 15 -1 31zM291 235q-2 -24 5.5 -41.5t24.5 -17.5q20 0 34.5 18.5t24.5 42.5t15 47.5t6 33.5v12t-1.5 14t-6 11.5t-12.5 4.5q-16 0 -31.5 -9t-28 -25.5t-21 -39.5t-9.5 -51z" />
    <glyph glyph-name="yen" unicode="&#xa5;" horiz-adv-x="765" 
d="M194 178q-15 -2 -30 7t-25.5 21.5t-14.5 25t4 17.5q12 6 52.5 14t93.5 16q-48 75 -86 129.5t-70 96.5q-3 4 -6 4t-6 -1t-6.5 -1.5t-7.5 2.5q-7 7 -20.5 25t-26 37.5t-21.5 35.5t-6 21q7 14 22.5 28.5t33 24t34.5 12t28 -6.5q15 -12 40 -42.5t54.5 -70.5t61 -85.5
t59.5 -87.5q42 66 80.5 124.5t73.5 102t67 69t59 25.5q19 0 40.5 -13.5t39 -31.5t28 -35.5t8.5 -24.5q-23 -16 -52 -47.5t-61.5 -73.5t-67 -91.5t-68.5 -100.5l21 2q25 2 45 2.5t27 -9.5q3 -5 7.5 -6.5t9.5 -2t11 -1.5t13 -5q3 -2 8.5 -8.5t11 -14t9.5 -14.5t4 -9
q0 -5 -4.5 -10t-18.5 -5q-40 -1 -89.5 -4.5t-101.5 -8.5l-6 -40q9 1 18 1.5t16 0.5q25 1 48 -3t46 -19q3 -2 8.5 -8.5t10.5 -14.5t9 -15t4 -9q0 -5 -4 -10t-19 -5q-35 -1 -73.5 -3t-76.5 -5l-28 -194q-6 0 -21 3.5t-34.5 9.5t-40 14t-38 15.5t-28 14.5t-9.5 11l15 107
l-54 -7q-15 -2 -29.5 7t-24.5 21.5t-13.5 24.5t4.5 17q12 7 48 14t82 13l6 38z" />
    <glyph glyph-name="brokenbar" unicode="&#xa6;" horiz-adv-x="423" 
d="M187 375q0 63 2 120.5t8 104t16 78.5t27 43q7 4 16 4t18 -3.5t16 -9.5t10 -13q-7 -18 -11.5 -49.5t-7.5 -72t-4 -89.5t-2 -103q-2 -5 -11.5 -8t-23 -4.5t-28 -1t-25.5 3.5zM168 2q-1 9 1 11.5t4.5 2.5t5 -1t3.5 2q4 43 4.5 91t0.5 99q23 13 44.5 17t42.5 -7v-118.5
t-0.5 -105.5t-1.5 -82.5t-4 -48.5h-18.5t-20.5 2t-18.5 6t-11.5 11q-13 30 -22 64t-9 57z" />
    <glyph glyph-name="section" unicode="&#xa7;" horiz-adv-x="698" 
d="M508 567q-4 23 -24 41t-57 18q-62 0 -95.5 -27t-25.5 -86q6 -44 39 -80t78 -62t94 -42.5t85 -22.5q6 -1 15 -17.5t16.5 -36t13.5 -36t6 -19.5q3 -14 -9 -31t-32 -33.5t-45.5 -32t-49.5 -25.5q29 -32 49 -67t25 -74q6 -42 -12.5 -73t-53.5 -52t-82.5 -31t-101.5 -10
q-71 0 -129 16t-100 41.5t-66 57t-28 61.5q-3 21 1 40t14 34t25.5 24t36.5 9q22 0 42.5 -5.5t37.5 -13t28 -16.5t14 -16q-13 -13 -23.5 -35.5t-7.5 -48.5q3 -24 23 -41t57 -17q61 0 95.5 26t26.5 84q-6 50 -38.5 85t-75.5 58.5t-90 37t-83 19.5q-6 1 -16 18t-20 38t-17 39
t-7 21q-3 14 10 30t35 31t50 28t54 21q-34 34 -57.5 72.5t-30.5 80.5q-5 42 13.5 73t53.5 52t82.5 31t101.5 10q71 0 129 -16t100 -41.5t66.5 -57t29.5 -61.5q3 -21 -1.5 -40t-14.5 -34t-26.5 -24t-37.5 -9t-42 5.5t-37.5 13t-28 16.5t-14.5 16q14 13 24.5 36.5t7.5 49.5z
M204 269q12 -4 34.5 -13.5t52 -24t63 -34t66.5 -42.5q22 8 46.5 20.5t38.5 33.5q-12 4 -35.5 13.5t-53.5 23.5t-64 33t-67 42q-21 -8 -44.5 -21t-36.5 -31z" />
    <glyph glyph-name="dieresis" unicode="&#xa8;" 
d="M112 627q-18 6 -31.5 16t-13.5 31q0 12 6.5 28.5t21.5 31.5t39 25.5t60 10.5q9 0 20.5 -3.5t21 -11.5t16 -20.5t6.5 -30.5q0 -11 -3.5 -29.5t-14 -36t-30 -30.5t-52.5 -13q-19 0 -30 6t-16 26zM291 663q0 12 5.5 28.5t19.5 31t37.5 25t59.5 10.5q9 0 21 -3.5t22.5 -11.5
t18 -20.5t7.5 -29.5q0 -11 -4 -31t-14.5 -39.5t-29 -34t-46.5 -14.5q-18 0 -35.5 9t-31 22t-22 28.5t-8.5 29.5z" />
    <glyph glyph-name="copyright" unicode="&#xa9;" horiz-adv-x="901" 
d="M76 321q0 64 25.5 132t77 123.5t128.5 91.5t180 36q30 0 60 -5t56 -14.5t46.5 -23t33.5 -30.5q8 3 17.5 3.5t16.5 -4.5q53 -45 80 -110t27 -147q0 -79 -29.5 -146.5t-83 -117.5t-127.5 -78.5t-163 -28.5q-84 0 -148.5 25.5t-108 69.5t-66 101.5t-22.5 122.5zM149 283
q0 -51 17.5 -92.5t49 -71t75 -45.5t96.5 -16q83 0 151 21.5t116 65t74 108.5t26 152q0 54 -14.5 98.5t-40.5 68.5q-20 -5 -28.5 0.5t-12.5 10.5q-17 26 -53 46t-90 20q-97 0 -166.5 -30t-113.5 -80.5t-65 -117t-21 -138.5zM447 410q6 7 11 16q5 8 8.5 17.5t3.5 20.5
q0 15 -13 15q-14 0 -26.5 -18.5t-22.5 -46t-16.5 -59.5t-7.5 -59q-2 -38 8.5 -51.5t31.5 -13.5q16 0 31.5 9.5t27.5 24t21 30.5t12 29q5 2 12 4q5 2 12.5 3.5t15.5 1.5q20 0 36.5 -11.5t14.5 -37.5q-1 -16 -11 -37t-29 -40.5t-47.5 -33t-66.5 -13.5q-44 0 -79 11t-59.5 32
t-37.5 50.5t-11 65.5q2 34 12 74t31.5 74.5t55.5 57t83 22.5q19 0 40.5 -7t39 -20t28.5 -31t10 -39q-2 -47 -20.5 -66t-43.5 -19q-32 0 -43.5 14t-11.5 27v4z" />
    <glyph glyph-name="ordfeminine" unicode="&#xaa;" horiz-adv-x="497" 
d="M315 350q-14 -17 -38.5 -32.5t-56.5 -15.5q-71 0 -114 38t-43 97q0 42 11 83t33.5 73.5t56 52.5t77.5 20q32 0 59.5 -7.5t47.5 -19.5t31 -26.5t11 -28.5q0 -3 -0.5 -5t-0.5 -4q-1 -2 -1 -4q3 -1 12 -2t18 -2.5t15.5 -4.5t4.5 -8q-7 -20 -12.5 -42.5t-10 -43.5t-7.5 -37
t-3 -22q-2 -18 1 -32t12 -14q18 0 25 23t10 55q21 2 38 -2q14 -4 26.5 -15.5t12.5 -34.5q0 -16 -7.5 -33t-22.5 -30.5t-38.5 -22t-55.5 -8.5q-26 0 -42.5 6.5t-25.5 15t-13 18t-5 15.5h-5zM190 416q-4 -26 -0.5 -37t12.5 -11q11 0 23.5 20.5t23 47t18 50.5t8.5 31q-5 1 -9 3
t-8 3.5t-6 5.5q11 13 16 26.5t8 27.5q1 4 0.5 10.5t-7.5 6.5q-14 0 -27 -21t-23.5 -50.5t-18 -60.5t-10.5 -52zM152 144q-11 -2 -23.5 11t-21.5 29.5t-12 31t5 16.5q31 7 72.5 12t82 8.5t75.5 5t53 0.5q6 0 16.5 -15.5t18.5 -33.5t9.5 -33t-11.5 -15q-78 -1 -140 -5
t-124 -12z" />
    <glyph glyph-name="guillemotleft" unicode="&#xab;" horiz-adv-x="612" 
d="M75 307q33 28 67 55t64 48.5t53 35t34 13.5q12 0 24.5 -12.5t22 -29t14 -31.5t1.5 -21q-14 -12 -32.5 -26.5t-38.5 -31t-40.5 -34t-38.5 -36.5q28 -34 61.5 -62.5t65.5 -59.5q10 -9 8.5 -21t-8.5 -19l-22 -21q-20 -20 -46 2q-20 14 -46 36.5t-54 48t-55 51t-48 45.5z
M319 281q33 27 63.5 54t56 48.5t45 34.5t30.5 13q13 0 25 -12.5t20.5 -29t13 -31.5t1.5 -21q-26 -22 -59 -52.5t-65 -68.5q13 -17 22.5 -28.5t18.5 -22t19 -21t25 -24.5q10 -9 10 -22.5t-7 -21.5l-19 -23q-10 -11 -22 -10.5t-25 11.5q-19 14 -40 34.5t-42 44t-42.5 47
t-42.5 43.5z" />
    <glyph glyph-name="logicalnot" unicode="&#xac;" horiz-adv-x="519" 
d="M138 270q-15 -2 -32 16t-29 41t-16 43.5t7 23.5q39 9 90 16t102.5 12t99 7.5t79.5 2.5q19 0 28 -19.5t11 -50t-2 -67t-11 -69.5t-15 -58.5t-15 -34.5q-1 -5 -16.5 -4t-32.5 7t-30.5 16.5t-10.5 23.5q4 22 6.5 38t5 29t3.5 24.5t2 24.5q-55 -4 -114 -9t-110 -13z" />
    <glyph glyph-name="uni00AD" unicode="&#xad;" horiz-adv-x="552" 
d="M138 197q-10 -2 -20.5 6.5t-21 21.5t-18.5 29t-12.5 30t-4.5 24t7 12q42 10 96 18t107 13t98.5 7t69.5 1q5 0 13.5 -10t17 -25t16 -32.5t11 -32.5t0.5 -25t-14 -10q-51 -1 -95.5 -3t-86.5 -5.5t-82 -8t-81 -10.5z" />
    <glyph glyph-name="registered" unicode="&#xae;" horiz-adv-x="670" 
d="M97 529q0 37 17 77t50.5 73t84.5 54t120 21q40 0 76 -11.5t54 -31.5q7 2 12.5 2.5t11.5 -3.5q35 -26 53 -64t18 -86q0 -47 -20 -87t-55.5 -69t-85 -46t-108.5 -17q-57 0 -99.5 15t-71 41t-43 60t-14.5 72zM160 499q0 -29 12 -50.5t31.5 -35.5t45 -21.5t53.5 -7.5
q50 0 93.5 13t75 38t49.5 62.5t18 87.5q0 29 -10 50.5t-26 34.5q-12 -2 -16.5 0.5t-6.5 4.5q-10 14 -33 24t-52 10q-62 0 -106.5 -16t-73 -44.5t-41.5 -66.5t-13 -83zM257 450q2 13 6 32.5t9 40.5t11 43t11 42q-12 -4 -18.5 -8.5t-8.5 -9.5h-1q-2 0 -7.5 3.5t-11 7.5t-9.5 8
t-4 6q4 8 13 15q8 6 21.5 11.5t36.5 8.5l6 18q2 2 2.5 5t9.5 3q2 0 9.5 -2t16.5 -4.5t17 -5t11 -3.5l-5 -13q37 -7 62.5 -24t25.5 -39q0 -23 -19.5 -37.5t-52.5 -20.5q10 -9 21.5 -19t20.5 -19t14 -15t3 -6q-1 -1 -6.5 -6t-13.5 -10.5t-16.5 -9.5t-14.5 -3q-11 11 -28.5 28
t-34.5 34q-4 -20 -6 -34q0 -3 0.5 -8t0 -10.5t-3.5 -9.5t-9 -4q-3 0 -12 2t-19 4t-18.5 4.5t-8.5 4.5zM361 610q-4 -13 -7.5 -27.5t-7.5 -29.5q18 4 28.5 11.5t10.5 21.5q0 18 -24 24z" />
    <glyph glyph-name="macron" unicode="&#xaf;" 
d="M115 694q29 6 66.5 10t76 5.5t73.5 1.5t59 -1q7 0 20.5 -15.5t22.5 -33.5t9.5 -33t-16.5 -15q-74 2 -133.5 2t-115.5 -6q-15 -2 -30.5 10.5t-26 28t-13.5 30t8 16.5z" />
    <glyph glyph-name="degree" unicode="&#xb0;" horiz-adv-x="507" 
d="M67 562q0 33 13 69t39.5 65t67 48t94.5 19q42 0 75.5 -13t56 -36t34.5 -55t12 -71q0 -42 -15.5 -77.5t-43.5 -61.5t-67 -41t-87 -15q-44 0 -77 13.5t-56 37t-34.5 54t-11.5 64.5zM200 562q0 -27 15 -40.5t35 -13.5q35 0 58.5 22t23.5 63q0 23 -15.5 38.5t-36.5 15.5
q-42 0 -61 -25t-19 -60z" />
    <glyph glyph-name="plusminus" unicode="&#xb1;" horiz-adv-x="619" 
d="M139 386q-15 -2 -31.5 13t-29 35t-17 37.5t5.5 20.5q31 8 75 14t92 12q7 37 15 74t22 74q4 12 24 12.5t44.5 -5t47.5 -15.5t34 -19q-6 -26 -12 -52.5t-11 -54.5l41 3q7 0 8.5 9t7.5 9t15 -2t18 -5t16.5 -6t10.5 -4q13 -5 28.5 -24t25.5 -40t10 -37.5t-17 -16.5
q-43 -1 -90.5 -3t-95.5 -5l-18 -108q-2 -13 -21.5 -12t-44 9.5t-49 20.5t-37.5 21l10 55q-21 -2 -40.5 -5t-36.5 -5zM143 98q-15 -2 -31.5 13t-29 34.5t-17 37t5.5 20.5q20 5 52 11.5t70 12.5t79 11.5t78 9t67.5 3.5t48.5 -4q14 -3 29.5 -22t25 -40t9 -38t-17.5 -17
q-101 -2 -194 -11t-175 -21z" />
    <glyph glyph-name="uni00B2" unicode="&#xb2;" horiz-adv-x="430" 
d="M192 547q-2 2 -2.5 12.5t0.5 11.5l126 84q29 19 55.5 36.5t46.5 32.5t32 27t12 20t-6.5 11t-12.5 3q-14 0 -35.5 -6.5t-42.5 -16t-38 -20t-23 -17.5v-15q0 -3 -10 -11t-23.5 -16.5t-28.5 -14.5t-25 -4l-54 59q11 28 36 54t59 46t73.5 32.5t80.5 12.5t73 -10t53.5 -26.5
t32.5 -36.5t11 -39q0 -41 -46 -79t-120 -76l-72 -37l149 30q3 5 10.5 8.5t18.5 3.5q5 0 13.5 -13t16.5 -29.5t14 -31.5t6 -20t-8 -7.5t-16 -4.5l-77.5 -10t-92.5 -11.5t-83.5 -10.5t-50.5 -7q-9 0 -20 8t-21.5 19.5t-18 24.5t-8.5 24z" />
    <glyph glyph-name="uni00B3" unicode="&#xb3;" horiz-adv-x="413" 
d="M458 686q15 -2 33 -10t33.5 -20t25.5 -28t8 -34q-4 -34 -25 -58t-53 -39t-72 -22t-82 -7q-43 0 -74 10.5t-51.5 25t-31 31t-10.5 28.5q6 10 12 18q5 7 12 12.5t15 4.5q4 -1 13 -6t19 -11t19 -12t14 -10q30 0 59 4.5t52 13t39 21t19 29.5q1 5 -3.5 10t-12.5 5t-15 -1
t-12 -4q-15 -10 -34.5 -16.5t-34.5 -5.5q-20 5 -32 25t-15 40q6 5 26 14t46 12q8 3 22.5 13t28 22.5t23.5 24.5t10 18q0 12 -14 12q-15 0 -39 -10t-49.5 -25t-49.5 -31.5t-38 -29.5q-9 0 -20 9.5t-20.5 22t-16 24t-5.5 14.5q3 10 21.5 27.5t48.5 34.5t69.5 29.5t85.5 12.5
q38 0 64.5 -13t42 -30t22 -34t5.5 -24q-3 -19 -15.5 -34.5t-26.5 -26.5q-17 -13 -36 -24v-2z" />
    <glyph glyph-name="acute" unicode="&#xb4;" 
d="M248 579q-8 -6 -25 -2t-33.5 12t-28 18t-6.5 16q13 17 27.5 35.5t28.5 35.5t29 30.5t30 21.5q17 9 42 4t45.5 -16t32 -24t1.5 -20q-48 -38 -85 -66t-58 -45z" />
    <glyph glyph-name="paragraph" unicode="&#xb6;" horiz-adv-x="740" 
d="M286 -215q7 39 17 86t22 98.5t26 106.5t29 110q-55 33 -108.5 52t-86.5 21q-5 0 -10.5 17.5t-10 39t-7.5 40t-3 21.5q0 16 28 32.5t73.5 32.5t103.5 30t117 24q10 27 19 50.5t18 41.5q23 4 44 -2t23 -26q-22 -71 -48 -157.5t-52 -179t-48.5 -186.5t-37.5 -180
q17 3 14 -15q-4 -17 -14.5 -39t-24.5 -37q-9 -9 -21.5 -9t-24.5 5t-22.5 12t-14.5 11zM453 -106q18 82 36.5 170.5t39 173.5t43.5 161t50 133q20 -3 42.5 -7t33.5 -15q-30 -84 -51.5 -155.5t-38.5 -144t-31.5 -153t-30.5 -183.5q0 -11 -13.5 -10.5t-30 6t-31.5 13t-18 11.5z
" />
    <glyph glyph-name="periodcentered" unicode="&#xb7;" horiz-adv-x="374" 
d="M166 293q-20 7 -35.5 20t-15.5 39q0 15 7.5 35t24 38t44 30.5t66.5 12.5q10 0 22 -4.5t22.5 -14t17.5 -24.5t7 -36q0 -14 -4.5 -38.5t-16 -48t-32 -41t-51.5 -17.5q-32 0 -48 10t-8 39z" />
    <glyph glyph-name="cedilla" unicode="&#xb8;" 
d="M395 -179q0 -23 -10 -41t-26.5 -31t-39 -19.5t-46.5 -6.5q-32 0 -54.5 8t-36.5 20t-21 26.5t-7 27.5q0 15 9.5 24t25.5 9q5 0 9.5 -1t8.5 -2q4 -2 7 -3q3 -23 16.5 -43t39.5 -20q14 0 25 8.5t11 28.5q0 25 -14 38.5t-32 21t-34 10.5t-19 8q-6 8 2.5 25t24 35t32.5 33.5
t28 21.5q23 15 40.5 8.5t17.5 -20.5q0 -10 -8 -19.5t-19 -18t-21.5 -15.5t-14.5 -13q18 -4 37 -12t34 -20t25 -29t10 -39z" />
    <glyph glyph-name="uni00B9" unicode="&#xb9;" horiz-adv-x="370" 
d="M169 522q0 3 13.5 7.5t32 9.5t37.5 9t31 6q-7 9 -11.5 12t-2.5 9q15 43 33.5 89t29.5 80q-11 -9 -25 -17.5t-27 -15t-24 -10.5t-15 -4q-11 0 -23 6.5t-22 16t-16.5 20.5t-6.5 20q0 3 6 6.5t15.5 6.5t20 6.5t19.5 7.5q30 12 51 23t39 21l36 20t42 22q23 -6 42 -12
q17 -5 31 -12t19 -13q-1 -9 -6 -25.5t-16 -31.5q-2 -2 -7.5 -17.5t-14.5 -41.5t-19.5 -61t-21.5 -75q38 7 55 11.5t26 4.5q3 0 10 -13t13.5 -28.5t12 -28.5t5.5 -14q0 -2 -2.5 -6t-2.5 -6q-32 -4 -72 -11t-82 -14.5t-82.5 -15.5t-73.5 -14q-4 -1 -12.5 8.5t-16.5 22.5
t-13.5 25t-4.5 17z" />
    <glyph glyph-name="ordmasculine" unicode="&#xba;" horiz-adv-x="399" 
d="M64 455q2 32 16 67t36 65t48.5 51t54.5 26q25 -8 30 -17l12 4q5 2 12.5 3t17.5 1q46 0 74.5 -11t43.5 -29.5t19.5 -42.5t3.5 -50q-2 -27 -12.5 -67t-33.5 -76.5t-61 -62.5t-94 -26q-47 0 -79.5 15.5t-52 39.5t-28 53t-7.5 57zM196 438q-4 -31 2 -52.5t23 -21.5
q19 0 34 23t25.5 52.5t16.5 58.5t8 41q1 6 2 15t0.5 18t-4 15t-11.5 6q-12 0 -24 -15t-22 -35.5t-17 -41.5t-10 -32q-1 -2 -7 0t-8 4q-1 -5 -3 -10q-4 -11 -5 -25zM131 150q-10 -2 -21 11t-18.5 29t-10.5 30t4 16q28 6 64 11t71.5 8.5t66 5t46.5 0.5q5 0 14.5 -14.5
t16.5 -32.5t8.5 -32.5t-10.5 -14.5q-68 -1 -122 -5t-109 -12z" />
    <glyph glyph-name="guillemotright" unicode="&#xbb;" horiz-adv-x="668" 
d="M621 194q-33 -28 -67.5 -55t-64 -48.5t-52.5 -35t-34 -13.5q-13 0 -25.5 12.5t-22 29t-14 31.5t-1.5 21q15 12 33.5 26.5t38.5 31t40 34t38 36.5q-28 34 -61.5 62.5t-65.5 59.5q-10 9 -8.5 21t9.5 19l21 21q19 19 47 -2q19 -14 45.5 -36.5t54.5 -48t55 -51t48 -45.5z
M376 220q-33 -27 -64 -54t-56.5 -48.5t-44.5 -34.5t-30 -13q-12 0 -24 12.5t-21 29t-13 31.5t-1 21q26 22 58.5 52.5t65.5 68.5q-14 16 -23.5 28t-18.5 22.5t-19 21t-25 24.5q-10 9 -10 22.5t7 21.5l20 23q18 21 47 -1q19 -14 39.5 -34.5t41.5 -44t42.5 -47t42.5 -43.5z" />
    <glyph glyph-name="onequarter" unicode="&#xbc;" horiz-adv-x="1083" 
d="M594 158q-1 5 3.5 21.5t12.5 38.5t18.5 48t21.5 50t21.5 44t19.5 30q6 7 26 5.5t41.5 -7t38.5 -12.5t18 -11q-30 -58 -51.5 -97t-32.5 -72q4 0 14.5 2.5t23 6.5t24 7.5t16.5 5.5q4 15 12 37.5t16 46.5t15 47t10 39q7 1 25 -1.5t37.5 -7.5t35.5 -12t18 -16
q1 -4 -4.5 -23.5t-12.5 -41.5q-8 -26 -19 -57q2 0 9 1.5t11 1.5q12 -1 21.5 -11t15 -23t7.5 -26t1 -20l-83 -16q-7 -25 -17 -65.5t-21 -78.5q-3 -7 -7 -10t-18 -1q-4 0 -20.5 4.5t-34.5 9.5t-33 10.5t-15 7.5v1l33 108l-2 2q-25 -7 -59.5 -16t-63.5 -11zM269 64q6 9 12.5 13
t12 5.5t10 2.5t6.5 4q43 61 90.5 132t94 141t90 135t81.5 114.5t66.5 79.5t45.5 30q10 0 19.5 -5t17 -12t11.5 -15.5t2 -15.5q-31 -29 -77.5 -92t-100 -142t-109 -165.5t-104.5 -163t-87 -134t-56 -78.5q-9 0 -20.5 4.5t-21.5 11.5t-16.5 15t-5.5 15q5 30 15 64t24 56z
M76 394q0 3 14 7.5t32.5 9.5t37.5 9t30 6q-7 9 -11 12t-2 9q15 43 33 89t29 80q-11 -9 -24.5 -17.5t-26.5 -15t-24 -10.5t-15 -4q-11 0 -23 6.5t-22 16t-16.5 20.5t-6.5 20q0 3 6 6.5t15 6.5l19.5 6.5t19.5 7.5q30 12 51 23t39.5 21t36.5 20t42 22q22 -6 41 -12
q16 -5 31 -12t20 -13q-2 -9 -7 -25.5t-15 -31.5q-2 -2 -8 -17.5t-15 -41.5t-19.5 -61t-21.5 -75q39 7 56 11.5t26 4.5q3 0 9.5 -13t13.5 -28.5t12.5 -28.5t5.5 -14q0 -2 -2.5 -6t-2.5 -6q-32 -4 -72 -11t-82 -14.5t-83 -15.5t-74 -14q-4 -1 -12 8.5t-16 22.5t-14 25t-5 17z
" />
    <glyph glyph-name="onehalf" unicode="&#xbd;" horiz-adv-x="1083" 
d="M269 64q6 9 12 13t12 5.5t10.5 2.5t6.5 4q43 61 90 132t93.5 141t90.5 135t81.5 114.5t66.5 79.5t45 30q10 0 20 -5t17.5 -12t11.5 -15.5t2 -15.5q-23 -22 -55.5 -63.5t-70.5 -95t-79 -115.5t-82 -125.5t-79.5 -124t-71.5 -111t-58 -87.5t-38 -53q-9 0 -20.5 4.5
t-22 11.5t-17 15t-5.5 15q6 30 15.5 64t24.5 56zM76 394q0 3 13.5 7.5t32 9.5t37.5 9t31 6q-7 9 -11.5 12t-2.5 9q15 43 33.5 89t29.5 80q-11 -9 -25 -17.5t-27 -15t-24 -10.5t-15 -4q-11 0 -23 6.5t-22 16t-16.5 20.5t-6.5 20q0 3 6 6.5t15.5 6.5t20 6.5t19.5 7.5
q30 12 51 23t39 21l36 20t42 22q23 -6 42 -12q17 -5 31 -12t19 -13q-1 -9 -6 -25.5t-16 -31.5q-2 -2 -7.5 -17.5t-14.5 -41.5t-19.5 -61t-21.5 -75q38 7 55 11.5t26 4.5q3 0 10 -13t13.5 -28.5t12 -28.5t5.5 -14q0 -2 -2.5 -6t-2.5 -6q-32 -4 -72 -11t-82 -14.5t-82.5 -15.5
t-73.5 -14q-4 -1 -12.5 8.5t-16.5 22.5t-13.5 25t-4.5 17zM618 68q-2 2 -2.5 12t0.5 11l126 84q29 19 55.5 37t46.5 33t32 27t12 20t-6.5 10.5t-12.5 2.5q-14 0 -35.5 -6.5t-42.5 -16t-38 -20t-23 -17.5v-14q0 -3 -10 -11.5t-23.5 -17t-28.5 -14.5t-25 -3l-54 59
q11 28 36 54t59 46t73.5 32.5t80.5 12.5t73 -10.5t53.5 -26.5t32.5 -36t11 -39q0 -41 -46 -79t-120 -76l-72 -38l149 31q3 5 10.5 8.5t18.5 3.5q5 0 13.5 -13t16.5 -29.5t14 -31.5t6 -20t-8 -7.5t-16 -4.5l-77.5 -10t-92.5 -11.5t-83.5 -10.5t-50.5 -8q-9 1 -20 9
t-21.5 19.5t-18 24.5t-8.5 24z" />
    <glyph glyph-name="threequarters" unicode="&#xbe;" horiz-adv-x="1083" 
d="M603 158q-1 5 3.5 21.5t12.5 38.5t18.5 48t21.5 50t21.5 44t19.5 30q6 7 25.5 5.5t41.5 -7t39 -12.5t18 -11q-31 -58 -52.5 -97t-32.5 -72q4 0 15 2.5t23.5 6.5t23.5 7.5t16 5.5l12.5 37.5t16 46.5t15.5 47t10 39q7 1 25 -1.5t37.5 -7.5t35.5 -12t18 -16q1 -4 -4.5 -23.5
t-12.5 -41.5q-8 -26 -19 -57q2 0 9 1.5t11 1.5q12 -1 21.5 -11t15 -23t7.5 -26t0 -20l-83 -16q-6 -25 -16.5 -65.5t-21.5 -78.5q-3 -7 -7 -10t-17 -1q-4 0 -20.5 4.5t-34.5 9.5t-33 10.5t-16 7.5v1l34 108l-2 2q-25 -7 -60 -16t-64 -11zM365 536q15 -2 33 -10t33.5 -20
t25.5 -28t8 -34q-4 -34 -25 -58t-53 -39t-72 -22t-82 -7t-73.5 10.5t-52 25t-31 31t-10.5 28.5q6 10 12 18q5 7 12 12.5t15 4.5q4 -1 13 -6t19 -11t19.5 -12t14.5 -10q30 0 58.5 4.5t52 13t39 21t18.5 29.5q2 5 -3 10t-13 5t-14.5 -1t-11.5 -4q-15 -10 -35 -16.5t-35 -5.5
q-20 5 -32 25t-15 40q6 5 26 14t46 12q8 3 22.5 13t28 22.5t23.5 24.5t10 18q0 12 -14 12q-15 0 -39 -10t-49.5 -25t-49 -31.5t-37.5 -29.5q-9 0 -20 9.5t-21 22t-16.5 24t-5.5 14.5q4 10 22.5 27.5t48 34.5t69 29.5t85.5 12.5q38 0 64.5 -13t42 -30t22 -34t5.5 -24
q-3 -19 -15.5 -34.5t-26.5 -26.5q-17 -13 -36 -24v-2zM278 64q6 9 12 13t12 5.5t10.5 2.5t6.5 4q43 61 90 132t93.5 141t90.5 135t81.5 114.5t66.5 79.5t46 30q10 0 19.5 -5t17 -12t11.5 -15.5t2 -15.5q-31 -29 -77.5 -92t-100 -142t-109 -165.5t-104.5 -163t-87 -134
t-56 -78.5q-9 0 -20.5 4.5t-21.5 11.5t-17 15t-6 15q6 30 16 64t24 56z" />
    <glyph glyph-name="questiondown" unicode="&#xbf;" horiz-adv-x="612" 
d="M599 -11q-16 -53 -53.5 -97.5t-89.5 -77t-114.5 -51t-128.5 -18.5q-47 0 -90 17.5t-75 45t-51 61t-19 65.5q0 30 16.5 57.5t44 54t61.5 52.5t69.5 52t69 53.5t58.5 56.5q7 6 27 -3t42.5 -24t41.5 -32.5t25 -29.5q-18 -28 -48 -54t-63.5 -50t-68 -46.5t-62.5 -44
t-45.5 -42t-17.5 -39.5q0 -16 10.5 -25.5t30.5 -9.5q29 0 62 9t64 25t58 37t45 44l-13 13q0 5 12.5 18t30.5 28t39.5 29t39.5 20zM493 451q0 -14 -8 -36t-25.5 -43t-46 -36.5t-70.5 -15.5q-10 0 -23.5 3.5t-25.5 11.5t-20.5 21.5t-8.5 34.5q0 13 5.5 36t19 45t36 38.5
t55.5 16.5q21 0 41 -6t35.5 -16.5t25.5 -24t10 -29.5z" />
    <glyph glyph-name="Agrave" unicode="&#xc0;" horiz-adv-x="595" 
d="M396 119q-1 22 -1 44.5v45.5q-48 -3 -99 -8t-99 -11q-25 -59 -46.5 -126t-38.5 -145q-2 -7 -15 -8.5t-31.5 1t-40 8.5t-40 13.5t-31.5 16t-14 15.5q6 45 25 103t47 123q-8 11 -14 25t-9 26.5t-2.5 22.5t6.5 13q8 5 27 10t45 10q38 70 83.5 138t95.5 126t102.5 101.5
t105.5 64.5q19 5 41.5 1t44 -12.5t39 -19t25.5 -17.5q-22 -99 -32 -205.5t-11.5 -204t3 -177t11.5 -123.5q-1 -14 -25.5 -12.5t-55.5 10t-58 21t-33 20.5q-7 10 -11 24t-6 29t-2.5 29t0.5 25zM432 557q-38 -38 -82 -94.5t-87 -134.5q14 2 27 2.5t24 1.5q20 1 47 3t42 -1
q10 101 36 222zM414 903q-8 11 -6.5 22.5t15.5 14.5q8 1 23 3.5t31.5 3t31 -3t20.5 -13.5q9 -14 20.5 -33.5t22 -38.5t18.5 -34.5t11 -20.5q6 -11 3.5 -22.5t-12.5 -13.5q-11 -2 -23 -4t-24 -2t-22 3t-16 11z" />
    <glyph glyph-name="Aacute" unicode="&#xc1;" horiz-adv-x="595" 
d="M396 119q-1 22 -1 44.5v45.5q-48 -3 -99 -8t-99 -11q-25 -59 -46.5 -126t-38.5 -145q-2 -7 -15 -8.5t-31.5 1t-40 8.5t-40 13.5t-31.5 16t-14 15.5q6 45 25 103t47 123q-8 11 -14 25t-9 26.5t-2.5 22.5t6.5 13q8 5 27 10t45 10q38 70 83.5 138t95.5 126t102.5 101.5
t105.5 64.5q19 5 41.5 1t44 -12.5t39 -19t25.5 -17.5q-22 -99 -32 -205.5t-11.5 -204t3 -177t11.5 -123.5q-1 -14 -25.5 -12.5t-55.5 10t-58 21t-33 20.5q-7 10 -11 24t-6 29t-2.5 29t0.5 25zM432 557q-38 -38 -82 -94.5t-87 -134.5q14 2 27 2.5t24 1.5q20 1 47 3t42 -1
q10 101 36 222zM550 759q-8 -6 -25 -2t-33.5 12t-28 18t-6.5 16q13 17 27.5 35.5t28.5 35.5t29 30.5t30 21.5q17 9 42 4t45.5 -16t32 -24t1.5 -20q-48 -38 -85 -66t-58 -45z" />
    <glyph glyph-name="Acircumflex" unicode="&#xc2;" horiz-adv-x="595" 
d="M396 119q-1 22 -1 44.5v45.5q-48 -3 -99 -8t-99 -11q-25 -59 -46.5 -126t-38.5 -145q-2 -7 -15 -8.5t-31.5 1t-40 8.5t-40 13.5t-31.5 16t-14 15.5q6 45 25 103t47 123q-8 11 -14 25t-9 26.5t-2.5 22.5t6.5 13q8 5 27 10t45 10q38 70 83.5 138t95.5 126t102.5 101.5
t105.5 64.5q19 5 41.5 1t44 -12.5t39 -19t25.5 -17.5q-22 -99 -32 -205.5t-11.5 -204t3 -177t11.5 -123.5q-1 -14 -25.5 -12.5t-55.5 10t-58 21t-33 20.5q-7 10 -11 24t-6 29t-2.5 29t0.5 25zM432 557q-38 -38 -82 -94.5t-87 -134.5q14 2 27 2.5t24 1.5q20 1 47 3t42 -1
q10 101 36 222zM365 797q-28 16 -1 36q12 9 29 22.5t36 28t39 29.5t37 27l64 -9q12 -16 28.5 -38.5t32 -44t27 -38t14.5 -20.5q8 -10 4 -19t-15 -11q-20 -5 -39 -4t-27 11q-12 14 -28 38t-27 37q-17 -14 -39 -31.5t-40 -31.5q-11 -7 -22.5 -12t-23.5 2z" />
    <glyph glyph-name="Atilde" unicode="&#xc3;" horiz-adv-x="595" 
d="M396 119q-1 22 -1 44.5v45.5q-48 -3 -99 -8t-99 -11q-25 -59 -46.5 -126t-38.5 -145q-2 -7 -15 -8.5t-31.5 1t-40 8.5t-40 13.5t-31.5 16t-14 15.5q6 45 25 103t47 123q-8 11 -14 25t-9 26.5t-2.5 22.5t6.5 13q8 5 27 10t45 10q38 70 83.5 138t95.5 126t102.5 101.5
t105.5 64.5q19 5 41.5 1t44 -12.5t39 -19t25.5 -17.5q-22 -99 -32 -205.5t-11.5 -204t3 -177t11.5 -123.5q-1 -14 -25.5 -12.5t-55.5 10t-58 21t-33 20.5q-7 10 -11 24t-6 29t-2.5 29t0.5 25zM432 557q-38 -38 -82 -94.5t-87 -134.5q14 2 27 2.5t24 1.5q20 1 47 3t42 -1
q10 101 36 222zM392 767q-7 0 -13.5 6t-11 14t-6 16.5t2.5 13.5q4 7 15 18.5t25 23t30.5 20t32.5 8.5q22 0 39.5 -6.5t31.5 -14.5t26 -14.5t24 -6.5q11 0 21 4.5t19 10t17 10t15 4.5q6 0 12 -5t10 -12.5t5.5 -16.5t-2.5 -18q-3 -7 -14 -18.5t-26.5 -22.5t-34.5 -19t-39 -8
t-38 6.5t-34 15t-29 15t-23 6.5q-7 0 -14.5 -4.5t-15 -10.5t-14 -10.5t-11.5 -4.5z" />
    <glyph glyph-name="Adieresis" unicode="&#xc4;" horiz-adv-x="595" 
d="M396 119q-1 22 -1 44.5v45.5q-48 -3 -99 -8t-99 -11q-25 -59 -46.5 -126t-38.5 -145q-2 -7 -15 -8.5t-31.5 1t-40 8.5t-40 13.5t-31.5 16t-14 15.5q6 45 25 103t47 123q-8 11 -14 25t-9 26.5t-2.5 22.5t6.5 13q8 5 27 10t45 10q38 70 83.5 138t95.5 126t102.5 101.5
t105.5 64.5q19 5 41.5 1t44 -12.5t39 -19t25.5 -17.5q-22 -99 -32 -205.5t-11.5 -204t3 -177t11.5 -123.5q-1 -14 -25.5 -12.5t-55.5 10t-58 21t-33 20.5q-7 10 -11 24t-6 29t-2.5 29t0.5 25zM432 557q-38 -38 -82 -94.5t-87 -134.5q14 2 27 2.5t24 1.5q20 1 47 3t42 -1
q10 101 36 222zM355 788q-18 6 -31.5 16t-13.5 31q0 12 6.5 28.5t21.5 31.5t39 25.5t60 10.5q9 0 20.5 -3.5t21 -11.5t16 -20.5t6.5 -30.5q0 -11 -3.5 -29.5t-14 -36t-30 -30.5t-52.5 -13q-19 0 -30 6t-16 26zM534 824q0 12 5.5 28.5t19.5 31t37.5 25t59.5 10.5q9 0 21 -3.5
t22.5 -11.5t18 -20.5t7.5 -29.5q0 -11 -4 -31t-14.5 -39.5t-29 -34t-46.5 -14.5q-18 0 -35.5 9t-31 22t-22 28.5t-8.5 29.5z" />
    <glyph glyph-name="Aring" unicode="&#xc5;" horiz-adv-x="595" 
d="M417 754q0 19 9 40t27.5 38t46.5 28t65 11q63 0 92.5 -28t29.5 -73q0 -37 -24 -65t-65 -41q-21 -98 -30 -202.5t-10 -199.5t3.5 -172t11.5 -120q-1 -14 -25.5 -12.5t-55.5 10t-58 21t-33 20.5q-7 10 -11 24t-6 29t-2.5 29t0.5 25l14 3q-1 22 -1 44.5v45.5q-48 -3 -99 -8
t-99 -11q-25 -59 -46.5 -126t-38.5 -145q-2 -7 -15 -8.5t-31.5 1t-40 8.5t-40 13.5t-31.5 16t-14 15.5q6 45 25 103t47 123q-8 11 -14 25t-9 26.5t-2.5 22.5t6.5 13q8 5 27 10t45 10q35 66 77.5 129.5t89 119t95.5 99.5t98 69q-8 19 -8 39zM432 557q-38 -38 -82 -94.5
t-87 -134.5q14 2 27 2.5t24 1.5q20 1 47 3t42 -1q10 101 36 222zM516 753q0 -11 8.5 -17t19.5 -6q21 0 34.5 10.5t13.5 31.5q0 11 -8.5 18t-19.5 7q-26 0 -37 -12t-11 -32z" />
    <glyph glyph-name="AE" unicode="&#xc6;" horiz-adv-x="877" 
d="M323 77q14 3 27 6t26 5v11q-1 27 -1.5 57.5t1.5 63.5q-48 -9 -91.5 -17t-82.5 -15q-24 -63 -46 -132t-40 -144q-2 -7 -15 -7.5t-32 3t-40.5 10t-40.5 13.5t-33 12.5t-16 8.5q8 45 27.5 102t48.5 121q-10 9 -18 22t-12.5 25.5t-4.5 22.5t6 13q14 7 82 24q39 72 86.5 143
t99 131.5t105.5 105.5t107 66q15 -2 36.5 -3.5t42.5 -4.5t38 -8t25 -12q-3 -10 -5.5 -19.5t-4.5 -20.5q29 6 59.5 10.5t60 8.5t56 6.5t47.5 3.5q43 2 73.5 2t52.5 -17q2 -2 7.5 -12t11 -22t10 -23t4.5 -14t-12.5 -12t-28.5 -20t-31 -20t-21 -12q-6 -2 -16 -4t-19 -2.5
t-15.5 1t-4.5 4.5q1 5 3 11t4 11q2 6 4 13q-50 -5 -78 -8t-44 -4.5t-25 -3t-22 -3.5t-35 -6t-64 -11q-10 -75 -15 -149q45 8 77 13t47 6q13 1 27.5 1.5t26.5 0.5t21 -2t12 -7t7.5 -6.5t9.5 -1.5t11 -1t12 -6q2 -2 8 -11.5t12 -20.5t10.5 -21t3.5 -13q0 -5 -5 -12t-19 -9
q-37 -5 -108 -17.5t-157 -28.5q0 -69 3 -126q115 23 199.5 35.5t138.5 10.5q5 0 14 -9.5t18 -23.5t17.5 -30t12.5 -30t1.5 -23t-13.5 -9q-77 -2 -168 -15t-210 -33q1 -8 1.5 -15t2.5 -14q-4 -5 -18.5 -6t-35 0t-43.5 4t-43 8l-35 -6q-15 -2 -32.5 13.5t-30.5 35.5t-18 38
t6 20zM412 537q-77 -67 -149 -210q31 7 61.5 13.5t62.5 12.5q5 45 13 90.5t19 92.5z" />
    <glyph glyph-name="Ccedilla" unicode="&#xc7;" horiz-adv-x="586" 
d="M351 -179q0 -23 -10 -41t-26.5 -31t-39 -19.5t-46.5 -6.5q-32 0 -54.5 8t-36.5 20t-21 26.5t-7 27.5q0 15 9.5 24t25.5 9q5 0 9.5 -1t8.5 -2q4 -2 7 -3q3 -23 16.5 -43t39.5 -20q14 0 25 8.5t11 28.5q0 25 -14 38.5t-32 21t-34 10.5t-19 8q-4 5 -2 14t8.5 20t16 22.5
t20.5 22.5q-91 28 -141 100t-50 179q0 51 11.5 106t33 108t53 100.5t72.5 83t90.5 56.5t106.5 21q34 0 70.5 -12t66.5 -33.5t49.5 -52.5t19.5 -68q0 -39 -12 -70t-31 -53t-42 -33.5t-45 -11.5t-37.5 6t-26 15t-16.5 19t-9 18q19 22 34 47q13 21 23 47.5t11 53.5
q0 16 -8.5 24.5t-22.5 8.5q-19 0 -42 -17t-46.5 -46.5t-45.5 -69.5t-39 -86.5t-27.5 -97t-10.5 -101.5q0 -77 24.5 -109.5t67.5 -32.5q38 0 65 23t45 56.5t28 72.5t15 72q10 3 22 7q11 2 25 4.5t32 2.5q33 0 56.5 -22t23.5 -70q0 -36 -16.5 -81t-50.5 -85t-87 -67.5
t-125 -27.5q-11 0 -20.5 0.5t-19.5 1.5q-11 -8 -20.5 -15t-14.5 -13q18 -4 37 -12t34 -20t25 -29t10 -39z" />
    <glyph glyph-name="Egrave" unicode="&#xc8;" horiz-adv-x="561" 
d="M111 526q-7 -1 -16 4.5t-18.5 15t-18.5 20.5t-14 21.5t-5.5 18t5.5 9.5q79 21 164 38q10 25 21 46.5t22 39.5q15 -2 35.5 -5.5t40 -8.5t36 -10.5t25.5 -11.5l-4 -10l-4 -10q38 6 70 10.5t55 7.5q14 1 30.5 5t32.5 6t31.5 0t28.5 -12q2 -2 7.5 -14.5t11 -27.5t9.5 -28.5
t4 -16.5t-12.5 -12t-28 -19.5t-30.5 -19.5t-21 -12q-29 -11 -51 -11t-24 8q-2 9 0 18q0 4 1 10q-45 -3 -81.5 -6.5t-75.5 -8.5q-24 -77 -42 -156l40 3q43 2 73 6t40 -4q8 -6 16.5 -18.5t15.5 -25.5t11.5 -23.5t4.5 -13.5q0 -5 -3.5 -13t-17.5 -8q-48 -1 -100.5 -5.5
t-102.5 -10.5q-8 -42 -13.5 -85t-11.5 -87q115 24 201 37.5t140 11.5q5 0 13.5 -9t17 -22.5t16 -29t10.5 -29t0 -22.5t-14 -9q-79 -2 -175 -13.5t-222 -31.5q-2 -11 -3 -23.5t-2 -24.5q-1 -9 -17.5 -9t-40 5.5t-47.5 13.5t-40 15l-8 -2q-15 -2 -31.5 11t-28 29.5t-15.5 32
t6 17.5l69 15q5 43 12 89.5t16 94.5q-2 -1 -5 -1q-15 -2 -30.5 9.5t-26.5 27.5t-14.5 31t4.5 20q11 6 36 12.5t59 13.5q9 41 19 79.5t21 76.5zM278 898q-8 11 -6.5 22.5t15.5 14.5q8 1 23 3.5t31.5 3t31 -3t20.5 -13.5q9 -14 20.5 -33.5t22 -38.5t18.5 -34.5t11 -20.5
q6 -11 3.5 -22.5t-12.5 -13.5q-11 -2 -23 -4t-24 -2t-22 3t-16 11z" />
    <glyph glyph-name="Eacute" unicode="&#xc9;" horiz-adv-x="561" 
d="M111 526q-7 -1 -16 4.5t-18.5 15t-18.5 20.5t-14 21.5t-5.5 18t5.5 9.5q79 21 164 38q10 25 21 46.5t22 39.5q15 -2 35.5 -5.5t40 -8.5t36 -10.5t25.5 -11.5l-4 -10l-4 -10q38 6 70 10.5t55 7.5q14 1 30.5 5t32.5 6t31.5 0t28.5 -12q2 -2 7.5 -14.5t11 -27.5t9.5 -28.5
t4 -16.5t-12.5 -12t-28 -19.5t-30.5 -19.5t-21 -12q-29 -11 -51 -11t-24 8q-2 9 0 18q0 4 1 10q-45 -3 -81.5 -6.5t-75.5 -8.5q-24 -77 -42 -156l40 3q43 2 73 6t40 -4q8 -6 16.5 -18.5t15.5 -25.5t11.5 -23.5t4.5 -13.5q0 -5 -3.5 -13t-17.5 -8q-48 -1 -100.5 -5.5
t-102.5 -10.5q-8 -42 -13.5 -85t-11.5 -87q115 24 201 37.5t140 11.5q5 0 13.5 -9t17 -22.5t16 -29t10.5 -29t0 -22.5t-14 -9q-79 -2 -175 -13.5t-222 -31.5q-2 -11 -3 -23.5t-2 -24.5q-1 -9 -17.5 -9t-40 5.5t-47.5 13.5t-40 15l-8 -2q-15 -2 -31.5 11t-28 29.5t-15.5 32
t6 17.5l69 15q5 43 12 89.5t16 94.5q-2 -1 -5 -1q-15 -2 -30.5 9.5t-26.5 27.5t-14.5 31t4.5 20q11 6 36 12.5t59 13.5q9 41 19 79.5t21 76.5zM399 757q-8 -6 -25 -2t-33.5 12t-28 18t-6.5 16q13 17 27.5 35.5t28.5 35.5t29 30.5t30 21.5q17 9 42 4t45.5 -16t32 -24t1.5 -20
q-48 -38 -85 -66t-58 -45z" />
    <glyph glyph-name="Ecircumflex" unicode="&#xca;" horiz-adv-x="561" 
d="M111 526q-7 -1 -16 4.5t-18.5 15t-18.5 20.5t-14 21.5t-5.5 18t5.5 9.5q79 21 164 38q10 25 21 46.5t22 39.5q15 -2 35.5 -5.5t40 -8.5t36 -10.5t25.5 -11.5l-4 -10l-4 -10q38 6 70 10.5t55 7.5q14 1 30.5 5t32.5 6t31.5 0t28.5 -12q2 -2 7.5 -14.5t11 -27.5t9.5 -28.5
t4 -16.5t-12.5 -12t-28 -19.5t-30.5 -19.5t-21 -12q-29 -11 -51 -11t-24 8q-2 9 0 18q0 4 1 10q-45 -3 -81.5 -6.5t-75.5 -8.5q-24 -77 -42 -156l40 3q43 2 73 6t40 -4q8 -6 16.5 -18.5t15.5 -25.5t11.5 -23.5t4.5 -13.5q0 -5 -3.5 -13t-17.5 -8q-48 -1 -100.5 -5.5
t-102.5 -10.5q-8 -42 -13.5 -85t-11.5 -87q115 24 201 37.5t140 11.5q5 0 13.5 -9t17 -22.5t16 -29t10.5 -29t0 -22.5t-14 -9q-79 -2 -175 -13.5t-222 -31.5q-2 -11 -3 -23.5t-2 -24.5q-1 -9 -17.5 -9t-40 5.5t-47.5 13.5t-40 15l-8 -2q-15 -2 -31.5 11t-28 29.5t-15.5 32
t6 17.5l69 15q5 43 12 89.5t16 94.5q-2 -1 -5 -1q-15 -2 -30.5 9.5t-26.5 27.5t-14.5 31t4.5 20q11 6 36 12.5t59 13.5q9 41 19 79.5t21 76.5zM222 794q-28 16 -1 36q12 9 29 22.5t36 28t39 29.5t37 27l64 -9q12 -16 28.5 -38.5t32 -44t27 -38t14.5 -20.5q8 -10 4 -19
t-15 -11q-20 -5 -39 -4t-27 11q-12 14 -28 38t-27 37q-17 -14 -39 -31.5t-40 -31.5q-11 -7 -22.5 -12t-23.5 2z" />
    <glyph glyph-name="Edieresis" unicode="&#xcb;" horiz-adv-x="561" 
d="M111 526q-7 -1 -16 4.5t-18.5 15t-18.5 20.5t-14 21.5t-5.5 18t5.5 9.5q79 21 164 38q10 25 21 46.5t22 39.5q15 -2 35.5 -5.5t40 -8.5t36 -10.5t25.5 -11.5l-4 -10l-4 -10q38 6 70 10.5t55 7.5q14 1 30.5 5t32.5 6t31.5 0t28.5 -12q2 -2 7.5 -14.5t11 -27.5t9.5 -28.5
t4 -16.5t-12.5 -12t-28 -19.5t-30.5 -19.5t-21 -12q-29 -11 -51 -11t-24 8q-2 9 0 18q0 4 1 10q-45 -3 -81.5 -6.5t-75.5 -8.5q-24 -77 -42 -156l40 3q43 2 73 6t40 -4q8 -6 16.5 -18.5t15.5 -25.5t11.5 -23.5t4.5 -13.5q0 -5 -3.5 -13t-17.5 -8q-48 -1 -100.5 -5.5
t-102.5 -10.5q-8 -42 -13.5 -85t-11.5 -87q115 24 201 37.5t140 11.5q5 0 13.5 -9t17 -22.5t16 -29t10.5 -29t0 -22.5t-14 -9q-79 -2 -175 -13.5t-222 -31.5q-2 -11 -3 -23.5t-2 -24.5q-1 -9 -17.5 -9t-40 5.5t-47.5 13.5t-40 15l-8 -2q-15 -2 -31.5 11t-28 29.5t-15.5 32
t6 17.5l69 15q5 43 12 89.5t16 94.5q-2 -1 -5 -1q-15 -2 -30.5 9.5t-26.5 27.5t-14.5 31t4.5 20q11 6 36 12.5t59 13.5q9 41 19 79.5t21 76.5zM179 797q-18 6 -31.5 16t-13.5 31q0 12 6.5 28.5t21.5 31.5t39 25.5t60 10.5q9 0 20.5 -3.5t21 -11.5t16 -20.5t6.5 -30.5
q0 -11 -3.5 -29.5t-14 -36t-30 -30.5t-52.5 -13q-19 0 -30 6t-16 26zM358 833q0 12 5.5 28.5t19.5 31t37.5 25t59.5 10.5q9 0 21 -3.5t22.5 -11.5t18 -20.5t7.5 -29.5q0 -11 -4 -31t-14.5 -39.5t-29 -34t-46.5 -14.5q-18 0 -35.5 9t-31 22t-22 28.5t-8.5 29.5z" />
    <glyph glyph-name="Igrave" unicode="&#xcc;" horiz-adv-x="548" 
d="M156 139q10 55 22.5 114t27 115.5t28.5 108t27 91.5q-32 -6 -69 -12t-79 -13q-15 -2 -31 13.5t-27 35.5t-14.5 38t6.5 21q63 17 128.5 28.5t125.5 19t110 11t82 5.5q43 2 75 -1.5t54 -20.5q2 -2 7.5 -10.5t11 -18.5t9.5 -19t4 -12t-8.5 -8.5t-19.5 -11.5t-22.5 -11.5
t-18.5 -7.5q-11 -4 -18.5 -2.5t-14 5t-12.5 7.5t-15 4q-43 -3 -85 -9q-14 -46 -29.5 -107t-30 -124t-27 -123t-20.5 -105q60 11 106.5 16.5t83.5 3.5q8 0 23 -19.5t27 -42.5t14.5 -42t-14.5 -19q-50 -1 -105.5 -4.5t-120.5 -11t-142.5 -18.5t-171.5 -26q-14 -2 -29 10.5
t-25.5 29t-13.5 32t7 19.5q13 5 25 12t22.5 12.5t20 8t17.5 -0.5q11 -4 14.5 -8t6.5 -3q32 6 61 12.5t57 11.5q-17 5 -28 11.5t-12 14.5zM225 895q-8 11 -6.5 22.5t15.5 14.5q8 1 23 3.5t31.5 3t31 -3t20.5 -13.5q9 -14 20.5 -33.5t22 -38.5t18.5 -34.5t11 -20.5
q6 -11 3.5 -22.5t-12.5 -13.5q-11 -2 -23 -4t-24 -2t-22 3t-16 11z" />
    <glyph glyph-name="Iacute" unicode="&#xcd;" horiz-adv-x="548" 
d="M156 139q10 55 22.5 114t27 115.5t28.5 108t27 91.5q-32 -6 -69 -12t-79 -13q-15 -2 -31 13.5t-27 35.5t-14.5 38t6.5 21q63 17 128.5 28.5t125.5 19t110 11t82 5.5q43 2 75 -1.5t54 -20.5q2 -2 7.5 -10.5t11 -18.5t9.5 -19t4 -12t-8.5 -8.5t-19.5 -11.5t-22.5 -11.5
t-18.5 -7.5q-11 -4 -18.5 -2.5t-14 5t-12.5 7.5t-15 4q-43 -3 -85 -9q-14 -46 -29.5 -107t-30 -124t-27 -123t-20.5 -105q60 11 106.5 16.5t83.5 3.5q8 0 23 -19.5t27 -42.5t14.5 -42t-14.5 -19q-50 -1 -105.5 -4.5t-120.5 -11t-142.5 -18.5t-171.5 -26q-14 -2 -29 10.5
t-25.5 29t-13.5 32t7 19.5q13 5 25 12t22.5 12.5t20 8t17.5 -0.5q11 -4 14.5 -8t6.5 -3q32 6 61 12.5t57 11.5q-17 5 -28 11.5t-12 14.5zM434 752q-8 -6 -25 -2t-33.5 12t-28 18t-6.5 16q13 17 27.5 35.5t28.5 35.5t29 30.5t30 21.5q17 9 42 4t45.5 -16t32 -24t1.5 -20
q-48 -38 -85 -66t-58 -45z" />
    <glyph glyph-name="Icircumflex" unicode="&#xce;" horiz-adv-x="548" 
d="M156 139q10 55 22.5 114t27 115.5t28.5 108t27 91.5q-32 -6 -69 -12t-79 -13q-15 -2 -31 13.5t-27 35.5t-14.5 38t6.5 21q63 17 128.5 28.5t125.5 19t110 11t82 5.5q43 2 75 -1.5t54 -20.5q2 -2 7.5 -10.5t11 -18.5t9.5 -19t4 -12t-8.5 -8.5t-19.5 -11.5t-22.5 -11.5
t-18.5 -7.5q-11 -4 -18.5 -2.5t-14 5t-12.5 7.5t-15 4q-43 -3 -85 -9q-14 -46 -29.5 -107t-30 -124t-27 -123t-20.5 -105q60 11 106.5 16.5t83.5 3.5q8 0 23 -19.5t27 -42.5t14.5 -42t-14.5 -19q-50 -1 -105.5 -4.5t-120.5 -11t-142.5 -18.5t-171.5 -26q-14 -2 -29 10.5
t-25.5 29t-13.5 32t7 19.5q13 5 25 12t22.5 12.5t20 8t17.5 -0.5q11 -4 14.5 -8t6.5 -3q32 6 61 12.5t57 11.5q-17 5 -28 11.5t-12 14.5zM243 796q-28 16 -1 36q12 9 29 22.5t36 28t39 29.5t37 27l64 -9q12 -16 28.5 -38.5t32 -44t27 -38t14.5 -20.5q8 -10 4 -19t-15 -11
q-20 -5 -39 -4t-27 11q-12 14 -28 38t-27 37q-17 -14 -39 -31.5t-40 -31.5q-11 -7 -22.5 -12t-23.5 2z" />
    <glyph glyph-name="Idieresis" unicode="&#xcf;" horiz-adv-x="548" 
d="M156 139q10 55 22.5 114t27 115.5t28.5 108t27 91.5q-32 -6 -69 -12t-79 -13q-15 -2 -31 13.5t-27 35.5t-14.5 38t6.5 21q63 17 128.5 28.5t125.5 19t110 11t82 5.5q43 2 75 -1.5t54 -20.5q2 -2 7.5 -10.5t11 -18.5t9.5 -19t4 -12t-8.5 -8.5t-19.5 -11.5t-22.5 -11.5
t-18.5 -7.5q-11 -4 -18.5 -2.5t-14 5t-12.5 7.5t-15 4q-43 -3 -85 -9q-14 -46 -29.5 -107t-30 -124t-27 -123t-20.5 -105q60 11 106.5 16.5t83.5 3.5q8 0 23 -19.5t27 -42.5t14.5 -42t-14.5 -19q-50 -1 -105.5 -4.5t-120.5 -11t-142.5 -18.5t-171.5 -26q-14 -2 -29 10.5
t-25.5 29t-13.5 32t7 19.5q13 5 25 12t22.5 12.5t20 8t17.5 -0.5q11 -4 14.5 -8t6.5 -3q32 6 61 12.5t57 11.5q-17 5 -28 11.5t-12 14.5zM230 793q-18 6 -31.5 16t-13.5 31q0 12 6.5 28.5t21.5 31.5t39 25.5t60 10.5q9 0 20.5 -3.5t21 -11.5t16 -20.5t6.5 -30.5
q0 -11 -3.5 -29.5t-14 -36t-30 -30.5t-52.5 -13q-19 0 -30 6t-16 26zM409 829q0 12 5.5 28.5t19.5 31t37.5 25t59.5 10.5q9 0 21 -3.5t22.5 -11.5t18 -20.5t7.5 -29.5q0 -11 -4 -31t-14.5 -39.5t-29 -34t-46.5 -14.5q-18 0 -35.5 9t-31 22t-22 28.5t-8.5 29.5z" />
    <glyph glyph-name="Eth" unicode="&#xd0;" horiz-adv-x="746" 
d="M167 343q35 7 84 12q17 66 34 126t32 107q-31 -9 -54 -26t-39 -37.5t-26 -43.5t-15 -45q0 -1 -5 -1q-4 0 -23.5 2t-41 7.5t-40 13.5t-21.5 20q13 58 49 104q15 19 37.5 38t53 34t70 25t90.5 11q3 11 12 25t35 14q18 0 36.5 -3t34 -7.5t27.5 -10t18 -9.5l-10 -27
q59 -16 107 -45.5t81.5 -71t51.5 -93t18 -111.5q0 -108 -35 -193t-94 -143.5t-136 -89.5t-160 -31q-81 0 -151.5 21t-123.5 54t-85 74t-35 81q7 11 23 23.5t35 21.5t37.5 12.5t29.5 -3.5q8 -5 21 -14.5t26 -19.5t22 -20t10 -17t-4.5 -12t-3.5 -10q6 -17 19 -33.5t32.5 -30.5
t46 -22.5t59.5 -8.5q54 0 105 31t90.5 86t63.5 130t24 163q0 66 -27 111.5t-73 67.5q-13 -49 -26 -106l-26 -114h15q7 0 20.5 -15.5t22.5 -33.5t9.5 -33t-16.5 -15q-19 0 -36.5 0.5t-34.5 0.5q-13 -58 -22 -104.5t-13 -70.5q-6 -27 -18.5 -37t-31.5 -10q-24 0 -46.5 5.5
t-40.5 12.5t-29.5 13.5t-14.5 9.5q7 39 16 83.5t20 92.5q-15 -1 -30 11.5t-25 28t-13 29.5t8 16z" />
    <glyph glyph-name="Ntilde" unicode="&#xd1;" horiz-adv-x="651" 
d="M431 266q16 57 32.5 116t33 113.5t32 103t29.5 84t26 56.5t22 21q30 0 58 -3t49.5 -8t35.5 -11.5t17 -13.5q-48 -102 -85 -204.5t-65 -198.5t-46.5 -184t-30.5 -161q-2 -7 -15 -8t-22 -1q-15 0 -36 3.5t-42 10.5t-37.5 15.5t-22.5 19.5q-15 46 -30 108.5t-28 125t-24 118
t-19 88.5l-10 5q-11 -29 -22 -70t-21 -91t-17.5 -105.5t-10.5 -112.5q-1 -11 4.5 -10.5t16.5 -6.5q8 -4 3 -26t-14.5 -47.5t-19.5 -48t-11 -28.5q-2 -7 -14.5 -7t-30.5 4t-38.5 11.5t-39 15t-32 14t-16.5 8.5q7 64 19 139t28 151.5t35 150.5t39.5 138t43 112.5t45.5 74.5
q15 -2 35.5 -6.5t41.5 -10.5t39 -14t27 -15q4 -44 13 -104.5t19.5 -120.5t22 -112t21.5 -78h12zM329 781q-7 0 -13.5 6t-11 14t-6 16.5t2.5 13.5q4 7 15 18.5t25 23t30.5 20t32.5 8.5q22 0 39.5 -6.5t31.5 -14.5t26 -14.5t24 -6.5q11 0 21 4.5t19 10t17 10t15 4.5q6 0 12 -5
t10 -12.5t5.5 -16.5t-2.5 -18q-3 -7 -14 -18.5t-26.5 -22.5t-34.5 -19t-39 -8t-38 6.5t-34 15t-29 15t-23 6.5q-7 0 -14.5 -4.5t-15 -10.5t-14 -10.5t-11.5 -4.5z" />
    <glyph glyph-name="Ograve" unicode="&#xd2;" horiz-adv-x="647" 
d="M15 271q0 79 24.5 153.5t63.5 134t88.5 99t100.5 49.5q20 -4 27 -10t16 -14q11 4 25 8q11 3 26.5 6t32.5 3q75 0 124 -20t77.5 -54t39.5 -79t11 -94q0 -33 -6.5 -83.5t-22 -106.5t-42 -112.5t-66.5 -101.5t-95.5 -73t-128.5 -28q-80 0 -136 29.5t-91.5 76.5t-51.5 104
t-16 113zM211 239q-2 -37 1 -69.5t11.5 -56.5t23 -37.5t34.5 -13.5q31 0 56.5 27t45.5 69t34.5 93.5t24 99.5t15 87.5t6.5 57.5q1 20 -0.5 39t-6.5 34t-14.5 24.5t-23.5 9.5q-25 0 -43 -17t-31 -42.5t-22 -55t-15 -53.5q-2 -6 -5 -9t-9 0q-5 1 -17 7t-17 11l-6 -14.5
t-14.5 -41t-16.5 -64.5t-11 -85zM302 900q-8 11 -6.5 22.5t15.5 14.5q8 1 23 3.5t31.5 3t31 -3t20.5 -13.5q9 -14 20.5 -33.5t22 -38.5t18.5 -34.5t11 -20.5q6 -11 3.5 -22.5t-12.5 -13.5q-11 -2 -23 -4t-24 -2t-22 3t-16 11z" />
    <glyph glyph-name="Oacute" unicode="&#xd3;" horiz-adv-x="647" 
d="M15 271q0 79 24.5 153.5t63.5 134t88.5 99t100.5 49.5q20 -4 27 -10t16 -14q11 4 25 8q11 3 26.5 6t32.5 3q75 0 124 -20t77.5 -54t39.5 -79t11 -94q0 -33 -6.5 -83.5t-22 -106.5t-42 -112.5t-66.5 -101.5t-95.5 -73t-128.5 -28q-80 0 -136 29.5t-91.5 76.5t-51.5 104
t-16 113zM211 239q-2 -37 1 -69.5t11.5 -56.5t23 -37.5t34.5 -13.5q31 0 56.5 27t45.5 69t34.5 93.5t24 99.5t15 87.5t6.5 57.5q1 20 -0.5 39t-6.5 34t-14.5 24.5t-23.5 9.5q-25 0 -43 -17t-31 -42.5t-22 -55t-15 -53.5q-2 -6 -5 -9t-9 0q-5 1 -17 7t-17 11l-6 -14.5
t-14.5 -41t-16.5 -64.5t-11 -85zM452 756q-8 -6 -25 -2t-33.5 12t-28 18t-6.5 16q13 17 27.5 35.5t28.5 35.5t29 30.5t30 21.5q17 9 42 4t45.5 -16t32 -24t1.5 -20q-48 -38 -85 -66t-58 -45z" />
    <glyph glyph-name="Ocircumflex" unicode="&#xd4;" horiz-adv-x="647" 
d="M15 271q0 79 24.5 153.5t63.5 134t88.5 99t100.5 49.5q20 -4 27 -10t16 -14q11 4 25 8q11 3 26.5 6t32.5 3q75 0 124 -20t77.5 -54t39.5 -79t11 -94q0 -33 -6.5 -83.5t-22 -106.5t-42 -112.5t-66.5 -101.5t-95.5 -73t-128.5 -28q-80 0 -136 29.5t-91.5 76.5t-51.5 104
t-16 113zM211 239q-2 -37 1 -69.5t11.5 -56.5t23 -37.5t34.5 -13.5q31 0 56.5 27t45.5 69t34.5 93.5t24 99.5t15 87.5t6.5 57.5q1 20 -0.5 39t-6.5 34t-14.5 24.5t-23.5 9.5q-25 0 -43 -17t-31 -42.5t-22 -55t-15 -53.5q-2 -6 -5 -9t-9 0q-5 1 -17 7t-17 11l-6 -14.5
t-14.5 -41t-16.5 -64.5t-11 -85zM302 790q-28 16 -1 36q12 9 29 22.5t36 28t39 29.5t37 27l64 -9q12 -16 28.5 -38.5t32 -44t27 -38t14.5 -20.5q8 -10 4 -19t-15 -11q-20 -5 -39 -4t-27 11q-12 14 -28 38t-27 37q-17 -14 -39 -31.5t-40 -31.5q-11 -7 -22.5 -12t-23.5 2z" />
    <glyph glyph-name="Otilde" unicode="&#xd5;" horiz-adv-x="647" 
d="M15 271q0 79 24.5 153.5t63.5 134t88.5 99t100.5 49.5q20 -4 27 -10t16 -14q11 4 25 8q11 3 26.5 6t32.5 3q75 0 124 -20t77.5 -54t39.5 -79t11 -94q0 -33 -6.5 -83.5t-22 -106.5t-42 -112.5t-66.5 -101.5t-95.5 -73t-128.5 -28q-80 0 -136 29.5t-91.5 76.5t-51.5 104
t-16 113zM211 239q-2 -37 1 -69.5t11.5 -56.5t23 -37.5t34.5 -13.5q31 0 56.5 27t45.5 69t34.5 93.5t24 99.5t15 87.5t6.5 57.5q1 20 -0.5 39t-6.5 34t-14.5 24.5t-23.5 9.5q-25 0 -43 -17t-31 -42.5t-22 -55t-15 -53.5q-2 -6 -5 -9t-9 0q-5 1 -17 7t-17 11l-6 -14.5
t-14.5 -41t-16.5 -64.5t-11 -85zM312 764q-7 0 -13.5 6t-11 14t-6 16.5t2.5 13.5q4 7 15 18.5t25 23t30.5 20t32.5 8.5q22 0 39.5 -6.5t31.5 -14.5t26 -14.5t24 -6.5q11 0 21 4.5t19 10t17 10t15 4.5q6 0 12 -5t10 -12.5t5.5 -16.5t-2.5 -18q-3 -7 -14 -18.5t-26.5 -22.5
t-34.5 -19t-39 -8t-38 6.5t-34 15t-29 15t-23 6.5q-7 0 -14.5 -4.5t-15 -10.5t-14 -10.5t-11.5 -4.5z" />
    <glyph glyph-name="Odieresis" unicode="&#xd6;" horiz-adv-x="647" 
d="M15 271q0 79 24.5 153.5t63.5 134t88.5 99t100.5 49.5q20 -4 27 -10t16 -14q11 4 25 8q11 3 26.5 6t32.5 3q75 0 124 -20t77.5 -54t39.5 -79t11 -94q0 -33 -6.5 -83.5t-22 -106.5t-42 -112.5t-66.5 -101.5t-95.5 -73t-128.5 -28q-80 0 -136 29.5t-91.5 76.5t-51.5 104
t-16 113zM211 239q-2 -37 1 -69.5t11.5 -56.5t23 -37.5t34.5 -13.5q31 0 56.5 27t45.5 69t34.5 93.5t24 99.5t15 87.5t6.5 57.5q1 20 -0.5 39t-6.5 34t-14.5 24.5t-23.5 9.5q-25 0 -43 -17t-31 -42.5t-22 -55t-15 -53.5q-2 -6 -5 -9t-9 0q-5 1 -17 7t-17 11l-6 -14.5
t-14.5 -41t-16.5 -64.5t-11 -85zM287 792q-18 6 -31.5 16t-13.5 31q0 12 6.5 28.5t21.5 31.5t39 25.5t60 10.5q9 0 20.5 -3.5t21 -11.5t16 -20.5t6.5 -30.5q0 -11 -3.5 -29.5t-14 -36t-30 -30.5t-52.5 -13q-19 0 -30 6t-16 26zM466 828q0 12 5.5 28.5t19.5 31t37.5 25
t59.5 10.5q9 0 21 -3.5t22.5 -11.5t18 -20.5t7.5 -29.5q0 -11 -4 -31t-14.5 -39.5t-29 -34t-46.5 -14.5q-18 0 -35.5 9t-31 22t-22 28.5t-8.5 29.5z" />
    <glyph glyph-name="multiply" unicode="&#xd7;" horiz-adv-x="522" 
d="M400 122q-8 -7 -19.5 -7.5t-19.5 10.5q-17 23 -37 52.5t-43 61.5q-17 -17 -32 -31.5t-25 -22.5l5 -12q-23 -19 -41 -28.5t-30 -14.5q-14 -5 -25 -7q-7 0 -21.5 12t-28.5 28t-23.5 30.5t-4.5 19.5q26 24 63 61.5t78 77.5q-22 26 -45 49.5t-46 40.5q-11 8 -7.5 14t8.5 10
l35 38q5 4 17 1.5t24 -12.5q18 -15 38 -36t40 -45q22 21 43 39t39 31.5t32.5 21t23.5 7.5q7 0 22.5 -13t29.5 -29.5t24 -31.5t7 -20q-11 -5 -26.5 -16t-33.5 -26.5t-37.5 -34t-38.5 -37.5q22 -31 41 -60t35 -53q5 -9 10 -23.5t-5 -22.5z" />
    <glyph glyph-name="Oslash" unicode="&#xd8;" horiz-adv-x="647" 
d="M102 31q-46 48 -66.5 112.5t-20.5 127.5q0 79 24.5 153.5t63.5 134t88.5 99t100.5 49.5q20 -4 27 -10t16 -14q11 4 25 8q11 3 26.5 6t32.5 3q72 0 123 -20q23 26 42 41.5t33 15.5q20 0 28.5 -12t4.5 -26q-19 -18 -49 -54q40 -35 55 -85t15 -107q0 -33 -6.5 -83.5
t-22 -106.5t-42 -112.5t-66.5 -101.5t-95.5 -73t-128.5 -28q-46 0 -83.5 10.5t-67.5 27.5q-26 -38 -45 -66t-30 -41q-17 -1 -29 9t-10 24q2 13 7.5 28t12.5 29.5t14.5 27t13.5 21.5zM211 239q-3 -33 0 -62q31 48 63 99t63 101.5t61.5 98t58.5 89.5q-5 17 -14.5 27.5
t-24.5 10.5q-25 0 -43 -17t-31 -42.5t-22 -55t-15 -53.5q-2 -6 -5 -9t-9 0q-5 1 -17 7t-17 11l-6 -14.5t-14.5 -41t-16.5 -64.5t-11 -85zM281 62q26 0 48.5 19.5t40.5 52t32.5 73t25 83t18 83t11.5 71.5q-57 -85 -115.5 -176t-110.5 -172q8 -16 20.5 -25t29.5 -9z" />
    <glyph glyph-name="Ugrave" unicode="&#xd9;" horiz-adv-x="648" 
d="M201 183q-4 -34 -2.5 -56.5t7.5 -36t17.5 -19.5t26.5 -6q29 0 50.5 37.5t41 110t39 180t45.5 247.5q6 35 16.5 48.5t33.5 13.5q9 0 30.5 -4t44.5 -10t43 -12.5t26 -10.5q-9 -63 -22.5 -132t-26.5 -133.5t-24 -121t-15 -94.5q-4 -35 -4 -57.5t3.5 -35.5t12 -18t20.5 -5
q16 0 28 11.5t21 28t15 34.5t10 31q22 0 40 -5q15 -5 27.5 -17t12.5 -38q0 -24 -8.5 -51t-27 -49.5t-47.5 -37t-69 -14.5q-52 0 -88.5 28t-48.5 64q-12 -19 -30 -40t-42 -38.5t-53.5 -29t-65.5 -11.5q-108 0 -165.5 73.5t-57.5 199.5q0 35 6 79t16 91.5t22.5 95.5t25 91.5
t24 79t20.5 58.5q6 16 22 21.5t36.5 4t43 -8.5t42 -15.5t33.5 -16.5t18 -11q-10 -30 -22.5 -69.5t-25 -84.5t-24.5 -92.5t-22.5 -92.5t-18 -85t-10.5 -69zM250 901q-8 11 -6.5 22.5t15.5 14.5q8 1 23 3.5t31.5 3t31 -3t20.5 -13.5q9 -14 20.5 -33.5t22 -38.5t18.5 -34.5
t11 -20.5q6 -11 3.5 -22.5t-12.5 -13.5q-11 -2 -23 -4t-24 -2t-22 3t-16 11z" />
    <glyph glyph-name="Uacute" unicode="&#xda;" horiz-adv-x="648" 
d="M201 183q-4 -34 -2.5 -56.5t7.5 -36t17.5 -19.5t26.5 -6q29 0 50.5 37.5t41 110t39 180t45.5 247.5q6 35 16.5 48.5t33.5 13.5q9 0 30.5 -4t44.5 -10t43 -12.5t26 -10.5q-9 -63 -22.5 -132t-26.5 -133.5t-24 -121t-15 -94.5q-4 -35 -4 -57.5t3.5 -35.5t12 -18t20.5 -5
q16 0 28 11.5t21 28t15 34.5t10 31q22 0 40 -5q15 -5 27.5 -17t12.5 -38q0 -24 -8.5 -51t-27 -49.5t-47.5 -37t-69 -14.5q-52 0 -88.5 28t-48.5 64q-12 -19 -30 -40t-42 -38.5t-53.5 -29t-65.5 -11.5q-108 0 -165.5 73.5t-57.5 199.5q0 35 6 79t16 91.5t22.5 95.5t25 91.5
t24 79t20.5 58.5q6 16 22 21.5t36.5 4t43 -8.5t42 -15.5t33.5 -16.5t18 -11q-10 -30 -22.5 -69.5t-25 -84.5t-24.5 -92.5t-22.5 -92.5t-18 -85t-10.5 -69zM416 758q-8 -6 -25 -2t-33.5 12t-28 18t-6.5 16q13 17 27.5 35.5t28.5 35.5t29 30.5t30 21.5q17 9 42 4t45.5 -16
t32 -24t1.5 -20q-48 -38 -85 -66t-58 -45z" />
    <glyph glyph-name="Ucircumflex" unicode="&#xdb;" horiz-adv-x="648" 
d="M201 183q-4 -34 -2.5 -56.5t7.5 -36t17.5 -19.5t26.5 -6q29 0 50.5 37.5t41 110t39 180t45.5 247.5q6 35 16.5 48.5t33.5 13.5q9 0 30.5 -4t44.5 -10t43 -12.5t26 -10.5q-9 -63 -22.5 -132t-26.5 -133.5t-24 -121t-15 -94.5q-4 -35 -4 -57.5t3.5 -35.5t12 -18t20.5 -5
q16 0 28 11.5t21 28t15 34.5t10 31q22 0 40 -5q15 -5 27.5 -17t12.5 -38q0 -24 -8.5 -51t-27 -49.5t-47.5 -37t-69 -14.5q-52 0 -88.5 28t-48.5 64q-12 -19 -30 -40t-42 -38.5t-53.5 -29t-65.5 -11.5q-108 0 -165.5 73.5t-57.5 199.5q0 35 6 79t16 91.5t22.5 95.5t25 91.5
t24 79t20.5 58.5q6 16 22 21.5t36.5 4t43 -8.5t42 -15.5t33.5 -16.5t18 -11q-10 -30 -22.5 -69.5t-25 -84.5t-24.5 -92.5t-22.5 -92.5t-18 -85t-10.5 -69zM242 791q-28 16 -1 36q12 9 29 22.5t36 28t39 29.5t37 27l64 -9q12 -16 28.5 -38.5t32 -44t27 -38t14.5 -20.5
q8 -10 4 -19t-15 -11q-20 -5 -39 -4t-27 11q-12 14 -28 38t-27 37q-17 -14 -39 -31.5t-40 -31.5q-11 -7 -22.5 -12t-23.5 2z" />
    <glyph glyph-name="Udieresis" unicode="&#xdc;" horiz-adv-x="648" 
d="M201 183q-4 -34 -2.5 -56.5t7.5 -36t17.5 -19.5t26.5 -6q29 0 50.5 37.5t41 110t39 180t45.5 247.5q6 35 16.5 48.5t33.5 13.5q9 0 30.5 -4t44.5 -10t43 -12.5t26 -10.5q-9 -63 -22.5 -132t-26.5 -133.5t-24 -121t-15 -94.5q-4 -35 -4 -57.5t3.5 -35.5t12 -18t20.5 -5
q16 0 28 11.5t21 28t15 34.5t10 31q22 0 40 -5q15 -5 27.5 -17t12.5 -38q0 -24 -8.5 -51t-27 -49.5t-47.5 -37t-69 -14.5q-52 0 -88.5 28t-48.5 64q-12 -19 -30 -40t-42 -38.5t-53.5 -29t-65.5 -11.5q-108 0 -165.5 73.5t-57.5 199.5q0 35 6 79t16 91.5t22.5 95.5t25 91.5
t24 79t20.5 58.5q6 16 22 21.5t36.5 4t43 -8.5t42 -15.5t33.5 -16.5t18 -11q-10 -30 -22.5 -69.5t-25 -84.5t-24.5 -92.5t-22.5 -92.5t-18 -85t-10.5 -69zM241 800q-18 6 -31.5 16t-13.5 31q0 12 6.5 28.5t21.5 31.5t39 25.5t60 10.5q9 0 20.5 -3.5t21 -11.5t16 -20.5
t6.5 -30.5q0 -11 -3.5 -29.5t-14 -36t-30 -30.5t-52.5 -13q-19 0 -30 6t-16 26zM420 836q0 12 5.5 28.5t19.5 31t37.5 25t59.5 10.5q9 0 21 -3.5t22.5 -11.5t18 -20.5t7.5 -29.5q0 -11 -4 -31t-14.5 -39.5t-29 -34t-46.5 -14.5q-18 0 -35.5 9t-31 22t-22 28.5t-8.5 29.5z
" />
    <glyph glyph-name="Yacute" unicode="&#xdd;" horiz-adv-x="608" 
d="M64 65q5 9 10.5 11.5t10.5 1.5t9 -2t6 2q32 45 65 95.5t66 104.5q-48 76 -85.5 130.5t-70.5 96.5q-3 4 -6 4t-6.5 -1t-7 -1.5t-6.5 2.5q-7 7 -20.5 25t-26.5 37.5t-21.5 35.5t-5.5 21q7 14 24 29.5t36.5 26t38.5 13.5t30 -6q15 -12 39.5 -42.5t53 -70.5t58.5 -85t57 -86
q40 63 78.5 120t74 100t66.5 68.5t57 25.5q19 0 41.5 -14t40.5 -32.5t29.5 -36.5t9.5 -25q-29 -20 -65 -60.5t-76 -94t-82.5 -115.5t-83.5 -125.5t-79 -125t-70.5 -112.5t-57 -88t-37.5 -53q-9 0 -34.5 8.5t-53 20t-48.5 23.5t-20 19q3 15 9.5 34.5t15 40.5t18.5 41.5
t19 38.5zM379 757q-8 -6 -25 -2t-33.5 12t-28 18t-6.5 16q13 17 27.5 35.5t28.5 35.5t29 30.5t30 21.5q17 9 42 4t45.5 -16t32 -24t1.5 -20q-48 -38 -85 -66t-58 -45z" />
    <glyph glyph-name="Thorn" unicode="&#xde;" horiz-adv-x="629" 
d="M78 -39q5 25 10.5 53.5t12.5 60.5q-17 3 -31.5 6t-22.5 7q-24 10 -32.5 28.5t-6.5 37t12 34t23 20.5q7 -1 25 -11.5t55 -21.5q18 80 38.5 161t38.5 150q-54 -11 -86.5 -34.5t-49.5 -44.5q-2 -1 -5 -2q-7 -2 -13 -1q-10 2 -21.5 11t-21 22t-16 27t-7.5 26q19 21 52 39
q29 15 75.5 30t118.5 22q9 30 15.5 50.5t10.5 28.5q4 11 9 19.5t12 14t17 8.5t26 3q10 0 26 -2.5t32 -7t30 -11t20 -14.5q-6 -15 -12.5 -38t-14.5 -52q60 -7 110 -23.5t87 -42.5t57.5 -60.5t20.5 -76.5q0 -57 -28 -109t-79 -94t-123 -70t-161 -36q-4 -15 -6.5 -28.5
t-3.5 -21.5q-8 -26 -14.5 -50.5t-18.5 -38.5q-4 -5 -9 -8t-16 -3q-12 0 -33.5 5.5t-43 13t-38.5 14.5t-20 10zM486 349q0 49 -29 81.5t-84 48.5q-9 -41 -18.5 -84.5t-18.5 -85.5t-17.5 -80t-15.5 -69q39 6 72.5 21.5t58 40t38.5 57t14 70.5z" />
    <glyph glyph-name="germandbls" unicode="&#xdf;" horiz-adv-x="573" 
d="M292 268q-11 0 -21 3q-6 1 -12 3q-2 12 -2.5 28t1 31.5t4.5 30t8 25.5q19 4 44 3t45 -3q19 10 35 30t27 45.5t17 54t6 55.5q0 28 -13.5 41t-36.5 13q-34 0 -62 -31.5t-51.5 -83.5t-42 -119.5t-32.5 -139t-24.5 -141.5t-17.5 -128t-11.5 -98.5t-6.5 -52.5q0 -2 4 -5t9 -6
t9 -6.5t3 -4.5q-3 -4 -9 -27t-13.5 -48.5t-15 -46.5t-12.5 -21q-16 0 -42 7t-50.5 17.5t-43 21.5t-18.5 20q15 276 58 492q18 92 44.5 180.5t63.5 158t84.5 112t108.5 42.5q48 0 94.5 -15.5t82.5 -42t58 -60.5t22 -70q0 -66 -26.5 -118t-80.5 -86q19 -9 37 -24t32.5 -35
t23.5 -46.5t9 -58.5q0 -59 -22 -103t-54.5 -73.5t-69.5 -44.5t-67 -15q-37 0 -66.5 10.5t-46.5 24.5q-20 17 -26.5 39t-3.5 42.5t13 37t23 22.5q3 0 14 -9.5t26.5 -21t34 -20.5t36.5 -9q26 0 44 26.5t18 71.5q0 19 -6.5 40.5t-19 40.5t-30 33t-38.5 18q-17 -3 -24 -4.5
t-21 -1.5z" />
    <glyph glyph-name="agrave" unicode="&#xe0;" horiz-adv-x="543" 
d="M355 46q-9 -13 -22.5 -26t-31 -23.5t-38 -17t-43.5 -6.5q-47 0 -85 13.5t-66 40t-43 64.5t-15 87q0 65 16.5 128.5t49 113.5t79.5 81t109 31q43 0 78 -8t60 -21t38.5 -30t13.5 -35q0 -3 -0.5 -6t-0.5 -5q-1 -3 -1 -5q5 -1 17 -2t24 -4t20.5 -7.5t5.5 -13.5
q-22 -68 -36 -137t-16 -125q-2 -29 3.5 -50.5t22.5 -21.5q15 0 25.5 10t17 26.5t10.5 38.5t6 46q26 2 46 -3q17 -5 32 -19t15 -43q0 -23 -10 -49.5t-31 -49t-53 -37t-75 -14.5q-34 0 -56 9t-34.5 21.5t-18 26t-6.5 22.5h-7zM188 144q-4 -41 1 -57.5t19 -16.5q11 0 23 15.5
t23 39.5t21 52.5t17.5 55t12 47t5.5 28.5q-8 1 -14 4q-5 2 -11 6t-9 9q14 21 21.5 42.5t10.5 44.5q1 6 0 17t-12 11q-14 0 -26.5 -16t-24 -41.5t-21.5 -57.5t-17.5 -65t-12 -64t-6.5 -54zM178 725q-8 11 -6.5 22.5t15.5 14.5q8 1 23 3.5t31.5 3t31 -3t20.5 -13.5
q9 -14 20.5 -33.5t22 -38.5t18.5 -34.5t11 -20.5q6 -11 3.5 -22.5t-12.5 -13.5q-11 -2 -23 -4t-24 -2t-22 3t-16 11z" />
    <glyph glyph-name="aacute" unicode="&#xe1;" horiz-adv-x="543" 
d="M355 46q-9 -13 -22.5 -26t-31 -23.5t-38 -17t-43.5 -6.5q-47 0 -85 13.5t-66 40t-43 64.5t-15 87q0 65 16.5 128.5t49 113.5t79.5 81t109 31q43 0 78 -8t60 -21t38.5 -30t13.5 -35q0 -3 -0.5 -6t-0.5 -5q-1 -3 -1 -5q5 -1 17 -2t24 -4t20.5 -7.5t5.5 -13.5
q-22 -68 -36 -137t-16 -125q-2 -29 3.5 -50.5t22.5 -21.5q15 0 25.5 10t17 26.5t10.5 38.5t6 46q26 2 46 -3q17 -5 32 -19t15 -43q0 -23 -10 -49.5t-31 -49t-53 -37t-75 -14.5q-34 0 -56 9t-34.5 21.5t-18 26t-6.5 22.5h-7zM188 144q-4 -41 1 -57.5t19 -16.5q11 0 23 15.5
t23 39.5t21 52.5t17.5 55t12 47t5.5 28.5q-8 1 -14 4q-5 2 -11 6t-9 9q14 21 21.5 42.5t10.5 44.5q1 6 0 17t-12 11q-14 0 -26.5 -16t-24 -41.5t-21.5 -57.5t-17.5 -65t-12 -64t-6.5 -54zM357 581q-8 -6 -25 -2t-33.5 12t-28 18t-6.5 16q13 17 27.5 35.5t28.5 35.5t29 30.5
t30 21.5q17 9 42 4t45.5 -16t32 -24t1.5 -20q-48 -38 -85 -66t-58 -45z" />
    <glyph glyph-name="acircumflex" unicode="&#xe2;" horiz-adv-x="543" 
d="M355 46q-9 -13 -22.5 -26t-31 -23.5t-38 -17t-43.5 -6.5q-47 0 -85 13.5t-66 40t-43 64.5t-15 87q0 65 16.5 128.5t49 113.5t79.5 81t109 31q43 0 78 -8t60 -21t38.5 -30t13.5 -35q0 -3 -0.5 -6t-0.5 -5q-1 -3 -1 -5q5 -1 17 -2t24 -4t20.5 -7.5t5.5 -13.5
q-22 -68 -36 -137t-16 -125q-2 -29 3.5 -50.5t22.5 -21.5q15 0 25.5 10t17 26.5t10.5 38.5t6 46q26 2 46 -3q17 -5 32 -19t15 -43q0 -23 -10 -49.5t-31 -49t-53 -37t-75 -14.5q-34 0 -56 9t-34.5 21.5t-18 26t-6.5 22.5h-7zM188 144q-4 -41 1 -57.5t19 -16.5q11 0 23 15.5
t23 39.5t21 52.5t17.5 55t12 47t5.5 28.5q-8 1 -14 4q-5 2 -11 6t-9 9q14 21 21.5 42.5t10.5 44.5q1 6 0 17t-12 11q-14 0 -26.5 -16t-24 -41.5t-21.5 -57.5t-17.5 -65t-12 -64t-6.5 -54zM179 615q-28 16 -1 36q12 9 29 22.5t36 28t39 29.5t37 27l64 -9q12 -16 28.5 -38.5
t32 -44t27 -38t14.5 -20.5q8 -10 4 -19t-15 -11q-20 -5 -39 -4t-27 11q-12 14 -28 38t-27 37q-17 -14 -39 -31.5t-40 -31.5q-11 -7 -22.5 -12t-23.5 2z" />
    <glyph glyph-name="atilde" unicode="&#xe3;" horiz-adv-x="543" 
d="M355 46q-9 -13 -22.5 -26t-31 -23.5t-38 -17t-43.5 -6.5q-47 0 -85 13.5t-66 40t-43 64.5t-15 87q0 65 16.5 128.5t49 113.5t79.5 81t109 31q43 0 78 -8t60 -21t38.5 -30t13.5 -35q0 -3 -0.5 -6t-0.5 -5q-1 -3 -1 -5q5 -1 17 -2t24 -4t20.5 -7.5t5.5 -13.5
q-22 -68 -36 -137t-16 -125q-2 -29 3.5 -50.5t22.5 -21.5q15 0 25.5 10t17 26.5t10.5 38.5t6 46q26 2 46 -3q17 -5 32 -19t15 -43q0 -23 -10 -49.5t-31 -49t-53 -37t-75 -14.5q-34 0 -56 9t-34.5 21.5t-18 26t-6.5 22.5h-7zM188 144q-4 -41 1 -57.5t19 -16.5q11 0 23 15.5
t23 39.5t21 52.5t17.5 55t12 47t5.5 28.5q-8 1 -14 4q-5 2 -11 6t-9 9q14 21 21.5 42.5t10.5 44.5q1 6 0 17t-12 11q-14 0 -26.5 -16t-24 -41.5t-21.5 -57.5t-17.5 -65t-12 -64t-6.5 -54zM205 595q-7 0 -13.5 6t-11 14t-6 16.5t2.5 13.5q4 7 15 18.5t25 23t30.5 20t32.5 8.5
q22 0 39.5 -6.5t31.5 -14.5t26 -14.5t24 -6.5q11 0 21 4.5t19 10t17 10t15 4.5q6 0 12 -5t10 -12.5t5.5 -16.5t-2.5 -18q-3 -7 -14 -18.5t-26.5 -22.5t-34.5 -19t-39 -8t-38 6.5t-34 15t-29 15t-23 6.5q-7 0 -14.5 -4.5t-15 -10.5t-14 -10.5t-11.5 -4.5z" />
    <glyph glyph-name="adieresis" unicode="&#xe4;" horiz-adv-x="543" 
d="M355 46q-9 -13 -22.5 -26t-31 -23.5t-38 -17t-43.5 -6.5q-47 0 -85 13.5t-66 40t-43 64.5t-15 87q0 65 16.5 128.5t49 113.5t79.5 81t109 31q43 0 78 -8t60 -21t38.5 -30t13.5 -35q0 -3 -0.5 -6t-0.5 -5q-1 -3 -1 -5q5 -1 17 -2t24 -4t20.5 -7.5t5.5 -13.5
q-22 -68 -36 -137t-16 -125q-2 -29 3.5 -50.5t22.5 -21.5q15 0 25.5 10t17 26.5t10.5 38.5t6 46q26 2 46 -3q17 -5 32 -19t15 -43q0 -23 -10 -49.5t-31 -49t-53 -37t-75 -14.5q-34 0 -56 9t-34.5 21.5t-18 26t-6.5 22.5h-7zM188 144q-4 -41 1 -57.5t19 -16.5q11 0 23 15.5
t23 39.5t21 52.5t17.5 55t12 47t5.5 28.5q-8 1 -14 4q-5 2 -11 6t-9 9q14 21 21.5 42.5t10.5 44.5q1 6 0 17t-12 11q-14 0 -26.5 -16t-24 -41.5t-21.5 -57.5t-17.5 -65t-12 -64t-6.5 -54zM182 620q-18 6 -31.5 16t-13.5 31q0 12 6.5 28.5t21.5 31.5t39 25.5t60 10.5
q9 0 20.5 -3.5t21 -11.5t16 -20.5t6.5 -30.5q0 -11 -3.5 -29.5t-14 -36t-30 -30.5t-52.5 -13q-19 0 -30 6t-16 26zM361 656q0 12 5.5 28.5t19.5 31t37.5 25t59.5 10.5q9 0 21 -3.5t22.5 -11.5t18 -20.5t7.5 -29.5q0 -11 -4 -31t-14.5 -39.5t-29 -34t-46.5 -14.5
q-18 0 -35.5 9t-31 22t-22 28.5t-8.5 29.5z" />
    <glyph glyph-name="aring" unicode="&#xe5;" horiz-adv-x="543" 
d="M355 46q-9 -13 -22.5 -26t-31 -23.5t-38 -17t-43.5 -6.5q-47 0 -85 13.5t-66 40t-43 64.5t-15 87q0 65 16.5 128.5t49 113.5t79.5 81t109 31q43 0 78 -8t60 -21t38.5 -30t13.5 -35q0 -3 -0.5 -6t-0.5 -5q-1 -3 -1 -5q5 -1 17 -2t24 -4t20.5 -7.5t5.5 -13.5
q-22 -68 -36 -137t-16 -125q-2 -29 3.5 -50.5t22.5 -21.5q15 0 25.5 10t17 26.5t10.5 38.5t6 46q26 2 46 -3q17 -5 32 -19t15 -43q0 -23 -10 -49.5t-31 -49t-53 -37t-75 -14.5q-34 0 -56 9t-34.5 21.5t-18 26t-6.5 22.5h-7zM188 144q-4 -41 1 -57.5t19 -16.5q11 0 23 15.5
t23 39.5t21 52.5t17.5 55t12 47t5.5 28.5q-8 1 -14 4q-5 2 -11 6t-9 9q14 21 21.5 42.5t10.5 44.5q1 6 0 17t-12 11q-14 0 -26.5 -16t-24 -41.5t-21.5 -57.5t-17.5 -65t-12 -64t-6.5 -54zM216 672q0 19 9 40t27.5 38t46.5 28t65 11q63 0 92.5 -28t29.5 -73q0 -24 -10.5 -45
t-30 -36t-46.5 -24t-59 -9q-62 0 -93 29.5t-31 68.5zM315 671q0 -11 8.5 -17t19.5 -6q21 0 34.5 10.5t13.5 31.5q0 11 -8.5 18t-19.5 7q-26 0 -37 -12t-11 -32z" />
    <glyph glyph-name="ae" unicode="&#xe6;" horiz-adv-x="702" 
d="M531 -79q-58 0 -108 22.5t-80 64.5q-16 -23 -47 -42.5t-87 -19.5q-37 0 -69.5 13.5t-56.5 38t-38 59.5t-14 78q0 52 13 90t32.5 63t43.5 37t46 12q46 0 79.5 -18.5t44.5 -43.5q15 74 -1 121t-63 47q-14 0 -28 -7.5t-27 -19t-24.5 -25.5t-18.5 -26q-11 0 -26 6.5
t-26.5 19.5t-15 32t8.5 44q17 33 66 55.5t121 22.5q32 0 55.5 -9.5t39.5 -26t25 -38t12 -45.5q26 50 62 82.5t82 32.5q22 0 50.5 -8.5t54 -27t43 -47.5t17.5 -70q0 -48 -13 -89.5t-33.5 -72.5t-46 -48.5t-49.5 -17.5q-22 0 -38.5 7t-28 15t-18 15.5t-7.5 9.5
q-1 -2 -8.5 -35.5t-7.5 -85.5q0 -37 15.5 -53.5t43.5 -16.5q35 0 63.5 17.5t48.5 43t32.5 54t16.5 49.5q3 2 7 4q10 4 20 4q35 0 59.5 -14t24.5 -45q0 -30 -14.5 -66.5t-45 -68t-77 -52.5t-110.5 -21zM150 80q0 -27 5.5 -38.5t18.5 -11.5q16 0 30 16.5t25 38t17.5 43.5
t8.5 33q-5 1 -9 2t-8.5 2.5t-7.5 5.5q6 11 11.5 25t5.5 29q0 8 -3.5 16.5t-14.5 8.5q-18 0 -32 -18.5t-24.5 -44.5t-16.5 -55.5t-6 -51.5zM475 273q4 -7 8 -11t9 -7t12 -3q12 0 23 15.5t19 39t13 51.5t5 54q1 28 -2.5 34.5t-7.5 6.5q-11 0 -20 -16q-10 -17 -19 -37.5
t-16.5 -42t-13.5 -43.5t-10 -41z" />
    <glyph glyph-name="ccedilla" unicode="&#xe7;" horiz-adv-x="442" 
d="M322 -179q0 -23 -10 -41t-26.5 -31t-39 -19.5t-46.5 -6.5q-32 0 -54.5 8t-36.5 20t-21 26.5t-7 27.5q0 15 9.5 24t25.5 9q5 0 9.5 -1t8.5 -2q4 -2 7 -3q3 -23 16.5 -43t39.5 -20q14 0 25 8.5t11 28.5q0 25 -14 38.5t-32 21t-34 10.5t-19 8q-4 5 -2 14t8 19.5t15.5 21.5
t19.5 22q-36 11 -66 31t-52 47t-34.5 61t-12.5 75q0 51 15 109t45.5 106.5t76.5 81t109 32.5q29 0 61 -9t59 -25.5t44.5 -40.5t17.5 -54q0 -69 -29 -107.5t-70 -38.5q-29 0 -46 12t-23 32v6q9 18 18 37q7 17 13.5 37.5t8.5 42.5q0 20 -14 20q-16 0 -33.5 -20t-32 -54.5
t-24 -81t-9.5 -100.5q0 -34 6.5 -56.5t17 -36t25 -19t31.5 -5.5q29 0 53 14t41.5 36.5t28.5 50t14 54.5q6 3 14 6q7 2 15.5 4t18.5 2q29 0 48 -20t19 -55q0 -24 -14 -56t-45 -61.5t-80 -50t-119 -20.5h-11.5t-10.5 1q-10 -8 -19.5 -15t-13.5 -12q18 -4 37 -12t34 -20t25 -29
t10 -39z" />
    <glyph glyph-name="egrave" unicode="&#xe8;" horiz-adv-x="405" 
d="M-7 117q0 68 16.5 143t48 137.5t76 103t101.5 40.5q22 0 50.5 -8.5t54 -27t43 -47.5t17.5 -70q0 -48 -13 -89.5t-33.5 -72.5t-46 -48.5t-49.5 -17.5q-22 0 -38 7t-26.5 15t-15.5 15.5t-6 9.5q0 -1 -3.5 -10t-7.5 -25t-7.5 -38t-3.5 -48q0 -37 15.5 -53.5t43.5 -16.5
q35 0 63.5 17.5t48.5 43t32.5 54t16.5 49.5q3 2 7 4q10 4 20 4q35 0 59.5 -14t24.5 -45q0 -30 -14.5 -66.5t-45 -68t-77 -52.5t-110.5 -21q-44 0 -87 13t-77.5 38t-55.5 61.5t-21 83.5zM185 273q1 -7 4 -11q2 -4 6.5 -7t11.5 -3q12 0 23 15.5t19 39t13 51.5t5 54
q1 28 -2.5 34.5t-7.5 6.5q-3 0 -6 -3t-8 -13q-17 -35 -33.5 -80.5t-24.5 -83.5zM189 725q-8 11 -6.5 22.5t15.5 14.5q8 1 23 3.5t31.5 3t31 -3t20.5 -13.5q9 -14 20.5 -33.5t22 -38.5t18.5 -34.5t11 -20.5q6 -11 3.5 -22.5t-12.5 -13.5q-11 -2 -23 -4t-24 -2t-22 3t-16 11z
" />
    <glyph glyph-name="eacute" unicode="&#xe9;" horiz-adv-x="405" 
d="M-7 117q0 68 16.5 143t48 137.5t76 103t101.5 40.5q22 0 50.5 -8.5t54 -27t43 -47.5t17.5 -70q0 -48 -13 -89.5t-33.5 -72.5t-46 -48.5t-49.5 -17.5q-22 0 -38 7t-26.5 15t-15.5 15.5t-6 9.5q0 -1 -3.5 -10t-7.5 -25t-7.5 -38t-3.5 -48q0 -37 15.5 -53.5t43.5 -16.5
q35 0 63.5 17.5t48.5 43t32.5 54t16.5 49.5q3 2 7 4q10 4 20 4q35 0 59.5 -14t24.5 -45q0 -30 -14.5 -66.5t-45 -68t-77 -52.5t-110.5 -21q-44 0 -87 13t-77.5 38t-55.5 61.5t-21 83.5zM185 273q1 -7 4 -11q2 -4 6.5 -7t11.5 -3q12 0 23 15.5t19 39t13 51.5t5 54
q1 28 -2.5 34.5t-7.5 6.5q-3 0 -6 -3t-8 -13q-17 -35 -33.5 -80.5t-24.5 -83.5zM293 581q-8 -6 -25 -2t-33.5 12t-28 18t-6.5 16q13 17 27.5 35.5t28.5 35.5t29 30.5t30 21.5q17 9 42 4t45.5 -16t32 -24t1.5 -20q-48 -38 -85 -66t-58 -45z" />
    <glyph glyph-name="ecircumflex" unicode="&#xea;" horiz-adv-x="405" 
d="M-7 117q0 68 16.5 143t48 137.5t76 103t101.5 40.5q22 0 50.5 -8.5t54 -27t43 -47.5t17.5 -70q0 -48 -13 -89.5t-33.5 -72.5t-46 -48.5t-49.5 -17.5q-22 0 -38 7t-26.5 15t-15.5 15.5t-6 9.5q0 -1 -3.5 -10t-7.5 -25t-7.5 -38t-3.5 -48q0 -37 15.5 -53.5t43.5 -16.5
q35 0 63.5 17.5t48.5 43t32.5 54t16.5 49.5q3 2 7 4q10 4 20 4q35 0 59.5 -14t24.5 -45q0 -30 -14.5 -66.5t-45 -68t-77 -52.5t-110.5 -21q-44 0 -87 13t-77.5 38t-55.5 61.5t-21 83.5zM185 273q1 -7 4 -11q2 -4 6.5 -7t11.5 -3q12 0 23 15.5t19 39t13 51.5t5 54
q1 28 -2.5 34.5t-7.5 6.5q-3 0 -6 -3t-8 -13q-17 -35 -33.5 -80.5t-24.5 -83.5zM128 614q-28 16 -1 36q12 9 29 22.5t36 28t39 29.5t37 27l64 -9q12 -16 28.5 -38.5t32 -44t27 -38t14.5 -20.5q8 -10 4 -19t-15 -11q-20 -5 -39 -4t-27 11q-12 14 -28 38t-27 37
q-17 -14 -39 -31.5t-40 -31.5q-11 -7 -22.5 -12t-23.5 2z" />
    <glyph glyph-name="edieresis" unicode="&#xeb;" horiz-adv-x="405" 
d="M-7 117q0 68 16.5 143t48 137.5t76 103t101.5 40.5q22 0 50.5 -8.5t54 -27t43 -47.5t17.5 -70q0 -48 -13 -89.5t-33.5 -72.5t-46 -48.5t-49.5 -17.5q-22 0 -38 7t-26.5 15t-15.5 15.5t-6 9.5q0 -1 -3.5 -10t-7.5 -25t-7.5 -38t-3.5 -48q0 -37 15.5 -53.5t43.5 -16.5
q35 0 63.5 17.5t48.5 43t32.5 54t16.5 49.5q3 2 7 4q10 4 20 4q35 0 59.5 -14t24.5 -45q0 -30 -14.5 -66.5t-45 -68t-77 -52.5t-110.5 -21q-44 0 -87 13t-77.5 38t-55.5 61.5t-21 83.5zM185 273q1 -7 4 -11q2 -4 6.5 -7t11.5 -3q12 0 23 15.5t19 39t13 51.5t5 54
q1 28 -2.5 34.5t-7.5 6.5q-3 0 -6 -3t-8 -13q-17 -35 -33.5 -80.5t-24.5 -83.5zM130 620q-18 6 -31.5 16t-13.5 31q0 12 6.5 28.5t21.5 31.5t39 25.5t60 10.5q9 0 20.5 -3.5t21 -11.5t16 -20.5t6.5 -30.5q0 -11 -3.5 -29.5t-14 -36t-30 -30.5t-52.5 -13q-19 0 -30 6t-16 26z
M309 656q0 12 5.5 28.5t19.5 31t37.5 25t59.5 10.5q9 0 21 -3.5t22.5 -11.5t18 -20.5t7.5 -29.5q0 -11 -4 -31t-14.5 -39.5t-29 -34t-46.5 -14.5q-18 0 -35.5 9t-31 22t-22 28.5t-8.5 29.5z" />
    <glyph glyph-name="igrave" unicode="&#xec;" horiz-adv-x="292" 
d="M7 103q0 21 5 53t13 68t18.5 74t21.5 73t21 64t18 47q3 8 11 10.5t16 2.5q11 0 37 -5t51 -14.5t41.5 -24t10.5 -32.5q-9 -29 -21 -71.5t-24 -87.5t-21 -86.5t-10 -66.5q-2 -24 5 -36t16 -12q19 0 33.5 15.5t25 36.5t16.5 42.5t8 34.5q25 0 44 -7q17 -6 30.5 -19.5
t13.5 -39.5q0 -27 -18 -55.5t-49 -52.5t-71 -39.5t-85 -15.5q-72 0 -114.5 35t-42.5 109zM94 719q-8 11 -6.5 22.5t15.5 14.5q8 1 23 3.5t31.5 3t31 -3t20.5 -13.5q9 -14 20.5 -33.5t22 -38.5t18.5 -34.5t11 -20.5q6 -11 3.5 -22.5t-12.5 -13.5q-11 -2 -23 -4t-24 -2t-22 3
t-16 11z" />
    <glyph glyph-name="iacute" unicode="&#xed;" horiz-adv-x="292" 
d="M7 103q0 21 5 53t13 68t18.5 74t21.5 73t21 64t18 47q3 8 11 10.5t16 2.5q11 0 37 -5t51 -14.5t41.5 -24t10.5 -32.5q-9 -29 -21 -71.5t-24 -87.5t-21 -86.5t-10 -66.5q-2 -24 5 -36t16 -12q19 0 33.5 15.5t25 36.5t16.5 42.5t8 34.5q25 0 44 -7q17 -6 30.5 -19.5
t13.5 -39.5q0 -27 -18 -55.5t-49 -52.5t-71 -39.5t-85 -15.5q-72 0 -114.5 35t-42.5 109zM252 580q-8 -6 -25 -2t-33.5 12t-28 18t-6.5 16q13 17 27.5 35.5t28.5 35.5t29 30.5t30 21.5q17 9 42 4t45.5 -16t32 -24t1.5 -20q-48 -38 -85 -66t-58 -45z" />
    <glyph glyph-name="icircumflex" unicode="&#xee;" horiz-adv-x="292" 
d="M7 103q0 21 5 53t13 68t18.5 74t21.5 73t21 64t18 47q3 8 11 10.5t16 2.5q11 0 37 -5t51 -14.5t41.5 -24t10.5 -32.5q-9 -29 -21 -71.5t-24 -87.5t-21 -86.5t-10 -66.5q-2 -24 5 -36t16 -12q19 0 33.5 15.5t25 36.5t16.5 42.5t8 34.5q25 0 44 -7q17 -6 30.5 -19.5
t13.5 -39.5q0 -27 -18 -55.5t-49 -52.5t-71 -39.5t-85 -15.5q-72 0 -114.5 35t-42.5 109zM70 609q-28 16 -1 36q12 9 29 22.5t36 28t39 29.5t37 27l64 -9q12 -16 28.5 -38.5t32 -44t27 -38t14.5 -20.5q8 -10 4 -19t-15 -11q-20 -5 -39 -4t-27 11q-12 14 -28 38t-27 37
q-17 -14 -39 -31.5t-40 -31.5q-11 -7 -22.5 -12t-23.5 2z" />
    <glyph glyph-name="idieresis" unicode="&#xef;" horiz-adv-x="292" 
d="M7 103q0 21 5 53t13 68t18.5 74t21.5 73t21 64t18 47q3 8 11 10.5t16 2.5q11 0 37 -5t51 -14.5t41.5 -24t10.5 -32.5q-9 -29 -21 -71.5t-24 -87.5t-21 -86.5t-10 -66.5q-2 -24 5 -36t16 -12q19 0 33.5 15.5t25 36.5t16.5 42.5t8 34.5q25 0 44 -7q17 -6 30.5 -19.5
t13.5 -39.5q0 -27 -18 -55.5t-49 -52.5t-71 -39.5t-85 -15.5q-72 0 -114.5 35t-42.5 109zM63 618q-18 6 -31.5 16t-13.5 31q0 12 6.5 28.5t21.5 31.5t39 25.5t60 10.5q9 0 20.5 -3.5t21 -11.5t16 -20.5t6.5 -30.5q0 -11 -3.5 -29.5t-14 -36t-30 -30.5t-52.5 -13q-19 0 -30 6
t-16 26zM242 654q0 12 5.5 28.5t19.5 31t37.5 25t59.5 10.5q9 0 21 -3.5t22.5 -11.5t18 -20.5t7.5 -29.5q0 -11 -4 -31t-14.5 -39.5t-29 -34t-46.5 -14.5q-18 0 -35.5 9t-31 22t-22 28.5t-8.5 29.5z" />
    <glyph glyph-name="eth" unicode="&#xf0;" horiz-adv-x="548" 
d="M273 560q-11 -4 -25 3t-25 17.5t-15.5 21t3.5 14.5l60 26q-16 13 -31.5 23.5t-29.5 19.5q2 18 20 33.5t43 26t51.5 14t46.5 -3.5q15 -11 29.5 -23.5t27.5 -26.5q19 7 35 12.5t28 8.5q6 1 19 -8t23 -21.5t12.5 -23.5t-11.5 -14l-54 -18q34 -51 56 -110.5t30.5 -121.5
t3.5 -124t-24 -118q-27 -70 -76 -113t-106.5 -60.5t-116 -10t-103.5 37.5q-48 33 -77 86t-39 111.5t-2.5 114.5t33.5 94q18 25 44 44.5t56.5 30t64.5 10.5t67 -14q20 -9 38.5 -25.5t33.5 -36t26 -40t16 -36.5q6 71 -16 126t-57 97q-15 -6 -29.5 -12t-29.5 -11zM289 399
q-14 9 -26.5 3.5t-21.5 -21.5q-11 -19 -20 -46t-14.5 -57.5t-7 -61.5t2 -58t13.5 -47.5t27 -28.5q18 -9 36.5 1t35 32t29.5 52.5t19 61.5q-5 0 -13 1.5t-14 6.5q-5 3 -6 24.5t-4 48.5t-11 52.5t-25 36.5z" />
    <glyph glyph-name="ntilde" unicode="&#xf1;" horiz-adv-x="497" 
d="M282 268q-16 -29 -32.5 -67.5t-30.5 -79t-23.5 -79.5t-10.5 -69q-9 -5 -21 -9q-11 -4 -26 -6.5t-34 -2.5q-27 0 -44 10t-27 27t-14 41t-4 53q0 80 9 157.5t25 139t37.5 99t47.5 37.5q13 0 30 -3.5t31 -9.5t22.5 -13.5t6.5 -15.5q-17 -63 -31.5 -124t-19.5 -125h4
q31 72 63 147t74 145q3 6 12 13t29 7q16 0 40.5 -5.5t47 -15t38 -21t14.5 -23.5q-6 -39 -19 -85.5t-26.5 -95t-24 -95t-10.5 -85.5q0 -66 37 -66q11 0 22 12.5t20 29t15.5 33t9.5 25.5q20 1 37 -4q14 -5 25.5 -16.5t11.5 -34.5q0 -16 -12 -40t-35 -46t-55.5 -37.5
t-73.5 -15.5q-47 0 -77.5 13t-48.5 34t-25 47.5t-5 52.5q1 14 4.5 36t8 45.5t10 46t9.5 39.5h-11zM189 596q-7 0 -13.5 6t-11 14t-6 16.5t2.5 13.5q4 7 15 18.5t25 23t30.5 20t32.5 8.5q22 0 39.5 -6.5t31.5 -14.5t26 -14.5t24 -6.5q11 0 21 4.5t19 10t17 10t15 4.5
q6 0 12 -5t10 -12.5t5.5 -16.5t-2.5 -18q-3 -7 -14 -18.5t-26.5 -22.5t-34.5 -19t-39 -8t-38 6.5t-34 15t-29 15t-23 6.5q-7 0 -14.5 -4.5t-15 -10.5t-14 -10.5t-11.5 -4.5z" />
    <glyph glyph-name="ograve" unicode="&#xf2;" horiz-adv-x="490" 
d="M6 210q3 49 21.5 102.5t47.5 99.5t65 78t74 39q15 -5 25.5 -11.5t14.5 -14.5q6 3 15 6q8 2 17.5 4.5t22.5 2.5q63 0 100.5 -17t58 -45.5t26 -65.5t4.5 -76q-2 -28 -8.5 -65t-19.5 -76.5t-33.5 -77.5t-50 -68t-68.5 -48.5t-90 -18.5q-62 0 -105.5 23.5t-70 60.5
t-37.5 81.5t-9 86.5zM169 180q-5 -51 5.5 -86.5t38.5 -35.5q20 0 37 17.5t31 45t24.5 61t18 65.5t12 58t5.5 39q1 10 2 25t-0.5 29t-7 24t-18.5 10q-19 0 -37.5 -24.5t-34 -58t-26.5 -67.5t-15 -53q-1 -2 -11.5 1t-13.5 7q-2 -8 -4 -17q-2 -8 -3.5 -18t-2.5 -22zM212 723
q-8 11 -6.5 22.5t15.5 14.5q8 1 23 3.5t31.5 3t31 -3t20.5 -13.5q9 -14 20.5 -33.5t22 -38.5t18.5 -34.5t11 -20.5q6 -11 3.5 -22.5t-12.5 -13.5q-11 -2 -23 -4t-24 -2t-22 3t-16 11z" />
    <glyph glyph-name="oacute" unicode="&#xf3;" horiz-adv-x="490" 
d="M6 210q3 49 21.5 102.5t47.5 99.5t65 78t74 39q15 -5 25.5 -11.5t14.5 -14.5q6 3 15 6q8 2 17.5 4.5t22.5 2.5q63 0 100.5 -17t58 -45.5t26 -65.5t4.5 -76q-2 -28 -8.5 -65t-19.5 -76.5t-33.5 -77.5t-50 -68t-68.5 -48.5t-90 -18.5q-62 0 -105.5 23.5t-70 60.5
t-37.5 81.5t-9 86.5zM169 180q-5 -51 5.5 -86.5t38.5 -35.5q20 0 37 17.5t31 45t24.5 61t18 65.5t12 58t5.5 39q1 10 2 25t-0.5 29t-7 24t-18.5 10q-19 0 -37.5 -24.5t-34 -58t-26.5 -67.5t-15 -53q-1 -2 -11.5 1t-13.5 7q-2 -8 -4 -17q-2 -8 -3.5 -18t-2.5 -22zM358 578
q-8 -6 -25 -2t-33.5 12t-28 18t-6.5 16q13 17 27.5 35.5t28.5 35.5t29 30.5t30 21.5q17 9 42 4t45.5 -16t32 -24t1.5 -20q-48 -38 -85 -66t-58 -45z" />
    <glyph glyph-name="ocircumflex" unicode="&#xf4;" horiz-adv-x="490" 
d="M6 210q3 49 21.5 102.5t47.5 99.5t65 78t74 39q15 -5 25.5 -11.5t14.5 -14.5q6 3 15 6q8 2 17.5 4.5t22.5 2.5q63 0 100.5 -17t58 -45.5t26 -65.5t4.5 -76q-2 -28 -8.5 -65t-19.5 -76.5t-33.5 -77.5t-50 -68t-68.5 -48.5t-90 -18.5q-62 0 -105.5 23.5t-70 60.5
t-37.5 81.5t-9 86.5zM169 180q-5 -51 5.5 -86.5t38.5 -35.5q20 0 37 17.5t31 45t24.5 61t18 65.5t12 58t5.5 39q1 10 2 25t-0.5 29t-7 24t-18.5 10q-19 0 -37.5 -24.5t-34 -58t-26.5 -67.5t-15 -53q-1 -2 -11.5 1t-13.5 7q-2 -8 -4 -17q-2 -8 -3.5 -18t-2.5 -22zM187 615
q-28 16 -1 36q12 9 29 22.5t36 28t39 29.5t37 27l64 -9q12 -16 28.5 -38.5t32 -44t27 -38t14.5 -20.5q8 -10 4 -19t-15 -11q-20 -5 -39 -4t-27 11q-12 14 -28 38t-27 37q-17 -14 -39 -31.5t-40 -31.5q-11 -7 -22.5 -12t-23.5 2z" />
    <glyph glyph-name="otilde" unicode="&#xf5;" horiz-adv-x="490" 
d="M6 210q3 49 21.5 102.5t47.5 99.5t65 78t74 39q15 -5 25.5 -11.5t14.5 -14.5q6 3 15 6q8 2 17.5 4.5t22.5 2.5q63 0 100.5 -17t58 -45.5t26 -65.5t4.5 -76q-2 -28 -8.5 -65t-19.5 -76.5t-33.5 -77.5t-50 -68t-68.5 -48.5t-90 -18.5q-62 0 -105.5 23.5t-70 60.5
t-37.5 81.5t-9 86.5zM169 180q-5 -51 5.5 -86.5t38.5 -35.5q20 0 37 17.5t31 45t24.5 61t18 65.5t12 58t5.5 39q1 10 2 25t-0.5 29t-7 24t-18.5 10q-19 0 -37.5 -24.5t-34 -58t-26.5 -67.5t-15 -53q-1 -2 -11.5 1t-13.5 7q-2 -8 -4 -17q-2 -8 -3.5 -18t-2.5 -22zM207 593
q-7 0 -13.5 6t-11 14t-6 16.5t2.5 13.5q4 7 15 18.5t25 23t30.5 20t32.5 8.5q22 0 39.5 -6.5t31.5 -14.5t26 -14.5t24 -6.5q11 0 21 4.5t19 10t17 10t15 4.5q6 0 12 -5t10 -12.5t5.5 -16.5t-2.5 -18q-3 -7 -14 -18.5t-26.5 -22.5t-34.5 -19t-39 -8t-38 6.5t-34 15t-29 15
t-23 6.5q-7 0 -14.5 -4.5t-15 -10.5t-14 -10.5t-11.5 -4.5z" />
    <glyph glyph-name="odieresis" unicode="&#xf6;" horiz-adv-x="490" 
d="M6 210q3 49 21.5 102.5t47.5 99.5t65 78t74 39q15 -5 25.5 -11.5t14.5 -14.5q6 3 15 6q8 2 17.5 4.5t22.5 2.5q63 0 100.5 -17t58 -45.5t26 -65.5t4.5 -76q-2 -28 -8.5 -65t-19.5 -76.5t-33.5 -77.5t-50 -68t-68.5 -48.5t-90 -18.5q-62 0 -105.5 23.5t-70 60.5
t-37.5 81.5t-9 86.5zM169 180q-5 -51 5.5 -86.5t38.5 -35.5q20 0 37 17.5t31 45t24.5 61t18 65.5t12 58t5.5 39q1 10 2 25t-0.5 29t-7 24t-18.5 10q-19 0 -37.5 -24.5t-34 -58t-26.5 -67.5t-15 -53q-1 -2 -11.5 1t-13.5 7q-2 -8 -4 -17q-2 -8 -3.5 -18t-2.5 -22zM173 619
q-18 6 -31.5 16t-13.5 31q0 12 6.5 28.5t21.5 31.5t39 25.5t60 10.5q9 0 20.5 -3.5t21 -11.5t16 -20.5t6.5 -30.5q0 -11 -3.5 -29.5t-14 -36t-30 -30.5t-52.5 -13q-19 0 -30 6t-16 26zM352 655q0 12 5.5 28.5t19.5 31t37.5 25t59.5 10.5q9 0 21 -3.5t22.5 -11.5t18 -20.5
t7.5 -29.5q0 -11 -4 -31t-14.5 -39.5t-29 -34t-46.5 -14.5q-18 0 -35.5 9t-31 22t-22 28.5t-8.5 29.5z" />
    <glyph glyph-name="divide" unicode="&#xf7;" horiz-adv-x="538" 
d="M137 240q-10 -2 -20.5 6.5t-20.5 21.5t-18.5 28.5t-13 30t-4 24.5t7.5 12q41 10 95 18t107.5 13t99 7t69.5 1q5 0 13 -10t17 -25t16.5 -32.5t11 -32.5t1 -25t-14.5 -10q-51 -1 -96 -3t-87 -5.5t-82 -8t-81 -10.5zM226 493q-21 7 -36.5 18.5t-15.5 35.5q0 14 7.5 32.5
t24.5 35t45 28t69 11.5q10 0 23 -4t23.5 -13t18 -23t7.5 -33q0 -13 -4.5 -35t-16.5 -43.5t-33 -37.5t-53 -16q-33 0 -50 9t-9 35zM125 93q0 14 7.5 32.5t24.5 35t45 28t69 11.5q10 0 23 -4t23.5 -13t18 -23t7.5 -33q0 -13 -4.5 -35t-16.5 -43.5t-33 -37.5t-54 -16
q-21 0 -40.5 10t-35 24.5t-25 31.5t-9.5 32z" />
    <glyph glyph-name="oslash" unicode="&#xf8;" horiz-adv-x="490" 
d="M6 210q3 49 21.5 102.5t47.5 99.5t65 78t74 39q15 -5 25.5 -11.5t14.5 -14.5q6 3 15 6q8 2 17.5 4.5t22.5 2.5q43 0 75 -9q21 29 40 45.5t37 16.5q20 0 28.5 -12t4.5 -26q-11 -11 -23 -24.5t-25 -30.5q35 -29 44.5 -72.5t7.5 -91.5q-2 -28 -8.5 -65t-19.5 -76.5
t-33.5 -77.5t-50 -68t-68.5 -48.5t-90 -18.5q-46 0 -83 14q-19 -32 -34.5 -55.5t-26.5 -37.5q-17 -1 -29 9t-10 24q4 22 16 48.5t24 45.5q-22 19 -37.5 43.5t-25 51t-13.5 54.5t-3 55zM156 178q-2 -21 -2 -39.5t4 -34.5q48 83 92.5 171t85.5 159q-6 2 -10 2q-22 0 -44 -25
t-41 -59t-32.5 -68.5t-17.5 -53.5q-1 -2 -10 0.5t-13 5.5q-2 -8 -5 -17q-2 -8 -4 -18.5t-3 -22.5zM205 54q22 0 40.5 16t34 41t27.5 56.5t21 62.5t14.5 58.5t8.5 44.5q-41 -68 -81.5 -140.5t-76.5 -137.5q3 -1 12 -1z" />
    <glyph glyph-name="ugrave" unicode="&#xf9;" horiz-adv-x="526" 
d="M313 122q-8 -17 -21.5 -41.5t-32.5 -47t-42 -38.5t-50 -16q-25 0 -53 13t-52 33t-39.5 45.5t-15.5 51.5q0 29 5 68.5t13.5 82t19.5 84t24.5 74t27.5 52.5t28 20q54 0 85 -14t36 -23q-14 -41 -29 -91t-26.5 -99.5t-17 -93.5t-0.5 -72l11 -5q22 23 46.5 73.5t46.5 109
t39.5 115t25.5 91.5q3 14 41 14q16 0 36 -6.5t37 -16t28 -19.5t10 -16q-2 -12 -5.5 -34t-8.5 -50t-10 -59t-9.5 -60.5t-8 -55t-4.5 -41.5q-3 -28 5.5 -48.5t28.5 -20.5q15 0 27.5 15.5t21.5 35.5q11 22 19 51h15t25.5 -4.5t24.5 -15.5t11 -32t-13 -46t-37 -46.5t-57 -36
t-72 -14.5q-43 0 -68.5 12.5t-38.5 31.5t-16.5 42.5t-1.5 44.5zM192 719q-8 11 -6.5 22.5t15.5 14.5q8 1 23 3.5t31.5 3t31 -3t20.5 -13.5q9 -14 20.5 -33.5t22 -38.5t18.5 -34.5t11 -20.5q6 -11 3.5 -22.5t-12.5 -13.5q-11 -2 -23 -4t-24 -2t-22 3t-16 11z" />
    <glyph glyph-name="uacute" unicode="&#xfa;" horiz-adv-x="526" 
d="M313 122q-8 -17 -21.5 -41.5t-32.5 -47t-42 -38.5t-50 -16q-25 0 -53 13t-52 33t-39.5 45.5t-15.5 51.5q0 29 5 68.5t13.5 82t19.5 84t24.5 74t27.5 52.5t28 20q54 0 85 -14t36 -23q-14 -41 -29 -91t-26.5 -99.5t-17 -93.5t-0.5 -72l11 -5q22 23 46.5 73.5t46.5 109
t39.5 115t25.5 91.5q3 14 41 14q16 0 36 -6.5t37 -16t28 -19.5t10 -16q-2 -12 -5.5 -34t-8.5 -50t-10 -59t-9.5 -60.5t-8 -55t-4.5 -41.5q-3 -28 5.5 -48.5t28.5 -20.5q15 0 27.5 15.5t21.5 35.5q11 22 19 51h15t25.5 -4.5t24.5 -15.5t11 -32t-13 -46t-37 -46.5t-57 -36
t-72 -14.5q-43 0 -68.5 12.5t-38.5 31.5t-16.5 42.5t-1.5 44.5zM336 582q-8 -6 -25 -2t-33.5 12t-28 18t-6.5 16q13 17 27.5 35.5t28.5 35.5t29 30.5t30 21.5q17 9 42 4t45.5 -16t32 -24t1.5 -20q-48 -38 -85 -66t-58 -45z" />
    <glyph glyph-name="ucircumflex" unicode="&#xfb;" horiz-adv-x="526" 
d="M313 122q-8 -17 -21.5 -41.5t-32.5 -47t-42 -38.5t-50 -16q-25 0 -53 13t-52 33t-39.5 45.5t-15.5 51.5q0 29 5 68.5t13.5 82t19.5 84t24.5 74t27.5 52.5t28 20q54 0 85 -14t36 -23q-14 -41 -29 -91t-26.5 -99.5t-17 -93.5t-0.5 -72l11 -5q22 23 46.5 73.5t46.5 109
t39.5 115t25.5 91.5q3 14 41 14q16 0 36 -6.5t37 -16t28 -19.5t10 -16q-2 -12 -5.5 -34t-8.5 -50t-10 -59t-9.5 -60.5t-8 -55t-4.5 -41.5q-3 -28 5.5 -48.5t28.5 -20.5q15 0 27.5 15.5t21.5 35.5q11 22 19 51h15t25.5 -4.5t24.5 -15.5t11 -32t-13 -46t-37 -46.5t-57 -36
t-72 -14.5q-43 0 -68.5 12.5t-38.5 31.5t-16.5 42.5t-1.5 44.5zM175 614q-28 16 -1 36q12 9 29 22.5t36 28t39 29.5t37 27l64 -9q12 -16 28.5 -38.5t32 -44t27 -38t14.5 -20.5q8 -10 4 -19t-15 -11q-20 -5 -39 -4t-27 11q-12 14 -28 38t-27 37q-17 -14 -39 -31.5t-40 -31.5
q-11 -7 -22.5 -12t-23.5 2z" />
    <glyph glyph-name="udieresis" unicode="&#xfc;" horiz-adv-x="526" 
d="M313 122q-8 -17 -21.5 -41.5t-32.5 -47t-42 -38.5t-50 -16q-25 0 -53 13t-52 33t-39.5 45.5t-15.5 51.5q0 29 5 68.5t13.5 82t19.5 84t24.5 74t27.5 52.5t28 20q54 0 85 -14t36 -23q-14 -41 -29 -91t-26.5 -99.5t-17 -93.5t-0.5 -72l11 -5q22 23 46.5 73.5t46.5 109
t39.5 115t25.5 91.5q3 14 41 14q16 0 36 -6.5t37 -16t28 -19.5t10 -16q-2 -12 -5.5 -34t-8.5 -50t-10 -59t-9.5 -60.5t-8 -55t-4.5 -41.5q-3 -28 5.5 -48.5t28.5 -20.5q15 0 27.5 15.5t21.5 35.5q11 22 19 51h15t25.5 -4.5t24.5 -15.5t11 -32t-13 -46t-37 -46.5t-57 -36
t-72 -14.5q-43 0 -68.5 12.5t-38.5 31.5t-16.5 42.5t-1.5 44.5zM165 620q-18 6 -31.5 16t-13.5 31q0 12 6.5 28.5t21.5 31.5t39 25.5t60 10.5q9 0 20.5 -3.5t21 -11.5t16 -20.5t6.5 -30.5q0 -11 -3.5 -29.5t-14 -36t-30 -30.5t-52.5 -13q-19 0 -30 6t-16 26zM344 656
q0 12 5.5 28.5t19.5 31t37.5 25t59.5 10.5q9 0 21 -3.5t22.5 -11.5t18 -20.5t7.5 -29.5q0 -11 -4 -31t-14.5 -39.5t-29 -34t-46.5 -14.5q-18 0 -35.5 9t-31 22t-22 28.5t-8.5 29.5z" />
    <glyph glyph-name="yacute" unicode="&#xfd;" horiz-adv-x="468" 
d="M7 140q0 45 6 91t16 89t24 82t30 72q23 38 70 38q19 0 38 -5t34 -12.5t24 -16.5t9 -18q-25 -77 -49.5 -156t-29.5 -158q-2 -17 1 -31t14 -14q10 0 22 14t23 34t19.5 41t12.5 36q2 9 7.5 33t12 55.5t14 65.5t16 62t16 46.5t14.5 18.5q24 0 49 -4.5t46 -11.5t34.5 -16
t13.5 -17q0 -36 -9 -75t-20.5 -76t-22.5 -68t-15 -50q-8 -38 -18.5 -90.5t-20.5 -107t-18.5 -105.5t-12.5 -85q-6 -26 -14.5 -31.5t-20.5 -5.5q-6 0 -21.5 4t-34 9.5t-35.5 11.5t-26 9q-10 4 -12.5 8.5t-2.5 16.5q0 14 6.5 42.5t15 62t17 68.5t13.5 63q-16 -23 -44.5 -43
t-66.5 -20t-62 14t-38 35.5t-19 47t-5 47.5zM336 578q-8 -6 -25 -2t-33.5 12t-28 18t-6.5 16q13 17 27.5 35.5t28.5 35.5t29 30.5t30 21.5q17 9 42 4t45.5 -16t32 -24t1.5 -20q-48 -38 -85 -66t-58 -45z" />
    <glyph glyph-name="thorn" unicode="&#xfe;" horiz-adv-x="423" 
d="M-34 175q12 59 26 123.5t28.5 127t29.5 118.5t27.5 99t23.5 69t17 27q18 3 42 -1t45 -12t35.5 -19.5t14.5 -21.5q-6 -17 -18 -50t-25 -71t-25 -74.5t-18 -59.5q13 18 25.5 33.5t26 27.5t29.5 18.5t36 6.5q33 0 64 -16t55 -42t38.5 -59.5t14.5 -68.5q0 -21 -5 -56
t-16.5 -75.5t-30.5 -81.5t-46.5 -74.5t-64.5 -54.5t-85 -21q-34 0 -67 15.5t-56 35.5q-5 -28 -9 -62t-7.5 -65.5t-6 -56.5t-3.5 -34q-6 -21 -16 -25t-20 -4q-6 0 -22 4t-34 9.5t-34.5 10.5t-23.5 8q-12 4 -10 37t12 85t25 117t28 133zM142 232q-3 -11 -6 -26
q-2 -13 -4.5 -31t-4.5 -41q-2 -26 9.5 -44.5t30.5 -18.5q23 0 41 22t32 54.5t24 71t16.5 72.5t9.5 57t3 26q1 20 -0.5 36.5t-17.5 16.5q-19 0 -37 -24t-32.5 -56.5t-24.5 -66.5t-11 -54q0 -1 -4.5 -2t-5.5 -1z" />
    <glyph glyph-name="ydieresis" unicode="&#xff;" horiz-adv-x="468" 
d="M7 140q0 45 6 91t16 89t24 82t30 72q23 38 70 38q19 0 38 -5t34 -12.5t24 -16.5t9 -18q-25 -77 -49.5 -156t-29.5 -158q-2 -17 1 -31t14 -14q10 0 22 14t23 34t19.5 41t12.5 36q2 9 7.5 33t12 55.5t14 65.5t16 62t16 46.5t14.5 18.5q24 0 49 -4.5t46 -11.5t34.5 -16
t13.5 -17q0 -36 -9 -75t-20.5 -76t-22.5 -68t-15 -50q-8 -38 -18.5 -90.5t-20.5 -107t-18.5 -105.5t-12.5 -85q-6 -26 -14.5 -31.5t-20.5 -5.5q-6 0 -21.5 4t-34 9.5t-35.5 11.5t-26 9q-10 4 -12.5 8.5t-2.5 16.5q0 14 6.5 42.5t15 62t17 68.5t13.5 63q-16 -23 -44.5 -43
t-66.5 -20t-62 14t-38 35.5t-19 47t-5 47.5zM169 619q-18 6 -31.5 16t-13.5 31q0 12 6.5 28.5t21.5 31.5t39 25.5t60 10.5q9 0 20.5 -3.5t21 -11.5t16 -20.5t6.5 -30.5q0 -11 -3.5 -29.5t-14 -36t-30 -30.5t-52.5 -13q-19 0 -30 6t-16 26zM348 655q0 12 5.5 28.5t19.5 31
t37.5 25t59.5 10.5q9 0 21 -3.5t22.5 -11.5t18 -20.5t7.5 -29.5q0 -11 -4 -31t-14.5 -39.5t-29 -34t-46.5 -14.5q-18 0 -35.5 9t-31 22t-22 28.5t-8.5 29.5z" />
    <glyph glyph-name="Amacron" unicode="&#x100;" horiz-adv-x="595" 
d="M396 119q-1 22 -1 44.5v45.5q-48 -3 -99 -8t-99 -11q-25 -59 -46.5 -126t-38.5 -145q-2 -7 -15 -8.5t-31.5 1t-40 8.5t-40 13.5t-31.5 16t-14 15.5q6 45 25 103t47 123q-8 11 -14 25t-9 26.5t-2.5 22.5t6.5 13q8 5 27 10t45 10q38 70 83.5 138t95.5 126t102.5 101.5
t105.5 64.5q19 5 41.5 1t44 -12.5t39 -19t25.5 -17.5q-22 -99 -32 -205.5t-11.5 -204t3 -177t11.5 -123.5q-1 -14 -25.5 -12.5t-55.5 10t-58 21t-33 20.5q-7 10 -11 24t-6 29t-2.5 29t0.5 25zM432 557q-38 -38 -82 -94.5t-87 -134.5q14 2 27 2.5t24 1.5q20 1 47 3t42 -1
q10 101 36 222zM345 840q29 6 66.5 10t76 5.5t73.5 1.5t59 -1q7 0 20.5 -15.5t22.5 -33.5t9.5 -33t-16.5 -15q-74 2 -133.5 2t-115.5 -6q-15 -2 -30.5 10.5t-26 28t-13.5 30t8 16.5z" />
    <glyph glyph-name="amacron" unicode="&#x101;" horiz-adv-x="543" 
d="M355 46q-9 -13 -22.5 -26t-31 -23.5t-38 -17t-43.5 -6.5q-47 0 -85 13.5t-66 40t-43 64.5t-15 87q0 65 16.5 128.5t49 113.5t79.5 81t109 31q43 0 78 -8t60 -21t38.5 -30t13.5 -35q0 -3 -0.5 -6t-0.5 -5q-1 -3 -1 -5q5 -1 17 -2t24 -4t20.5 -7.5t5.5 -13.5
q-22 -68 -36 -137t-16 -125q-2 -29 3.5 -50.5t22.5 -21.5q15 0 25.5 10t17 26.5t10.5 38.5t6 46q26 2 46 -3q17 -5 32 -19t15 -43q0 -23 -10 -49.5t-31 -49t-53 -37t-75 -14.5q-34 0 -56 9t-34.5 21.5t-18 26t-6.5 22.5h-7zM188 144q-4 -41 1 -57.5t19 -16.5q11 0 23 15.5
t23 39.5t21 52.5t17.5 55t12 47t5.5 28.5q-8 1 -14 4q-5 2 -11 6t-9 9q14 21 21.5 42.5t10.5 44.5q1 6 0 17t-12 11q-14 0 -26.5 -16t-24 -41.5t-21.5 -57.5t-17.5 -65t-12 -64t-6.5 -54zM163 681q29 6 66.5 10t76 5.5t73.5 1.5t59 -1q7 0 20.5 -15.5t22.5 -33.5t9.5 -33
t-16.5 -15q-74 2 -133.5 2t-115.5 -6q-15 -2 -30.5 10.5t-26 28t-13.5 30t8 16.5z" />
    <glyph glyph-name="Abreve" unicode="&#x102;" horiz-adv-x="595" 
d="M396 119q-1 22 -1 44.5v45.5q-48 -3 -99 -8t-99 -11q-25 -59 -46.5 -126t-38.5 -145q-2 -7 -15 -8.5t-31.5 1t-40 8.5t-40 13.5t-31.5 16t-14 15.5q6 45 25 103t47 123q-8 11 -14 25t-9 26.5t-2.5 22.5t6.5 13q8 5 27 10t45 10q38 70 83.5 138t95.5 126t102.5 101.5
t105.5 64.5q19 5 41.5 1t44 -12.5t39 -19t25.5 -17.5q-22 -99 -32 -205.5t-11.5 -204t3 -177t11.5 -123.5q-1 -14 -25.5 -12.5t-55.5 10t-58 21t-33 20.5q-7 10 -11 24t-6 29t-2.5 29t0.5 25zM432 557q-38 -38 -82 -94.5t-87 -134.5q14 2 27 2.5t24 1.5q20 1 47 3t42 -1
q10 101 36 222zM591 897q3 5 20.5 4.5t38 -5t37 -12.5t17.5 -17q-6 -20 -20.5 -40.5t-35 -37t-47 -26.5t-56.5 -10q-29 0 -51.5 7.5t-39 19.5t-27.5 26t-17 27q-4 10 -4 22t4.5 21.5t14.5 15.5t27 3q9 -21 24.5 -41.5t43.5 -20.5t44.5 21t26.5 43z" />
    <glyph glyph-name="abreve" unicode="&#x103;" horiz-adv-x="543" 
d="M355 46q-9 -13 -22.5 -26t-31 -23.5t-38 -17t-43.5 -6.5q-47 0 -85 13.5t-66 40t-43 64.5t-15 87q0 65 16.5 128.5t49 113.5t79.5 81t109 31q43 0 78 -8t60 -21t38.5 -30t13.5 -35q0 -3 -0.5 -6t-0.5 -5q-1 -3 -1 -5q5 -1 17 -2t24 -4t20.5 -7.5t5.5 -13.5
q-22 -68 -36 -137t-16 -125q-2 -29 3.5 -50.5t22.5 -21.5q15 0 25.5 10t17 26.5t10.5 38.5t6 46q26 2 46 -3q17 -5 32 -19t15 -43q0 -23 -10 -49.5t-31 -49t-53 -37t-75 -14.5q-34 0 -56 9t-34.5 21.5t-18 26t-6.5 22.5h-7zM188 144q-4 -41 1 -57.5t19 -16.5q11 0 23 15.5
t23 39.5t21 52.5t17.5 55t12 47t5.5 28.5q-8 1 -14 4q-5 2 -11 6t-9 9q14 21 21.5 42.5t10.5 44.5q1 6 0 17t-12 11q-14 0 -26.5 -16t-24 -41.5t-21.5 -57.5t-17.5 -65t-12 -64t-6.5 -54zM382 727q3 5 20.5 4.5t38 -5t37 -12.5t17.5 -17q-6 -20 -20.5 -40.5t-35 -37
t-47 -26.5t-56.5 -10q-29 0 -51.5 7.5t-39 19.5t-27.5 26t-17 27q-4 10 -4 22t4.5 21.5t14.5 15.5t27 3q9 -21 24.5 -41.5t43.5 -20.5t44.5 21t26.5 43z" />
    <glyph glyph-name="Aogonek" unicode="&#x104;" horiz-adv-x="595" 
d="M326 -99q0 41 22 67.5t52 41.5q-6 10 -10 24t-6 28.5t-2.5 28.5t0.5 25l14 3q-1 22 -1 44.5v45.5q-48 -3 -99 -8t-99 -11q-25 -59 -46.5 -126t-38.5 -145q-2 -7 -15 -8.5t-31.5 1t-40 8.5t-40 13.5t-31.5 16t-14 15.5q6 45 25 103t47 123q-8 11 -14 25t-9 26.5t-2.5 22.5
t6.5 13q8 5 27 10t45 10q38 70 83.5 138t95.5 126t102.5 101.5t105.5 64.5q19 5 41.5 1t44 -12.5t39 -19t25.5 -17.5q-22 -99 -32 -205.5t-11.5 -204t3 -177t11.5 -123.5q-1 -10 -15 -11.5t-34 1.5q-12 -4 -30 -8.5t-35.5 -13.5t-29.5 -23.5t-12 -37.5q0 -15 12.5 -23.5
t29.5 -8.5q26 0 52.5 12t39.5 28q8 -2 19 -7t21 -13t17 -18.5t7 -23.5q0 -6 -5.5 -14.5t-19.5 -16t-38 -12.5t-61 -5t-67.5 10t-52 27t-33.5 40t-12 49zM432 557q-38 -38 -82 -94.5t-87 -134.5q14 2 27 2.5t24 1.5q20 1 47 3t42 -1q10 101 36 222z" />
    <glyph glyph-name="aogonek" unicode="&#x105;" horiz-adv-x="543" 
d="M337 -83q0 29 10.5 50t28.5 37q-9 11 -11 22.5t-3 19.5h-7q-9 -13 -22.5 -26t-31 -23.5t-38 -17t-43.5 -6.5q-47 0 -85 13.5t-66 40t-43 64.5t-15 87q0 65 16.5 128.5t49 113.5t79.5 81t109 31q43 0 78 -8t60 -21t38.5 -30t13.5 -35q0 -3 -0.5 -6t-0.5 -5q-1 -3 -1 -5
q5 -1 17 -2t24 -4t20.5 -7.5t5.5 -13.5q-22 -68 -36 -137t-16 -125q-2 -29 3.5 -50.5t22.5 -21.5q15 0 25.5 10t17 26.5t10.5 38.5t6 46q26 2 46 -3q17 -5 32 -19t15 -43q0 -23 -10 -49.5t-31 -49t-52 -37t-73 -14.5q-35 0 -50 -20.5t-15 -45.5q0 -20 16 -30t39 -10
q26 0 52.5 12t39.5 28q8 -2 19 -7t21 -13t17 -18.5t7 -23.5q0 -6 -5.5 -14.5t-19.5 -16t-38 -12.5t-61 -5t-67.5 10t-52 27t-33.5 40t-12 49zM188 144q-4 -41 1 -57.5t19 -16.5q11 0 23 15.5t23 39.5t21 52.5t17.5 55t12 47t5.5 28.5q-8 1 -14 4q-5 2 -11 6t-9 9
q14 21 21.5 42.5t10.5 44.5q1 6 0 17t-12 11q-14 0 -26.5 -16t-24 -41.5t-21.5 -57.5t-17.5 -65t-12 -64t-6.5 -54z" />
    <glyph glyph-name="Cacute" unicode="&#x106;" horiz-adv-x="586" 
d="M15 242q0 51 11.5 106t33 108t53 100.5t72.5 83t90.5 56.5t106.5 21q34 0 70.5 -12t66.5 -33.5t49.5 -52.5t19.5 -68q0 -39 -12 -70t-31 -53t-42 -33.5t-45 -11.5t-37.5 6t-26 15t-16.5 19t-9 18q19 22 34 47q13 21 23 47.5t11 53.5q0 16 -8.5 24.5t-22.5 8.5
q-19 0 -42 -17t-46.5 -46.5t-45.5 -69.5t-39 -86.5t-27.5 -97t-10.5 -101.5q0 -77 24.5 -109.5t67.5 -32.5q38 0 65 23t45 56.5t28 72.5t15 72q10 3 22 7q11 2 25 4.5t32 2.5q33 0 56.5 -22t23.5 -70q0 -36 -16.5 -81t-50.5 -85t-87 -67.5t-125 -27.5q-71 0 -127.5 20.5
t-96 59t-60.5 93t-21 122.5zM449 757q-8 -6 -25 -2t-33.5 12t-28 18t-6.5 16q13 17 27.5 35.5t28.5 35.5t29 30.5t30 21.5q17 9 42 4t45.5 -16t32 -24t1.5 -20q-48 -38 -85 -66t-58 -45z" />
    <glyph glyph-name="cacute" unicode="&#x107;" horiz-adv-x="442" 
d="M10 175q0 51 15 109t45.5 106.5t76.5 81t109 32.5q29 0 61 -9t59 -25.5t44.5 -40.5t17.5 -54q0 -69 -29 -107.5t-70 -38.5q-29 0 -46 12t-23 32v6q9 18 18 37q7 17 13.5 37.5t8.5 42.5q0 20 -14 20q-16 0 -33.5 -20t-32 -54.5t-24 -81t-9.5 -100.5q0 -34 6.5 -56.5
t17 -36t25 -19t31.5 -5.5q29 0 53 14t41.5 36.5t28.5 50t14 54.5q6 3 14 6q7 2 15.5 4t18.5 2q29 0 48 -20t19 -55q0 -24 -14 -56t-45 -61.5t-80 -50t-119 -20.5q-52 0 -99.5 15.5t-83.5 45t-57 72t-21 95.5zM347 577q-8 -6 -25 -2t-33.5 12t-28 18t-6.5 16q13 17 27.5 35.5
t28.5 35.5t29 30.5t30 21.5q17 9 42 4t45.5 -16t32 -24t1.5 -20q-48 -38 -85 -66t-58 -45z" />
    <glyph glyph-name="Ccircumflex" unicode="&#x108;" horiz-adv-x="586" 
d="M15 242q0 51 11.5 106t33 108t53 100.5t72.5 83t90.5 56.5t106.5 21q34 0 70.5 -12t66.5 -33.5t49.5 -52.5t19.5 -68q0 -39 -12 -70t-31 -53t-42 -33.5t-45 -11.5t-37.5 6t-26 15t-16.5 19t-9 18q19 22 34 47q13 21 23 47.5t11 53.5q0 16 -8.5 24.5t-22.5 8.5
q-19 0 -42 -17t-46.5 -46.5t-45.5 -69.5t-39 -86.5t-27.5 -97t-10.5 -101.5q0 -77 24.5 -109.5t67.5 -32.5q38 0 65 23t45 56.5t28 72.5t15 72q10 3 22 7q11 2 25 4.5t32 2.5q33 0 56.5 -22t23.5 -70q0 -36 -16.5 -81t-50.5 -85t-87 -67.5t-125 -27.5q-71 0 -127.5 20.5
t-96 59t-60.5 93t-21 122.5zM265 781q-28 16 -1 36q12 9 29 22.5t36 28t39 29.5t37 27l64 -9q12 -16 28.5 -38.5t32 -44t27 -38t14.5 -20.5q8 -10 4 -19t-15 -11q-20 -5 -39 -4t-27 11q-12 14 -28 38t-27 37q-17 -14 -39 -31.5t-40 -31.5q-11 -7 -22.5 -12t-23.5 2z" />
    <glyph glyph-name="ccircumflex" unicode="&#x109;" horiz-adv-x="442" 
d="M10 175q0 51 15 109t45.5 106.5t76.5 81t109 32.5q29 0 61 -9t59 -25.5t44.5 -40.5t17.5 -54q0 -69 -29 -107.5t-70 -38.5q-29 0 -46 12t-23 32v6q9 18 18 37q7 17 13.5 37.5t8.5 42.5q0 20 -14 20q-16 0 -33.5 -20t-32 -54.5t-24 -81t-9.5 -100.5q0 -34 6.5 -56.5
t17 -36t25 -19t31.5 -5.5q29 0 53 14t41.5 36.5t28.5 50t14 54.5q6 3 14 6q7 2 15.5 4t18.5 2q29 0 48 -20t19 -55q0 -24 -14 -56t-45 -61.5t-80 -50t-119 -20.5q-52 0 -99.5 15.5t-83.5 45t-57 72t-21 95.5zM167 608q-28 16 -1 36q12 9 29 22.5t36 28t39 29.5t37 27l64 -9
q12 -16 28.5 -38.5t32 -44t27 -38t14.5 -20.5q8 -10 4 -19t-15 -11q-20 -5 -39 -4t-27 11q-12 14 -28 38t-27 37q-17 -14 -39 -31.5t-40 -31.5q-11 -7 -22.5 -12t-23.5 2z" />
    <glyph glyph-name="Cdotaccent" unicode="&#x10a;" horiz-adv-x="586" 
d="M15 242q0 51 11.5 106t33 108t53 100.5t72.5 83t90.5 56.5t106.5 21q34 0 70.5 -12t66.5 -33.5t49.5 -52.5t19.5 -68q0 -39 -12 -70t-31 -53t-42 -33.5t-45 -11.5t-37.5 6t-26 15t-16.5 19t-9 18q19 22 34 47q13 21 23 47.5t11 53.5q0 16 -8.5 24.5t-22.5 8.5
q-19 0 -42 -17t-46.5 -46.5t-45.5 -69.5t-39 -86.5t-27.5 -97t-10.5 -101.5q0 -77 24.5 -109.5t67.5 -32.5q38 0 65 23t45 56.5t28 72.5t15 72q10 3 22 7q11 2 25 4.5t32 2.5q33 0 56.5 -22t23.5 -70q0 -36 -16.5 -81t-50.5 -85t-87 -67.5t-125 -27.5q-71 0 -127.5 20.5
t-96 59t-60.5 93t-21 122.5zM395 779q-19 6 -32.5 16t-13.5 31q0 12 6.5 28.5t21.5 31.5t39.5 25.5t60.5 10.5q9 0 20 -3.5t20.5 -11.5t16 -20.5t6.5 -30.5q0 -11 -3.5 -29.5t-14 -36t-30 -30.5t-52.5 -13q-19 0 -30 6t-15 26z" />
    <glyph glyph-name="cdotaccent" unicode="&#x10b;" horiz-adv-x="442" 
d="M10 175q0 51 15 109t45.5 106.5t76.5 81t109 32.5q29 0 61 -9t59 -25.5t44.5 -40.5t17.5 -54q0 -69 -29 -107.5t-70 -38.5q-29 0 -46 12t-23 32v6q9 18 18 37q7 17 13.5 37.5t8.5 42.5q0 20 -14 20q-16 0 -33.5 -20t-32 -54.5t-24 -81t-9.5 -100.5q0 -34 6.5 -56.5
t17 -36t25 -19t31.5 -5.5q29 0 53 14t41.5 36.5t28.5 50t14 54.5q6 3 14 6q7 2 15.5 4t18.5 2q29 0 48 -20t19 -55q0 -24 -14 -56t-45 -61.5t-80 -50t-119 -20.5q-52 0 -99.5 15.5t-83.5 45t-57 72t-21 95.5zM294 602q-19 6 -32.5 16t-13.5 31q0 12 6.5 28.5t21.5 31.5
t39.5 25.5t60.5 10.5q9 0 20 -3.5t20.5 -11.5t16 -20.5t6.5 -30.5q0 -11 -3.5 -29.5t-14 -36t-30 -30.5t-52.5 -13q-19 0 -30 6t-15 26z" />
    <glyph glyph-name="Ccaron" unicode="&#x10c;" horiz-adv-x="586" 
d="M15 242q0 51 11.5 106t33 108t53 100.5t72.5 83t90.5 56.5t106.5 21q34 0 70.5 -12t66.5 -33.5t49.5 -52.5t19.5 -68q0 -39 -12 -70t-31 -53t-42 -33.5t-45 -11.5t-37.5 6t-26 15t-16.5 19t-9 18q19 22 34 47q13 21 23 47.5t11 53.5q0 16 -8.5 24.5t-22.5 8.5
q-19 0 -42 -17t-46.5 -46.5t-45.5 -69.5t-39 -86.5t-27.5 -97t-10.5 -101.5q0 -77 24.5 -109.5t67.5 -32.5q38 0 65 23t45 56.5t28 72.5t15 72q10 3 22 7q11 2 25 4.5t32 2.5q33 0 56.5 -22t23.5 -70q0 -36 -16.5 -81t-50.5 -85t-87 -67.5t-125 -27.5q-71 0 -127.5 20.5
t-96 59t-60.5 93t-21 122.5zM601 888q14 -6 14.5 -16t-13.5 -20q-12 -9 -29 -22.5t-36 -28t-39 -29.5t-37 -27l-64 9q-12 16 -29 39t-33 44.5t-28 38.5t-15 21q-8 10 -4 19.5t14 11.5q21 5 40 3.5t27 -10.5q6 -7 13.5 -17.5t15.5 -22t15.5 -22t12.5 -16.5q17 14 39.5 31
t40.5 31q10 8 22 12.5t24 -2.5z" />
    <glyph glyph-name="ccaron" unicode="&#x10d;" horiz-adv-x="442" 
d="M10 175q0 51 15 109t45.5 106.5t76.5 81t109 32.5q29 0 61 -9t59 -25.5t44.5 -40.5t17.5 -54q0 -69 -29 -107.5t-70 -38.5q-29 0 -46 12t-23 32v6q9 18 18 37q7 17 13.5 37.5t8.5 42.5q0 20 -14 20q-16 0 -33.5 -20t-32 -54.5t-24 -81t-9.5 -100.5q0 -34 6.5 -56.5
t17 -36t25 -19t31.5 -5.5q29 0 53 14t41.5 36.5t28.5 50t14 54.5q6 3 14 6q7 2 15.5 4t18.5 2q29 0 48 -20t19 -55q0 -24 -14 -56t-45 -61.5t-80 -50t-119 -20.5q-52 0 -99.5 15.5t-83.5 45t-57 72t-21 95.5zM502 715q14 -6 14.5 -16t-13.5 -20q-12 -9 -29 -22.5t-36 -28
t-39 -29.5t-37 -27l-64 9q-12 16 -29 39t-33 44.5t-28 38.5t-15 21q-8 10 -4 19.5t14 11.5q21 5 40 3.5t27 -10.5q6 -7 13.5 -17.5t15.5 -22t15.5 -22t12.5 -16.5q17 14 39.5 31t40.5 31q10 8 22 12.5t24 -2.5z" />
    <glyph glyph-name="Dcaron" unicode="&#x10e;" horiz-adv-x="746" 
d="M139 85q6 -17 19 -33.5t32.5 -30.5t46 -22.5t59.5 -8.5q54 0 105 31t90.5 86t63.5 130t24 163q0 66 -27 111.5t-73 67.5q-16 -62 -32.5 -136t-31.5 -143.5t-26.5 -126.5t-16.5 -85q-6 -27 -18.5 -37t-31.5 -10q-24 0 -46.5 5.5t-40.5 12.5t-29.5 13.5t-14.5 9.5
q10 57 25 125t32.5 136.5t35.5 132t33 112.5q-31 -9 -54 -26t-39 -37.5t-26 -43.5t-15 -45q0 -1 -5 -1q-4 0 -23.5 2t-41 7.5t-40 13.5t-21.5 20q13 58 49 104q15 19 37.5 38t53 34t70 25t90.5 11q3 11 12 25t35 14q18 0 36.5 -3t34 -7.5t27.5 -10t18 -9.5l-10 -27
q59 -16 107 -45.5t81.5 -71t51.5 -93t18 -111.5q0 -108 -35 -193t-94 -143.5t-136 -89.5t-160 -31q-81 0 -151.5 21t-123.5 54t-85 74t-35 81q7 11 23 23.5t35 21.5t37.5 12.5t29.5 -3.5q8 -5 21 -14.5t26 -19.5t22 -20t10 -17t-4.5 -12t-3.5 -10zM637 890q14 -6 14.5 -16
t-13.5 -20q-12 -9 -29 -22.5t-36 -28t-39 -29.5t-37 -27l-64 9q-12 16 -29 39t-33 44.5t-28 38.5t-15 21q-8 10 -4 19.5t14 11.5q21 5 40 3.5t27 -10.5q6 -7 13.5 -17.5t15.5 -22t15.5 -22t12.5 -16.5q17 14 39.5 31t40.5 31q10 8 22 12.5t24 -2.5z" />
    <glyph glyph-name="dcaron" unicode="&#x10f;" horiz-adv-x="673" 
d="M353 61q-8 -15 -20.5 -34.5t-30.5 -36.5t-42 -28.5t-54 -11.5q-49 0 -85 19t-59.5 49t-35 66.5t-11.5 72.5q0 33 6.5 72.5t19 79.5t32.5 78t47 67t62 46.5t77 17.5q26 0 47 -7t36 -15q17 -10 30 -22q5 24 10 52.5t9.5 56t8.5 51t7 37.5q6 35 15.5 57t26.5 22
q14 0 38 -3.5t47.5 -11t39.5 -19.5t13 -28q-5 -33 -14.5 -83t-21.5 -107t-24 -117t-22 -113t-16.5 -95.5t-6.5 -64.5q0 -42 26 -42q15 0 27.5 14t21.5 34t15 43.5t8 43.5q23 4 41 0q16 -4 29 -16.5t13 -41.5q0 -26 -16 -56t-43.5 -55.5t-65.5 -42t-82 -16.5q-24 0 -42.5 8
t-31 21t-19 28.5t-6.5 30.5h-4zM175 109v-16.5t1.5 -18.5t4.5 -15.5t9 -6.5q11 0 24 15.5t26.5 39.5t26 53.5t22.5 56.5t16.5 49t6.5 32q-6 1 -12 4t-11 13q7 17 16 41t10 45q2 11 -0.5 20.5t-11.5 9.5q-22 0 -43.5 -33t-39.5 -82t-30 -105t-15 -102zM626 665q0 29 27 48.5
t72 19.5q38 0 67 -20.5t29 -61.5q0 -20 -8.5 -39.5t-23 -35.5t-34.5 -28t-43 -18q-27 -7 -51.5 -5.5t-42 9.5t-24.5 22t2 33q25 -1 51.5 4.5t34.5 18.5q-9 1 -19 4t-18 9t-13.5 16t-5.5 24z" />
    <glyph glyph-name="Dcroat" unicode="&#x110;" horiz-adv-x="746" 
d="M167 343q35 7 84 12q17 66 34 126t32 107q-31 -9 -54 -26t-39 -37.5t-26 -43.5t-15 -45q0 -1 -5 -1q-4 0 -23.5 2t-41 7.5t-40 13.5t-21.5 20q13 58 49 104q15 19 37.5 38t53 34t70 25t90.5 11q3 11 12 25t35 14q18 0 36.5 -3t34 -7.5t27.5 -10t18 -9.5l-10 -27
q59 -16 107 -45.5t81.5 -71t51.5 -93t18 -111.5q0 -108 -35 -193t-94 -143.5t-136 -89.5t-160 -31q-81 0 -151.5 21t-123.5 54t-85 74t-35 81q7 11 23 23.5t35 21.5t37.5 12.5t29.5 -3.5q8 -5 21 -14.5t26 -19.5t22 -20t10 -17t-4.5 -12t-3.5 -10q6 -17 19 -33.5t32.5 -30.5
t46 -22.5t59.5 -8.5q54 0 105 31t90.5 86t63.5 130t24 163q0 66 -27 111.5t-73 67.5q-13 -49 -26 -106l-26 -114h15q7 0 20.5 -15.5t22.5 -33.5t9.5 -33t-16.5 -15q-19 0 -36.5 0.5t-34.5 0.5q-13 -58 -22 -104.5t-13 -70.5q-6 -27 -18.5 -37t-31.5 -10q-24 0 -46.5 5.5
t-40.5 12.5t-29.5 13.5t-14.5 9.5q7 39 16 83.5t20 92.5q-15 -1 -30 11.5t-25 28t-13 29.5t8 16z" />
    <glyph glyph-name="dcroat" unicode="&#x111;" horiz-adv-x="566" 
d="M367 556q-12 -1 -25.5 9.5t-23.5 24t-13 25t5 13.5q20 3 43 6t48 5l6 32q6 35 15.5 57t26.5 22q14 0 38 -3.5t47.5 -11t39.5 -19.5t13 -28l-7 -38h34q6 0 18 -12t20.5 -27t10 -27t-12.5 -12l-85 -2q-12 -61 -26.5 -131t-27 -135t-21 -118t-8.5 -78q0 -42 26 -42
q15 0 27.5 14t21.5 34t15 43.5t8 43.5q23 4 41 0q16 -4 29 -16.5t13 -41.5q0 -26 -16 -56t-43.5 -55.5t-65.5 -42t-82 -16.5q-24 0 -42.5 8t-31 21t-19 28.5t-6.5 30.5h-4q-8 -15 -20.5 -34.5t-30.5 -36.5t-42 -28.5t-54 -11.5q-49 0 -85 19t-59.5 49t-35 66.5t-11.5 72.5
q0 33 6.5 72.5t19 79.5t32.5 78t47 67t62 46.5t77 17.5q26 0 47 -7t36 -15q17 -10 30 -22q4 19 7.5 40.5t7.5 43.5q-5 0 -10 -0.5t-10 -1.5zM175 109v-16.5t1.5 -18.5t4.5 -15.5t9 -6.5q11 0 24 15.5t26.5 39.5t26 53.5t22.5 56.5t16.5 49t6.5 32q-6 1 -12 4t-11 13
q7 17 16 41t10 45q2 11 -0.5 20.5t-11.5 9.5q-22 0 -43.5 -33t-39.5 -82t-30 -105t-15 -102z" />
    <glyph glyph-name="Emacron" unicode="&#x112;" horiz-adv-x="561" 
d="M111 526q-7 -1 -16 4.5t-18.5 15t-18.5 20.5t-14 21.5t-5.5 18t5.5 9.5q79 21 164 38q10 25 21 46.5t22 39.5q15 -2 35.5 -5.5t40 -8.5t36 -10.5t25.5 -11.5l-4 -10l-4 -10q38 6 70 10.5t55 7.5q14 1 30.5 5t32.5 6t31.5 0t28.5 -12q2 -2 7.5 -14.5t11 -27.5t9.5 -28.5
t4 -16.5t-12.5 -12t-28 -19.5t-30.5 -19.5t-21 -12q-29 -11 -51 -11t-24 8q-2 9 0 18q0 4 1 10q-45 -3 -81.5 -6.5t-75.5 -8.5q-24 -77 -42 -156l40 3q43 2 73 6t40 -4q8 -6 16.5 -18.5t15.5 -25.5t11.5 -23.5t4.5 -13.5q0 -5 -3.5 -13t-17.5 -8q-48 -1 -100.5 -5.5
t-102.5 -10.5q-8 -42 -13.5 -85t-11.5 -87q115 24 201 37.5t140 11.5q5 0 13.5 -9t17 -22.5t16 -29t10.5 -29t0 -22.5t-14 -9q-79 -2 -175 -13.5t-222 -31.5q-2 -11 -3 -23.5t-2 -24.5q-1 -9 -17.5 -9t-40 5.5t-47.5 13.5t-40 15l-8 -2q-15 -2 -31.5 11t-28 29.5t-15.5 32
t6 17.5l69 15q5 43 12 89.5t16 94.5q-2 -1 -5 -1q-15 -2 -30.5 9.5t-26.5 27.5t-14.5 31t4.5 20q11 6 36 12.5t59 13.5q9 41 19 79.5t21 76.5zM183 850q29 6 66.5 10t76 5.5t73.5 1.5t59 -1q7 0 20.5 -15.5t22.5 -33.5t9.5 -33t-16.5 -15q-74 2 -133.5 2t-115.5 -6
q-15 -2 -30.5 10.5t-26 28t-13.5 30t8 16.5z" />
    <glyph glyph-name="emacron" unicode="&#x113;" horiz-adv-x="405" 
d="M-7 117q0 68 16.5 143t48 137.5t76 103t101.5 40.5q22 0 50.5 -8.5t54 -27t43 -47.5t17.5 -70q0 -48 -13 -89.5t-33.5 -72.5t-46 -48.5t-49.5 -17.5q-22 0 -38 7t-26.5 15t-15.5 15.5t-6 9.5q0 -1 -3.5 -10t-7.5 -25t-7.5 -38t-3.5 -48q0 -37 15.5 -53.5t43.5 -16.5
q35 0 63.5 17.5t48.5 43t32.5 54t16.5 49.5q3 2 7 4q10 4 20 4q35 0 59.5 -14t24.5 -45q0 -30 -14.5 -66.5t-45 -68t-77 -52.5t-110.5 -21q-44 0 -87 13t-77.5 38t-55.5 61.5t-21 83.5zM185 273q1 -7 4 -11q2 -4 6.5 -7t11.5 -3q12 0 23 15.5t19 39t13 51.5t5 54
q1 28 -2.5 34.5t-7.5 6.5q-3 0 -6 -3t-8 -13q-17 -35 -33.5 -80.5t-24.5 -83.5zM123 676q29 6 66.5 10t76 5.5t73.5 1.5t59 -1q7 0 20.5 -15.5t22.5 -33.5t9.5 -33t-16.5 -15q-74 2 -133.5 2t-115.5 -6q-15 -2 -30.5 10.5t-26 28t-13.5 30t8 16.5z" />
    <glyph glyph-name="Ebreve" unicode="&#x114;" horiz-adv-x="561" 
d="M111 526q-7 -1 -16 4.5t-18.5 15t-18.5 20.5t-14 21.5t-5.5 18t5.5 9.5q79 21 164 38q10 25 21 46.5t22 39.5q15 -2 35.5 -5.5t40 -8.5t36 -10.5t25.5 -11.5l-4 -10l-4 -10q38 6 70 10.5t55 7.5q14 1 30.5 5t32.5 6t31.5 0t28.5 -12q2 -2 7.5 -14.5t11 -27.5t9.5 -28.5
t4 -16.5t-12.5 -12t-28 -19.5t-30.5 -19.5t-21 -12q-29 -11 -51 -11t-24 8q-2 9 0 18q0 4 1 10q-45 -3 -81.5 -6.5t-75.5 -8.5q-24 -77 -42 -156l40 3q43 2 73 6t40 -4q8 -6 16.5 -18.5t15.5 -25.5t11.5 -23.5t4.5 -13.5q0 -5 -3.5 -13t-17.5 -8q-48 -1 -100.5 -5.5
t-102.5 -10.5q-8 -42 -13.5 -85t-11.5 -87q115 24 201 37.5t140 11.5q5 0 13.5 -9t17 -22.5t16 -29t10.5 -29t0 -22.5t-14 -9q-79 -2 -175 -13.5t-222 -31.5q-2 -11 -3 -23.5t-2 -24.5q-1 -9 -17.5 -9t-40 5.5t-47.5 13.5t-40 15l-8 -2q-15 -2 -31.5 11t-28 29.5t-15.5 32
t6 17.5l69 15q5 43 12 89.5t16 94.5q-2 -1 -5 -1q-15 -2 -30.5 9.5t-26.5 27.5t-14.5 31t4.5 20q11 6 36 12.5t59 13.5q9 41 19 79.5t21 76.5zM416 899q3 5 20.5 4.5t38 -5t37 -12.5t17.5 -17q-6 -20 -20.5 -40.5t-35 -37t-47 -26.5t-56.5 -10q-29 0 -51.5 7.5t-39 19.5
t-27.5 26t-17 27q-4 10 -4 22t4.5 21.5t14.5 15.5t27 3q9 -21 24.5 -41.5t43.5 -20.5t44.5 21t26.5 43z" />
    <glyph glyph-name="ebreve" unicode="&#x115;" horiz-adv-x="405" 
d="M-7 117q0 68 16.5 143t48 137.5t76 103t101.5 40.5q22 0 50.5 -8.5t54 -27t43 -47.5t17.5 -70q0 -48 -13 -89.5t-33.5 -72.5t-46 -48.5t-49.5 -17.5q-22 0 -38 7t-26.5 15t-15.5 15.5t-6 9.5q0 -1 -3.5 -10t-7.5 -25t-7.5 -38t-3.5 -48q0 -37 15.5 -53.5t43.5 -16.5
q35 0 63.5 17.5t48.5 43t32.5 54t16.5 49.5q3 2 7 4q10 4 20 4q35 0 59.5 -14t24.5 -45q0 -30 -14.5 -66.5t-45 -68t-77 -52.5t-110.5 -21q-44 0 -87 13t-77.5 38t-55.5 61.5t-21 83.5zM185 273q1 -7 4 -11q2 -4 6.5 -7t11.5 -3q12 0 23 15.5t19 39t13 51.5t5 54
q1 28 -2.5 34.5t-7.5 6.5q-3 0 -6 -3t-8 -13q-17 -35 -33.5 -80.5t-24.5 -83.5zM346 728q3 5 20.5 4.5t38 -5t37 -12.5t17.5 -17q-6 -20 -20.5 -40.5t-35 -37t-47 -26.5t-56.5 -10q-29 0 -51.5 7.5t-39 19.5t-27.5 26t-17 27q-4 10 -4 22t4.5 21.5t14.5 15.5t27 3
q9 -21 24.5 -41.5t43.5 -20.5t44.5 21t26.5 43z" />
    <glyph glyph-name="Edotaccent" unicode="&#x116;" horiz-adv-x="561" 
d="M111 526q-7 -1 -16 4.5t-18.5 15t-18.5 20.5t-14 21.5t-5.5 18t5.5 9.5q79 21 164 38q10 25 21 46.5t22 39.5q15 -2 35.5 -5.5t40 -8.5t36 -10.5t25.5 -11.5l-4 -10l-4 -10q38 6 70 10.5t55 7.5q14 1 30.5 5t32.5 6t31.5 0t28.5 -12q2 -2 7.5 -14.5t11 -27.5t9.5 -28.5
t4 -16.5t-12.5 -12t-28 -19.5t-30.5 -19.5t-21 -12q-29 -11 -51 -11t-24 8q-2 9 0 18q0 4 1 10q-45 -3 -81.5 -6.5t-75.5 -8.5q-24 -77 -42 -156l40 3q43 2 73 6t40 -4q8 -6 16.5 -18.5t15.5 -25.5t11.5 -23.5t4.5 -13.5q0 -5 -3.5 -13t-17.5 -8q-48 -1 -100.5 -5.5
t-102.5 -10.5q-8 -42 -13.5 -85t-11.5 -87q115 24 201 37.5t140 11.5q5 0 13.5 -9t17 -22.5t16 -29t10.5 -29t0 -22.5t-14 -9q-79 -2 -175 -13.5t-222 -31.5q-2 -11 -3 -23.5t-2 -24.5q-1 -9 -17.5 -9t-40 5.5t-47.5 13.5t-40 15l-8 -2q-15 -2 -31.5 11t-28 29.5t-15.5 32
t6 17.5l69 15q5 43 12 89.5t16 94.5q-2 -1 -5 -1q-15 -2 -30.5 9.5t-26.5 27.5t-14.5 31t4.5 20q11 6 36 12.5t59 13.5q9 41 19 79.5t21 76.5zM334 786q-19 6 -32.5 16t-13.5 31q0 12 6.5 28.5t21.5 31.5t39.5 25.5t60.5 10.5q9 0 20 -3.5t20.5 -11.5t16 -20.5t6.5 -30.5
q0 -11 -3.5 -29.5t-14 -36t-30 -30.5t-52.5 -13q-19 0 -30 6t-15 26z" />
    <glyph glyph-name="edotaccent" unicode="&#x117;" horiz-adv-x="405" 
d="M-7 117q0 68 16.5 143t48 137.5t76 103t101.5 40.5q22 0 50.5 -8.5t54 -27t43 -47.5t17.5 -70q0 -48 -13 -89.5t-33.5 -72.5t-46 -48.5t-49.5 -17.5q-22 0 -38 7t-26.5 15t-15.5 15.5t-6 9.5q0 -1 -3.5 -10t-7.5 -25t-7.5 -38t-3.5 -48q0 -37 15.5 -53.5t43.5 -16.5
q35 0 63.5 17.5t48.5 43t32.5 54t16.5 49.5q3 2 7 4q10 4 20 4q35 0 59.5 -14t24.5 -45q0 -30 -14.5 -66.5t-45 -68t-77 -52.5t-110.5 -21q-44 0 -87 13t-77.5 38t-55.5 61.5t-21 83.5zM185 273q1 -7 4 -11q2 -4 6.5 -7t11.5 -3q12 0 23 15.5t19 39t13 51.5t5 54
q1 28 -2.5 34.5t-7.5 6.5q-3 0 -6 -3t-8 -13q-17 -35 -33.5 -80.5t-24.5 -83.5zM244 612q-19 6 -32.5 16t-13.5 31q0 12 6.5 28.5t21.5 31.5t39.5 25.5t60.5 10.5q9 0 20 -3.5t20.5 -11.5t16 -20.5t6.5 -30.5q0 -11 -3.5 -29.5t-14 -36t-30 -30.5t-52.5 -13q-19 0 -30 6
t-15 26z" />
    <glyph glyph-name="Eogonek" unicode="&#x118;" horiz-adv-x="561" 
d="M391 -12q0 21 6 38q-38 -5 -78 -11t-85 -13q-2 -11 -3 -23.5t-2 -24.5q-1 -9 -17.5 -9t-40 5.5t-47.5 13.5t-40 15l-8 -2q-15 -2 -31.5 11t-28 29.5t-15.5 32t6 17.5l69 15q5 43 12 89.5t16 94.5q-2 -1 -5 -1q-15 -2 -30.5 9.5t-26.5 27.5t-14.5 31t4.5 20q11 6 36 12.5
t59 13.5q9 41 19 79.5t21 76.5l-56 -9q-7 -1 -16 4.5t-18.5 15t-18.5 20.5t-14 21.5t-5.5 18t5.5 9.5q79 21 164 38q10 25 21 46.5t22 39.5q15 -2 35.5 -5.5t40 -8.5t36 -10.5t25.5 -11.5l-4 -10l-4 -10q38 6 70 10.5t55 7.5q14 1 30.5 5t32.5 6t31.5 0t28.5 -12
q2 -2 7.5 -14.5t11 -27.5t9.5 -28.5t4 -16.5t-12.5 -12t-28 -19.5t-30.5 -19.5t-21 -12q-29 -11 -51 -11t-24 8q-2 9 0 18q0 4 1 10q-45 -3 -81.5 -6.5t-75.5 -8.5q-24 -77 -42 -156l40 3q43 2 73 6t40 -4q8 -6 16.5 -18.5t15.5 -25.5t11.5 -23.5t4.5 -13.5q0 -5 -3.5 -13
t-17.5 -8q-48 -1 -100.5 -5.5t-102.5 -10.5q-8 -42 -13.5 -85t-11.5 -87q115 24 201 37.5t140 11.5q5 0 13.5 -9t17 -22.5t16 -29t10.5 -29t0 -22.5t-14 -9q-51 -2 -108.5 -7t-125.5 -14q7 20 20.5 35t30 26t35 18.5t35.5 12.5q33 9 54.5 5.5t31 -14t9 -25.5t-10.5 -30
q-3 -6 -22.5 -10t-41 -12.5t-39 -24t-17.5 -43.5q0 -15 12.5 -23.5t29.5 -8.5q26 0 52.5 12t39.5 28q8 -2 19 -7t21 -13t17 -18.5t7 -23.5q0 -6 -5.5 -14.5t-19.5 -16t-38 -12.5t-61 -5t-67.5 10t-52 27t-33.5 40t-12 49z" />
    <glyph glyph-name="eogonek" unicode="&#x119;" horiz-adv-x="405" 
d="M147 -112q0 23 8 44q-33 9 -62.5 25.5t-51.5 39.5t-35 53.5t-13 66.5q0 68 16.5 143t48 137.5t76 103t101.5 40.5q22 0 50.5 -8.5t54 -27t43 -47.5t17.5 -70q0 -48 -13 -89.5t-33.5 -72.5t-46 -48.5t-49.5 -17.5q-22 0 -38 7t-26.5 15t-15.5 15.5t-6 9.5q0 -1 -3.5 -10
t-7.5 -25t-7.5 -38t-3.5 -48q0 -37 15.5 -53.5t43.5 -16.5q35 0 63.5 17.5t48.5 43t32.5 54t16.5 49.5q3 2 7 4q10 4 20 4q35 0 59.5 -14t24.5 -45q0 -28 -12 -60.5t-37 -62.5t-63.5 -52.5t-91.5 -29.5q-17 -9 -28 -23t-11 -37q0 -15 12.5 -23.5t29.5 -8.5q26 0 52.5 12
t39.5 28q8 -2 19 -7t21 -13t17 -18.5t7 -23.5q0 -6 -5.5 -14.5t-19.5 -16t-38 -12.5t-61 -5t-67.5 10t-52 27t-33.5 40t-12 49zM185 273q1 -7 4 -11q2 -4 6.5 -7t11.5 -3q12 0 23 15.5t19 39t13 51.5t5 54q1 28 -2.5 34.5t-7.5 6.5q-3 0 -6 -3t-8 -13q-17 -35 -33.5 -80.5
t-24.5 -83.5z" />
    <glyph glyph-name="Ecaron" unicode="&#x11a;" horiz-adv-x="561" 
d="M111 526q-7 -1 -16 4.5t-18.5 15t-18.5 20.5t-14 21.5t-5.5 18t5.5 9.5q79 21 164 38q10 25 21 46.5t22 39.5q15 -2 35.5 -5.5t40 -8.5t36 -10.5t25.5 -11.5l-4 -10l-4 -10q38 6 70 10.5t55 7.5q14 1 30.5 5t32.5 6t31.5 0t28.5 -12q2 -2 7.5 -14.5t11 -27.5t9.5 -28.5
t4 -16.5t-12.5 -12t-28 -19.5t-30.5 -19.5t-21 -12q-29 -11 -51 -11t-24 8q-2 9 0 18q0 4 1 10q-45 -3 -81.5 -6.5t-75.5 -8.5q-24 -77 -42 -156l40 3q43 2 73 6t40 -4q8 -6 16.5 -18.5t15.5 -25.5t11.5 -23.5t4.5 -13.5q0 -5 -3.5 -13t-17.5 -8q-48 -1 -100.5 -5.5
t-102.5 -10.5q-8 -42 -13.5 -85t-11.5 -87q115 24 201 37.5t140 11.5q5 0 13.5 -9t17 -22.5t16 -29t10.5 -29t0 -22.5t-14 -9q-79 -2 -175 -13.5t-222 -31.5q-2 -11 -3 -23.5t-2 -24.5q-1 -9 -17.5 -9t-40 5.5t-47.5 13.5t-40 15l-8 -2q-15 -2 -31.5 11t-28 29.5t-15.5 32
t6 17.5l69 15q5 43 12 89.5t16 94.5q-2 -1 -5 -1q-15 -2 -30.5 9.5t-26.5 27.5t-14.5 31t4.5 20q11 6 36 12.5t59 13.5q9 41 19 79.5t21 76.5zM518 895q14 -6 14.5 -16t-13.5 -20q-12 -9 -29 -22.5t-36 -28t-39 -29.5t-37 -27l-64 9q-12 16 -29 39t-33 44.5t-28 38.5t-15 21
q-8 10 -4 19.5t14 11.5q21 5 40 3.5t27 -10.5q6 -7 13.5 -17.5t15.5 -22t15.5 -22t12.5 -16.5q17 14 39.5 31t40.5 31q10 8 22 12.5t24 -2.5z" />
    <glyph glyph-name="ecaron" unicode="&#x11b;" horiz-adv-x="405" 
d="M-7 117q0 68 16.5 143t48 137.5t76 103t101.5 40.5q22 0 50.5 -8.5t54 -27t43 -47.5t17.5 -70q0 -48 -13 -89.5t-33.5 -72.5t-46 -48.5t-49.5 -17.5q-22 0 -38 7t-26.5 15t-15.5 15.5t-6 9.5q0 -1 -3.5 -10t-7.5 -25t-7.5 -38t-3.5 -48q0 -37 15.5 -53.5t43.5 -16.5
q35 0 63.5 17.5t48.5 43t32.5 54t16.5 49.5q3 2 7 4q10 4 20 4q35 0 59.5 -14t24.5 -45q0 -30 -14.5 -66.5t-45 -68t-77 -52.5t-110.5 -21q-44 0 -87 13t-77.5 38t-55.5 61.5t-21 83.5zM185 273q1 -7 4 -11q2 -4 6.5 -7t11.5 -3q12 0 23 15.5t19 39t13 51.5t5 54
q1 28 -2.5 34.5t-7.5 6.5q-3 0 -6 -3t-8 -13q-17 -35 -33.5 -80.5t-24.5 -83.5zM455 719q14 -6 14.5 -16t-13.5 -20q-12 -9 -29 -22.5t-36 -28t-39 -29.5t-37 -27l-64 9q-12 16 -29 39t-33 44.5t-28 38.5t-15 21q-8 10 -4 19.5t14 11.5q21 5 40 3.5t27 -10.5
q6 -7 13.5 -17.5t15.5 -22t15.5 -22t12.5 -16.5q17 14 39.5 31t40.5 31q10 8 22 12.5t24 -2.5z" />
    <glyph glyph-name="Gcircumflex" unicode="&#x11c;" horiz-adv-x="619" 
d="M264 302q0 12 15 20t37.5 11.5t47.5 3.5t46 -4q21 6 46 10t49 7t45 4.5t35 1.5q26 0 36.5 -2.5t18.5 -8.5t16.5 -16.5t15.5 -21t11.5 -19t4.5 -11.5q0 -5 -3.5 -13t-18.5 -8q-59 -2 -111 -9q14 -16 23.5 -36.5t9.5 -47.5q0 -28 -17.5 -65.5t-53.5 -71t-89.5 -56.5
t-125.5 -23q-71 0 -127 20.5t-95 58t-59.5 89.5t-20.5 116q0 43 10.5 96t31.5 107t51 105t70 90.5t88.5 63.5t105.5 24q45 0 85 -12.5t69 -34.5t46 -52.5t17 -66.5q0 -33 -9 -61t-26 -48.5t-41.5 -32t-55.5 -11.5q-23 0 -39.5 7t-27.5 16t-16.5 18t-5.5 12q0 4 12 13.5
t26 26t26 41.5t12 59q0 18 -11 25.5t-22 7.5q-19 0 -42.5 -18t-48 -48.5t-48 -72t-42 -88.5t-29.5 -97t-11 -99q0 -70 28.5 -113.5t81.5 -43.5q26 0 49 7.5t40.5 22t28 37t10.5 52.5q0 31 -16 52q-17 -4 -32 -6t-27 -4t-25 10.5t-24 29.5t-18 33.5t-7 23.5zM246 794
q-28 16 -1 36q12 9 29 22.5t36 28t39 29.5t37 27l64 -9q12 -16 28.5 -38.5t32 -44t27 -38t14.5 -20.5q8 -10 4 -19t-15 -11q-20 -5 -39 -4t-27 11q-12 14 -28 38t-27 37q-17 -14 -39 -31.5t-40 -31.5q-11 -7 -22.5 -12t-23.5 2z" />
    <glyph glyph-name="gcircumflex" unicode="&#x11d;" horiz-adv-x="516" 
d="M89 -73q7 -11 18 -22t22.5 -20.5t22.5 -17t19 -10.5q25 7 44.5 26.5t34.5 45t26 55.5t20 59q-19 -18 -44 -34.5t-51 -16.5q-92 0 -133.5 53t-45.5 145q-3 68 12.5 129t47.5 107t79 73t106 27q40 0 76 -9t62.5 -24t42.5 -35t17 -42q0 -2 -0.5 -4.5t-0.5 -4.5v-5
q3 0 14.5 -1t23 -4t20.5 -8t8 -14q-11 -60 -25 -148.5t-46 -203.5q-37 -129 -98 -194t-155 -65q-29 0 -56.5 4.5t-50.5 11t-40.5 15t-27.5 17.5q-23 16 -26.5 37.5t6 39.5t30.5 29.5t48 8.5zM196 161q-1 -41 10.5 -60t27.5 -19t32.5 22t30.5 55t23.5 71t12.5 71q-3 -1 -7 1
q-8 2 -15 12q8 17 11.5 44.5t3.5 43.5q0 14 -6 25t-18 11q-22 0 -41 -30.5t-33.5 -74t-22.5 -91t-9 -81.5zM181 616q-28 16 -1 36q12 9 29 22.5t36 28t39 29.5t37 27l64 -9q12 -16 28.5 -38.5t32 -44t27 -38t14.5 -20.5q8 -10 4 -19t-15 -11q-20 -5 -39 -4t-27 11
q-12 14 -28 38t-27 37q-17 -14 -39 -31.5t-40 -31.5q-11 -7 -22.5 -12t-23.5 2z" />
    <glyph glyph-name="Gbreve" unicode="&#x11e;" horiz-adv-x="619" 
d="M264 302q0 12 15 20t37.5 11.5t47.5 3.5t46 -4q21 6 46 10t49 7t45 4.5t35 1.5q26 0 36.5 -2.5t18.5 -8.5t16.5 -16.5t15.5 -21t11.5 -19t4.5 -11.5q0 -5 -3.5 -13t-18.5 -8q-59 -2 -111 -9q14 -16 23.5 -36.5t9.5 -47.5q0 -28 -17.5 -65.5t-53.5 -71t-89.5 -56.5
t-125.5 -23q-71 0 -127 20.5t-95 58t-59.5 89.5t-20.5 116q0 43 10.5 96t31.5 107t51 105t70 90.5t88.5 63.5t105.5 24q45 0 85 -12.5t69 -34.5t46 -52.5t17 -66.5q0 -33 -9 -61t-26 -48.5t-41.5 -32t-55.5 -11.5q-23 0 -39.5 7t-27.5 16t-16.5 18t-5.5 12q0 4 12 13.5
t26 26t26 41.5t12 59q0 18 -11 25.5t-22 7.5q-19 0 -42.5 -18t-48 -48.5t-48 -72t-42 -88.5t-29.5 -97t-11 -99q0 -70 28.5 -113.5t81.5 -43.5q26 0 49 7.5t40.5 22t28 37t10.5 52.5q0 31 -16 52q-17 -4 -32 -6t-27 -4t-25 10.5t-24 29.5t-18 33.5t-7 23.5zM447 898
q3 5 20.5 4.5t38 -5t37 -12.5t17.5 -17q-6 -20 -20.5 -40.5t-35 -37t-47 -26.5t-56.5 -10q-29 0 -51.5 7.5t-39 19.5t-27.5 26t-17 27q-4 10 -4 22t4.5 21.5t14.5 15.5t27 3q9 -21 24.5 -41.5t43.5 -20.5t44.5 21t26.5 43z" />
    <glyph glyph-name="gbreve" unicode="&#x11f;" horiz-adv-x="516" 
d="M89 -73q7 -11 18 -22t22.5 -20.5t22.5 -17t19 -10.5q25 7 44.5 26.5t34.5 45t26 55.5t20 59q-19 -18 -44 -34.5t-51 -16.5q-92 0 -133.5 53t-45.5 145q-3 68 12.5 129t47.5 107t79 73t106 27q40 0 76 -9t62.5 -24t42.5 -35t17 -42q0 -2 -0.5 -4.5t-0.5 -4.5v-5
q3 0 14.5 -1t23 -4t20.5 -8t8 -14q-11 -60 -25 -148.5t-46 -203.5q-37 -129 -98 -194t-155 -65q-29 0 -56.5 4.5t-50.5 11t-40.5 15t-27.5 17.5q-23 16 -26.5 37.5t6 39.5t30.5 29.5t48 8.5zM196 161q-1 -41 10.5 -60t27.5 -19t32.5 22t30.5 55t23.5 71t12.5 71q-3 -1 -7 1
q-8 2 -15 12q8 17 11.5 44.5t3.5 43.5q0 14 -6 25t-18 11q-22 0 -41 -30.5t-33.5 -74t-22.5 -91t-9 -81.5zM397 723q3 5 20.5 4.5t38 -5t37 -12.5t17.5 -17q-6 -20 -20.5 -40.5t-35 -37t-47 -26.5t-56.5 -10q-29 0 -51.5 7.5t-39 19.5t-27.5 26t-17 27q-4 10 -4 22t4.5 21.5
t14.5 15.5t27 3q9 -21 24.5 -41.5t43.5 -20.5t44.5 21t26.5 43z" />
    <glyph glyph-name="Gdotaccent" unicode="&#x120;" horiz-adv-x="619" 
d="M264 302q0 12 15 20t37.5 11.5t47.5 3.5t46 -4q21 6 46 10t49 7t45 4.5t35 1.5q26 0 36.5 -2.5t18.5 -8.5t16.5 -16.5t15.5 -21t11.5 -19t4.5 -11.5q0 -5 -3.5 -13t-18.5 -8q-59 -2 -111 -9q14 -16 23.5 -36.5t9.5 -47.5q0 -28 -17.5 -65.5t-53.5 -71t-89.5 -56.5
t-125.5 -23q-71 0 -127 20.5t-95 58t-59.5 89.5t-20.5 116q0 43 10.5 96t31.5 107t51 105t70 90.5t88.5 63.5t105.5 24q45 0 85 -12.5t69 -34.5t46 -52.5t17 -66.5q0 -33 -9 -61t-26 -48.5t-41.5 -32t-55.5 -11.5q-23 0 -39.5 7t-27.5 16t-16.5 18t-5.5 12q0 4 12 13.5
t26 26t26 41.5t12 59q0 18 -11 25.5t-22 7.5q-19 0 -42.5 -18t-48 -48.5t-48 -72t-42 -88.5t-29.5 -97t-11 -99q0 -70 28.5 -113.5t81.5 -43.5q26 0 49 7.5t40.5 22t28 37t10.5 52.5q0 31 -16 52q-17 -4 -32 -6t-27 -4t-25 10.5t-24 29.5t-18 33.5t-7 23.5zM380 782
q-19 6 -32.5 16t-13.5 31q0 12 6.5 28.5t21.5 31.5t39.5 25.5t60.5 10.5q9 0 20 -3.5t20.5 -11.5t16 -20.5t6.5 -30.5q0 -11 -3.5 -29.5t-14 -36t-30 -30.5t-52.5 -13q-19 0 -30 6t-15 26z" />
    <glyph glyph-name="gdotaccent" unicode="&#x121;" horiz-adv-x="516" 
d="M89 -73q7 -11 18 -22t22.5 -20.5t22.5 -17t19 -10.5q25 7 44.5 26.5t34.5 45t26 55.5t20 59q-19 -18 -44 -34.5t-51 -16.5q-92 0 -133.5 53t-45.5 145q-3 68 12.5 129t47.5 107t79 73t106 27q40 0 76 -9t62.5 -24t42.5 -35t17 -42q0 -2 -0.5 -4.5t-0.5 -4.5v-5
q3 0 14.5 -1t23 -4t20.5 -8t8 -14q-11 -60 -25 -148.5t-46 -203.5q-37 -129 -98 -194t-155 -65q-29 0 -56.5 4.5t-50.5 11t-40.5 15t-27.5 17.5q-23 16 -26.5 37.5t6 39.5t30.5 29.5t48 8.5zM196 161q-1 -41 10.5 -60t27.5 -19t32.5 22t30.5 55t23.5 71t12.5 71q-3 -1 -7 1
q-8 2 -15 12q8 17 11.5 44.5t3.5 43.5q0 14 -6 25t-18 11q-22 0 -41 -30.5t-33.5 -74t-22.5 -91t-9 -81.5zM312 611q-19 6 -32.5 16t-13.5 31q0 12 6.5 28.5t21.5 31.5t39.5 25.5t60.5 10.5q9 0 20 -3.5t20.5 -11.5t16 -20.5t6.5 -30.5q0 -11 -3.5 -29.5t-14 -36t-30 -30.5
t-52.5 -13q-19 0 -30 6t-15 26z" />
    <glyph glyph-name="uni0122" unicode="&#x122;" horiz-adv-x="619" 
d="M264 302q0 12 15 20t37.5 11.5t47.5 3.5t46 -4q21 6 46 10t49 7t45 4.5t35 1.5q26 0 36.5 -2.5t18.5 -8.5t16.5 -16.5t15.5 -21t11.5 -19t4.5 -11.5q0 -5 -3.5 -13t-18.5 -8q-59 -2 -111 -9q14 -16 23.5 -36.5t9.5 -47.5q0 -28 -17.5 -65.5t-53.5 -71t-89.5 -56.5
t-125.5 -23q-71 0 -127 20.5t-95 58t-59.5 89.5t-20.5 116q0 43 10.5 96t31.5 107t51 105t70 90.5t88.5 63.5t105.5 24q45 0 85 -12.5t69 -34.5t46 -52.5t17 -66.5q0 -33 -9 -61t-26 -48.5t-41.5 -32t-55.5 -11.5q-23 0 -39.5 7t-27.5 16t-16.5 18t-5.5 12q0 4 12 13.5
t26 26t26 41.5t12 59q0 18 -11 25.5t-22 7.5q-19 0 -42.5 -18t-48 -48.5t-48 -72t-42 -88.5t-29.5 -97t-11 -99q0 -70 28.5 -113.5t81.5 -43.5q26 0 49 7.5t40.5 22t28 37t10.5 52.5q0 31 -16 52q-17 -4 -32 -6t-27 -4t-25 10.5t-24 29.5t-18 33.5t-7 23.5zM148 -154
q0 29 27 48.5t72 19.5q38 0 67 -20.5t29 -61.5q0 -20 -8.5 -39.5t-23 -35.5t-34.5 -28t-43 -18q-27 -7 -51.5 -5.5t-42 9.5t-24.5 22t2 33q25 -1 51.5 4.5t34.5 18.5q-9 1 -19 4t-18 9t-13.5 16t-5.5 24z" />
    <glyph glyph-name="uni0123" unicode="&#x123;" horiz-adv-x="516" 
d="M89 -73q7 -11 18 -22t22.5 -20.5t22.5 -17t19 -10.5q25 7 44.5 26.5t34.5 45t26 55.5t20 59q-19 -18 -44 -34.5t-51 -16.5q-92 0 -133.5 53t-45.5 145q-3 68 12.5 129t47.5 107t79 73t106 27q40 0 76 -9t62.5 -24t42.5 -35t17 -42q0 -2 -0.5 -4.5t-0.5 -4.5v-5
q3 0 14.5 -1t23 -4t20.5 -8t8 -14q-11 -60 -25 -148.5t-46 -203.5q-37 -129 -98 -194t-155 -65q-29 0 -56.5 4.5t-50.5 11t-40.5 15t-27.5 17.5q-23 16 -26.5 37.5t6 39.5t30.5 29.5t48 8.5zM196 161q-1 -41 10.5 -60t27.5 -19t32.5 22t30.5 55t23.5 71t12.5 71q-3 -1 -7 1
q-8 2 -15 12q8 17 11.5 44.5t3.5 43.5q0 14 -6 25t-18 11q-22 0 -41 -30.5t-33.5 -74t-22.5 -91t-9 -81.5zM444 645q0 -30 -27 -49.5t-72 -19.5q-38 0 -67 20.5t-29 61.5t30.5 75.5t78.5 46.5q26 6 51 5t42 -9t24 -22.5t-2 -33.5q-12 1 -25.5 0t-25.5 -4t-21.5 -8t-13.5 -11
q19 -2 38 -13t19 -39z" />
    <glyph glyph-name="Hcircumflex" unicode="&#x124;" horiz-adv-x="665" 
d="M324 566q-14 -42 -26.5 -83.5t-23.5 -83.5q36 5 68.5 8.5t58 6t42 2.5t20.5 -3t8.5 -7.5l9.5 -9.5q20 91 41 170.5t41 135.5q8 20 19 31.5t33 12.5q12 0 31 -4t38.5 -9t36.5 -11.5t24 -10.5q-18 -59 -36 -127t-35.5 -138.5t-32.5 -141t-26 -133.5t-17.5 -115.5
t-6.5 -87.5q0 -11 -11.5 -14t-29 0t-38.5 9t-39.5 13t-32 13t-16.5 9q-10 11 -15.5 30.5t-7 40.5t0.5 39t8 26q2 3 6 2.5t8 -2t7 -2t3 3.5q5 38 12 77.5t15 79.5q-48 -3 -104 -10t-113 -15q-20 -95 -31.5 -183.5t-15.5 -164.5q-1 -10 -12.5 -13t-29 -1.5t-38.5 7t-39.5 12.5
t-32.5 14.5t-18 14.5q2 60 12 133t26 152l-48 -8q-15 -2 -30.5 13.5t-27 36t-16.5 39t2 23.5q7 4 48.5 12t101.5 18q13 52 27 102t28.5 94.5t28.5 82.5t27 67q8 4 30.5 1.5t48.5 -9t49 -14.5t31 -14q0 -8 -1.5 -23.5t-4.5 -32.5t-7 -32.5t-8 -23.5zM315 805q-28 16 -1 36
q12 9 29 22.5t36 28t39 29.5t37 27l64 -9q12 -16 28.5 -38.5t32 -44t27 -38t14.5 -20.5q8 -10 4 -19t-15 -11q-20 -5 -39 -4t-27 11q-12 14 -28 38t-27 37q-17 -14 -39 -31.5t-40 -31.5q-11 -7 -22.5 -12t-23.5 2z" />
    <glyph glyph-name="hcircumflex" unicode="&#x125;" horiz-adv-x="548" 
d="M314 303q-6 -9 -22 -42.5t-33 -80t-31 -99.5t-17 -99q-6 -4 -15 -7q-8 -3 -18 -5t-22 -2q-26 0 -50.5 6.5t-43 19.5t-29.5 32t-11 44q0 15 3 50.5t8.5 83.5t13 105t17 114.5t19.5 112t21 99t22.5 74.5t22.5 38q9 6 32.5 4t49 -9t45 -16.5t19.5 -18.5q0 -38 -11.5 -70.5
t-19.5 -55.5q-4 -13 -10.5 -40t-13.5 -61t-14 -72t-13 -71.5t-9.5 -58.5t-3.5 -35l7 -2q5 14 15.5 41.5t25 60.5t30.5 67.5t32 63t30 46.5t25 18q35 0 65 -8t51.5 -19t33.5 -23t12 -20q0 -13 -5.5 -38t-14 -57t-18.5 -68.5t-18.5 -72.5t-14 -69t-5.5 -57q0 -26 10 -44
t30 -18q15 0 27.5 11t22.5 28.5t16.5 39t9.5 42.5q24 1 43 -3q16 -4 29.5 -14.5t13.5 -33.5q0 -29 -16.5 -55.5t-45.5 -47t-67.5 -33t-83.5 -12.5q-40 0 -67.5 11t-45 30.5t-25.5 46.5t-8 59q0 21 3.5 50t8.5 56.5t10 50.5t8 32zM65 793q-28 16 -1 36q12 9 29 22.5t36 28
t39 29.5t37 27l64 -9q12 -16 28.5 -38.5t32 -44t27 -38t14.5 -20.5q8 -10 4 -19t-15 -11q-20 -5 -39 -4t-27 11q-12 14 -28 38t-27 37q-17 -14 -39 -31.5t-40 -31.5q-11 -7 -22.5 -12t-23.5 2z" />
    <glyph glyph-name="Hbar" unicode="&#x126;" horiz-adv-x="665" 
d="M66 580q11 2 35 5l56 7q13 38 25.5 69.5t23.5 57.5q8 4 30.5 1.5t48.5 -9t49 -14.5t31 -14q0 -11 -2 -32.5t-7 -42.5q46 4 91.5 7t88.5 6q13 45 27 81q8 20 19 31.5t33 12.5q12 0 31 -4t38.5 -9t36.5 -11.5t24 -10.5l-24 -82h11q7 0 20.5 -15.5t22.5 -33.5t9.5 -33
t-16.5 -15h-31t-43 -1q-21 -80 -39.5 -163t-32.5 -158.5t-22.5 -138.5t-8.5 -103q0 -11 -11.5 -14t-29 0t-38.5 9t-39.5 13t-32 13t-16.5 9q-10 11 -15.5 30.5t-7 40.5t0.5 39t8 26q2 3 6 2.5t8 -2t7 -2t3 3.5q5 38 12 77.5t15 79.5q-48 -3 -104 -10t-113 -15
q-20 -95 -31.5 -183.5t-15.5 -164.5q-1 -10 -12.5 -13t-29 -1.5t-38.5 7t-39.5 12.5t-32.5 14.5t-18 14.5q2 60 12 133t26 152l-48 -8q-15 -2 -30.5 13.5t-27 36t-16.5 39t2 23.5q7 4 48.5 12t101.5 18q16 65 33 122q-15 -2 -30.5 10.5t-26 28t-13.5 30t8 16.5zM305 509
q-8 -28 -15.5 -55.5t-15.5 -54.5q36 5 68.5 8.5t58 6t42 2.5t20.5 -3t8.5 -7.5l9.5 -9.5q7 32 14 63.5t15 61.5z" />
    <glyph glyph-name="hbar" unicode="&#x127;" horiz-adv-x="548" 
d="M314 303q-6 -9 -22 -42.5t-33 -80t-31 -99.5t-17 -99q-6 -4 -15 -7q-8 -3 -18 -5t-22 -2q-26 0 -50.5 6.5t-43 19.5t-29.5 32t-11 44q0 14 2.5 45t7 73t11 92t14.5 102.5t17 104.5t19 98q-3 0 -6 -0.5t-5 -0.5q-17 -2 -31.5 8t-23.5 22.5t-10 24t11 13.5q36 6 83 9
q9 34 18.5 56.5t19.5 29.5q9 6 32.5 4t49 -9t45 -16.5t19.5 -18.5q0 -11 -1 -21t-3 -20q11 0 21 -0.5t18 -0.5t20 -12.5t19.5 -27t6 -26.5t-20.5 -12q-24 0 -46 0.5t-43 0.5q-2 -6 -2 -7q-4 -13 -10.5 -40t-13.5 -61t-14 -72t-13 -71.5t-9.5 -58.5t-3.5 -35l7 -2
q5 14 15.5 41.5t25 60.5t30.5 67.5t32 63t30 46.5t25 18q35 0 65 -8t51.5 -19t33.5 -23t12 -20q0 -13 -5.5 -38t-14 -57t-18.5 -68.5t-18.5 -72.5t-14 -69t-5.5 -57q0 -26 10 -44t30 -18q15 0 27.5 11t22.5 28.5t16.5 39t9.5 42.5q24 1 43 -3q16 -4 29.5 -14.5t13.5 -33.5
q0 -29 -16.5 -55.5t-45.5 -47t-67.5 -33t-83.5 -12.5q-40 0 -67.5 11t-45 30.5t-25.5 46.5t-8 59q0 21 3.5 50t8.5 56.5t10 50.5t8 32z" />
    <glyph glyph-name="Itilde" unicode="&#x128;" horiz-adv-x="548" 
d="M156 139q10 55 22.5 114t27 115.5t28.5 108t27 91.5q-32 -6 -69 -12t-79 -13q-15 -2 -31 13.5t-27 35.5t-14.5 38t6.5 21q63 17 128.5 28.5t125.5 19t110 11t82 5.5q43 2 75 -1.5t54 -20.5q2 -2 7.5 -10.5t11 -18.5t9.5 -19t4 -12t-8.5 -8.5t-19.5 -11.5t-22.5 -11.5
t-18.5 -7.5q-11 -4 -18.5 -2.5t-14 5t-12.5 7.5t-15 4q-43 -3 -85 -9q-14 -46 -29.5 -107t-30 -124t-27 -123t-20.5 -105q60 11 106.5 16.5t83.5 3.5q8 0 23 -19.5t27 -42.5t14.5 -42t-14.5 -19q-50 -1 -105.5 -4.5t-120.5 -11t-142.5 -18.5t-171.5 -26q-14 -2 -29 10.5
t-25.5 29t-13.5 32t7 19.5q13 5 25 12t22.5 12.5t20 8t17.5 -0.5q11 -4 14.5 -8t6.5 -3q32 6 61 12.5t57 11.5q-17 5 -28 11.5t-12 14.5zM264 764q-7 0 -13.5 6t-11 14t-6 16.5t2.5 13.5q4 7 15 18.5t25 23t30.5 20t32.5 8.5q22 0 39.5 -6.5t31.5 -14.5t26 -14.5t24 -6.5
q11 0 21 4.5t19 10t17 10t15 4.5q6 0 12 -5t10 -12.5t5.5 -16.5t-2.5 -18q-3 -7 -14 -18.5t-26.5 -22.5t-34.5 -19t-39 -8t-38 6.5t-34 15t-29 15t-23 6.5q-7 0 -14.5 -4.5t-15 -10.5t-14 -10.5t-11.5 -4.5z" />
    <glyph glyph-name="itilde" unicode="&#x129;" horiz-adv-x="292" 
d="M7 103q0 21 5 53t13 68t18.5 74t21.5 73t21 64t18 47q3 8 11 10.5t16 2.5q11 0 37 -5t51 -14.5t41.5 -24t10.5 -32.5q-9 -29 -21 -71.5t-24 -87.5t-21 -86.5t-10 -66.5q-2 -24 5 -36t16 -12q19 0 33.5 15.5t25 36.5t16.5 42.5t8 34.5q25 0 44 -7q17 -6 30.5 -19.5
t13.5 -39.5q0 -27 -18 -55.5t-49 -52.5t-71 -39.5t-85 -15.5q-72 0 -114.5 35t-42.5 109zM99 591q-7 0 -13.5 6t-11 14t-6 16.5t2.5 13.5q4 7 15 18.5t25 23t30.5 20t32.5 8.5q22 0 39.5 -6.5t31.5 -14.5t26 -14.5t24 -6.5q11 0 21 4.5t19 10t17 10t15 4.5q6 0 12 -5
t10 -12.5t5.5 -16.5t-2.5 -18q-3 -7 -14 -18.5t-26.5 -22.5t-34.5 -19t-39 -8t-38 6.5t-34 15t-29 15t-23 6.5q-7 0 -14.5 -4.5t-15 -10.5t-14 -10.5t-11.5 -4.5z" />
    <glyph glyph-name="imacron" unicode="&#x12b;" horiz-adv-x="292" 
d="M7 103q0 21 5 53t13 68t18.5 74t21.5 73t21 64t18 47q3 8 11 10.5t16 2.5q11 0 37 -5t51 -14.5t41.5 -24t10.5 -32.5q-9 -29 -21 -71.5t-24 -87.5t-21 -86.5t-10 -66.5q-2 -24 5 -36t16 -12q19 0 33.5 15.5t25 36.5t16.5 42.5t8 34.5q25 0 44 -7q17 -6 30.5 -19.5
t13.5 -39.5q0 -27 -18 -55.5t-49 -52.5t-71 -39.5t-85 -15.5q-72 0 -114.5 35t-42.5 109zM58 671q29 6 66.5 10t76 5.5t73.5 1.5t59 -1q7 0 20.5 -15.5t22.5 -33.5t9.5 -33t-16.5 -15q-74 2 -133.5 2t-115.5 -6q-15 -2 -30.5 10.5t-26 28t-13.5 30t8 16.5z" />
    <glyph glyph-name="Ibreve" unicode="&#x12c;" horiz-adv-x="548" 
d="M156 139q10 55 22.5 114t27 115.5t28.5 108t27 91.5q-32 -6 -69 -12t-79 -13q-15 -2 -31 13.5t-27 35.5t-14.5 38t6.5 21q63 17 128.5 28.5t125.5 19t110 11t82 5.5q43 2 75 -1.5t54 -20.5q2 -2 7.5 -10.5t11 -18.5t9.5 -19t4 -12t-8.5 -8.5t-19.5 -11.5t-22.5 -11.5
t-18.5 -7.5q-11 -4 -18.5 -2.5t-14 5t-12.5 7.5t-15 4q-43 -3 -85 -9q-14 -46 -29.5 -107t-30 -124t-27 -123t-20.5 -105q60 11 106.5 16.5t83.5 3.5q8 0 23 -19.5t27 -42.5t14.5 -42t-14.5 -19q-50 -1 -105.5 -4.5t-120.5 -11t-142.5 -18.5t-171.5 -26q-14 -2 -29 10.5
t-25.5 29t-13.5 32t7 19.5q13 5 25 12t22.5 12.5t20 8t17.5 -0.5q11 -4 14.5 -8t6.5 -3q32 6 61 12.5t57 11.5q-17 5 -28 11.5t-12 14.5zM436 895q3 5 20.5 4.5t38 -5t37 -12.5t17.5 -17q-6 -20 -20.5 -40.5t-35 -37t-47 -26.5t-56.5 -10q-29 0 -51.5 7.5t-39 19.5t-27.5 26
t-17 27q-4 10 -4 22t4.5 21.5t14.5 15.5t27 3q9 -21 24.5 -41.5t43.5 -20.5t44.5 21t26.5 43z" />
    <glyph glyph-name="Iogonek" unicode="&#x12e;" horiz-adv-x="548" 
d="M170 -32q0 19 4 31q-33 -5 -68 -10t-73 -12q-14 -2 -29 10.5t-25.5 29t-13.5 32t7 19.5q13 5 25 12t22.5 12.5t20 8t17.5 -0.5q11 -4 14.5 -8t6.5 -3q32 6 61 12.5t57 11.5q-17 5 -28 11.5t-12 14.5q10 55 22.5 114t27 115.5t28.5 108t27 91.5q-32 -6 -69 -12t-79 -13
q-15 -2 -31 13.5t-27 35.5t-14.5 38t6.5 21q63 17 128.5 28.5t125.5 19t110 11t82 5.5q43 2 75 -1.5t54 -20.5q2 -2 7.5 -10.5t11 -18.5t9.5 -19t4 -12t-8.5 -8.5t-19.5 -11.5t-22.5 -11.5t-18.5 -7.5q-11 -4 -18.5 -2.5t-14 5t-12.5 7.5t-15 4q-43 -3 -85 -9
q-14 -46 -29.5 -107t-30 -124t-27 -123t-20.5 -105q60 11 106.5 16.5t83.5 3.5q8 0 23 -19.5t27 -42.5t14.5 -42t-14.5 -19q-50 -1 -104.5 -4.5t-118.5 -10.5q-13 -4 -28.5 -9t-29 -14t-22.5 -22t-9 -33q0 -15 12.5 -23.5t29.5 -8.5q26 0 52.5 12t39.5 28q8 -2 19 -7t21 -13
t17 -18.5t7 -23.5q0 -6 -5.5 -14.5t-19.5 -16t-38 -12.5t-61 -5t-67.5 10t-52 27t-33.5 40t-12 49z" />
    <glyph glyph-name="iogonek" unicode="&#x12f;" horiz-adv-x="292" 
d="M-17 -92q0 34 16 58t39 40q-31 36 -31 97q0 21 5 53t13 68t18.5 74t21.5 73t21 64t18 47q3 8 11 10.5t16 2.5q11 0 37 -5t51 -14.5t41.5 -24t10.5 -32.5q-9 -29 -21 -71.5t-24 -87.5t-21 -86.5t-10 -66.5q-2 -24 5 -36t16 -12q19 0 33.5 15.5t25 36.5t16.5 42.5t8 34.5
q25 0 44 -7q17 -6 30.5 -19.5t13.5 -39.5q0 -27 -18 -55.5t-49 -52.5t-71 -39.5t-85 -15.5h-11q-13 -4 -27 -9.5t-25.5 -14t-19 -21t-7.5 -30.5q0 -15 12.5 -23.5t29.5 -8.5q26 0 52.5 12t39.5 28q8 -2 19 -7t21 -13t17 -18.5t7 -23.5q0 -6 -5.5 -14.5t-19.5 -16t-38 -12.5
t-61 -5t-67.5 10t-52 27t-33.5 40t-12 49zM205 543q-11 0 -24.5 4.5t-25 13.5t-19.5 23t-8 34q0 13 5 35.5t18 44.5t35 38t56 16t52.5 -8.5t8.5 -36.5q20 -8 37 -19.5t17 -35.5q0 -14 -7.5 -33t-25.5 -36t-47 -28.5t-72 -11.5z" />
    <glyph glyph-name="Idotaccent" unicode="&#x130;" horiz-adv-x="548" 
d="M156 139q10 55 22.5 114t27 115.5t28.5 108t27 91.5q-32 -6 -69 -12t-79 -13q-15 -2 -31 13.5t-27 35.5t-14.5 38t6.5 21q63 17 128.5 28.5t125.5 19t110 11t82 5.5q43 2 75 -1.5t54 -20.5q2 -2 7.5 -10.5t11 -18.5t9.5 -19t4 -12t-8.5 -8.5t-19.5 -11.5t-22.5 -11.5
t-18.5 -7.5q-11 -4 -18.5 -2.5t-14 5t-12.5 7.5t-15 4q-43 -3 -85 -9q-14 -46 -29.5 -107t-30 -124t-27 -123t-20.5 -105q60 11 106.5 16.5t83.5 3.5q8 0 23 -19.5t27 -42.5t14.5 -42t-14.5 -19q-50 -1 -105.5 -4.5t-120.5 -11t-142.5 -18.5t-171.5 -26q-14 -2 -29 10.5
t-25.5 29t-13.5 32t7 19.5q13 5 25 12t22.5 12.5t20 8t17.5 -0.5q11 -4 14.5 -8t6.5 -3q32 6 61 12.5t57 11.5q-17 5 -28 11.5t-12 14.5zM339 781q-19 6 -32.5 16t-13.5 31q0 12 6.5 28.5t21.5 31.5t39.5 25.5t60.5 10.5q9 0 20 -3.5t20.5 -11.5t16 -20.5t6.5 -30.5
q0 -11 -3.5 -29.5t-14 -36t-30 -30.5t-52.5 -13q-19 0 -30 6t-15 26z" />
    <glyph glyph-name="dotlessi" unicode="&#x131;" horiz-adv-x="292" 
d="M7 103q0 21 5 53t13 68t18.5 74t21.5 73t21 64t18 47q3 8 11 10.5t16 2.5q11 0 37 -5t51 -14.5t41.5 -24t10.5 -32.5q-9 -29 -21 -71.5t-24 -87.5t-21 -86.5t-10 -66.5q-2 -24 5 -36t16 -12q19 0 33.5 15.5t25 36.5t16.5 42.5t8 34.5q25 0 44 -7q17 -6 30.5 -19.5
t13.5 -39.5q0 -27 -18 -55.5t-49 -52.5t-71 -39.5t-85 -15.5q-72 0 -114.5 35t-42.5 109z" />
    <glyph glyph-name="IJ" unicode="&#x132;" horiz-adv-x="1166" 
d="M156 139q10 55 22.5 114t27 115.5t28.5 108t27 91.5q-32 -6 -69 -12t-79 -13q-15 -2 -31 13.5t-27 35.5t-14.5 38t6.5 21q63 17 128.5 28.5t125.5 19t110 11t82 5.5q43 2 75 -1.5t54 -20.5q2 -2 7.5 -10.5t11 -18.5t9.5 -19t4 -12t-8.5 -8.5t-19.5 -11.5t-22.5 -11.5
t-18.5 -7.5q-11 -4 -18.5 -2.5t-14 5t-12.5 7.5t-15 4q-43 -3 -85 -9q-14 -46 -29.5 -107t-30 -124t-27 -123t-20.5 -105q60 11 106.5 16.5t83.5 3.5q4 0 10 -6q1 58 31 95q15 14 36.5 18t43 -1t41 -18t31.5 -34q3 -5 6.5 -12t6.5 -14t4.5 -12.5t-0.5 -8.5t-6.5 -3.5
t-10 -0.5t-10.5 -1t-8 -5q-5 -8 -6.5 -25t0.5 -34q5 -34 23.5 -57t44.5 -23q33 0 66.5 22.5t60.5 82.5t43 164.5t13 268.5q-51 -9 -97.5 -17.5t-81.5 -15.5q-12 -3 -27.5 12.5t-29 36t-22.5 40.5t-9 27q0 8 10 12.5t20 6.5q36 8 89 16t113 15t120 13t110 9t83.5 3t40.5 -5
q2 -2 10 -12.5t18 -23.5t19 -25.5t14 -16.5l-16 -25q-22 -3 -53 -4.5t-62 -6.5q-25 -4 -53.5 -8t-59.5 -9q18 -6 32.5 -14t19.5 -15q6 -190 -11.5 -311.5t-54 -192t-90.5 -97.5t-122 -27q-93 0 -167.5 32.5t-115.5 83.5q-50 -1 -105 -4.5t-119.5 -11t-141.5 -18.5t-171 -26
q-14 -2 -29 10.5t-25.5 29t-13.5 32t7 19.5q13 5 25 12t22.5 12.5t20 8t17.5 -0.5q11 -4 14.5 -8t6.5 -3q32 6 61 12.5t57 11.5q-17 5 -28 11.5t-12 14.5z" />
    <glyph glyph-name="ij" unicode="&#x133;" horiz-adv-x="549" 
d="M369 403q2 19 5.5 35.5t9.5 29t16 19.5t26 7q49 0 86.5 -14.5t56.5 -37.5q-16 -86 -27 -170t-22.5 -159.5t-27 -139.5t-41.5 -110.5t-65.5 -73t-98.5 -26.5q-15 0 -33.5 1t-36 3.5t-33.5 5.5t-26 7q-29 10 -39.5 28.5t-8.5 37t15.5 33.5t32.5 18q25 -11 56 -22t57 -17
q13 14 24.5 55t22.5 99q-30 -23 -70 -38t-84 -15q-72 0 -114.5 35t-42.5 109q0 21 5 53t13 68t18.5 74t21.5 73t21 64t18 47q3 8 11 10.5t16 2.5q11 0 37 -5t51 -14.5t41.5 -24t10.5 -32.5q-9 -29 -21 -71.5t-24 -87.5t-21 -86.5t-10 -66.5q-2 -24 5 -36t16 -12
q19 0 33.5 15.5t25 36.5t16.5 42.5t8 34.5q6 0 14 -1q6 -1 14.5 -2.5t16.5 -4.5q7 56 13.5 112.5t11.5 110.5zM205 543q-11 0 -24.5 4.5t-25 13.5t-19.5 23t-8 34q0 13 5 35.5t18 44.5t35 38t56 16t52.5 -8.5t8.5 -36.5q20 -8 37 -19.5t17 -35.5q0 -14 -7.5 -33t-25.5 -36
t-47 -28.5t-72 -11.5zM471 561q-11 0 -24.5 4t-25.5 13t-20 22.5t-8 32.5q0 12 4.5 33.5t17.5 42.5t35 36.5t56 15.5q36 0 62.5 -13t28.5 -42q10 -3 16 -5.5t8 -6.5t2.5 -10.5t0.5 -18.5q0 -14 -7 -31.5t-25 -34t-47.5 -27.5t-73.5 -11z" />
    <glyph glyph-name="Jcircumflex" unicode="&#x134;" horiz-adv-x="618" 
d="M-15 139q0 35 7 61.5t24 48.5q15 14 36.5 18t43 -1t41 -18t31.5 -34q3 -5 6.5 -12t6.5 -14t4.5 -12.5t-0.5 -8.5t-6.5 -3.5t-10 -0.5t-10.5 -1t-8 -5q-5 -8 -6.5 -25t0.5 -34q5 -34 23.5 -57t44.5 -23q33 0 66.5 22.5t60.5 82.5t43 164.5t13 268.5q-51 -9 -97.5 -17.5
t-81.5 -15.5q-12 -3 -27.5 12.5t-29 36t-22.5 40.5t-9 27q0 8 10 12.5t20 6.5q36 8 89 16t113 15t120 13t110 9t83.5 3t40.5 -5q2 -2 10 -12.5t18 -23.5t19 -25.5t14 -16.5l-16 -25q-22 -3 -53 -4.5t-62 -6.5q-25 -4 -53.5 -8t-59.5 -9q18 -6 32.5 -14t19.5 -15
q6 -190 -11.5 -311.5t-54 -192t-90.5 -97.5t-122 -27q-66 0 -124.5 17.5t-102 47t-68.5 69t-25 84.5zM315 788q-28 16 -1 36q12 9 29 22.5t36 28t39 29.5t37 27l64 -9q12 -16 28.5 -38.5t32 -44t27 -38t14.5 -20.5q8 -10 4 -19t-15 -11q-20 -5 -39 -4t-27 11q-12 14 -28 38
t-27 37q-17 -14 -39 -31.5t-40 -31.5q-11 -7 -22.5 -12t-23.5 2z" />
    <glyph glyph-name="jcircumflex" unicode="&#x135;" horiz-adv-x="264" 
d="M84 403q2 19 5.5 35.5t9.5 29t16 19.5t26 7q49 0 86.5 -14.5t56.5 -37.5q-16 -86 -27 -170t-22.5 -159.5t-27 -139.5t-41.5 -110.5t-65.5 -73t-98.5 -26.5q-15 0 -33.5 1t-36 3.5t-33.5 5.5t-26 7q-29 10 -39.5 28.5t-8.5 37t15.5 33.5t32.5 18q25 -11 56 -22t57 -17
q10 11 20 41t19 72.5t17.5 94.5t16 109t14 115.5t11.5 112.5zM59 611q-28 16 -1 36q12 9 29 22.5t36 28t39 29.5t37 27l64 -9q12 -16 28.5 -38.5t32 -44t27 -38t14.5 -20.5q8 -10 4 -19t-15 -11q-20 -5 -39 -4t-27 11q-12 14 -28 38t-27 37q-17 -14 -39 -31.5t-40 -31.5
q-11 -7 -22.5 -12t-23.5 2z" />
    <glyph glyph-name="uni0136" unicode="&#x136;" horiz-adv-x="625" 
d="M5 -4q6 49 15.5 108t21 122t25 127t28 123t29.5 110.5t30 88.5q10 24 21.5 35.5t40.5 12.5q22 0 42.5 -3.5t37.5 -9.5t29.5 -12.5t19.5 -11.5q-13 -41 -29.5 -94t-34.5 -118q42 30 94 63.5t105.5 62t103 47.5t87.5 19q21 0 36 -7t24 -17.5t12.5 -23t1.5 -24.5
q-36 -18 -93.5 -48.5t-119 -65t-117 -68.5t-88.5 -61q25 -29 64 -64.5t80.5 -72t80.5 -72t64 -63.5q15 -14 20.5 -23.5t5.5 -17t-4.5 -13t-10.5 -11.5q-4 -4 -16.5 -14.5t-27 -22t-28 -21.5t-17.5 -12q-7 -3 -20.5 -3t-28.5 13q-39 33 -76 68.5t-71.5 70t-66 66.5t-58.5 58
q-5 -26 -10 -53l-10 -54q7 -1 12 -4t7.5 -8t-0.5 -13q-3 -7 -10 -27t-15 -42q-9 -26 -19 -57q-6 -10 -31 -7t-54 11.5t-53.5 18.5t-28.5 14zM180 -154q0 29 27 48.5t72 19.5q38 0 67 -20.5t29 -61.5q0 -20 -8.5 -39.5t-23 -35.5t-34.5 -28t-43 -18q-27 -7 -51.5 -5.5
t-42 9.5t-24.5 22t2 33q25 -1 51.5 4.5t34.5 18.5q-9 1 -19 4t-18 9t-13.5 16t-5.5 24z" />
    <glyph glyph-name="uni0137" unicode="&#x137;" horiz-adv-x="506" 
d="M19 8q-2 20 -0.5 52t6.5 97q5 58 16 131.5t25 150.5t30.5 151t31.5 133q5 17 13.5 22t13.5 5q11 0 28 -3t35 -7.5t34 -9.5t26 -9q18 -7 18.5 -14t-3.5 -19q-11 -41 -22.5 -89t-22 -93t-19 -82.5t-14.5 -59.5q25 22 55 49.5t63 51.5t68 40.5t70 16.5q30 0 48 -9.5
t27 -22.5t10 -26t-2 -20q-70 -32 -132.5 -69.5t-128.5 -95.5q21 -24 51.5 -57.5t63 -70.5t64 -74.5t54.5 -67.5q20 -22 22 -33.5t-10 -21.5q-4 -3 -17 -10.5t-29.5 -15.5t-32 -15t-24.5 -11q-8 -4 -21.5 -4.5t-27.5 14.5q-26 31 -54 67.5t-54.5 72t-50 64.5t-40.5 45
q-3 -19 -4 -42.5t-1.5 -48.5t0 -48t0.5 -40q1 -19 -6.5 -26t-15.5 -6q-9 1 -25 5t-33 8t-31 7.5t-17 4.5q-22 5 -27.5 10.5t-7.5 22.5zM124 -154q0 29 27 48.5t72 19.5q38 0 67 -20.5t29 -61.5q0 -20 -8.5 -39.5t-23 -35.5t-34.5 -28t-43 -18q-27 -7 -51.5 -5.5t-42 9.5
t-24.5 22t2 33q25 -1 51.5 4.5t34.5 18.5q-9 1 -19 4t-18 9t-13.5 16t-5.5 24z" />
    <glyph glyph-name="kgreenlandic" unicode="&#x138;" horiz-adv-x="506" 
d="M19 8q-2 20 0 52t6 97q3 44 8 91.5t12 94.5t15 92.5t16 86.5q4 17 13 22t15 5q11 0 27.5 -3.5t34.5 -8t34 -9.5t26 -9q18 -7 18 -14t-2 -19q-9 -43 -14 -83t-13 -69q22 24 56.5 56t74 61.5t80 50t75.5 20.5q30 0 48 -9.5t27 -22.5t10 -26t-2 -20q-35 -16 -72.5 -37.5
t-75 -47t-74 -53.5t-69.5 -57q20 -19 50 -48.5t62.5 -62.5t64.5 -67t56 -62q20 -22 22 -33.5t-10 -21.5q-4 -3 -17 -10.5t-29.5 -15.5t-32 -15t-24.5 -11q-8 -4 -21.5 -4t-27.5 14q-27 29 -55 61t-54.5 62t-49.5 55t-40 41q-5 -38 -5.5 -76t0.5 -73q1 -19 -6.5 -26t-15.5 -6
q-9 1 -25 5t-33 8t-31 7.5t-17 4.5q-22 5 -27.5 10.5t-7.5 22.5z" />
    <glyph glyph-name="Lacute" unicode="&#x139;" horiz-adv-x="482" 
d="M63 56q8 47 19.5 106t24.5 122t27.5 126.5t29 120.5t29 104t27.5 77q13 6 39 2.5t54 -11t52 -16.5t33 -15q-17 -46 -38 -114.5t-42 -147t-40.5 -161t-32.5 -155.5q93 17 161 24t118 5q5 0 15 -9t20.5 -22.5t20.5 -29t15.5 -29t4 -22.5t-12.5 -9q-38 -1 -77.5 -2.5
t-83.5 -5.5t-93.5 -9.5t-106.5 -13.5q-2 -14 -3 -26.5t-1 -23.5q-1 -9 -19.5 -8.5t-43.5 6t-51.5 13.5t-42.5 15l-9 -2q-15 -2 -32.5 11t-30.5 30t-18 32.5t5 17.5zM371 758q-8 -6 -25 -2t-33.5 12t-28 18t-6.5 16q13 17 27.5 35.5t28.5 35.5t29 30.5t30 21.5q17 9 42 4
t45.5 -16t32 -24t1.5 -20q-48 -38 -85 -66t-58 -45z" />
    <glyph glyph-name="lacute" unicode="&#x13a;" horiz-adv-x="245" 
d="M24 0q-3 5 -3.5 15.5t0.5 23t2.5 26t2.5 25.5q3 39 10.5 90t17.5 109t22 119.5t25.5 120.5t27 113t27.5 97q2 6 9.5 7.5t13.5 1.5q14 0 38 -6.5t47 -15.5t39 -18.5t14 -16.5q-42 -159 -74.5 -325.5t-47.5 -331.5q-2 -20 -4 -40.5t-4 -40.5q-6 -6 -31 -2t-53.5 13
t-52 19.5t-26.5 16.5zM295 767q-8 -6 -25 -2t-33.5 12t-28 18t-6.5 16q13 17 27.5 35.5t28.5 35.5t29 30.5t30 21.5q17 9 42 4t45.5 -16t32 -24t1.5 -20q-48 -38 -85 -66t-58 -45z" />
    <glyph glyph-name="uni013B" unicode="&#x13b;" horiz-adv-x="482" 
d="M63 56q8 47 19.5 106t24.5 122t27.5 126.5t29 120.5t29 104t27.5 77q13 6 39 2.5t54 -11t52 -16.5t33 -15q-17 -46 -38 -114.5t-42 -147t-40.5 -161t-32.5 -155.5q93 17 161 24t118 5q5 0 15 -9t20.5 -22.5t20.5 -29t15.5 -29t4 -22.5t-12.5 -9q-38 -1 -77.5 -2.5
t-83.5 -5.5t-93.5 -9.5t-106.5 -13.5q-2 -14 -3 -26.5t-1 -23.5q-1 -9 -19.5 -8.5t-43.5 6t-51.5 13.5t-42.5 15l-9 -2q-15 -2 -32.5 11t-30.5 30t-18 32.5t5 17.5zM237 -154q0 29 27 48.5t72 19.5q38 0 67 -20.5t29 -61.5q0 -20 -8.5 -39.5t-23 -35.5t-34.5 -28t-43 -18
q-27 -7 -51.5 -5.5t-42 9.5t-24.5 22t2 33q25 -1 51.5 4.5t34.5 18.5q-9 1 -19 4t-18 9t-13.5 16t-5.5 24z" />
    <glyph glyph-name="uni013C" unicode="&#x13c;" horiz-adv-x="245" 
d="M24 0q-3 5 -3.5 15.5t0.5 23t2.5 26t2.5 25.5q3 39 10.5 90t17.5 109t22 119.5t25.5 120.5t27 113t27.5 97q2 6 9.5 7.5t13.5 1.5q14 0 38 -6.5t47 -15.5t39 -18.5t14 -16.5q-42 -159 -74.5 -325.5t-47.5 -331.5q-2 -20 -4 -40.5t-4 -40.5q-6 -6 -31 -2t-53.5 13
t-52 19.5t-26.5 16.5zM-8 -154q0 29 27 48.5t72 19.5q38 0 67 -20.5t29 -61.5q0 -20 -8.5 -39.5t-23 -35.5t-34.5 -28t-43 -18q-27 -7 -51.5 -5.5t-42 9.5t-24.5 22t2 33q25 -1 51.5 4.5t34.5 18.5q-9 1 -19 4t-18 9t-13.5 16t-5.5 24z" />
    <glyph glyph-name="Lcaron" unicode="&#x13d;" horiz-adv-x="482" 
d="M63 56q8 47 19.5 106t24.5 122t27.5 126.5t29 120.5t29 104t27.5 77q13 6 39 2.5t54 -11t52 -16.5t33 -15q-17 -46 -38 -114.5t-42 -147t-40.5 -161t-32.5 -155.5q93 17 161 24t118 5q5 0 15 -9t20.5 -22.5t20.5 -29t15.5 -29t4 -22.5t-12.5 -9q-38 -1 -77.5 -2.5
t-83.5 -5.5t-93.5 -9.5t-106.5 -13.5q-2 -14 -3 -26.5t-1 -23.5q-1 -9 -19.5 -8.5t-43.5 6t-51.5 13.5t-42.5 15l-9 -2q-15 -2 -32.5 11t-30.5 30t-18 32.5t5 17.5zM448 660q0 29 27 49t72 20q38 0 67 -21t29 -61q0 -21 -8.5 -40.5t-23 -35.5t-34.5 -28t-43 -18
q-27 -7 -51.5 -5.5t-42 9.5t-24.5 22t2 33q25 -1 51.5 4.5t34.5 18.5q-9 1 -19 4.5t-18 9.5t-13.5 15.5t-5.5 23.5z" />
    <glyph glyph-name="lcaron" unicode="&#x13e;" horiz-adv-x="338" 
d="M24 0q-3 5 -3.5 15.5t0.5 23t2.5 26t2.5 25.5q3 39 10.5 90t17.5 109t22 119.5t25.5 120.5t27 113t27.5 97q2 6 9.5 7.5t13.5 1.5q14 0 38 -6.5t47 -15.5t39 -18.5t14 -16.5q-42 -159 -74.5 -325.5t-47.5 -331.5q-2 -20 -4 -40.5t-4 -40.5q-6 -6 -31 -2t-53.5 13
t-52 19.5t-26.5 16.5zM347 645q0 29 27 48.5t72 19.5q38 0 67 -20.5t29 -61.5q0 -20 -8.5 -39.5t-23 -35.5t-34.5 -28t-43 -18q-27 -7 -51.5 -5.5t-42 9.5t-24.5 22t2 33q25 -1 51.5 4.5t34.5 18.5q-9 1 -19 4t-18 9t-13.5 16t-5.5 24z" />
    <glyph glyph-name="Ldot" unicode="&#x13f;" horiz-adv-x="557" 
d="M63 56q8 47 19.5 106t24.5 122t27.5 126.5t29 120.5t29 104t27.5 77q13 6 39 2.5t54 -11t52 -16.5t33 -15q-17 -46 -38 -114.5t-42 -147t-40.5 -161t-32.5 -155.5q93 17 161 24t118 5q5 0 15 -9t20.5 -22.5t20.5 -29t15.5 -29t4 -22.5t-12.5 -9q-38 -1 -77.5 -2.5
t-83.5 -5.5t-93.5 -9.5t-106.5 -13.5q-2 -14 -3 -26.5t-1 -23.5q-1 -9 -19.5 -8.5t-43.5 6t-51.5 13.5t-42.5 15l-9 -2q-15 -2 -32.5 11t-30.5 30t-18 32.5t5 17.5zM431 287q-20 7 -35.5 20t-15.5 39q0 15 7.5 35t24 38t44 30.5t66.5 12.5q10 0 22 -4.5t22.5 -14t17.5 -24.5
t7 -36q0 -14 -4.5 -38.5t-16 -48t-32 -41t-51.5 -17.5q-32 0 -48 10t-8 39z" />
    <glyph glyph-name="ldot" unicode="&#x140;" horiz-adv-x="490" 
d="M24 0q-3 5 -3.5 15.5t0.5 23t2.5 26t2.5 25.5q3 39 10.5 90t17.5 109t22 119.5t25.5 120.5t27 113t27.5 97q2 6 9.5 7.5t13.5 1.5q14 0 38 -6.5t47 -15.5t39 -18.5t14 -16.5q-42 -159 -74.5 -325.5t-47.5 -331.5q-2 -20 -4 -40.5t-4 -40.5q-6 -6 -31 -2t-53.5 13
t-52 19.5t-26.5 16.5zM345 272q-20 7 -35.5 20t-15.5 39q0 15 7.5 35t24 38t44 30.5t66.5 12.5q10 0 22 -4.5t22.5 -14t17.5 -24.5t7 -36q0 -14 -4.5 -38.5t-16 -48t-32 -41t-51.5 -17.5q-32 0 -48 10t-8 39z" />
    <glyph glyph-name="Lslash" unicode="&#x141;" horiz-adv-x="482" 
d="M35 157q-13 -8 -28 -1t-25.5 19t-14.5 25.5t5 19.5q23 16 59.5 37.5t79.5 45.5q13 61 27 121.5t28 115t28 99t26 73.5q13 6 39 2.5t54 -11t52 -16.5t33 -15q-17 -46 -38 -114.5t-42 -146.5q32 16 57 26.5t38 15.5q7 2 20.5 -8.5t24 -25t13 -29t-13.5 -20.5
q-37 -15 -80.5 -35t-88.5 -43q-13 -51 -24 -101t-19 -97q93 17 161 24t118 5q5 0 15 -9t20.5 -22.5t20.5 -29t15.5 -29t4 -22.5t-12.5 -9q-38 -1 -77.5 -2.5t-83.5 -5.5t-93.5 -9.5t-106.5 -13.5q-2 -14 -3 -26.5t-1 -23.5q-1 -9 -19.5 -8.5t-43.5 6t-51.5 13.5t-42.5 15
l-9 -2q-15 -2 -32.5 11t-30.5 30t-18 32.5t5 17.5l83 20l24 130z" />
    <glyph glyph-name="lslash" unicode="&#x142;" horiz-adv-x="245" 
d="M26 208q-13 -8 -27.5 -1t-25 19t-14.5 25.5t4 19.5q20 14 45 29.5t53 32.5q10 54 21.5 109.5t23.5 108.5t25 101t25 87q2 6 9.5 7.5t13.5 1.5q14 0 38 -6.5t47 -15.5t39 -18.5t14 -16.5q-17 -62 -31.5 -125t-28.5 -127q19 9 34.5 15.5t26.5 10.5q7 2 20.5 -8.5t24 -25
t12.5 -29.5t-14 -21q-33 -14 -64.5 -28t-61.5 -30q-14 -73 -24 -145t-16 -144q-2 -20 -4 -40.5t-4 -40.5q-6 -6 -31 -2t-53.5 13t-52 19.5t-26.5 16.5q-3 5 -3.5 15.5t0.5 23t2.5 26t2.5 25.5q2 26 6 58t10 69z" />
    <glyph glyph-name="Nacute" unicode="&#x143;" horiz-adv-x="651" 
d="M431 266q16 57 32.5 116t33 113.5t32 103t29.5 84t26 56.5t22 21q30 0 58 -3t49.5 -8t35.5 -11.5t17 -13.5q-48 -102 -85 -204.5t-65 -198.5t-46.5 -184t-30.5 -161q-2 -7 -15 -8t-22 -1q-15 0 -36 3.5t-42 10.5t-37.5 15.5t-22.5 19.5q-15 46 -30 108.5t-28 125t-24 118
t-19 88.5l-10 5q-11 -29 -22 -70t-21 -91t-17.5 -105.5t-10.5 -112.5q-1 -11 4.5 -10.5t16.5 -6.5q8 -4 3 -26t-14.5 -47.5t-19.5 -48t-11 -28.5q-2 -7 -14.5 -7t-30.5 4t-38.5 11.5t-39 15t-32 14t-16.5 8.5q7 64 19 139t28 151.5t35 150.5t39.5 138t43 112.5t45.5 74.5
q15 -2 35.5 -6.5t41.5 -10.5t39 -14t27 -15q4 -44 13 -104.5t19.5 -120.5t22 -112t21.5 -78h12zM476 760q-8 -6 -25 -2t-33.5 12t-28 18t-6.5 16q13 17 27.5 35.5t28.5 35.5t29 30.5t30 21.5q17 9 42 4t45.5 -16t32 -24t1.5 -20q-48 -38 -85 -66t-58 -45z" />
    <glyph glyph-name="nacute" unicode="&#x144;" horiz-adv-x="497" 
d="M282 268q-16 -29 -32.5 -67.5t-30.5 -79t-23.5 -79.5t-10.5 -69q-9 -5 -21 -9q-11 -4 -26 -6.5t-34 -2.5q-27 0 -44 10t-27 27t-14 41t-4 53q0 80 9 157.5t25 139t37.5 99t47.5 37.5q13 0 30 -3.5t31 -9.5t22.5 -13.5t6.5 -15.5q-17 -63 -31.5 -124t-19.5 -125h4
q31 72 63 147t74 145q3 6 12 13t29 7q16 0 40.5 -5.5t47 -15t38 -21t14.5 -23.5q-6 -39 -19 -85.5t-26.5 -95t-24 -95t-10.5 -85.5q0 -66 37 -66q11 0 22 12.5t20 29t15.5 33t9.5 25.5q20 1 37 -4q14 -5 25.5 -16.5t11.5 -34.5q0 -16 -12 -40t-35 -46t-55.5 -37.5
t-73.5 -15.5q-47 0 -77.5 13t-48.5 34t-25 47.5t-5 52.5q1 14 4.5 36t8 45.5t10 46t9.5 39.5h-11zM309 580q-8 -6 -25 -2t-33.5 12t-28 18t-6.5 16q13 17 27.5 35.5t28.5 35.5t29 30.5t30 21.5q17 9 42 4t45.5 -16t32 -24t1.5 -20q-48 -38 -85 -66t-58 -45z" />
    <glyph glyph-name="uni0145" unicode="&#x145;" horiz-adv-x="651" 
d="M431 266q16 57 32.5 116t33 113.5t32 103t29.5 84t26 56.5t22 21q30 0 58 -3t49.5 -8t35.5 -11.5t17 -13.5q-48 -102 -85 -204.5t-65 -198.5t-46.5 -184t-30.5 -161q-2 -7 -15 -8t-22 -1q-15 0 -36 3.5t-42 10.5t-37.5 15.5t-22.5 19.5q-15 46 -30 108.5t-28 125t-24 118
t-19 88.5l-10 5q-11 -29 -22 -70t-21 -91t-17.5 -105.5t-10.5 -112.5q-1 -11 4.5 -10.5t16.5 -6.5q8 -4 3 -26t-14.5 -47.5t-19.5 -48t-11 -28.5q-2 -7 -14.5 -7t-30.5 4t-38.5 11.5t-39 15t-32 14t-16.5 8.5q7 64 19 139t28 151.5t35 150.5t39.5 138t43 112.5t45.5 74.5
q15 -2 35.5 -6.5t41.5 -10.5t39 -14t27 -15q4 -44 13 -104.5t19.5 -120.5t22 -112t21.5 -78h12zM178 -154q0 29 27 48.5t72 19.5q38 0 67 -20.5t29 -61.5q0 -20 -8.5 -39.5t-23 -35.5t-34.5 -28t-43 -18q-27 -7 -51.5 -5.5t-42 9.5t-24.5 22t2 33q25 -1 51.5 4.5t34.5 18.5
q-9 1 -19 4t-18 9t-13.5 16t-5.5 24z" />
    <glyph glyph-name="uni0146" unicode="&#x146;" horiz-adv-x="497" 
d="M282 268q-16 -29 -32.5 -67.5t-30.5 -79t-23.5 -79.5t-10.5 -69q-9 -5 -21 -9q-11 -4 -26 -6.5t-34 -2.5q-27 0 -44 10t-27 27t-14 41t-4 53q0 80 9 157.5t25 139t37.5 99t47.5 37.5q13 0 30 -3.5t31 -9.5t22.5 -13.5t6.5 -15.5q-17 -63 -31.5 -124t-19.5 -125h4
q31 72 63 147t74 145q3 6 12 13t29 7q16 0 40.5 -5.5t47 -15t38 -21t14.5 -23.5q-6 -39 -19 -85.5t-26.5 -95t-24 -95t-10.5 -85.5q0 -66 37 -66q11 0 22 12.5t20 29t15.5 33t9.5 25.5q20 1 37 -4q14 -5 25.5 -16.5t11.5 -34.5q0 -16 -12 -40t-35 -46t-55.5 -37.5
t-73.5 -15.5q-47 0 -77.5 13t-48.5 34t-25 47.5t-5 52.5q1 14 4.5 36t8 45.5t10 46t9.5 39.5h-11zM124 -154q0 29 27 48.5t72 19.5q38 0 67 -20.5t29 -61.5q0 -20 -8.5 -39.5t-23 -35.5t-34.5 -28t-43 -18q-27 -7 -51.5 -5.5t-42 9.5t-24.5 22t2 33q25 -1 51.5 4.5
t34.5 18.5q-9 1 -19 4t-18 9t-13.5 16t-5.5 24z" />
    <glyph glyph-name="Ncaron" unicode="&#x147;" horiz-adv-x="651" 
d="M431 266q16 57 32.5 116t33 113.5t32 103t29.5 84t26 56.5t22 21q30 0 58 -3t49.5 -8t35.5 -11.5t17 -13.5q-48 -102 -85 -204.5t-65 -198.5t-46.5 -184t-30.5 -161q-2 -7 -15 -8t-22 -1q-15 0 -36 3.5t-42 10.5t-37.5 15.5t-22.5 19.5q-15 46 -30 108.5t-28 125t-24 118
t-19 88.5l-10 5q-11 -29 -22 -70t-21 -91t-17.5 -105.5t-10.5 -112.5q-1 -11 4.5 -10.5t16.5 -6.5q8 -4 3 -26t-14.5 -47.5t-19.5 -48t-11 -28.5q-2 -7 -14.5 -7t-30.5 4t-38.5 11.5t-39 15t-32 14t-16.5 8.5q7 64 19 139t28 151.5t35 150.5t39.5 138t43 112.5t45.5 74.5
q15 -2 35.5 -6.5t41.5 -10.5t39 -14t27 -15q4 -44 13 -104.5t19.5 -120.5t22 -112t21.5 -78h12zM619 893q14 -6 14.5 -16t-13.5 -20q-12 -9 -29 -22.5t-36 -28t-39 -29.5t-37 -27l-64 9q-12 16 -29 39t-33 44.5t-28 38.5t-15 21q-8 10 -4 19.5t14 11.5q21 5 40 3.5t27 -10.5
q6 -7 13.5 -17.5t15.5 -22t15.5 -22t12.5 -16.5q17 14 39.5 31t40.5 31q10 8 22 12.5t24 -2.5z" />
    <glyph glyph-name="ncaron" unicode="&#x148;" horiz-adv-x="497" 
d="M282 268q-16 -29 -32.5 -67.5t-30.5 -79t-23.5 -79.5t-10.5 -69q-9 -5 -21 -9q-11 -4 -26 -6.5t-34 -2.5q-27 0 -44 10t-27 27t-14 41t-4 53q0 80 9 157.5t25 139t37.5 99t47.5 37.5q13 0 30 -3.5t31 -9.5t22.5 -13.5t6.5 -15.5q-17 -63 -31.5 -124t-19.5 -125h4
q31 72 63 147t74 145q3 6 12 13t29 7q16 0 40.5 -5.5t47 -15t38 -21t14.5 -23.5q-6 -39 -19 -85.5t-26.5 -95t-24 -95t-10.5 -85.5q0 -66 37 -66q11 0 22 12.5t20 29t15.5 33t9.5 25.5q20 1 37 -4q14 -5 25.5 -16.5t11.5 -34.5q0 -16 -12 -40t-35 -46t-55.5 -37.5
t-73.5 -15.5q-47 0 -77.5 13t-48.5 34t-25 47.5t-5 52.5q1 14 4.5 36t8 45.5t10 46t9.5 39.5h-11zM469 718q14 -6 14.5 -16t-13.5 -20q-12 -9 -29 -22.5t-36 -28t-39 -29.5t-37 -27l-64 9q-12 16 -29 39t-33 44.5t-28 38.5t-15 21q-8 10 -4 19.5t14 11.5q21 5 40 3.5
t27 -10.5q6 -7 13.5 -17.5t15.5 -22t15.5 -22t12.5 -16.5q17 14 39.5 31t40.5 31q10 8 22 12.5t24 -2.5z" />
    <glyph glyph-name="napostrophe" unicode="&#x149;" horiz-adv-x="604" 
d="M389 268q-16 -29 -32.5 -67.5t-30.5 -79t-23.5 -79.5t-10.5 -69q-9 -5 -21 -9q-11 -4 -26 -6.5t-34 -2.5q-27 0 -44 10t-27 27t-14 41t-4 53q0 80 9 157.5t25 139t37.5 99t47.5 37.5q13 0 30 -3.5t31 -9.5t22.5 -13.5t6.5 -15.5q-17 -63 -31.5 -124t-19.5 -125h4
q31 72 63 147t74 145q3 6 12 13t29 7q16 0 40.5 -5.5t47 -15t38 -21t14.5 -23.5q-6 -39 -19 -85.5t-26.5 -95t-24 -95t-10.5 -85.5q0 -66 37 -66q11 0 22 12.5t20 29t15.5 33t9.5 25.5q20 1 37 -4q14 -5 25.5 -16.5t11.5 -34.5q0 -16 -12 -40t-35 -46t-55.5 -37.5
t-73.5 -15.5q-47 0 -77.5 13t-48.5 34t-25 47.5t-5 52.5q1 14 4.5 36t8 45.5t10 46t9.5 39.5h-11zM117 680q0 29 24.5 49t66.5 20q35 0 61.5 -20.5t26.5 -62.5q0 -21 -7.5 -40.5t-21 -36t-32 -28.5t-39.5 -18q-24 -7 -47 -6t-38.5 9.5t-22 22.5t1.5 34q23 -1 47 4.5t32 18.5
q-17 2 -34.5 13.5t-17.5 40.5z" />
    <glyph glyph-name="Eng" unicode="&#x14a;" horiz-adv-x="651" 
d="M431 266q16 57 32.5 116t33 113.5t32 103t29.5 84t26 56.5t22 21q30 0 58 -3t49.5 -8t35.5 -11.5t17 -13.5q-63 -139 -102 -270.5t-72 -249.5q-25 -84 -44 -149.5t-37 -115.5t-38 -84t-47 -55t-64 -29t-89 -6q-17 1 -40.5 5t-40.5 10q-29 10 -39.5 28.5t-8.5 37
t15.5 33.5t32.5 18q25 -11 49.5 -22t50.5 -17q21 24 37.5 61.5t33.5 100.5q-18 53 -32 111.5t-25.5 116.5t-22 111.5t-20.5 96.5l-10 5q-21 -57 -39.5 -139.5t-24.5 -197.5q-1 -11 4 -10.5t17 -6.5q8 -4 3.5 -24t-13.5 -44t-18.5 -45.5t-10.5 -27.5q-2 -7 -14.5 -7t-30.5 4
t-38.5 11.5t-39 15.5t-32 14.5t-16.5 8.5q7 64 18.5 135t26 141.5t32 138t37.5 125.5t41.5 103t44.5 71q15 -2 35.5 -6.5t41.5 -10.5t39 -14t27 -15q4 -44 13 -104.5t19.5 -120.5t22 -112t21.5 -78h12z" />
    <glyph glyph-name="eng" unicode="&#x14b;" horiz-adv-x="483" 
d="M495 475q-3 -22 -9.5 -47t-11.5 -51q-18 -83 -29.5 -160.5t-23 -146t-26.5 -125t-39 -97t-61 -63t-93 -22.5q-31 0 -59.5 3.5t-49.5 11.5q-29 10 -39.5 28.5t-8.5 37t15.5 33.5t32.5 18q25 -11 46 -21t47 -16q15 17 31.5 52.5t31.5 87.5t28 119.5t22 147.5h-18
q-16 -29 -33 -64.5t-31 -72t-24 -72.5t-11 -66q-9 -5 -21 -9q-11 -4 -25.5 -6.5t-33.5 -2.5q-27 0 -43.5 9t-26.5 26t-13.5 40t-3.5 52q0 80 9 155.5t25 134.5t37.5 94.5t47.5 35.5q13 0 30 -3.5t31 -9.5t22.5 -13.5t6.5 -15.5q-17 -63 -31.5 -124t-19.5 -125h4
q31 72 63 147t74 145q3 6 12 13t29 7q16 0 40.5 -5.5t47 -15t38 -21t14.5 -23.5z" />
    <glyph glyph-name="Omacron" unicode="&#x14c;" horiz-adv-x="647" 
d="M15 271q0 79 24.5 153.5t63.5 134t88.5 99t100.5 49.5q20 -4 27 -10t16 -14q11 4 25 8q11 3 26.5 6t32.5 3q75 0 124 -20t77.5 -54t39.5 -79t11 -94q0 -33 -6.5 -83.5t-22 -106.5t-42 -112.5t-66.5 -101.5t-95.5 -73t-128.5 -28q-80 0 -136 29.5t-91.5 76.5t-51.5 104
t-16 113zM211 239q-2 -37 1 -69.5t11.5 -56.5t23 -37.5t34.5 -13.5q31 0 56.5 27t45.5 69t34.5 93.5t24 99.5t15 87.5t6.5 57.5q1 20 -0.5 39t-6.5 34t-14.5 24.5t-23.5 9.5q-25 0 -43 -17t-31 -42.5t-22 -55t-15 -53.5q-2 -6 -5 -9t-9 0q-5 1 -17 7t-17 11l-6 -14.5
t-14.5 -41t-16.5 -64.5t-11 -85zM264 838q29 6 66.5 10t76 5.5t73.5 1.5t59 -1q7 0 20.5 -15.5t22.5 -33.5t9.5 -33t-16.5 -15q-74 2 -133.5 2t-115.5 -6q-15 -2 -30.5 10.5t-26 28t-13.5 30t8 16.5z" />
    <glyph glyph-name="omacron" unicode="&#x14d;" horiz-adv-x="490" 
d="M6 210q3 49 21.5 102.5t47.5 99.5t65 78t74 39q15 -5 25.5 -11.5t14.5 -14.5q6 3 15 6q8 2 17.5 4.5t22.5 2.5q63 0 100.5 -17t58 -45.5t26 -65.5t4.5 -76q-2 -28 -8.5 -65t-19.5 -76.5t-33.5 -77.5t-50 -68t-68.5 -48.5t-90 -18.5q-62 0 -105.5 23.5t-70 60.5
t-37.5 81.5t-9 86.5zM169 180q-5 -51 5.5 -86.5t38.5 -35.5q20 0 37 17.5t31 45t24.5 61t18 65.5t12 58t5.5 39q1 10 2 25t-0.5 29t-7 24t-18.5 10q-19 0 -37.5 -24.5t-34 -58t-26.5 -67.5t-15 -53q-1 -2 -11.5 1t-13.5 7q-2 -8 -4 -17q-2 -8 -3.5 -18t-2.5 -22zM168 672
q29 6 66.5 10t76 5.5t73.5 1.5t59 -1q7 0 20.5 -15.5t22.5 -33.5t9.5 -33t-16.5 -15q-74 2 -133.5 2t-115.5 -6q-15 -2 -30.5 10.5t-26 28t-13.5 30t8 16.5z" />
    </font>
</defs>
</svg>
